<?xml version="1.0" encoding="UTF-8"?>
<svg width="195px" height="154px" viewBox="0 0 195 154" version="1.1" xmlns="http://www.w3.org/2000/svg" xmlns:xlink="http://www.w3.org/1999/xlink">
    <!-- Generator: Sketch 60 (88103) - https://sketch.com -->
    <title>script</title>
    <desc>Created with Sketch.</desc>
    <g id="Page-1" stroke="none" stroke-width="1" fill="none" fill-rule="evenodd">
        <g id="Product-landing" transform="translate(-1017.140625, -770.000000)">
            <g id="2-copy" transform="translate(930.000000, 693.000000)">
                <g id="script" transform="translate(87.000000, 77.000000)">
                    <path d="M136.306508,28 L75.9747422,28 C74.4094636,28 73.140625,29.3431046 73.140625,31 C73.140625,32.6568954 74.4094636,34 75.9747422,34 L136.30613,34 C137.871409,34 139.140625,32.6568954 139.140625,31 C139.140625,29.3427049 137.871786,28 136.306508,28 Z" id="Path" fill="#333333"></path>
                    <path d="M62.3483093,28 L52.9329407,28 C51.390749,28 50.140625,29.3431046 50.140625,31 C50.140625,32.6568954 51.390377,34 52.9329407,34 L62.3483093,34 C63.890501,34 65.140625,32.6568954 65.140625,31 C65.140625,29.3431046 63.890501,28 62.3483093,28 Z" id="Path" fill="#333333"></path>
                    <path d="M82.3315371,115 L52.9497129,115 C51.398258,115 50.140625,116.343105 50.140625,118 C50.140625,119.657295 51.398258,121 52.9497129,121 L82.3315371,121 C83.882992,121 85.140625,119.656895 85.140625,118 C85.140625,116.342705 83.882992,115 82.3315371,115 Z" id="Path" fill="#333333"></path>
                    <path d="M94.3188804,87 L52.9623696,87 C51.4039244,87 50.140625,88.3431046 50.140625,90 C50.140625,91.6572951 51.4039244,93 52.9623696,93 L94.3188804,93 C95.8769497,93 97.140625,91.6568954 97.140625,90 C97.140625,88.3427049 95.8773256,87 94.3188804,87 Z" id="Path" fill="#333333"></path>
                    <path d="M115.282362,58 L52.998888,58 C51.4202737,58 50.140625,59.3431046 50.140625,61 C50.140625,62.6568953 51.4202737,64 52.998888,64 L115.282362,64 C116.860976,64.0003996 118.140625,62.6572951 118.140625,61 C118.140625,59.3427048 116.860976,58 115.282362,58 Z" id="Path" fill="#333333"></path>
                    <path d="M170.108016,0 L51.7889039,0 C41.3085245,0 32.7823921,8.49969875 32.7823921,18.9471184 L32.7823921,131.241098 L3.00329837,131.241098 C2.23922325,131.241098 1.50642828,131.545691 0.96894358,132.086809 C0.431077415,132.628308 0.1327715,133.36146 0.140625,134.123132 C0.253696021,145.45505 8.42277682,154 19.1427165,154 L137.461829,154 L137.822314,154 C148.302693,154 156.828825,145.500301 156.828825,135.052882 L156.828825,100.470379 C156.828825,98.8941775 155.54672,97.616865 153.965546,97.616865 C152.384372,97.616865 151.102649,98.8945578 151.102649,100.470759 L151.102649,135.053262 C151.102649,142.353603 145.144923,148.292212 137.822314,148.292212 L137.461829,148.292212 C129.974045,148.292212 124.26656,142.176399 124.18569,134.066853 C124.17005,132.501679 122.892904,131.241098 121.322792,131.241098 L38.5097131,131.241098 L38.5097131,18.9467381 C38.5097131,11.6463974 44.4674392,5.70778804 51.7900483,5.70778804 L156.524416,5.70778804 C156.440494,5.79334782 156.361149,5.88309052 156.278752,5.97055163 C156.178808,6.07664576 156.07772,6.18159909 155.980065,6.28959455 C155.876688,6.40405452 155.777125,6.52155662 155.6768,6.63867845 C155.580289,6.75085683 155.483016,6.86189441 155.389175,6.97635439 C155.291901,7.09499728 155.198824,7.21668231 155.104221,7.3376068 C155.012669,7.45472863 154.920354,7.57070966 154.831473,7.69011309 C154.740684,7.81255864 154.65371,7.93766606 154.565591,8.0623932 C154.478999,8.18483876 154.391262,8.30652378 154.307339,8.43087066 C154.223036,8.5567386 154.142546,8.68526841 154.061294,8.81341795 C153.980042,8.94080695 153.897646,9.06705516 153.819445,9.1963455 C153.740863,9.32639637 153.666859,9.45910909 153.59171,9.59106129 C153.516562,9.72225295 153.439506,9.85268408 153.367409,9.98615734 C153.29493,10.1196306 153.227792,10.256146 153.158747,10.3919008 C153.089702,10.5272754 153.018749,10.6615092 152.953137,10.7984049 C152.887144,10.936061 152.826491,11.0763791 152.763549,11.2155563 C152.700989,11.3543533 152.636521,11.4920095 152.577394,11.6323275 C152.517504,11.7741666 152.463336,11.9186676 152.406879,12.0620278 C152.351185,12.2034866 152.293584,12.3438046 152.241323,12.4867845 C152.187536,12.6335671 152.139853,12.7830115 152.089881,12.9316954 C152.041817,13.0746753 151.991082,13.2161341 151.946069,13.3606351 C151.898767,13.5127414 151.85795,13.6675095 151.814463,13.8215171 C151.774028,13.9652575 151.730541,14.1078572 151.693157,14.2531187 C151.65234,14.4128303 151.618009,14.5748234 151.581006,14.7360561 C151.548582,14.8778952 151.512724,15.0189738 151.483733,15.1619537 C151.449401,15.3296508 151.422317,15.4992493 151.392563,15.6684676 C151.368149,15.8084054 151.33992,15.9468221 151.318558,16.0875204 C151.291093,16.2681466 151.271257,16.4510544 151.24875,16.6332016 C151.232729,16.7647736 151.212511,16.8948244 151.19916,17.0271569 C151.17856,17.2309793 151.165972,17.4370833 151.151858,17.6428071 C151.144229,17.755746 151.132022,17.8679243 151.1263,17.9812435 C151.110278,18.301047 151.101886,18.623132 151.101886,18.9471184 L151.101886,19.9050077 L151.101886,44.2773767 C151.101886,45.8539582 152.38361,47.1312707 153.964783,47.1312707 C155.545957,47.1312707 156.827681,45.853578 156.827681,44.2773767 L156.827681,22.7589017 L186.277952,22.7589017 C187.042027,22.7589017 187.774822,22.4543089 188.312306,21.9131908 C188.850173,21.3716924 189.148479,20.6385402 189.140625,19.876868 C189.027554,8.54495037 180.858473,0 170.108016,0 Z M118.659401,136.949267 C118.698692,137.244733 118.744468,137.537157 118.795203,137.82768 C118.811987,137.925028 118.832586,138.020475 118.850897,138.117443 C118.887136,138.309477 118.923375,138.501511 118.964573,138.690884 C118.988987,138.804583 119.016834,138.916381 119.042774,139.02894 C119.082446,139.199679 119.1225,139.370418 119.166368,139.538876 C119.196886,139.657139 119.230073,139.77426 119.262498,139.891382 C119.307129,140.051854 119.352142,140.211946 119.400207,140.370517 C119.436064,140.48954 119.47383,140.607803 119.511976,140.725685 C119.561567,140.880073 119.613064,141.0337 119.666088,141.186187 C119.706905,141.303689 119.748485,141.420811 119.79159,141.537172 C119.847284,141.688518 119.904885,141.838343 119.964013,141.987407 C120.009025,142.100726 120.053657,142.214045 120.100196,142.326224 C120.163137,142.477189 120.22875,142.626253 120.294743,142.775317 C120.342045,142.882172 120.388965,142.989407 120.438174,143.095121 C120.510652,143.25103 120.586945,143.404657 120.662857,143.557904 C120.710159,143.652971 120.755553,143.748797 120.804381,143.843103 C120.897458,144.022969 120.994732,144.199793 121.092769,144.376236 C121.128245,144.440501 121.162195,144.505906 121.198434,144.569411 C121.334618,144.808218 121.475378,145.043222 121.620717,145.274423 C121.654667,145.328421 121.690906,145.380137 121.725238,145.433755 C121.838533,145.610578 121.953354,145.786261 122.07199,145.958521 C122.126921,146.037997 122.184141,146.115191 122.239835,146.193906 C122.342068,146.337646 122.4443,146.481006 122.550348,146.621325 C122.614052,146.705743 122.679283,146.787881 122.744132,146.871159 C122.846365,147.002351 122.94936,147.133162 123.054645,147.260931 C123.124072,147.34497 123.194643,147.427868 123.265214,147.510766 C123.370498,147.634733 123.477309,147.757178 123.585645,147.878103 C123.658505,147.959479 123.732509,148.039716 123.806895,148.119571 C123.859918,148.176611 123.911035,148.235933 123.964821,148.292212 L19.142335,148.292212 L19.142335,148.292212 C12.5719756,148.292212 7.3722212,143.582621 6.1419954,136.949267 L118.659401,136.949267 Z M156.968823,17.0503531 C156.969968,17.0309596 156.971875,17.0108055 156.974545,16.9910317 C156.987515,16.9039508 157.003537,16.8176305 157.018414,16.7313102 C157.039013,16.6096252 157.059993,16.4879401 157.084026,16.3670157 C157.102336,16.2749914 157.122935,16.1837276 157.143153,16.0924638 C157.16833,15.9791446 157.193888,15.8662057 157.221735,15.7540274 C157.245386,15.6597215 157.270562,15.5657958 157.296121,15.4722505 C157.325493,15.3653958 157.355629,15.2585412 157.387291,15.1528273 C157.415901,15.0570003 157.446036,14.9619339 157.476935,14.8672478 C157.509741,14.7660971 157.544073,14.6657069 157.579549,14.5653168 C157.613881,14.4683491 157.648595,14.3713813 157.685215,14.2755543 C157.721073,14.1808682 157.758838,14.0873228 157.796985,13.9933972 C157.837038,13.8945281 157.877092,13.7960393 157.919816,13.698311 C157.957581,13.6112302 157.997635,13.5252901 158.037308,13.4393501 C158.084228,13.3378192 158.130767,13.2355277 158.179976,13.1355178 C158.216596,13.0609857 158.255887,12.9879747 158.294034,12.9142032 C158.350491,12.8046867 158.406185,12.6951701 158.465693,12.5875549 C158.488581,12.5457257 158.513758,12.5054176 158.537027,12.4639686 C158.801383,11.9973826 159.091678,11.547148 159.409057,11.117828 C159.412109,11.1136451 159.414779,11.1098425 159.417831,11.1056595 C159.520064,10.9680034 159.625729,10.833009 159.732921,10.6991555 C159.750087,10.6778606 159.76649,10.6561855 159.783656,10.6348906 C159.888559,10.5056003 159.996895,10.3789718 160.106376,10.2538644 C160.126594,10.2306682 160.146811,10.2070917 160.16741,10.1838955 C160.278798,10.0584078 160.392856,9.935582 160.509203,9.81427725 C160.528277,9.79450343 160.546968,9.77434935 160.566423,9.75457553 C160.686966,9.63060892 160.809798,9.50854363 160.934919,9.3891402 C160.949033,9.37583091 160.963147,9.36252161 160.977261,9.34883204 C161.109248,9.22410489 161.243524,9.10165934 161.380852,8.98225591 C161.385429,8.97807299 161.390388,8.97427033 161.394966,8.97008741 C163.148181,7.44788385 165.305749,6.3743938 167.686856,5.93252506 C167.688,5.9321448 167.689526,5.9321448 167.69067,5.93176453 C167.885599,5.89563929 168.082435,5.86369697 168.280416,5.83631784 C168.292241,5.83479678 168.304067,5.83327572 168.315892,5.83175465 C168.504717,5.80589659 168.694687,5.78384118 168.885801,5.76596869 C168.914793,5.76330683 168.944165,5.76178577 168.973538,5.75950417 C169.148631,5.74429355 169.324105,5.73136451 169.501105,5.72299867 C169.603338,5.71843548 169.706333,5.71767495 169.809329,5.71501309 C169.919954,5.71235123 170.030197,5.70740777 170.141585,5.70740777 C176.711945,5.70740777 181.911699,10.4169984 183.141925,17.0503531 L156.968823,17.0503531 L156.968823,17.0503531 Z" id="Shape" fill="#333333" fill-rule="nonzero"></path>
                    <path d="M195.1381,51.8795132 C195.137721,51.8463698 195.136964,51.8132264 195.135828,51.779702 C195.12447,51.5107449 195.076386,51.2516927 194.995742,51.006355 C194.991955,50.9941644 194.990441,50.9815927 194.986276,50.969783 C194.982869,50.959878 194.977189,50.950735 194.973782,50.9408301 C194.929106,50.8154946 194.877614,50.6935877 194.817036,50.5770142 C194.809464,50.5625377 194.800756,50.5492042 194.793184,50.5347277 C194.737149,50.4318688 194.675056,50.3332004 194.607285,50.2383416 C194.592897,50.2181507 194.579267,50.197198 194.564502,50.1773881 C194.489915,50.0783388 194.408892,49.9846228 194.322189,49.8962403 C194.303259,49.8768114 194.283192,49.8589063 194.263883,49.8402393 C194.182103,49.7609999 194.095779,49.6867128 194.004912,49.6177592 C193.992796,49.6086162 193.981438,49.5983303 193.968944,49.5891873 C193.866718,49.5145193 193.758435,49.4478515 193.646744,49.386898 C193.625163,49.3750883 193.603582,49.3644215 193.581623,49.3533736 C193.46766,49.2954679 193.351047,49.2425146 193.228755,49.2002281 C193.227998,49.1998471 193.227241,49.1994662 193.226484,49.1994662 C193.104949,49.1575607 192.978871,49.1259411 192.850521,49.1004168 C192.822125,49.0947024 192.793729,49.08975 192.764955,49.0851785 C192.636605,49.0638448 192.506362,49.0478445 192.372712,49.0444158 C168.596584,48.4253574 137.593495,54.1843156 121.919303,72.1884412 C115.059596,80.0678177 111.894392,90.0641836 108.833686,99.73102 C108.583045,100.522272 108.332782,101.313143 108.080247,102.102871 C108.069646,102.136015 108.059423,102.169539 108.049958,102.203444 L103.247633,119.36527 C102.822451,120.884915 103.702347,122.464372 105.212633,122.89257 C105.47009,122.965714 105.72944,123 105.984246,123 C107.224961,123 108.365342,122.175605 108.71821,120.91463 L113.172211,104.997398 C118.617042,102.429734 123.001378,101.228951 128.92364,99.6087322 C131.995704,98.7675745 135.477806,97.8151769 139.691388,96.511154 C148.800813,93.6920569 166.276066,81.8975641 174.31856,73.1404579 C181.352429,65.4808949 187.271283,59.7886045 194.10903,54.1073619 C194.116981,54.1008856 194.123039,54.0928854 194.13099,54.0860282 C194.230565,54.0010743 194.325218,53.910787 194.412299,53.8128805 C194.4176,53.8067852 194.423279,53.8014517 194.42858,53.7957374 C194.514525,53.6978309 194.592519,53.5926862 194.664834,53.48297 C194.678085,53.4627791 194.690958,53.4425883 194.703831,53.4220165 C194.840132,53.203727 194.947658,52.9663895 195.021866,52.7134326 C195.029059,52.6894322 195.035874,52.6658128 195.042311,52.6414314 C195.07525,52.5172387 195.10251,52.3907603 195.118791,52.2604723 C195.119548,52.2551389 195.119548,52.2501864 195.119927,52.244853 C195.130528,52.1564705 195.1381,52.0669451 195.140625,51.9762768 C195.140625,51.9435144 195.138479,51.9115138 195.1381,51.8795132 Z M126.194599,75.9561264 C132.808586,68.3586597 142.945944,62.631702 156.325364,58.9348752 C159.92105,57.9413339 163.720808,57.1169385 167.636801,56.4662604 C157.686477,61.3215838 148.172316,67.4028334 142.855456,70.9766104 C134.274953,76.7443307 125.012569,83.7406441 118.17255,89.9632295 C120.196614,84.8042818 122.643589,80.0350552 126.194599,75.9561264 Z M170.144732,69.2592469 C162.317291,77.7824442 145.41185,88.757875 138.020949,91.0447723 C133.896341,92.3209852 130.462322,93.2611922 127.432284,94.0901591 C124.690749,94.8402675 122.196826,95.5237081 119.730542,96.3115314 C120.83382,95.2482747 122.127161,94.0562537 123.651835,92.7179445 C129.787634,87.3327071 137.72866,81.3002203 146.012329,75.7321225 C160.35494,66.0911913 173.334545,59.3238344 182.857036,56.3900686 C178.721448,60.2225169 174.653632,64.3490655 170.144732,69.2592469 Z" id="Shape" fill="#1FBF53" fill-rule="nonzero"></path>
                </g>
            </g>
        </g>
    </g>
</svg>