<?xml version="1.0" encoding="UTF-8"?>
<svg width="160px" height="161px" viewBox="0 0 160 161" version="1.1" xmlns="http://www.w3.org/2000/svg" xmlns:xlink="http://www.w3.org/1999/xlink">
    <!-- Generator: Sketch 60 (88103) - https://sketch.com -->
    <title>books</title>
    <desc>Created with Sketch.</desc>
    <g id="Page-1" stroke="none" stroke-width="1" fill="none" fill-rule="evenodd">
        <g id="Product-landing" transform="translate(-640.140625, -770.000000)">
            <g id="2" transform="translate(530.000000, 693.000000)">
                <g id="books" transform="translate(110.000000, 76.412782)">
                    <path d="M115.390706,54.587218 L109.890544,54.587218 C108.372659,54.587218 107.140625,55.7072813 107.140625,57.087218 C107.140625,58.4671547 108.372659,59.587218 109.890544,59.587218 L115.390706,59.587218 C116.908591,59.587218 118.140625,58.4671547 118.140625,57.087218 C118.140625,55.7072813 116.908914,54.587218 115.390706,54.587218 Z" id="Path" fill="#1FBF53"></path>
                    <path d="M115.390706,65.587218 L109.890544,65.587218 C108.372659,65.587218 107.140625,66.7072813 107.140625,68.087218 C107.140625,69.4671547 108.372659,70.587218 109.890544,70.587218 L115.390706,70.587218 C116.908591,70.587218 118.140625,69.4671547 118.140625,68.087218 C118.140947,66.7072813 116.908914,65.587218 115.390706,65.587218 Z" id="Path" fill="#1FBF53"></path>
                    <path d="M115.390706,44.587218 L109.890544,44.587218 C108.372659,44.587218 107.140625,45.7072813 107.140625,47.087218 C107.140625,48.4671547 108.372659,49.587218 109.890544,49.587218 L115.390706,49.587218 C116.908591,49.587218 118.140625,48.4671547 118.140625,47.087218 C118.140947,45.7072813 116.908914,44.587218 115.390706,44.587218 Z" id="Path" fill="#1FBF53"></path>
                    <path d="M115.390706,129.587218 L109.890544,129.587218 C108.372659,129.587218 107.140625,130.707281 107.140625,132.087218 C107.140625,133.467155 108.372659,134.587218 109.890544,134.587218 L115.390706,134.587218 C116.908591,134.587218 118.140625,133.467155 118.140625,132.087218 C118.140625,130.707281 116.908914,129.587218 115.390706,129.587218 Z" id="Path" fill="#333333"></path>
                    <path d="M55.5157019,44.587218 L39.7655481,44.587218 C38.316657,44.587218 37.140625,45.7912419 37.140625,47.2746196 L37.140625,84.8998164 C37.140625,86.3831941 38.316657,87.587218 39.7655481,87.587218 L55.5157019,87.587218 C56.964593,87.587218 58.140625,86.3831941 58.140625,84.8998164 L58.140625,47.2749345 C58.140625,45.7912419 56.964593,44.587218 55.5157019,44.587218 Z M52.8907788,82.2124149 L42.3907788,82.2124149 L42.3907788,49.9623361 L52.8907788,49.9623361 L52.8907788,82.2124149 Z" id="Shape" fill="#1FBF53" fill-rule="nonzero"></path>
                    <path d="M55.5157019,129.587218 L39.7655481,129.587218 C38.316657,129.587218 37.140625,130.707281 37.140625,132.087218 C37.140625,133.467155 38.316657,134.587218 39.7655481,134.587218 L55.5157019,134.587218 C56.964593,134.587218 58.140625,133.467155 58.140625,132.087218 C58.140625,130.707281 56.964593,129.587218 55.5157019,129.587218 Z" id="Path" fill="#333333"></path>
                    <path d="M55.5157019,140.587218 L39.7655481,140.587218 C38.316657,140.587218 37.140625,141.707281 37.140625,143.087218 C37.140625,144.467155 38.316657,145.587218 39.7655481,145.587218 L55.5157019,145.587218 C56.964593,145.587218 58.140625,144.467155 58.140625,143.087218 C58.140625,141.707281 56.964593,140.587218 55.5157019,140.587218 Z" id="Path" fill="#333333"></path>
                    <path d="M115.390706,140.587218 L109.890544,140.587218 C108.372659,140.587218 107.140625,141.707281 107.140625,143.087218 C107.140625,144.467155 108.372659,145.587218 109.890544,145.587218 L115.390706,145.587218 C116.908591,145.587218 118.140625,144.467155 118.140625,143.087218 C118.140947,141.707281 116.908914,140.587218 115.390706,140.587218 Z" id="Path" fill="#333333"></path>
                    <path d="M146.47401,140.587218 L135.80724,140.587218 C134.335336,140.587218 133.140625,141.707281 133.140625,143.087218 C133.140625,144.467155 134.335336,145.587218 135.80724,145.587218 L146.47401,145.587218 C147.945914,145.587218 149.140625,144.467155 149.140625,143.087218 C149.140937,141.707281 147.946227,140.587218 146.47401,140.587218 Z" id="Path" fill="#333333"></path>
                    <path d="M91.140625,47.2746196 C91.140625,45.7912419 89.9459142,44.587218 88.4740104,44.587218 L77.8072396,44.587218 C76.3353358,44.587218 75.140625,45.7912419 75.140625,47.2746196 L75.140625,84.8998164 C75.140625,86.3831941 76.3353358,87.587218 77.8072396,87.587218 L88.4740104,87.587218 C89.9459142,87.587218 91.140625,86.3831941 91.140625,84.8998164 L91.140625,47.2746196 L91.140625,47.2746196 Z M85.8073958,82.2120999 L80.4738542,82.2120999 L80.4738542,49.9620212 L85.8073958,49.9620212 L85.8073958,82.2120999 Z" id="Shape" fill="#1FBF53" fill-rule="nonzero"></path>
                    <path d="M146.47401,129.587218 L135.80724,129.587218 C134.335336,129.587218 133.140625,130.707281 133.140625,132.087218 C133.140625,133.467155 134.335336,134.587218 135.80724,134.587218 L146.47401,134.587218 C147.945914,134.587218 149.140625,133.467155 149.140625,132.087218 C149.140625,130.707281 147.946227,129.587218 146.47401,129.587218 Z" id="Path" fill="#333333"></path>
                    <path d="M88.4740104,140.587218 L77.8072396,140.587218 C76.3353358,140.587218 75.140625,141.707281 75.140625,143.087218 C75.140625,144.467155 76.3353358,145.587218 77.8072396,145.587218 L88.4740104,145.587218 C89.9459142,145.587218 91.140625,144.467155 91.140625,143.087218 C91.140625,141.707281 89.9459142,140.587218 88.4740104,140.587218 Z" id="Path" fill="#333333"></path>
                    <path d="M136.640625,97.587218 C138.020562,97.587218 139.140625,96.3925188 139.140625,94.9206295 L139.140625,68.2538066 C139.140625,66.7819172 138.020562,65.587218 136.640625,65.587218 C135.260688,65.587218 134.140625,66.7819172 134.140625,68.2538066 L134.140625,94.9206295 C134.140625,96.3925188 135.260688,97.587218 136.640625,97.587218 Z" id="Path" fill="#1FBF53"></path>
                    <path d="M149.140625,68.2538066 C149.140625,66.7819172 148.020562,65.587218 146.640625,65.587218 C145.260688,65.587218 144.140625,66.7819172 144.140625,68.2538066 L144.140625,94.9206295 C144.140625,96.3925188 145.260688,97.587218 146.640625,97.587218 C148.020562,97.587218 149.140625,96.3925188 149.140625,94.9206295 L149.140625,68.2538066 Z" id="Path" fill="#1FBF53"></path>
                    <path d="M152.140625,22.0539895 L136.140625,22.0539895 C134.66875,22.0539895 133.474062,23.2561438 133.474062,24.737218 C133.474062,26.2182922 134.66875,27.4204465 136.140625,27.4204465 L152.140625,27.4204465 C153.61,27.4204465 154.807187,28.6251165 154.807187,30.103675 L154.807187,153.537218 C154.807187,155.015777 153.61,156.220447 152.140625,156.220447 L128.140625,156.220447 L128.140625,43.5204465 L144.140625,43.5204465 C145.6125,43.5204465 146.807187,42.3182922 146.807187,40.837218 C146.807187,39.3561438 145.6125,38.1539895 144.140625,38.1539895 L128.140625,38.1539895 L128.140625,14.0039895 C128.140625,9.4906438 124.625937,5.9539895 120.140625,5.9539895 L104.140625,5.9539895 C99.73,5.9539895 96.140625,9.56579809 96.140625,14.0039895 L96.140625,156.220761 L69.4740625,156.220761 L69.4740625,16.687218 L88.140625,16.687218 C89.6125,16.687218 90.8071875,15.4850637 90.8071875,14.0039895 C90.8071875,12.5229153 89.6125,11.320761 88.140625,11.320761 L69.4740625,11.320761 L69.4740625,8.63721801 C69.4740625,4.12387231 65.959375,0.587218014 61.4740625,0.587218014 L34.8075,0.587218014 C30.396875,0.587218014 26.8075,4.19902661 26.8075,8.63721801 L26.8075,32.787218 L13.4740625,32.787218 C12.0021875,32.787218 10.8075,33.9893723 10.8075,35.4704465 C10.8075,36.9515207 12.0021875,38.153675 13.4740625,38.153675 L26.8075,38.153675 L26.8075,156.220447 L8.140625,156.220447 C6.67125,156.220447 5.4740625,155.015777 5.4740625,153.537218 L5.4740625,24.737218 C5.4740625,23.2586594 6.67125,22.0539895 8.140625,22.0539895 L18.8071875,22.0539895 C20.2790625,22.0539895 21.47375,20.8518352 21.47375,19.370761 C21.47375,17.8896868 20.279375,16.687218 18.8071875,16.687218 L8.140625,16.687218 C3.73,16.687218 0.140625,20.2990266 0.140625,24.737218 L0.140625,153.537218 C0.140625,157.975409 3.73,161.587218 8.140625,161.587218 L152.140625,161.587218 C156.55125,161.587218 160.140625,157.975409 160.140625,153.537218 L160.140625,30.1039895 C160.140625,25.6657981 156.55125,22.0539895 152.140625,22.0539895 Z M64.140625,156.220447 L32.140625,156.220447 L32.140625,22.0539895 L56.140625,22.0539895 C57.6125,22.0539895 58.8071875,20.8518352 58.8071875,19.370761 C58.8071875,17.8896868 57.6125,16.687218 56.140625,16.687218 L32.140625,16.687218 L32.140625,8.63721801 C32.140625,7.1319309 33.31125,5.9539895 34.8071875,5.9539895 L61.47375,5.9539895 C62.99375,5.9539895 64.140625,7.10771801 64.140625,8.63721801 L64.140625,156.220447 L64.140625,156.220447 Z M122.807187,156.220447 L101.47375,156.220447 L101.47375,27.4204465 L114.807187,27.4204465 C116.279062,27.4204465 117.47375,26.2182922 117.47375,24.737218 C117.47375,23.2561438 116.279062,22.0539895 114.807187,22.0539895 L101.47375,22.0539895 L101.47375,14.0039895 C101.47375,12.4987024 102.644375,11.320761 104.140312,11.320761 L120.140625,11.320761 C121.660625,11.320761 122.807187,12.4744895 122.807187,14.0039895 L122.807187,156.220447 Z" id="Shape" fill="#333333" fill-rule="nonzero"></path>
                    <path d="M18.3903833,129.587218 L12.8905444,129.587218 C11.3726585,129.587218 10.140625,130.707281 10.140625,132.087218 C10.140625,133.467155 11.3726585,134.587218 12.8905444,134.587218 L18.3907056,134.587218 C19.9085915,134.587218 21.140625,133.467155 21.140625,132.087218 C21.140625,130.707281 19.9085915,129.587218 18.3903833,129.587218 Z" id="Path" fill="#333333"></path>
                    <path d="M18.3903833,140.587218 L12.8905444,140.587218 C11.3726585,140.587218 10.140625,141.707281 10.140625,143.087218 C10.140625,144.467155 11.3726585,145.587218 12.8905444,145.587218 L18.3907056,145.587218 C19.9085915,145.587218 21.140625,144.467155 21.140625,143.087218 C21.140625,141.707281 19.9085915,140.587218 18.3903833,140.587218 Z" id="Path" fill="#333333"></path>
                    <path d="M88.4740104,129.587218 L77.8072396,129.587218 C76.3353358,129.587218 75.140625,130.707281 75.140625,132.087218 C75.140625,133.467155 76.3353358,134.587218 77.8072396,134.587218 L88.4740104,134.587218 C89.9459142,134.587218 91.140625,133.467155 91.140625,132.087218 C91.140625,130.707281 89.9459142,129.587218 88.4740104,129.587218 Z" id="Path" fill="#333333"></path>
                    <path d="M18.3903833,65.587218 L12.8905444,65.587218 C11.3726585,65.587218 10.140625,66.7072813 10.140625,68.087218 C10.140625,69.4671547 11.3726585,70.587218 12.8905444,70.587218 L18.3907056,70.587218 C19.9085915,70.587218 21.140625,69.4671547 21.140625,68.087218 C21.140625,66.7072813 19.9085915,65.587218 18.3903833,65.587218 Z" id="Path" fill="#1FBF53"></path>
                    <path d="M18.3903833,75.587218 L12.8905444,75.587218 C11.3726585,75.587218 10.140625,76.7072157 10.140625,78.0870715 C10.140625,79.4669274 11.3723362,80.587218 12.8905444,80.587218 L18.3907056,80.587218 C19.9085915,80.587218 21.140625,79.4672204 21.140625,78.0873645 C21.140625,76.7075086 19.9085915,75.587218 18.3903833,75.587218 Z" id="Path" fill="#1FBF53"></path>
                </g>
            </g>
        </g>
    </g>
</svg>