<?xml version="1.0" encoding="UTF-8"?>
<svg width="160px" height="159px" viewBox="0 0 160 159" version="1.1" xmlns="http://www.w3.org/2000/svg" xmlns:xlink="http://www.w3.org/1999/xlink">
    <!-- Generator: Sketch 60 (88103) - https://sketch.com -->
    <title>confidential</title>
    <desc>Created with Sketch.</desc>
    <g id="Page-1" stroke="none" stroke-width="1" fill="none" fill-rule="evenodd">
        <g id="Product-landing" transform="translate(-240.140625, -768.000000)">
            <g id="2-copy-2" transform="translate(130.000000, 693.000000)">
                <g id="confidential" transform="translate(111.000000, 75.000000)">
                    <path d="M159,0 L87.1935484,0 L87.1935484,35.9032258 L46.8639677,35.9032258 C51.1390161,32.1410806 53.8548387,26.6453226 53.8548387,20.516129 C53.8548387,9.20404839 44.6507903,0 33.3387097,0 C22.026629,0 12.8225806,9.20404839 12.8225806,20.516129 C12.8225806,27.1966935 16.0461774,33.1232903 21.0033871,36.8700484 C8.93477419,40.068 0,51.0518226 0,64.1129032 L0,87.1935484 C0,92.850871 4.60074194,97.4516129 10.2580645,97.4516129 L12.9585,97.4516129 L10.3221774,147.610984 C9.69643548,153.227274 13.758629,158.310145 19.4005645,158.941016 C19.8108871,158.982048 20.1647903,159 20.5186935,159 C25.752871,159 30.135629,155.07629 30.7152097,149.808774 L33.3387097,119.503887 L35.9647742,149.870323 C36.5417903,155.07629 40.9245484,159 46.1587258,159 C46.5151935,159 46.8665323,158.982048 47.2999355,158.938452 C52.9187903,158.310145 56.9809839,153.227274 56.3680645,147.757161 L51.5775484,59.1249194 C51.5390806,58.4145484 51.7878387,57.7375161 52.2776613,57.2220484 C52.7674839,56.7040161 53.4265645,56.4193548 54.1395,56.4193548 L87.1935484,56.4193548 L87.1935484,85.298371 C73.6246935,91.2480484 64.1129032,104.791258 64.1129032,120.532258 C64.1129032,141.743371 81.3695323,159 102.580645,159 C123.791758,159 141.048387,141.743371 141.048387,120.532258 C141.048387,109.381742 136.250177,99.3544839 128.646387,92.3225806 L159,92.3225806 L159,0 Z M144.813097,71.8064516 L101.380452,71.8064516 L92.3225806,82.674871 L92.3225806,11.5069839 L101.159903,25.6451613 L110.53321,25.6451613 C111.546194,30.612629 115.444258,34.5363387 120.393774,35.6031774 C119.832145,40.1398065 117.583065,42.3324677 115.210887,44.6277097 C112.897694,46.8690968 110.274194,49.4105323 110.274194,53.8548387 L110.274194,58.983871 L115.403226,58.983871 L115.403226,53.8548387 C115.403226,51.6852581 116.562387,50.4619839 118.778129,48.3129194 C120.157839,46.9768065 121.773484,45.3868065 123.096774,43.2120968 C124.420065,45.3842419 126.033145,46.9768065 127.415419,48.3129194 C129.631161,50.4619839 130.790323,51.6852581 130.790323,53.8548387 L135.919355,53.8548387 C135.919355,49.4105323 133.295855,46.8690968 130.982661,44.6277097 C128.613048,42.3324677 126.361403,40.1398065 125.799774,35.6031774 C130.74929,34.5337742 134.647355,30.612629 135.660339,25.6451613 L145.033645,25.6451613 L153.870968,11.5069839 L153.870968,82.674871 L144.813097,71.8064516 Z M135.660339,20.516129 C134.467839,14.6715968 129.287516,10.2580645 123.096774,10.2580645 C116.906032,10.2580645 111.72571,14.6715968 110.53321,20.516129 L104.001387,20.516129 L94.3844516,5.12903226 L151.806532,5.12903226 L142.189597,20.516129 L135.660339,20.516129 Z M123.096774,30.7741935 C118.855065,30.7741935 115.403226,27.3223548 115.403226,23.0806452 C115.403226,18.8389355 118.855065,15.3870968 123.096774,15.3870968 C127.338484,15.3870968 130.790323,18.8389355 130.790323,23.0806452 C130.790323,27.3223548 127.338484,30.7741935 123.096774,30.7741935 Z M33.3387097,46.6665 L29.5816935,41.0322581 L37.0957258,41.0322581 L33.3387097,46.6665 Z M41.9606129,42.9787258 L39.5422742,53.8676613 L36.6392419,50.964629 L41.9606129,42.9787258 Z M30.0381774,50.964629 L27.1351452,53.8676613 L24.7142419,42.9787258 L30.0381774,50.964629 Z M17.9516129,20.516129 C17.9516129,12.0301452 24.8527258,5.12903226 33.3387097,5.12903226 C41.8246935,5.12903226 48.7258065,12.0301452 48.7258065,20.516129 C48.7258065,29.0021129 41.8246935,35.9032258 33.3387097,35.9032258 C24.8527258,35.9032258 17.9516129,29.0021129 17.9516129,20.516129 Z M25.6118226,149.306129 C25.3015161,152.093758 22.901129,154.140242 19.9468065,153.840194 C17.1386613,153.527323 15.1075645,150.988452 15.4306935,148.029 L18.3619355,92.3225806 L30.5433871,92.3225806 L25.6118226,149.306129 Z M46.751129,153.835065 C46.5331452,153.858145 46.3459355,153.870968 46.1587258,153.870968 C43.5429194,153.870968 41.3528226,151.906548 41.0707258,149.367677 L36.1340323,92.3225806 L48.2385484,92.3225806 L51.2595484,148.175177 C51.5698548,150.985887 49.5387581,153.524758 46.751129,153.835065 Z M54.1395,51.2903226 C52.0365968,51.2903226 50.0029355,52.1648226 48.5565484,53.6907097 C47.1101613,55.2165968 46.3459355,57.2964194 46.4587742,59.3993226 L47.9590161,87.1935484 L18.6312097,87.1935484 L20.5135645,51.4262419 L15.3922258,51.1569677 L13.2277742,92.3225806 L10.2580645,92.3225806 C7.42940323,92.3225806 5.12903226,90.0222097 5.12903226,87.1935484 L5.12903226,64.1129032 C5.12903226,54.4985323 11.0402419,46.2484839 19.4185161,42.7812581 L24.1551774,64.1000806 L33.3387097,54.9165484 L42.5222419,64.1000806 L47.6487097,41.0322581 L87.1935484,41.0322581 L87.1935484,51.2903226 L54.1395,51.2903226 Z M135.919355,120.532258 C135.919355,138.91471 120.963097,153.870968 102.580645,153.870968 C84.1981935,153.870968 69.2419355,138.91471 69.2419355,120.532258 C69.2419355,102.149806 84.1981935,87.1935484 102.580645,87.1935484 C120.963097,87.1935484 135.919355,102.149806 135.919355,120.532258 Z M102.580645,82.0645161 C101.498419,82.0645161 100.431581,82.1388871 99.3724355,82.2260806 L103.780839,76.9354839 L142.410145,76.9354839 L150.957677,87.1935484 L121.688855,87.1935484 C116.052048,83.9494355 109.538177,82.0645161 102.580645,82.0645161 L102.580645,82.0645161 Z" id="Shape" fill="#333333" fill-rule="nonzero"></path>
                    <circle id="Oval" fill="#000000" cx="123.5" cy="23.5" r="2.5"></circle>
                    <path d="M119,104.498751 C120.049251,105.570103 120.996074,106.746343 121.812991,108 L126,105.272922 C125.003212,103.744559 123.849036,102.306101 122.567452,101 L119,104.498751 Z" id="Path" fill="#000000"></path>
                    <path d="M125.189255,116 L130,115.151909 C129.689866,113.392364 129.199023,111.657189 128.544567,110 L124,111.783916 C124.534799,113.141348 124.935287,114.559708 125.189255,116 L125.189255,116 Z" id="Path" fill="#000000"></path>
                    <path d="M126,124.994949 L130.501608,126 C130.797887,124.39899 130.965549,122.760101 131,121.123737 L126.408819,121 C126.378962,122.343434 126.241158,123.684343 126,124.994949 L126,124.994949 Z" id="Path" fill="#000000"></path>
                    <path d="M86,103.659091 L82.2530413,100 C76.244263,106.097614 73.2897283,114.482159 74.1451265,123 L79.3667286,122.479886 C78.6661418,115.506705 81.0853966,108.648523 86,103.659091 L86,103.659091 Z" id="Path" fill="#000000"></path>
                    <path d="M75,128.495534 C75.6226835,130.411218 76.4659007,132.26438 77.5088955,134 L82,131.499107 C81.1489993,130.078599 80.4588584,128.565559 79.9503336,127 L75,128.495534 Z" id="Path" fill="#000000"></path>
                    <path d="M115.857143,113.204 L115.857143,104.954545 C115.857143,97.8114091 110.089429,92 103,92 C95.9105714,92 90.1428571,97.8114091 90.1428571,104.954545 L90.1428571,113.204 C87.1574286,114.276636 85,117.126636 85,120.5 L85,141.227273 C85,145.512636 88.4611429,149 92.7142857,149 L113.285714,149 C117.538857,149 121,145.512636 121,141.227273 L121,120.5 C121,117.126636 118.842571,114.276636 115.857143,113.204 Z M103,97.1818182 C107.253143,97.1818182 110.714286,100.669182 110.714286,104.954545 L110.714286,112.727273 L95.2857143,112.727273 L95.2857143,104.954545 C95.2857143,100.669182 98.7468571,97.1818182 103,97.1818182 Z M115.857143,141.227273 C115.857143,142.657455 114.702571,143.818182 113.285714,143.818182 L92.7142857,143.818182 C91.2974286,143.818182 90.1428571,142.657455 90.1428571,141.227273 L90.1428571,120.5 C90.1428571,119.069818 91.2974286,117.909091 92.7142857,117.909091 L113.285714,117.909091 C114.702571,117.909091 115.857143,119.069818 115.857143,120.5 L115.857143,141.227273 Z" id="Shape" fill="#1FBF53" fill-rule="nonzero"></path>
                    <path d="M102.5,120 C98.365,120 95,123.53325 95,127.875 C95,131.29275 97.0975,134.18025 100,135.267 L100,141 L105,141 L105,135.267 C107.9025,134.18025 110,131.29275 110,127.875 C110,123.53325 106.635,120 102.5,120 Z M102.5,130.5 C101.1225,130.5 100,129.324 100,127.875 C100,126.426 101.1225,125.25 102.5,125.25 C103.8775,125.25 105,126.426 105,127.875 C105,129.324 103.8775,130.5 102.5,130.5 Z" id="Shape" fill="#1FBF53" fill-rule="nonzero"></path>
                    <polygon id="Path" fill="#000000" points="31 72 36 72 36 77 31 77"></polygon>
                    <polygon id="Path" fill="#000000" points="31 61 36 61 36 66 31 66"></polygon>
                </g>
            </g>
        </g>
    </g>
</svg>