<?xml version="1.0" encoding="UTF-8"?>
<svg width="87px" height="91px" viewBox="0 0 87 91" version="1.1" xmlns="http://www.w3.org/2000/svg" xmlns:xlink="http://www.w3.org/1999/xlink">
    <!-- Generator: Sketch 60 (88103) - https://sketch.com -->
    <title>assigment</title>
    <desc>Created with Sketch.</desc>
    <g id="Page-1" stroke="none" stroke-width="1" fill="none" fill-rule="evenodd">
        <g id="hesiod-Stories" transform="translate(-677.000000, -667.000000)">
            <g id="2-copy-2" transform="translate(531.000000, 594.000000)">
                <g id="library">
                    <g id="assigment" transform="translate(146.000000, 73.000000)">
                        <path d="M42.4883721,51.2941176 C42.4883721,48.8620461 40.5160452,46.8823529 38.0930233,46.8823529 L24.9069767,46.8823529 L24.9069767,39.5294118 C24.9069767,38.4207261 24.4834666,37.4175954 23.8081395,36.6413717 C26.2282999,35.0688189 27.8372093,32.3394704 27.8372093,29.2352941 L27.8372093,24.8235294 C27.8372093,19.9572324 23.8947015,16 19.0465116,16 C14.1983217,16 10.255814,19.9572324 10.255814,24.8235294 L10.255814,29.2352941 C10.255814,32.1865235 11.7123456,34.7988281 13.9364893,36.4015395 C13.3269781,37.8915154 12.8340752,39.4296013 12.4742346,41 L4.39534884,41 C1.9723269,41 0,42.9796932 0,45.4117647 C0,47.8438362 1.9723269,49.8235294 4.39534884,49.8235294 L5.86046512,49.8235294 L5.86046512,63.0588235 C5.86046512,65.9425551 7.53805183,68.4177103 9.95105841,69.621898 L4.59780392,85.7380515 C4.46402616,86.147346 4.39534884,86.5702838 4.39534884,86.998248 C4.39534884,89.2041303 6.1845362,91 8.47878815,91 C10.1578057,91 11.6665607,89.9322437 12.2324333,88.3438936 L14.4272461,82.1764706 L29.3023256,82.1764706 L29.3023256,91 L60.0697674,91 L60.0697674,61.5882353 L63,61.5882353 L63,52.7647059 L42.2186706,52.7647059 C42.3832099,52.3029928 42.4883721,51.8118393 42.4883721,51.2941176 Z M38.0930233,49.8235294 C38.9014125,49.8235294 39.5581395,50.4827092 39.5581395,51.2941176 C39.5581395,52.1055261 38.9014125,52.7647059 38.0930233,52.7647059 L20.5116279,52.7647059 C19.7032386,52.7647059 19.0465116,52.1055261 19.0465116,51.2941176 L19.0465116,39.5294118 C19.0465116,38.7180033 19.7032386,38.0588235 20.5116279,38.0588235 C21.3200172,38.0588235 21.9767442,38.7180033 21.9767442,39.5294118 L21.9767442,49.8235294 L38.0930233,49.8235294 Z M20.5116279,55.7058824 L29.3023256,55.7058824 L29.3023256,61.5882353 L14.6511628,61.5882353 L14.6511628,47.5767176 C14.6511628,44.5457835 15.1841274,41.5105412 16.2042719,38.6526597 C16.1470408,38.9370118 16.1162791,39.2292625 16.1162791,39.5294118 L16.1162791,51.2941176 C16.1162791,53.7261892 18.088606,55.7058824 20.5116279,55.7058824 Z M13.1860465,24.8235294 C13.1860465,21.5793312 15.8143849,18.9411765 19.0465116,18.9411765 C22.2786384,18.9411765 24.9069767,21.5793312 24.9069767,24.8235294 L24.9069767,29.2352941 C24.9069767,32.4794923 22.2786384,35.1176471 19.0465116,35.1176471 C15.8143849,35.1176471 13.1860465,32.4794923 13.1860465,29.2352941 L13.1860465,24.8235294 Z M4.39534884,46.8823529 C3.58695958,46.8823529 2.93023256,46.2231732 2.93023256,45.4117647 C2.93023256,44.6003562 3.58695958,43.9411765 4.39534884,43.9411765 L11.9555778,43.9411765 C11.8032,45.1468004 11.7209302,46.361759 11.7209302,47.5767176 L11.7209302,61.5882353 C11.7209302,63.2103344 13.0350994,64.5294118 14.6511628,64.5294118 L29.3023256,64.5294118 L29.3023256,67.4705882 L13.1860465,67.4705882 C10.7630246,67.4705882 8.79069767,65.490895 8.79069767,63.0588235 L8.79069767,46.8823529 L4.39534884,46.8823529 Z M18.6129859,70.4117647 L29.3023256,70.4117647 L29.3023256,73.3529412 L17.5670876,73.3529412 L18.6129859,70.4117647 Z M9.47460938,87.3544061 C9.32366229,87.7766257 8.9237599,88.0588235 8.38221062,88.0588235 C7.79916888,88.0588235 7.3255814,87.5834673 7.3255814,86.998248 C7.3255814,86.8869485 7.34489694,86.7691866 7.37852008,86.6629136 L12.7890057,70.3708353 C12.9234988,70.379452 13.0501225,70.4117647 13.1860465,70.4117647 L15.5024756,70.4117647 L9.47460938,87.3544061 Z M15.4745754,79.2352941 L16.5204737,76.2941176 L29.3023256,76.2941176 L29.3023256,79.2352941 L15.4745754,79.2352941 Z M57.1395349,88.0588235 L32.2325581,88.0588235 L32.2325581,61.5882353 L57.1395349,61.5882353 L57.1395349,88.0588235 Z M60.0697674,58.6470588 L32.2325581,58.6470588 L32.2325581,55.7058824 L60.0697674,55.7058824 L60.0697674,58.6470588 Z" id="Shape" fill="#000000" fill-rule="nonzero"></path>
                        <path d="M82.1008301,20.0921843 C84.1677246,18.4774994 85.5,15.9941956 85.5,13.2098855 L85.5,8.80659032 C85.5,3.9496354 81.463623,0 76.5,0 C71.536377,0 67.5,3.9496354 67.5,8.80659032 L67.5,13.2098855 C67.5,16.5782916 69.4453125,19.5095217 72.2922364,20.9887537 C71.3833009,21.6875186 70.6003418,22.5539875 70.0107422,23.5637926 C68.1584473,26.7351111 66.9719239,30.1673019 66.4020996,33.7571629 L58.5,33.7571629 C56.0192871,33.7571629 54,35.7330556 54,38.1604581 C54,40.5878604 56.0192871,42.5637533 58.5,42.5637533 L66,42.5637533 L66,51.3703436 L69,51.3703436 L69,91 L87,91 L87,27.9785547 C87,24.552814 85.0078125,21.5792998 82.1008301,20.0921843 L82.1008301,20.0921843 Z M70.5,13.2098855 L70.5,8.80659032 C70.5,5.56862025 73.1909179,2.93553011 76.5,2.93553011 C79.8090821,2.93553011 82.5,5.56862025 82.5,8.80659032 L82.5,13.2098855 C82.5,16.4478555 79.8090821,19.0809457 76.5,19.0809457 C73.1909179,19.0809457 70.5,16.4478555 70.5,13.2098855 Z M72,26.2112164 L72,33.7585962 L69.4379884,33.7585962 C69.9030761,31.1240726 70.7607422,28.5977681 72,26.2112164 Z M57,38.1618914 C57,37.3520406 57.6723634,36.6941263 58.5,36.6941263 L75,36.6941263 L75,23.4842408 C75,23.1380833 75.1413574,22.8327768 75.3464355,22.5812213 C75.8474121,22.3540331 76.3798828,22.1899128 76.932129,22.101761 C77.5451661,22.2866649 78,22.8248933 78,23.4842408 L78,38.1618914 C78,38.9717421 77.3276366,39.6296564 76.5,39.6296564 L58.5,39.6296564 C57.6723634,39.6296564 57,38.9717421 57,38.1618914 Z M76.5,42.5651865 C78.9807129,42.5651865 81,40.5892939 81,38.1618914 L81,23.4842408 C81,23.2627861 80.9655761,23.0484981 80.9326172,22.8356435 C82.7563477,23.8655158 84,25.7740404 84,27.9785547 L84,48.4362467 L69,48.4362467 L69,42.5651865 L76.5,42.5651865 Z M72,51.3717768 L75,51.3717768 L75,88.0659032 L72,88.0659032 L72,51.3717768 Z M78,88.0659032 L78,51.3717768 L84,51.3717768 L84,88.0659032 L78,88.0659032 Z" id="Shape" fill="#000000" fill-rule="nonzero"></path>
                        <polygon id="Path" fill="#1FBF53" points="55 6 57 6 57 8 55 8"></polygon>
                        <polygon id="Path" fill="#1FBF53" points="50 6 52 6 52 8 50 8"></polygon>
                        <polygon id="Path" fill="#1FBF53" points="45 6 47 6 47 8 45 8"></polygon>
                        <path d="M56,20 L56,14.5273984 L65,14.5273984 L65,0 L38,0 L38,14.5273984 L46.5847168,14.5273984 L56,20 Z M41,2.90547969 L62,2.90547969 L62,11.6219188 L53,11.6219188 L53,14.8657563 L47.4152833,11.6219188 L41,11.6219188 L41,2.90547969 Z" id="Shape" fill="#1FBF53" fill-rule="nonzero"></path>
                        <polygon id="Path" fill="#1FBF53" points="38 30 40 30 40 32 38 32"></polygon>
                        <polygon id="Path" fill="#1FBF53" points="44 30 46 30 46 32 44 32"></polygon>
                        <path d="M40.5714286,43 L46.7188895,38.7651211 L52,38.7651211 L52,24 L32,24 L32,38.7651211 L40.5714286,38.7651211 L40.5714286,43 Z M34.8571429,35.8120969 L34.8571429,26.9530242 L49.1428571,26.9530242 L49.1428571,35.8120969 L45.8525391,35.8120969 L43.4285714,37.4832665 L43.4285714,35.8120969 L34.8571429,35.8120969 Z" id="Shape" fill="#1FBF53" fill-rule="nonzero"></path>
                    </g>
                </g>
            </g>
        </g>
    </g>
</svg>