<?xml version="1.0" encoding="UTF-8"?>
<svg width="93px" height="93px" viewBox="0 0 93 93" version="1.1" xmlns="http://www.w3.org/2000/svg" xmlns:xlink="http://www.w3.org/1999/xlink">
    <!-- Generator: Sketch 60 (88103) - https://sketch.com -->
    <title>clock</title>
    <desc>Created with Sketch.</desc>
    <g id="Page-1" stroke="none" stroke-width="1" fill="none" fill-rule="evenodd">
        <g id="hesiod-Stories" transform="translate(-1074.000000, -669.000000)">
            <g id="clock" transform="translate(1074.000000, 669.000000)">
                <path d="M83.0771271,17.7892887 L85.9506125,17.7892887 C86.9529742,17.7892887 87.7658275,16.9764354 87.7658275,15.9740737 C87.7658275,14.9717119 86.9529742,14.1588586 85.9506125,14.1588586 L79.0527954,14.1588586 C78.0504337,14.1588586 77.2375804,14.9717119 77.2375804,15.9740737 L77.2375804,22.8718907 C77.2375804,23.8742524 78.0504337,24.6871057 79.0527954,24.6871057 C80.0551572,24.6871057 80.8680104,23.8742524 80.8680104,22.8718907 L80.8680104,20.8746096 C86.3757358,28.2481945 89.36957,37.1948448 89.36957,46.5 C89.36957,70.138456 70.138456,89.36957 46.5,89.36957 C22.861544,89.36957 3.63043003,70.138456 3.63043003,46.5 C3.63043003,22.861544 22.861544,3.63043003 46.5,3.63043003 C48.2482336,3.63043003 50.0077215,3.73662011 51.7299975,3.9459144 C52.7238277,4.06608163 53.6301646,3.3583293 53.7510579,2.36304691 C53.8721327,1.36794604 53.1634728,0.462879829 52.1681904,0.341986509 C50.3010602,0.115084632 48.3941769,0 46.5,0 C34.0793913,0 22.4021131,4.83682193 13.6195583,13.6195583 C4.83682193,22.4021131 0,34.0793913 0,46.5 C0,58.9206087 4.83682193,70.5978869 13.6195583,79.3804417 C22.4021131,88.1631781 34.0793913,93 46.5,93 C58.9206087,93 70.5978869,88.1631781 79.3804417,79.3804417 C88.1631781,70.5978869 93,58.9206087 93,46.5 C93,36.018767 89.4984502,25.9566671 83.0771271,17.7892887 Z" id="XMLID_1030_" fill="#000000"></path>
                <path d="M19.8220348,27.5079817 C18.9788256,26.9742666 17.8627976,27.2254054 17.3289037,28.0680754 C13.2042796,34.5825069 11.3783804,42.4169529 12.1876227,50.1283588 C13.0087895,57.9541323 16.531044,65.333999 22.1055831,70.9087379 C28.8330079,77.6361857 37.6699912,81 46.5071552,81 C55.3443192,81 64.1811218,77.6363664 70.9087273,70.9087379 C84.3637576,57.4536615 84.3637576,35.5605028 70.9087273,22.1056071 C65.3426799,16.5397213 57.9749437,13.0187194 50.1622056,12.1912262 C42.4650994,11.3754768 34.6391721,13.1871089 28.1274729,17.2915115 C27.2831798,17.8236005 27.0304158,18.939271 27.5623223,19.7833864 C28.0944094,20.6276825 29.2100761,20.8804473 30.0541886,20.348539 C42.3288706,12.6120191 58.0777477,14.3849867 68.3534441,24.6607183 C80.3995726,36.7068881 80.3995726,56.3072762 68.3534441,68.353446 C56.3074964,80.3997964 36.706814,80.3997964 24.6608663,68.353446 C14.5271802,58.2197251 12.7276595,42.0902918 20.3821265,30.001302 C20.9156591,29.1580899 20.6650632,28.0418774 19.8220348,27.5079817 Z" id="XMLID_1029_" fill="#1FBF53"></path>
                <path d="M69.8557466,48 L72.1442534,48 C73.1689967,48 74,47.1044 74,46 C74,44.8956 73.1689967,44 72.1442534,44 L69.8557466,44 C68.8310033,44 68,44.8956 68,46 C68,47.1044 68.8308178,48 69.8557466,48 Z" id="XMLID_1028_" fill="#000000"></path>
                <path d="M19,46 C19,47.1044 19.8310033,48 20.8557466,48 L23.1442534,48 C24.1689967,48 25,47.1044 25,46 C25,44.8956 24.1689967,44 23.1442534,44 L20.8557466,44 C19.8310033,44 19,44.8954 19,46 Z" id="XMLID_1004_" fill="#000000"></path>
                <path d="M48,23.1442534 L48,20.8557466 C48,19.8310033 47.1044,19 46,19 C44.8956,19 44,19.8310033 44,20.8557466 L44,23.1442534 C44,24.1689967 44.8956,25 46,25 C47.1044,25 48,24.1689967 48,23.1442534 Z" id="XMLID_1001_" fill="#000000"></path>
                <path d="M44,69.8557466 L44,72.1442534 C44,73.1689967 44.8956,74 46,74 C47.1044,74 48,73.1689967 48,72.1442534 L48,69.8557466 C48,68.8310033 47.1044,68 46,68 C44.8956,68 44,68.8308178 44,69.8557466 Z" id="XMLID_1415_" fill="#000000"></path>
                <path d="M37.1336646,34.8717542 C36.4166852,34.1548293 35.2547599,34.1548293 34.5375969,34.8717542 C33.820801,35.5888627 33.820801,36.7516619 34.5375969,37.4689541 L40.7585777,43.6926478 C40.2818763,44.5814584 40.0107604,45.5964286 40.0107604,46.6736523 C40.0107604,50.16205 42.8474733,53 46.3343503,53 C49.8212274,53 52.6579402,50.16205 52.6579402,46.6736523 C52.6579402,45.5964286 52.3866408,44.5814584 51.910123,43.6926478 L64.4624031,31.1348935 C65.179199,30.417785 65.179199,29.2549858 64.4624031,28.5376936 C63.7454236,27.8207688 62.5834984,27.8207688 61.8663354,28.5376936 L49.3140553,41.095448 C48.4256322,40.6185387 47.4111044,40.3473046 46.3343503,40.3473046 C45.2575962,40.3473046 44.2430684,40.6187223 43.3546454,41.095448 L37.1336646,34.8717542 Z M48.9867705,46.6736523 C48.9867705,48.1368842 47.7969443,49.3272292 46.3343503,49.3272292 C44.8717563,49.3272292 43.6819301,48.1368842 43.6819301,46.6736523 C43.6819301,45.2104204 44.8717563,44.0200754 46.3343503,44.0200754 C47.7969443,44.0200754 48.9867705,45.2104204 48.9867705,46.6736523 Z" id="XMLID_996_" fill="#1FBF53" fill-rule="nonzero"></path>
                <path d="M24.4124644,24.414 C24.7862962,24.042 25,23.526 25,23 C25,22.474 24.7862962,21.96 24.4124644,21.586 C24.0406317,21.2142 23.526663,21 22.9991004,21 C22.473337,21 21.9575691,21.214 21.5857364,21.586 C21.2141037,21.958 21,22.474 21,23 C21,23.528 21.2139037,24.042 21.5857364,24.414 C21.9575691,24.7858 22.473337,25 22.9991004,25 C23.526663,25 24.0406317,24.7858 24.4124644,24.414 Z" id="XMLID_980_" fill="#000000"></path>
                <path d="M58.9989006,6 C59.5268103,6 60.0425266,5.7878 60.4141222,5.414 C60.7859177,5.042 61,4.5278 61,4 C61,3.474 60.7861176,2.958 60.4141222,2.586 C60.0425266,2.2142 59.5268103,2 58.9989006,2 C58.4731897,2 57.9574734,2.214 57.5858778,2.586 C57.2140823,2.958 57,3.474 57,4 C57,4.528 57.2138824,5.042 57.5858778,5.414 C57.9574734,5.7878 58.4731897,6 58.9989006,6 Z" id="XMLID_979_" fill="#000000"></path>
            </g>
        </g>
    </g>
</svg>