<?xml version="1.0" encoding="UTF-8"?>
<svg width="66px" height="66px" viewBox="0 0 66 66" version="1.1" xmlns="http://www.w3.org/2000/svg" xmlns:xlink="http://www.w3.org/1999/xlink">
    <!-- Generator: Sketch 59.1 (86144) - https://sketch.com -->
    <title>call-center copy</title>
    <desc>Created with Sketch.</desc>
    <g id="Page-1" stroke="none" stroke-width="1" fill="none" fill-rule="evenodd">
        <g id="About" transform="translate(-670.000000, -1806.000000)">
            <g id="our-values" transform="translate(511.000000, 1155.000000)">
                <g id="innovation-copy-6" transform="translate(122.000000, 626.562500)">
                    <g id="call-center-copy" transform="translate(37.734375, 25.000000)">
                        <path d="M59.3239384,43.9911806 L51.3815842,42.1581719 L51.3815842,40.0932213 C52.1890295,39.4455242 52.8694955,38.6493431 53.3927734,37.7497353 L54.5273954,37.7497353 C57.418224,37.7497353 59.7704142,35.3975451 59.7704142,32.5067165 C59.7704142,31.3362535 59.3720678,30.2666572 58.7218105,29.3931621 L58.7218105,25.1664902 C58.7218105,18.2276825 53.0773731,12.5832451 46.1385654,12.5832451 C39.1997577,12.5832451 33.5553203,18.2276825 33.5553203,25.1664902 L33.5553203,29.3931621 C32.905063,30.2666572 32.5067165,31.3372776 32.5067165,32.5067165 C32.5067165,35.3975451 34.8589067,37.7497353 37.7497353,37.7497353 L38.8843573,37.7497353 C39.4066112,38.6493431 40.0881012,39.4455242 40.8955466,40.0932213 L40.8955466,42.1581719 L32.9531923,43.9911806 C32.4345226,44.1104797 31.9363335,44.2973646 31.4581128,44.5246987 L31.4581128,38.7983391 C31.4581128,37.0641491 30.0464914,35.6525278 28.3123015,35.6525278 L3.14581128,35.6525278 C1.41162134,35.6525278 0,37.0641491 0,38.7983391 L0,57.6732067 C0,59.4073967 1.41162134,60.819018 3.14581128,60.819018 L11.5346413,60.819018 L11.5346413,62.9162255 L9.43743383,62.9162255 L9.43743383,65.013433 L65.013433,65.013433 L65.013433,51.1434979 C65.013433,47.7053269 62.6740431,44.763809 59.3239384,43.9911806 Z M41.7060641,44.124304 L44.2625477,46.0412827 L41.6779033,47.5921719 L41.1218565,44.2584516 L41.7060641,44.124304 Z M45.0059914,52.4301879 L47.2721634,52.4301879 L48.1456585,62.9162255 L44.1324962,62.9162255 L45.0059914,52.4301879 Z M47.4795289,50.3329804 L44.7965779,50.3329804 L44.1944499,48.5271086 L46.1385654,47.3612537 L48.0816568,48.5271086 L47.4795289,50.3329804 Z M48.015607,46.0412827 L50.5720908,44.124304 L51.3114383,44.2953166 L50.6463327,47.6193086 L48.015607,46.0412827 Z M54.5273954,35.6525278 L54.2514201,35.6525278 C54.4255047,34.980254 54.5273954,34.2808434 54.5273954,33.5553203 L54.5273954,29.3609052 C56.2615854,29.3609052 57.6732067,30.7725266 57.6732067,32.5067165 C57.6732067,34.2409065 56.2615854,35.6525278 54.5273954,35.6525278 Z M46.1385654,14.6804526 C51.9207344,14.6804526 56.624603,19.3843212 56.624603,25.1664902 L56.624603,27.7081255 C55.981002,27.424982 55.2739111,27.2636977 54.5273954,27.2636977 L54.5273954,25.1664902 L52.4301879,25.1664902 L52.4301879,25.7517217 C51.7026167,26.3850825 50.8311696,26.8356544 49.8987929,27.0706686 C49.939754,27.0307315 49.9848112,26.9964267 50.0257723,26.9564896 L48.542981,25.4736983 C47.7606243,26.256055 46.7698781,26.8023735 45.7043779,27.0706686 C45.745339,27.0307315 45.7903962,26.9964267 45.8313572,26.9564896 L44.348566,25.4736983 C43.2108718,26.6113925 41.6359182,27.2636977 40.0271716,27.2636977 L39.8469428,27.2636977 L39.8469428,25.1664902 L37.7497353,25.1664902 L37.7497353,27.2636977 C37.0032196,27.2636977 36.2961288,27.424982 35.6525278,27.7081255 L35.6525278,25.1664902 C35.6525278,19.3843212 40.3563963,14.6804526 46.1385654,14.6804526 Z M37.7497353,35.6525278 C36.0155454,35.6525278 34.603924,34.2409065 34.603924,32.5067165 C34.603924,30.7725266 36.0155454,29.3609052 37.7497353,29.3609052 L37.7497353,33.5553203 C37.7497353,34.2808434 37.851626,34.980254 38.0257106,35.6525278 L37.7497353,35.6525278 Z M39.8469428,33.5553203 L39.8469428,29.3609052 L40.0271716,29.3609052 C41.0455665,29.3609052 42.0511611,29.1596839 42.9927541,28.7935942 L42.9927541,29.3609052 L44.2215866,29.3609052 C45.2399816,29.3609052 46.2455762,29.1596839 47.1871691,28.7935942 L47.1871691,29.3609052 L48.4160017,29.3609052 C49.824551,29.3609052 51.2105716,28.9825272 52.4301879,28.3005251 L52.4301879,33.5553203 C52.4301879,34.2915958 52.2960403,34.9951024 52.0630742,35.6525278 L46.1385654,35.6525278 L46.1385654,37.7497353 L50.8152972,37.7497353 C49.6627547,39.0333533 47.9966625,39.8469428 46.1385654,39.8469428 C42.6686496,39.8469428 39.8469428,37.0252361 39.8469428,33.5553203 L39.8469428,33.5553203 Z M46.1385654,41.9441503 C47.2511708,41.9441503 48.312575,41.7219365 49.2843767,41.3266619 L49.2843767,42.4684522 L46.1385654,44.8278107 L42.9927541,42.4684522 L42.9927541,41.3266619 C43.9645558,41.7219365 45.02596,41.9441503 46.1385654,41.9441503 Z M33.4242448,46.0346266 L39.0743144,44.7315521 L40.1142138,50.9755575 L42.3532492,49.6325459 L42.9789297,51.5095875 L42.0281206,62.9162255 L36.7011315,62.9162255 L36.7011315,51.3815842 L34.603924,51.3815842 L34.603924,62.9162255 L29.3609052,62.9162255 L29.3609052,60.6259889 C30.5784734,60.1918014 31.4581128,59.0382348 31.4581128,57.6732067 L31.4581128,46.9608592 C32.0412962,46.5215515 32.7089619,46.200519 33.4242448,46.0346266 L33.4242448,46.0346266 Z M19.9234714,60.819018 L27.2636977,60.819018 L27.2636977,62.9162255 L19.9234714,62.9162255 L19.9234714,60.819018 Z M3.14581128,58.7218105 C2.56723603,58.7218105 2.09720752,58.251782 2.09720752,57.6732067 L2.09720752,38.7983391 C2.09720752,38.2197638 2.56723603,37.7497353 3.14581128,37.7497353 L28.3123015,37.7497353 C28.8908767,37.7497353 29.3609052,38.2197638 29.3609052,38.7983391 L29.3609052,57.6732067 C29.3609052,58.251782 28.8908767,58.7218105 28.3123015,58.7218105 L19.9234714,58.7218105 L19.9234714,56.624603 C19.9234714,54.3113257 18.0423337,52.4301879 15.7290564,52.4301879 C13.4157791,52.4301879 11.5346413,54.3113257 11.5346413,56.624603 L11.5346413,58.7218105 L3.14581128,58.7218105 Z M13.6318489,56.624603 C13.6318489,55.4679643 14.5724177,54.5273954 15.7290564,54.5273954 C16.885695,54.5273954 17.8262639,55.4679643 17.8262639,56.624603 L17.8262639,62.9162255 L13.6318489,62.9162255 L13.6318489,56.624603 Z M62.9162255,62.9162255 L57.6732067,62.9162255 L57.6732067,51.3815842 L55.5759992,51.3815842 L55.5759992,62.9162255 L50.2490102,62.9162255 L49.299225,51.5095875 L49.9238815,49.6325459 L52.1178597,50.9494447 L53.3538604,44.766881 L58.8528859,46.0356507 C61.2445013,46.5876012 62.9162255,48.6878809 62.9162255,51.1434979 L62.9162255,62.9162255 Z" id="Shape" fill="#000000" fill-rule="nonzero"></path>
                        <path d="M26.215094,21.4344234 C26.215094,20.0786116 25.3508151,18.8789638 24.064637,18.4504085 L19.9234714,17.0700199 L19.9234714,15.7019197 C21.1891689,14.7434303 22.0206789,13.2396464 22.0206789,11.5346413 L22.0206789,9.43743383 C22.0206789,6.54660524 19.6684887,4.19441503 16.7776601,4.19441503 C13.8868315,4.19441503 11.5346413,6.54660524 11.5346413,9.43743383 L11.5346413,11.5346413 C11.5346413,13.2406705 12.3661514,14.7444543 13.6318489,15.7019197 L13.6318489,17.0700199 L9.49068324,18.4504085 C8.20450519,18.8799877 7.34022631,20.0786116 7.34022631,21.4344234 L7.34022631,27.2636977 L26.215094,27.2636977 L26.215094,21.4344234 Z M13.6318489,9.43743383 C13.6318489,7.70324389 15.0434702,6.29162255 16.7776601,6.29162255 C18.5118501,6.29162255 19.9234714,7.70324389 19.9234714,9.43743383 L19.9234714,11.5346413 C19.9234714,13.2688313 18.5118501,14.6804526 16.7776601,14.6804526 C15.0434702,14.6804526 13.6318489,13.2688313 13.6318489,11.5346413 L13.6318489,9.43743383 Z M24.1178864,25.1664902 L9.43743383,25.1664902 L9.43743383,21.4344234 C9.43743383,20.9823154 9.7246734,20.5829449 10.1547648,20.4395811 L15.7290564,18.5825079 L15.7290564,16.6716733 C16.0680094,16.7407952 16.4192506,16.7776601 16.7776601,16.7776601 C17.1360696,16.7776601 17.4873109,16.7407952 17.8262639,16.6716733 L17.8262639,18.5825079 L23.4005555,20.4395811 C23.8306469,20.5829449 24.1178864,20.9838515 24.1178864,21.4344234 L24.1178864,25.1664902 Z" id="Shape" fill="#1FBF53" fill-rule="nonzero"></path>
                        <path d="M16.7776601,33.5553203 C26.028209,33.5553203 33.5553203,26.028209 33.5553203,16.7776601 C33.5553203,7.52711122 26.028209,0 16.7776601,0 C7.52711122,0 0,7.52711122 0,16.7776601 C0,26.028209 7.52711122,33.5553203 16.7776601,33.5553203 Z M16.7776601,2.09720752 C24.8731065,2.09720752 31.4581128,8.6822138 31.4581128,16.7776601 C31.4581128,24.8731065 24.8731065,31.4581128 16.7776601,31.4581128 C8.6822138,31.4581128 2.09720752,24.8731065 2.09720752,16.7776601 C2.09720752,8.6822138 8.6822138,2.09720752 16.7776601,2.09720752 Z" id="Shape" fill="#1FBF53" fill-rule="nonzero"></path>
                        <polygon id="Path" fill="#1FBF53" points="38.7983391 6.29162255 40.8955466 6.29162255 40.8955466 8.38883007 38.7983391 8.38883007"></polygon>
                        <polygon id="Path" fill="#1FBF53" points="45.0899616 6.29162255 47.1871691 6.29162255 47.1871691 8.38883007 45.0899616 8.38883007"></polygon>
                        <polygon id="Path" fill="#1FBF53" points="51.3815842 6.29162255 53.4787917 6.29162255 53.4787917 8.38883007 51.3815842 8.38883007"></polygon>
                    </g>
                </g>
            </g>
        </g>
    </g>
</svg>