<?xml version="1.0" encoding="UTF-8"?>
<svg width="66px" height="76px" viewBox="0 0 66 76" version="1.1" xmlns="http://www.w3.org/2000/svg" xmlns:xlink="http://www.w3.org/1999/xlink">
    <!-- Generator: Sketch 59.1 (86144) - https://sketch.com -->
    <title>innovation copy 5</title>
    <desc>Created with Sketch.</desc>
    <g id="Page-1" stroke="none" stroke-width="1" fill="none" fill-rule="evenodd">
        <g id="About" transform="translate(-670.000000, -1661.000000)">
            <g id="our-values" transform="translate(511.000000, 1155.000000)">
                <g id="innovation-copy-4" transform="translate(122.000000, 486.148438)">
                    <g id="innovation-copy-5" transform="translate(37.734375, 20.500000)">
                        <path d="M29.0173169,25.288064 C25.1338272,29.1717538 25.1339354,35.4682802 29.0175585,39.3518367 C32.9011816,43.2353931 39.197708,43.2353931 43.0813311,39.3518367 C46.9649543,35.4682802 46.9650624,29.1717538 43.0815727,25.288064 C39.1944938,21.4124036 32.9043959,21.4124036 29.0173169,25.288064 L29.0173169,25.288064 Z M41.3238515,37.5945986 C38.4109934,40.5069633 33.6887584,40.5066967 30.7762292,37.5940031 C27.8637,34.6813094 27.8637,29.9590744 30.7762292,27.0463808 C33.6887584,24.1336871 38.4109934,24.1334205 41.3238515,27.0457852 C44.2303269,29.9614485 44.2303269,34.6789353 41.3238515,37.5945986 Z" id="Shape" fill="#1FBF53" fill-rule="nonzero"></path>
                        <path d="M64.1767134,53.4165756 L52.7502824,41.9889016 C52.4701789,41.7161469 52.0765683,41.5937211 51.6911746,41.6594843 C53.6684159,38.0319544 54.7016146,33.9654179 54.6957094,29.8340233 C54.7109733,18.00461 46.389038,7.80260568 34.7977834,5.44081196 C23.2065288,3.07901824 11.5563216,9.21156823 6.9418877,20.1038707 C2.32745382,30.9961731 6.02682794,43.6314463 15.7871707,50.3150803 C17.5463744,51.482284 18.6162335,53.4424519 18.6462646,55.5534375 L18.6462646,57.4106055 C17.2997283,57.8804215 16.3419502,59.0808398 16.1828584,60.4980825 C16.0237666,61.9153252 16.6915562,63.2982207 17.900414,64.0548911 C17.337109,65.0237211 17.2463815,66.1965558 17.6539841,67.2404927 C18.0615866,68.2844297 18.9230188,69.085496 19.9937679,69.4163137 C20.5028148,72.3960452 23.0818793,74.5774427 26.1047704,74.5850582 L33.5632762,74.5850582 C36.5856972,74.5768391 39.1640692,72.3955837 39.6730356,69.4163137 C40.7440057,69.0857796 41.6057453,68.2848299 42.0136042,67.2408563 C42.4214631,66.1968827 42.3309025,65.023889 41.7676326,64.0548911 C42.9764903,63.2982207 43.64428,61.9153252 43.4851882,60.4980825 C43.3260964,59.0808398 42.3683183,57.8804215 41.021782,57.4106055 L41.021782,55.5534375 C41.0559541,53.4458882 42.1251691,51.4901546 43.8808759,50.3237819 C44.5024181,49.8936747 45.1003416,49.4337335 45.6758897,48.9563891 C45.6932928,48.9775216 45.7007513,49.0036263 45.7193976,49.0235157 L57.1470716,60.4499466 C58.1179201,61.4205019 59.6916656,61.4205019 60.662514,60.4499466 L64.1767134,56.9332611 C64.6431783,56.4669851 64.9052514,55.8344658 64.9052514,55.1749184 C64.9052514,54.5153709 64.6431783,53.8828516 64.1767134,53.4165756 L64.1767134,53.4165756 Z M47.4758757,45.5055871 L45.6734035,43.7031149 C45.9879038,43.4370948 46.3011611,43.1648594 46.5970151,42.8677622 C46.8928692,42.5706651 47.1663477,42.2586509 47.4323678,41.9441506 L49.23484,43.7466228 L47.4758757,45.5055871 Z M44.8392939,41.110041 C41.2841165,44.6652867 35.9373706,45.7288605 31.2922536,43.8048162 C26.6471367,41.8807718 23.6184332,37.3480203 23.6184332,32.3201919 C23.6184332,27.2923635 26.6471367,22.759612 31.2922536,20.8355676 C35.9373706,18.9115233 41.2841165,19.9750972 44.8392939,23.5303428 C49.6861902,28.3879893 49.6861902,36.2523945 44.8392939,41.110041 Z M19.8893489,59.6680466 L39.7786977,59.6680466 C40.4652342,59.6680466 41.021782,60.2245944 41.021782,60.9111309 C41.021782,61.5976674 40.4652342,62.1542152 39.7786977,62.1542152 L19.8893489,62.1542152 C19.2028124,62.1542152 18.6462646,61.5976674 18.6462646,60.9111309 C18.6462646,60.2245944 19.2028124,59.6680466 19.8893489,59.6680466 Z M33.5632762,72.0988896 L26.1047704,72.0988896 C24.5300493,72.0923617 23.129143,71.0973998 22.604245,69.612721 L37.0638016,69.612721 C36.5389036,71.0973998 35.1379973,72.0923617 33.5632762,72.0988896 L33.5632762,72.0988896 Z M38.5356134,67.1265524 L21.1324332,67.1265524 C20.4458967,67.1265524 19.8893489,66.5700046 19.8893489,65.8834681 C19.8893489,65.1969316 20.4458967,64.6403838 21.1324332,64.6403838 L38.5356134,64.6403838 C39.2221499,64.6403838 39.7786977,65.1969316 39.7786977,65.8834681 C39.7786977,66.5700046 39.2221499,67.1265524 38.5356134,67.1265524 Z M42.4687322,48.276422 C40.0403694,49.907337 38.5696592,52.6284298 38.5356134,55.5534375 L38.5356134,57.181878 L21.1324332,57.181878 L21.1324332,55.5534375 C21.1004467,52.6208385 19.6236581,49.8928495 17.1856405,48.2627481 C8.42023117,42.2424936 5.10633958,30.8824381 9.25998299,21.0935101 C13.4136264,11.3045821 23.8859489,5.79430063 34.3060772,7.91486424 C44.7262055,10.0354279 52.2120371,19.20031 52.2095644,29.8340233 C52.2149789,33.5583441 51.2816855,37.2239684 49.4958877,40.4922281 L48.8880195,39.8843599 C52.7087284,33.4073965 51.1167535,25.0997812 45.1722955,20.494101 C39.2278375,15.8884208 30.7859037,16.4219085 25.4685326,21.7392796 C20.1511614,27.0566507 19.6176737,35.4985846 24.2233539,41.4430426 C28.8290341,47.3875006 37.1366494,48.9794755 43.6136128,45.1587666 L44.8268631,46.3707738 C44.0850173,47.0588156 43.2971487,47.6955065 42.4687322,48.276422 L42.4687322,48.276422 Z M51.8714218,44.6267265 L53.629143,46.3856908 L50.1137006,49.9011332 L48.3559794,48.1421689 L51.8714218,44.6267265 Z M58.9035497,58.6909823 L51.8714218,51.6588544 L55.3868642,48.143412 L62.4202352,55.1742968 L58.9035497,58.6909823 Z" id="Shape" fill="#000000" fill-rule="nonzero"></path>
                        <polygon id="Path" fill="#1FBF53" points="28.590939 0 31.0771076 0 31.0771076 2.48616861 28.590939 2.48616861"></polygon>
                        <polygon id="Path" fill="#1FBF53" transform="translate(15.538243, 5.076233) rotate(-30.000728) translate(-15.538243, -5.076233) " points="14.2951861 3.83379753 16.7813 3.83379753 16.7813 6.31866839 14.2951861 6.31866839"></polygon>
                        <polygon id="Path" fill="#1FBF53" transform="translate(5.073110, 15.535575) rotate(-59.999272) translate(-5.073110, -15.535575) " points="3.83005338 14.2931399 6.31616729 14.2931399 6.31616729 16.7780108 3.83005338 16.7780108"></polygon>
                        <polygon id="Path" fill="#1FBF53" points="0 28.590939 2.48616861 28.590939 2.48616861 31.0771076 0 31.0771076"></polygon>
                        <polygon id="Path" fill="#1FBF53" transform="translate(5.076233, 44.126074) rotate(-30.000728) translate(-5.076233, -44.126074) " points="3.83379753 42.8830174 6.31866839 42.8830174 6.31866839 45.3691313 3.83379753 45.3691313"></polygon>
                        <polygon id="Path" fill="#1FBF53" points="57.181878 28.590939 59.6680466 28.590939 59.6680466 31.0771076 57.181878 31.0771076"></polygon>
                        <polygon id="Path" fill="#1FBF53" transform="translate(54.591814, 15.532028) rotate(-30.000728) translate(-54.591814, -15.532028) " points="53.3493782 14.2889707 55.8342491 14.2889707 55.8342491 16.7750846 53.3493782 16.7750846"></polygon>
                        <polygon id="Path" fill="#1FBF53" transform="translate(44.131850, 5.077916) rotate(-59.999272) translate(-44.131850, -5.077916) " points="42.8894143 3.83485914 45.3742851 3.83485914 45.3742851 6.32097305 42.8894143 6.32097305"></polygon>
                    </g>
                </g>
            </g>
        </g>
    </g>
</svg>