<?xml version="1.0" encoding="UTF-8"?>
<svg width="66px" height="66px" viewBox="0 0 66 66" version="1.1" xmlns="http://www.w3.org/2000/svg" xmlns:xlink="http://www.w3.org/1999/xlink">
    <!-- Generator: Sketch 59.1 (86144) - https://sketch.com -->
    <title>confidential</title>
    <desc>Created with Sketch.</desc>
    <g id="Page-1" stroke="none" stroke-width="1" fill="none" fill-rule="evenodd">
        <g id="About" transform="translate(-670.000000, -1393.000000)">
            <g id="our-values" transform="translate(511.000000, 1155.000000)">
                <g id="innovation-copy-3" transform="translate(122.000000, 194.734375)">
                    <g id="innovation">
                        <g id="confidential" transform="translate(37.734375, 43.359375)">
                            <path d="M61.9981633,0 L15.7622449,0 C14.0241947,0 12.6097959,1.41439878 12.6097959,3.15244898 L12.6097959,29.4953635 C8.4695796,30.0155176 5.25408164,33.5504637 5.25408164,37.8293878 C5.25408164,40.3891764 6.40787797,42.6820576 8.2184345,44.224656 C3.58853776,44.8351803 0,48.7978086 0,53.5916327 L0,65.1506123 L22.0671429,65.1506123 L22.0671429,52.2718074 L22.8394929,52.039577 C24.0952184,51.6633848 25.2542688,51.1148586 26.3124409,50.4391837 L61.9981633,50.4391837 C63.7362136,50.4391837 65.1506123,49.024785 65.1506123,47.2867348 L65.1506123,3.15244898 C65.1506123,1.41439878 63.7362136,0 61.9981633,0 Z M15.7622449,2.10163266 L61.9981633,2.10163266 C62.5771631,2.10163266 63.0489797,2.57344919 63.0489797,3.15244898 L63.0489797,8.40653062 L14.7114286,8.40653062 L14.7114286,3.15244898 C14.7114286,2.57344919 15.1832451,2.10163266 15.7622449,2.10163266 Z M13.6606123,31.5244898 C16.2571794,31.5244898 18.4901641,33.1017651 19.4558643,35.3484105 L15.7622449,33.5021262 L15.29253,33.737509 C12.9492096,34.9091692 10.3526425,35.57959 7.73295736,35.7025356 C8.60828736,33.2709466 10.9316423,31.5244898 13.6606123,31.5244898 Z M7.3557143,37.8293878 C7.3557143,37.8251845 7.35676511,37.8199305 7.35676511,37.8157272 C10.2507133,37.7463733 13.1341533,37.0759525 15.7548892,35.8475482 L19.9592053,37.9502317 C19.8940547,41.3706388 17.0967817,44.1342858 13.6606123,44.1342858 C10.183461,44.1342858 7.3557143,41.306539 7.3557143,37.8293878 Z M15.7622449,46.2359184 C15.7622449,47.3949688 14.8196627,48.3375511 13.6606123,48.3375511 C12.5015619,48.3375511 11.5589796,47.3949688 11.5589796,46.2359184 L15.7622449,46.2359184 Z M22.2363243,50.0262129 L19.9655102,50.7081927 L19.9655102,63.0489797 L7.3557143,63.0489797 L7.3557143,50.4391837 L5.25408164,50.4391837 L5.25408164,63.0489797 L2.10163266,63.0489797 L2.10163266,53.5916327 C2.10163266,49.5354817 5.40119593,46.2359184 9.45734695,46.2359184 C9.45734695,48.5540192 11.3425114,50.4391837 13.6606123,50.4391837 C15.9787131,50.4391837 17.8638776,48.5540192 17.8638776,46.2359184 L18.9146939,46.2359184 C22.9708449,46.2359184 26.2704082,42.9363552 26.2704082,38.8802041 L26.2704082,29.4228572 C26.2704082,28.2638068 27.2129904,27.3212245 28.3720409,27.3212245 C29.5310913,27.3212245 30.4736735,28.2638068 30.4736735,29.4228572 L30.4736735,38.9558629 C30.4736735,44.0996088 27.1636021,48.5487652 22.2363243,50.0262129 Z M33.6261225,22.0671429 C33.6261225,23.8220062 32.7350302,25.4539239 31.30592,26.4217257 C30.6376009,25.768118 29.7496611,25.3530455 28.7671478,25.2595229 L33.400197,20.6264737 C33.5325998,21.0877821 33.6261225,21.5638019 33.6261225,22.0671429 L33.6261225,22.0671429 Z M28.3720409,22.6829213 L25.962519,20.2733994 L24.4766647,21.7592537 L27.9769339,25.2595229 C26.9944206,25.3530455 26.1064809,25.768118 25.4381617,26.4217257 C24.0090515,25.4549747 23.1179592,23.8220062 23.1179592,22.0671429 C23.1179592,19.1700423 25.4749402,16.8130612 28.3720409,16.8130612 C29.9776882,16.8130612 31.3994427,17.5528359 32.3640921,18.69087 L28.3720409,22.6829213 Z M61.9981633,48.3375511 L28.8564672,48.3375511 C31.1913811,45.8712852 32.5753062,42.5612137 32.5753062,38.9558629 L32.5753062,29.4228572 C32.5753062,29.0056831 32.4954441,28.6105762 32.381956,28.2301807 C34.4405051,26.8851358 35.7277552,24.5638825 35.7277552,22.0671429 C35.7277552,20.9658874 35.4776609,19.9234776 35.0415721,18.9850986 L39.6231313,14.4035394 L38.137277,12.9176851 L33.863607,17.1913551 C32.5154096,15.6739763 30.556688,14.7114286 28.3720409,14.7114286 C24.3158898,14.7114286 21.0163266,18.0109919 21.0163266,22.0671429 C21.0163266,24.5638825 22.3035766,26.8851358 24.3621257,28.2301807 C24.2486376,28.6105762 24.1687755,29.0056831 24.1687755,29.4228572 L24.1687755,38.8802041 C24.1687755,41.6659182 21.9820268,43.9304274 19.2383453,44.1017105 C20.9690398,42.5601629 22.0671429,40.322975 22.0671429,37.8293878 C22.0671429,33.5504637 18.8516449,30.0155176 14.7114286,29.4953635 L14.7114286,10.5081633 L63.0489797,10.5081633 L63.0489797,47.2867348 C63.0489797,47.8657346 62.5771631,48.3375511 61.9981633,48.3375511 Z" id="Shape" fill="#000000" fill-rule="nonzero"></path>
                            <polygon id="Path" fill="#000000" points="25.2195919 4.20326531 27.3212245 4.20326531 27.3212245 6.30489797 25.2195919 6.30489797"></polygon>
                            <polygon id="Path" fill="#000000" points="21.0163266 4.20326531 23.1179592 4.20326531 23.1179592 6.30489797 21.0163266 6.30489797"></polygon>
                            <polygon id="Path" fill="#000000" points="16.8130612 4.20326531 18.9146939 4.20326531 18.9146939 6.30489797 16.8130612 6.30489797"></polygon>
                            <path d="M58.8457144,29.4228572 L37.8293878,29.4228572 C36.6703374,29.4228572 35.7277552,30.3654394 35.7277552,31.5244898 L35.7277552,44.1342858 C35.7277552,45.2933362 36.6703374,46.2359184 37.8293878,46.2359184 L58.8457144,46.2359184 C60.0047648,46.2359184 60.947347,45.2933362 60.947347,44.1342858 L60.947347,31.5244898 C60.947347,30.3654394 60.0047648,29.4228572 58.8457144,29.4228572 Z M37.8293878,44.1342858 L37.8293878,31.5244898 L58.8457144,31.5244898 L58.8467652,44.1342858 L37.8293878,44.1342858 Z" id="Shape" fill="#000000" fill-rule="nonzero"></path>
                            <polygon id="Path" fill="#1FBF53" points="42.0326531 12.6097959 60.947347 12.6097959 60.947347 14.7114286 42.0326531 14.7114286"></polygon>
                            <polygon id="Path" fill="#1FBF53" points="42.0326531 16.8130612 60.947347 16.8130612 60.947347 18.9146939 42.0326531 18.9146939"></polygon>
                            <polygon id="Path" fill="#1FBF53" points="42.0326531 21.0163266 60.947347 21.0163266 60.947347 23.1179592 42.0326531 23.1179592"></polygon>
                            <polygon id="Path" fill="#1FBF53" points="58.8457144 25.2195919 60.947347 25.2195919 60.947347 27.3212245 58.8457144 27.3212245"></polygon>
                            <polygon id="Path" fill="#1FBF53" points="54.6424491 25.2195919 56.7440817 25.2195919 56.7440817 27.3212245 54.6424491 27.3212245"></polygon>
                            <polygon id="Path" fill="#1FBF53" points="42.0326531 25.2195919 52.5408164 25.2195919 52.5408164 27.3212245 42.0326531 27.3212245"></polygon>
                            <polygon id="Path" fill="#1FBF53" points="16.8130612 12.6097959 18.9146939 12.6097959 18.9146939 14.7114286 16.8130612 14.7114286"></polygon>
                            <polygon id="Path" fill="#1FBF53" points="16.8130612 21.0163266 18.9146939 21.0163266 18.9146939 23.1179592 16.8130612 23.1179592"></polygon>
                            <polygon id="Path" fill="#1FBF53" points="16.8130612 16.8130612 18.9146939 16.8130612 18.9146939 18.9146939 16.8130612 18.9146939"></polygon>
                            <polygon id="Path" fill="#1FBF53" points="48.3375511 39.9310205 50.4391837 39.9310205 50.4391837 42.0326531 48.3375511 42.0326531"></polygon>
                            <polygon id="Path" fill="#1FBF53" points="39.9310205 39.9310205 42.0326531 39.9310205 42.0326531 42.0326531 39.9310205 42.0326531"></polygon>
                            <polygon id="Path" fill="#1FBF53" points="44.1342858 39.9310205 46.2359184 39.9310205 46.2359184 42.0326531 44.1342858 42.0326531"></polygon>
                            <polygon id="Path" fill="#000000" points="13.6606123 52.5408164 17.8638776 52.5408164 17.8638776 54.6424491 13.6606123 54.6424491"></polygon>
                        </g>
                    </g>
                </g>
            </g>
        </g>
    </g>
</svg>