<?xml version="1.0" encoding="UTF-8"?>
<svg width="420px" height="436px" viewBox="0 0 420 436" version="1.1" xmlns="http://www.w3.org/2000/svg" xmlns:xlink="http://www.w3.org/1999/xlink">
    <!-- Generator: Sketch 59.1 (86144) - https://sketch.com -->
    <title>our values</title>
    <desc>Created with Sketch.</desc>
    <defs>
        <path d="M11.2018983,0.158572466 C11.5203308,0.158572466 11.8419845,0.177903646 12.1662815,0.209336609 L236.029954,21.8997494 C240.959848,22.3775602 244.907016,26.1848698 245.551324,31.0828231 L286.629576,343.352337 C287.290148,348.375892 284.299472,353.16499 279.488155,354.788396 L71.397415,424.969541 C65.0797422,427.100587 58.377479,422.975609 57.450894,416.38988 L0.599709324,12.2488084 C-0.303610387,5.83006312 4.69888176,0.210489725 11.0250567,0.158572466 L11.2019002,0.158572466" id="path-1"></path>
        <path d="M0.156081761,15.5324107 L53.0683208,415.047035 C57.1608994,423.848141 64.5468553,426.080219 70.9268931,426.104822 L70.9268931,426.104822 L71.1430063,426.104822 C77.4708428,426.080219 82.7530881,423.917763 82.7530881,423.917763 L82.7530881,423.917763 L21.2130252,0.17693296 C20.5469371,0.139766569 19.9022516,0.121445109 19.2779245,0.121445109 L19.2779245,0.121445109 C1.02627673,0.121445109 0.156081761,15.5324107 0.156081761,15.5324107" id="path-3"></path>
        <path d="M0.287,12.177941 L57.2428333,416.815063 C58.1711154,423.410465 64.8851282,427.538945 71.2143718,425.405801 L71.2143718,425.405801 L279.686231,355.138332 C284.506359,353.513978 287.503038,348.718989 286.840731,343.689779 L286.840731,343.689779 L245.688295,31.0356458 C245.041756,26.1306199 241.087359,22.3196753 236.148436,21.8412768 L236.148436,21.8412768 L11.8752821,0.123660517 C11.5199487,0.089601476 11.1682949,0.0723099631 10.8203205,0.0723099631 L10.8203205,0.0723099631 C4.44114103,0.0723099631 -0.621833333,5.72139483 0.287,12.177941" id="path-5"></path>
        <linearGradient x1="55.0853215%" y1="96.6166971%" x2="45.9776128%" y2="-3.40810208%" id="linearGradient-7">
            <stop stop-color="#9DE7B5" offset="0%"></stop>
            <stop stop-color="#FFFFFF" offset="100%"></stop>
        </linearGradient>
        <path d="M7.71833333,0.959095238 C3.0637619,2.34142857 -0.194857143,6.8257619 0.501285714,11.8108571 L0.501285714,11.8108571 L53.3122857,387.530524 C53.9984762,392.444905 58.2743333,395.864857 63.0949524,395.983238 L63.0949524,395.983238 C64.2824286,396.017286 65.5013333,395.841286 66.7050476,395.447905 L66.7050476,395.447905 L267.616905,329.117381 C272.264667,327.590476 275.174429,323.117143 274.556857,318.449476 L274.556857,318.449476 L236.502095,28.1238571 C235.91281,23.5740476 232.119905,20.0524762 227.378381,19.6318571 L227.378381,19.6318571 L11.7081905,0.555238095 C11.3860476,0.525380952 11.0665238,0.510714286 10.749619,0.510714286 L10.749619,0.510714286 C9.69466667,0.510714286 8.6732381,0.671 7.71833333,0.959095238" id="path-8"></path>
        <path d="M106.594425,173.588584 C241.807125,87.1425542 335.954325,103.32141 335.954325,103.32141 L335.954325,103.32141 L0.457275,0.354813253 C46.01835,153.690217 106.594425,173.588584 106.594425,173.588584" id="path-10"></path>
        <linearGradient x1="53.9505534%" y1="61.9841644%" x2="47.5486501%" y2="33.7995636%" id="linearGradient-12">
            <stop stop-color="#9AB5FF" offset="0%"></stop>
            <stop stop-color="#CDFFFF" offset="100%"></stop>
        </linearGradient>
        <path d="M2.92086207,0.51175 C1.21603448,0.744363636 0.0196551724,2.32927273 0.250344828,4.05270455 L0.250344828,4.05270455 L8.49103448,65.8469091 C8.7212069,67.5713864 10.2889655,68.7799318 11.9953448,68.5473182 L11.9953448,68.5473182 C13.7001724,68.3141818 14.8965517,66.72875 14.6663793,65.0058409 L14.6663793,65.0058409 L6.42517241,3.21111364 C6.21413793,1.63090909 4.87758621,0.483 3.34137931,0.483 L3.34137931,0.483 C3.20275862,0.483 3.06206897,0.492409091 2.92086207,0.51175" id="path-13"></path>
        <path d="M2.48733333,0.120618321 C1.17444444,0.300229008 0.253037037,1.52748092 0.429851852,2.86112977 L0.429851852,2.86112977 L8.88533333,66.5855267 C9.06162963,67.9197023 10.2697778,68.8551527 11.5831852,68.675542 L11.5831852,68.675542 C12.8955556,68.4954046 13.8159259,67.2686794 13.6396296,65.9345038 L13.6396296,65.9345038 L5.18414815,2.21010687 C5.02237037,0.986541985 3.99259259,0.0984959492 2.81037037,0.0984959492 L2.81037037,0.0984959492 C2.70355556,0.0984959492 2.5957037,0.105343511 2.48733333,0.120618321" id="path-15"></path>
        <linearGradient x1="51.2811952%" y1="99.9683893%" x2="48.7188202%" y2="0.0321814242%" id="linearGradient-17">
            <stop stop-color="#F2DFFF" offset="0%"></stop>
            <stop stop-color="#FFFFFF" offset="100%"></stop>
        </linearGradient>
        <path d="M2.48162963,0.0763692308 C3.79451852,-0.102523077 5.00214815,0.826984615 5.17896296,2.15141538 L13.6334074,65.4353538 C13.7485185,66.2942462 13.396963,67.1034462 12.780963,67.6186769 C12.8758519,67.2996 12.9111111,66.9569846 12.8639259,66.6049538 L4.40948148,3.32049231 C4.23162963,1.99606154 3.024,1.06707692 1.71059259,1.24596923 C1.25014815,1.30873846 0.841037037,1.50436923 0.507111111,1.78421538" id="path-18"></path>
        <linearGradient x1="51.3123518%" y1="100.230969%" x2="48.7060319%" y2="0.0109594373%" id="linearGradient-20">
            <stop stop-color="#AFC1FF" offset="0%"></stop>
            <stop stop-color="#CAFFFF" offset="100%"></stop>
        </linearGradient>
        <path d="M3.32145,0.154104478 L2.88695,0.208955224 C1.19405,0.426791045 0.00605,1.90567164 0.2343,3.51410448 L0.2343,3.51410448 L4.33565,32.4131343 C4.56335,34.0220896 6.12205,35.1488806 7.8144,34.9331343 L7.8144,34.9331343 L8.2489,34.8777612 C9.94235,34.6614925 11.1298,33.1815672 10.90155,31.5731343 L10.90155,31.5731343 L6.80075,2.67462687 C6.59175,1.19835821 5.26295,0.127462687 3.7378,0.127462687 L3.7378,0.127462687 C3.60085,0.127462687 3.4617,0.135820896 3.32145,0.154104478" id="path-21"></path>
        <path d="M2.66277778,0.316588235 C1.25555556,0.497117647 0.268888889,1.73011765 0.459444444,3.07058824 L0.459444444,3.07058824 L4.74944444,33.4064118 C4.93888889,34.7468824 6.23333333,35.6871176 7.63944444,35.5065882 L7.63944444,35.5065882 C9.04666667,35.3255294 10.0338889,34.092 9.84388889,32.7525882 L9.84388889,32.7525882 L5.55333333,2.41729412 C5.38,1.18747059 4.27666667,0.294352941 3.00944444,0.294352941 L3.00944444,0.294352941 C2.895,0.294352941 2.77944444,0.301764706 2.66277778,0.316588235" id="path-23"></path>
        <linearGradient x1="51.8906247%" y1="99.9375301%" x2="48.1085365%" y2="0.0628080062%" id="linearGradient-25">
            <stop stop-color="#F2DFFF" offset="0%"></stop>
            <stop stop-color="#FFFFFF" offset="100%"></stop>
        </linearGradient>
        <path d="M2.53318605,0.291542869 C3.87226163,0.112736901 5.0330407,0.51701667 5.12562791,1.19448679 L9.53119186,33.5924502 C9.59097674,34.0329107 9.18306395,34.4780904 8.52543023,34.7864127 C8.64235465,34.6133746 8.70002326,34.4329956 8.67568605,34.2526166 L4.27012209,1.85412875 C4.17753488,1.17665863 3.01728488,0.771854501 1.67715116,0.950660469 C1.20627907,1.01358339 0.780377907,1.14205102 0.424313953,1.31036984" id="path-26"></path>
        <linearGradient x1="51.8159273%" y1="100.451938%" x2="48.2135578%" y2="0.0802068428%" id="linearGradient-28">
            <stop stop-color="#AFC1FF" offset="0%"></stop>
            <stop stop-color="#CAFFFF" offset="100%"></stop>
        </linearGradient>
        <path d="M31.2161744,234.065405 C31.2161744,234.065405 -1.183,0.300981307 0.201575581,0.0306820287 C1.58668023,-0.240155816 31.6944535,215.667264 31.6944535,215.667264" id="path-29"></path>
        <linearGradient x1="50.9620193%" y1="99.9244603%" x2="49.0662793%" y2="-0.0339096943%" id="linearGradient-31">
            <stop stop-color="#CA90FF" offset="0%"></stop>
            <stop stop-color="#000000" offset="100%"></stop>
        </linearGradient>
        <path d="M0.428341429,9.50482575 L0.443021429,9.5886749 L27.5512143,201.597475 L31.91065,232.506893 C48.74861,287.146671 88.7825429,376.552928 137.703643,402.670368 L137.703643,402.670368 C137.703643,402.670368 206.145997,358.966092 281.699763,341.033378 L281.699763,341.033378 C310.205177,334.27304 339.717744,331.17167 366.951766,335.474179 L366.951766,335.474179 C366.951766,335.474179 295.058039,283.23668 255.737134,195.620078 L255.737134,195.620078 C255.624937,194.794688 254.842703,188.873365 253.626884,179.654151 L253.626884,179.654151 L246.528056,125.53057 C246.235504,123.239915 245.913593,120.922534 245.619993,118.603057 L245.619993,118.603057 L242.854386,97.5820741 C241.721929,88.8528531 240.576364,80.2347321 239.514161,72.1060806 L239.514161,72.1060806 L239.080577,68.8941339 L237.655569,58.0692081 C236.035001,45.6663459 234.665043,35.1626671 233.742824,28.1507815 L233.742824,28.1507815 C233.728669,28.0674564 233.715037,27.9699818 233.68725,27.8856086 L233.68725,27.8856086 C233.085894,24.1564174 230.06863,21.3348934 226.294821,20.9580962 L226.294821,20.9580962 L9.46964857,0.147260078 C9.19859286,0.121581274 8.93068286,0.109003901 8.66539429,0.109003901 L8.66539429,0.109003901 C3.71299143,0.109003901 -0.207617143,4.46758778 0.428341429,9.50482575" id="path-32"></path>
        <linearGradient x1="49.0857154%" y1="100.181808%" x2="50.6665779%" y2="0.770930766%" id="linearGradient-34">
            <stop stop-color="#FFFFFF" offset="0%"></stop>
            <stop stop-color="#DBDBFF" offset="100%"></stop>
        </linearGradient>
        <path d="M7.55670962,72.8413876 L0.298056826,5.60435284 C-0.0288104138,2.57340058 2.3781687,-0.0576525589 5.424739,0.00209645669 L61.1624132,1.10011565 C63.7218255,1.15043061 65.8407005,3.10747293 66.0952798,5.65676426 L72.4052843,68.9571775 C72.6923407,71.8340402 70.5195117,74.3639393 67.6348036,74.5127877 L12.8457778,77.3519142" id="path-35"></path>
        <linearGradient x1="50.0001273%" y1="99.9997295%" x2="50.0001225%" y2="-9.64489078e-05%" id="linearGradient-37">
            <stop stop-color="#59CA7E" offset="0%"></stop>
            <stop stop-color="#1E9143" offset="100%"></stop>
        </linearGradient>
        <path d="M7.19702727,8.77190517 C1.91779091,14.6037155 -0.539945455,22.4522069 0.453927273,30.3075345 L0.453927273,30.3075345 L3.15158182,51.6291379 C3.55420909,54.8142845 6.41768182,57.0549828 9.5646,56.6558534 L9.5646,56.6558534 C12.7021909,56.2462069 14.9210455,53.3339828 14.5173818,50.1483103 L14.5173818,50.1483103 L11.8202455,28.826181 C11.2575,24.381069 12.6477818,19.9396379 15.6356182,16.6398534 L15.6356182,16.6398534 C18.6224182,13.3390172 22.8647727,11.5663362 27.2781273,11.7503879 L27.2781273,11.7503879 C34.5404455,12.0669569 40.4985,17.6063879 41.4452182,24.9211293 L41.4452182,24.9211293 L45.4310727,55.7056207 C45.8098636,58.6330948 48.2712273,60.7638879 51.1046455,60.7638879 L51.1046455,60.7638879 C51.3518182,60.7638879 51.6046909,60.7481121 51.8580818,60.7134052 L51.8580818,60.7134052 C54.9956727,60.294819 57.2046818,57.3752328 56.7922091,54.1911379 L56.7922091,54.1911379 L52.8068727,23.4066466 C51.1341818,10.4809569 40.6052455,0.692034483 27.7714364,0.131991379 L27.7714364,0.131991379 C27.3765818,0.114112069 26.9832818,0.105172414 26.5905,0.105172414 L26.5905,0.105172414 C19.2229909,0.105172414 12.2088818,3.23457759 7.19702727,8.77190517" id="path-38"></path>
        <linearGradient x1="49.9998471%" y1="99.9998103%" x2="49.9998426%" y2="0.000592539293%" id="linearGradient-40">
            <stop stop-color="#FFFFD6" offset="0%"></stop>
            <stop stop-color="#6475AF" offset="100%"></stop>
        </linearGradient>
        <path d="M41.5693584,6.7421322 C37.8970311,4.26185501 33.5599707,2.76049574 28.8825255,2.55521322 C21.5089021,2.22327825 14.4001372,5.22494136 9.41127625,10.771791 C4.42448446,16.3186407 2.08524457,23.7921908 3.02983812,31.2667964 L5.58634487,51.5406876 C5.694461,52.4409755 6.01932669,53.2468017 6.48386393,53.9423348 C4.59519413,53.2789925 3.15399062,51.5723507 2.87568211,49.4229531 L0.319692669,29.1495896 C-0.625418182,21.6755117 1.7133044,14.2009062 6.70061349,8.6540565 C11.6889572,3.10826226 18.7987566,0.10554371 26.1718628,0.438006397" id="path-41"></path>
        <linearGradient x1="50.000144%" y1="99.9997766%" x2="50.0001385%" y2="0.000484144978%" id="linearGradient-43">
            <stop stop-color="#000000" offset="0%"></stop>
            <stop stop-color="#FFFFFF" offset="100%"></stop>
        </linearGradient>
        <path d="M11.8705302,42.3921588 C9.98082581,41.7282889 8.54013959,40.0374787 8.26183109,37.8886087 L4.48087038,8.59284115 C4.04788856,5.28985075 2.56064516,2.38212154 0.377113196,0.201588486 C4.01633314,2.36628998 6.60387801,6.17483475 7.19256774,10.7095203 L10.9714592,40.0063433" id="path-44"></path>
        <linearGradient x1="49.9995076%" y1="100.000068%" x2="49.9994919%" y2="0.00101627287%" id="linearGradient-46">
            <stop stop-color="#000000" offset="0%"></stop>
            <stop stop-color="#FFFFFF" offset="100%"></stop>
        </linearGradient>
        <path d="M0.133941176,15.2551534 L7.41970588,79.7373006 C9.65223529,84.4415031 14.5789412,84.8623313 14.5789412,84.8623313 L14.5789412,84.8623313 L80.1137647,80.8355215 C80.1137647,80.8355215 87.8775882,79.672638 89.6320588,75.9534969 L89.6320588,75.9534969 C81.8655882,64.6829141 24.462,0.606993865 17.6696471,0.494877301 L17.6696471,0.494877301 C17.568,0.493312883 17.4684706,0.492269939 17.3678824,0.492269939 L17.3678824,0.492269939 C3.98805882,0.493312883 0.133941176,15.2551534 0.133941176,15.2551534" id="path-47"></path>
        <linearGradient x1="50.0001756%" y1="100.000203%" x2="50.0001714%" y2="0.000207612243%" id="linearGradient-49">
            <stop stop-color="#38C465" offset="0%"></stop>
            <stop stop-color="#13903C" offset="100%"></stop>
        </linearGradient>
        <path d="M0.0983835616,6.11030769 L7.68693151,76.1882885 C7.98728767,78.9703269 10.4140822,81.0332308 13.2167123,80.8883654 L13.2167123,80.8883654 L70.4972877,77.9308269 C73.5133425,77.7760962 75.7855342,75.1378846 75.4856986,72.1408846 L75.4856986,72.1408846 L69.1719726,8.99775 C68.7446027,4.72344231 65.1819726,1.44294231 60.876,1.35882692 L60.876,1.35882692 L5.45846575,0.270519231 C5.42306849,0.269480769 5.38819178,0.269480769 5.35331507,0.269480769 L5.35331507,0.269480769 C2.21805479,0.269480769 -0.239972603,2.98557692 0.0983835616,6.11030769" id="path-50"></path>
        <linearGradient x1="49.9997405%" y1="99.9999967%" x2="49.9997358%" y2="0.000342092073%" id="linearGradient-52">
            <stop stop-color="#1FAC4D" offset="0%"></stop>
            <stop stop-color="#39CE69" offset="100%"></stop>
        </linearGradient>
        <path d="M18.8882339,29.5175061 L19.7741036,40.0401811 C19.9955711,42.735748 17.9829463,45.1502207 15.2644597,45.370481 L14.0558353,45.4727448 C12.988908,45.5723863 11.982858,45.3112205 11.1169308,44.8077683 C9.80754395,44.023222 8.86132169,42.6156537 8.72067412,40.9846784 L7.85474692,30.8049802 C4.29185009,29.2358876 1.65365855,25.8155593 1.29101874,21.6505414 L0.48701845,12.2150085 C0.224091463,9.07629881 1.33195348,6.09911337 3.28527532,3.92587814 C5.09637518,1.91416714 7.63327947,0.545406527 10.5328236,0.304169025 C16.5733218,-0.21921147 21.9483681,4.30818713 22.4516555,10.344369 L23.2567054,19.7998302" id="path-53"></path>
        <linearGradient x1="50.0001124%" y1="100.000063%" x2="50.0001037%" y2="0.000558181099%" id="linearGradient-55">
            <stop stop-color="#1E9A46" offset="0%"></stop>
            <stop stop-color="#0E7F33" offset="100%"></stop>
        </linearGradient>
        <path d="M0.0876423288,12.8490436 C4.12758632,2.02849274 12.9873336,0.164670817 12.9873336,0.164670817 C11.2260901,2.18424826 11.7855316,5.53220524 11.7855316,5.53220524" id="path-56"></path>
        <linearGradient x1="50.0001273%" y1="99.9999033%" x2="50.0001229%" y2="0.00187373382%" id="linearGradient-58">
            <stop stop-color="#000000" offset="0%"></stop>
            <stop stop-color="#FFFFFF" offset="100%"></stop>
        </linearGradient>
        <path d="M4.90324717,59.4566535 L0.257678943,20.0048821 L79.2779968,0.135302773 L82.0075043,21.8052481 C82.8246247,28.2955857 78.3889782,34.2793247 71.9375582,35.3911149 L19.4167119,44.4328014 L4.90324717,59.4566535 Z" id="path-59"></path>
        <linearGradient x1="49.9999389%" y1="100.000021%" x2="49.9999358%" y2="-0.000165759044%" id="linearGradient-61">
            <stop stop-color="#168E3D" offset="0%"></stop>
            <stop stop-color="#26954A" offset="100%"></stop>
        </linearGradient>
        <path d="M143.925041,0.101780488 L25.5534706,3.80450244 C15.2886294,3.85043415 4.08405294,7.57820976 0,21.0513366 L0,21.0513366 L11.9610765,97.3846146 C12.9023824,103.394883 18.4680235,107.567361 24.5200235,106.802702 L24.5200235,106.802702 L154.124965,90.4092585 C160.268059,89.6315512 178.516724,85.1558195 177.7864,79.0249805 L177.7864,79.0249805 L155.796594,9.9958878 C155.119147,4.31079512 150.280688,0.0814243902 144.610865,0.0814243902 L144.610865,0.0814243902 C144.383653,0.0814243902 144.154871,0.0882097561 143.925041,0.101780488" id="path-62"></path>
        <linearGradient x1="48.9912013%" y1="68.7025707%" x2="50.8918804%" y2="31.399119%" id="linearGradient-64">
            <stop stop-color="#1FBF53" offset="0%"></stop>
            <stop stop-color="#1EA149" offset="100%"></stop>
        </linearGradient>
        <path d="M144.432619,0.509067961 L10.9004762,8.53986408 C4.25909524,8.93935922 -0.596619048,14.9747767 0.430571429,21.5522913 L0.430571429,21.5522913 L12.3975238,98.2265243 C13.3398571,104.262466 18.909,108.452971 24.9642381,107.684913 L24.9642381,107.684913 L154.638,91.2185825 C160.784381,90.4379417 165.151905,84.8413398 164.420667,78.6821942 L164.420667,78.6821942 L156.31,10.4466408 C155.63219,4.73784466 150.790095,0.488621359 145.116714,0.488621359 L145.116714,0.488621359 C144.889905,0.488621359 144.661524,0.495436893 144.432619,0.509067961" id="path-65"></path>
        <linearGradient x1="48.8932029%" y1="72.0396742%" x2="50.952424%" y2="27.9106651%" id="linearGradient-67">
            <stop stop-color="#1FBF53" offset="0%"></stop>
            <stop stop-color="#97D7AC" offset="100%"></stop>
        </linearGradient>
        <path d="M0.0407080292,8.02683871 C0.0407080292,8.02683871 2.29008759,17.7424516 7.57117153,47.6738065 L7.57117153,47.6738065 L142.810551,36.3891613 C142.810551,36.3891613 139.853478,1.43896774 131.903931,0.332903226 L131.903931,0.332903226 L0.0407080292,8.02683871 Z" id="path-68"></path>
        <linearGradient x1="-0.299642563%" y1="49.5083731%" x2="100.220201%" y2="50.5142427%" id="linearGradient-70">
            <stop stop-color="#1FBF53" offset="0%"></stop>
            <stop stop-color="#A8DEB9" offset="100%"></stop>
        </linearGradient>
        <path d="M0.014,3.241875 L3.38540741,2.51265 L9.73622222,41.58945 L13.7443704,40.6182 C12.4615556,27.7431 6.26266667,0.2898 6.26266667,0.2898 L6.26266667,0.2898 L0.014,3.241875 Z" id="path-71"></path>
        <linearGradient x1="49.5253658%" y1="99.7415%" x2="50.5238074%" y2="0.0942327054%" id="linearGradient-73">
            <stop stop-color="#108C39" offset="0%"></stop>
            <stop stop-color="#D4BCEF" offset="100%"></stop>
        </linearGradient>
        <path d="M57.1858451,0.291844444 L15.1465493,2.84535556 C10.9415775,3.10091111 7.0961831,4.95317778 4.32014085,8.06328889 L4.32014085,8.06328889 C1.54357746,11.1723778 0.177704225,15.1549556 0.474746479,19.2775778 L0.474746479,19.2775778 C0.607633803,21.1334222 2.18456338,22.5522667 4.05228169,22.5522667 L4.05228169,22.5522667 C4.13722535,22.5522667 4.22269014,22.5486889 4.30815493,22.5430667 L4.30815493,22.5430667 C6.28635211,22.4066 7.77625352,20.7224889 7.63659155,18.7833333 L7.63659155,18.7833333 C7.47556338,16.5472222 8.21608451,14.3882889 9.72109859,12.7031556 L9.72109859,12.7031556 C11.2271549,11.0164889 13.3106197,10.0121556 15.5915915,9.87313333 L15.5915915,9.87313333 L57.6298451,7.31911111 C61.8540986,7.07122222 65.6557183,9.93497778 66.4895211,13.9988222 L66.4895211,13.9988222 L66.8772394,15.8868667 C67.2686056,17.7928 69.1608169,19.0220222 71.1061831,18.6432889 L71.1061831,18.6432889 C73.0489437,18.2594444 74.3079859,16.4020667 73.9150563,14.4956222 L73.9150563,14.4956222 L73.5283803,12.6086 C72.0556761,5.43055556 65.5572254,0.261177778 58.1686901,0.261177778 L58.1686901,0.261177778 C57.8429859,0.261177778 57.5151972,0.2714 57.1858451,0.291844444" id="path-74"></path>
        <linearGradient x1="0.314948668%" y1="49.6236118%" x2="100.108727%" y2="50.5287787%" id="linearGradient-76">
            <stop stop-color="#024719" offset="0%"></stop>
            <stop stop-color="#3F3F3F" offset="100%"></stop>
        </linearGradient>
        <polygon id="path-77" points="4.47569776 11.63136 0.408794776 12.59336 138.474627 1.27556 140.809019 0.26208"></polygon>
        <linearGradient x1="49.8177708%" y1="50.5177807%" x2="50.1820366%" y2="49.4822786%" id="linearGradient-79">
            <stop stop-color="#BCAEF4" offset="0%"></stop>
            <stop stop-color="#D4BCEF" offset="100%"></stop>
        </linearGradient>
        <polygon id="path-80" points="1.57978723 0.798967742 0.455851064 1.90606452 2.3287234 15.7021935 24.2978723 13.0797419 24.6765957 12.4500645 21.962766 0.253935484"></polygon>
        <linearGradient x1="48.8558594%" y1="71.1150758%" x2="50.9352248%" y2="28.9432378%" id="linearGradient-82">
            <stop stop-color="#9780C1" offset="0%"></stop>
            <stop stop-color="#486991" offset="100%"></stop>
        </linearGradient>
        <polygon id="path-83" points="0.495777778 1.83122581 2.7692 15.5938065 22.6892444 13.4823226 21.1620444 0.180645161"></polygon>
        <linearGradient x1="48.8848448%" y1="74.9406062%" x2="51.0586737%" y2="24.9810577%" id="linearGradient-85">
            <stop stop-color="#FFFFD6" offset="0%"></stop>
            <stop stop-color="#6475AF" offset="100%"></stop>
        </linearGradient>
        <path d="M0.257384615,1.54454545 L20.9009231,0.16 C20.9009231,0.16 21.3806923,4.21590909 12.3361538,4.62409091" id="path-86"></path>
        <linearGradient x1="49.3474723%" y1="52.3626845%" x2="50.179674%" y2="47.3520483%" id="linearGradient-88">
            <stop stop-color="#000000" offset="0%"></stop>
            <stop stop-color="#FFFFFF" offset="100%"></stop>
        </linearGradient>
        <path d="M53.1528312,8.67262346 L1.03143506,151.636852 C-1.377,158.245864 2.07128571,165.620401 8.69803247,168.025062 L8.69803247,168.025062 L11.5761623,169.068673 C18.2029091,171.473858 25.596,168.031883 28.005487,161.421296 L28.005487,161.421296 L80.1279351,18.4591667 C82.5368961,11.8491049 79.0865065,4.47404321 72.4608117,2.06938272 L72.4608117,2.06938272 L69.5821558,1.0257716 C68.1483506,0.505802469 66.6793052,0.259197531 65.2318247,0.259197531 L65.2318247,0.259197531 C59.9904935,0.259197531 55.0421299,3.49287037 53.1528312,8.67262346" id="path-89"></path>
    </defs>
    <g id="Page-1" stroke="none" stroke-width="1" fill="none" fill-rule="evenodd">
        <g id="About" transform="translate(-131.000000, -1355.000000)">
            <g id="our-values" transform="translate(131.000000, 1342.000000)">
                <g id="Group-3" transform="translate(9.000000, 0.000000)">
                    <mask id="mask-2" fill="white">
                        <use xlink:href="#path-1"></use>
                    </mask>
                    <g id="Clip-2"></g>
                    <path d="M12.1662815,0.209336609 L236.029954,21.8997494 C240.959848,22.3775602 244.907016,26.1848698 245.551324,31.0828231 L286.629576,343.352337 C287.290148,348.375892 284.299472,353.16499 279.488155,354.788396 L71.397415,424.969541 C65.0797422,427.100587 58.377479,422.975609 57.450894,416.38988 L0.599709324,12.2488084 C-0.35730713,5.4485086 5.31448446,-0.454783784 12.1662815,0.209336609" id="Fill-1" mask="url(#mask-2)"></path>
                </g>
                <g id="Group-6" transform="translate(39.000000, 24.000000)">
                    <mask id="mask-4" fill="white">
                        <use xlink:href="#path-3"></use>
                    </mask>
                    <g id="Clip-5"></g>
                    <path d="M0.156081761,15.5324107 L53.0683208,415.047035 C57.1608994,423.848141 64.5468553,426.080219 70.9268931,426.104822 L70.9268931,426.104822 L71.1430063,426.104822 C77.4708428,426.080219 82.7530881,423.917763 82.7530881,423.917763 L82.7530881,423.917763 L21.2130252,0.17693296 C20.5469371,0.139766569 19.9022516,0.121445109 19.2779245,0.121445109 L19.2779245,0.121445109 C1.02627673,0.121445109 0.156081761,15.5324107 0.156081761,15.5324107" id="Fill-4" mask="url(#mask-4)"></path>
                </g>
                <g id="Group-9" transform="translate(47.000000, 23.000000)">
                    <mask id="mask-6" fill="white">
                        <use xlink:href="#path-5"></use>
                    </mask>
                    <g id="Clip-8"></g>
                    <path d="M0.287,12.177941 L57.2428333,416.815063 C58.1711154,423.410465 64.8851282,427.538945 71.2143718,425.405801 L71.2143718,425.405801 L279.686231,355.138332 C284.506359,353.513978 287.503038,348.718989 286.840731,343.689779 L286.840731,343.689779 L245.688295,31.0356458 C245.041756,26.1306199 241.087359,22.3196753 236.148436,21.8412768 L236.148436,21.8412768 L11.8752821,0.123660517 C11.5199487,0.089601476 11.1682949,0.0723099631 10.8203205,0.0723099631 L10.8203205,0.0723099631 C4.44114103,0.0723099631 -0.621833333,5.72139483 0.287,12.177941" id="Fill-7" fill="url(#linearGradient-7)" mask="url(#mask-6)"></path>
                </g>
                <g id="Group-12" transform="translate(54.000000, 38.000000)">
                    <mask id="mask-9" fill="white">
                        <use xlink:href="#path-8"></use>
                    </mask>
                    <g id="Clip-11"></g>
                    <path d="M7.71833333,0.959095238 C3.0637619,2.34142857 -0.194857143,6.8257619 0.501285714,11.8108571 L0.501285714,11.8108571 L53.3122857,387.530524 C53.9984762,392.444905 58.2743333,395.864857 63.0949524,395.983238 L63.0949524,395.983238 C64.2824286,396.017286 65.5013333,395.841286 66.7050476,395.447905 L66.7050476,395.447905 L267.616905,329.117381 C272.264667,327.590476 275.174429,323.117143 274.556857,318.449476 L274.556857,318.449476 L236.502095,28.1238571 C235.91281,23.5740476 232.119905,20.0524762 227.378381,19.6318571 L227.378381,19.6318571 L11.7081905,0.555238095 C11.3860476,0.525380952 11.0665238,0.510714286 10.749619,0.510714286 L10.749619,0.510714286 C9.69466667,0.510714286 8.6732381,0.671 7.71833333,0.959095238" id="Fill-10" mask="url(#mask-9)"></path>
                </g>
                <g id="Group-17" transform="translate(54.000000, 38.000000)">
                    <path d="M233.352311,28.0640629 L271.426546,318.632346 C272.044966,323.303381 269.133151,327.780446 264.483995,329.309672 L63.4660378,395.694993 C63.3496909,395.734312 63.244874,395.760524 63.1280031,395.789358 C58.3048509,395.670878 54.0272709,392.248073 53.3401958,387.329594 L0.501968401,11.2965662 C-0.19454027,6.30678899 3.06526705,1.81923984 7.72280848,0.435229358 C7.96441156,0.439423329 8.20811098,0.455150721 8.4518104,0.470878113 L224.224327,19.5655046 C228.967294,19.9869987 232.762716,23.510983 233.352311,28.0640629" id="Fill-13" fill="#97D7AC"></path>
                    <path d="M25.8662042,191.827575 C25.8662042,191.827575 51.5552678,336.270564 98.0159075,399.675544 L122.681958,391.468991 L25.8662042,191.827575 Z" id="Fill-15" fill="#1FBF53"></path>
                </g>
                <g id="Group-20" transform="translate(84.000000, 268.000000)">
                    <mask id="mask-11" fill="white">
                        <use xlink:href="#path-10"></use>
                    </mask>
                    <g id="Clip-19"></g>
                    <path d="M106.594425,173.588584 C241.807125,87.1425542 335.954325,103.32141 335.954325,103.32141 L335.954325,103.32141 L0.457275,0.354813253 C46.01835,153.690217 106.594425,173.588584 106.594425,173.588584" id="Fill-18" fill="url(#linearGradient-12)" mask="url(#mask-11)"></path>
                </g>
                <g id="Group-23" transform="translate(45.000000, 72.000000)">
                    <mask id="mask-14" fill="white">
                        <use xlink:href="#path-13"></use>
                    </mask>
                    <g id="Clip-22"></g>
                    <path d="M2.92086207,0.51175 C1.21603448,0.744363636 0.0196551724,2.32927273 0.250344828,4.05270455 L0.250344828,4.05270455 L8.49103448,65.8469091 C8.7212069,67.5713864 10.2889655,68.7799318 11.9953448,68.5473182 L11.9953448,68.5473182 C13.7001724,68.3141818 14.8965517,66.72875 14.6663793,65.0058409 L14.6663793,65.0058409 L6.42517241,3.21111364 C6.21413793,1.63090909 4.87758621,0.483 3.34137931,0.483 L3.34137931,0.483 C3.20275862,0.483 3.06206897,0.492409091 2.92086207,0.51175" id="Fill-21" mask="url(#mask-14)"></path>
                </g>
                <g id="Group-26" transform="translate(44.000000, 73.000000)">
                    <mask id="mask-16" fill="white">
                        <use xlink:href="#path-15"></use>
                    </mask>
                    <g id="Clip-25"></g>
                    <path d="M2.48733333,0.120618321 C1.17444444,0.300229008 0.253037037,1.52748092 0.429851852,2.86112977 L0.429851852,2.86112977 L8.88533333,66.5855267 C9.06162963,67.9197023 10.2697778,68.8551527 11.5831852,68.675542 L11.5831852,68.675542 C12.8955556,68.4954046 13.8159259,67.2686794 13.6396296,65.9345038 L13.6396296,65.9345038 L5.18414815,2.21010687 C5.02237037,0.986541985 3.99259259,0.0984959492 2.81037037,0.0984959492 L2.81037037,0.0984959492 C2.70355556,0.0984959492 2.5957037,0.105343511 2.48733333,0.120618321" id="Fill-24" fill="url(#linearGradient-17)" mask="url(#mask-16)"></path>
                </g>
                <g id="Group-29" transform="translate(44.000000, 73.000000)">
                    <mask id="mask-19" fill="white">
                        <use xlink:href="#path-18"></use>
                    </mask>
                    <g id="Clip-28"></g>
                    <path d="M2.48162963,0.0763692308 C1.51718519,0.207138462 0.768444444,0.901784615 0.507111111,1.78421538 C0.841037037,1.50436923 1.25014815,1.30873846 1.71059259,1.24596923 C3.024,1.06707692 4.23162963,1.99606154 4.40948148,3.32049231 L12.8639259,66.6049538 C12.9111111,66.9569846 12.8758519,67.2996 12.780963,67.6186769 C13.396963,67.1034462 13.7485185,66.2942462 13.6334074,65.4353538 L5.17896296,2.15141538 C5.00214815,0.826984615 3.79451852,-0.102523077 2.48162963,0.0763692308" id="Fill-27" fill="url(#linearGradient-20)" mask="url(#mask-19)"></path>
                </g>
                <g id="Group-32" transform="translate(55.000000, 151.000000)">
                    <mask id="mask-22" fill="white">
                        <use xlink:href="#path-21"></use>
                    </mask>
                    <g id="Clip-31"></g>
                    <path d="M3.32145,0.154104478 L2.88695,0.208955224 C1.19405,0.426791045 0.00605,1.90567164 0.2343,3.51410448 L0.2343,3.51410448 L4.33565,32.4131343 C4.56335,34.0220896 6.12205,35.1488806 7.8144,34.9331343 L7.8144,34.9331343 L8.2489,34.8777612 C9.94235,34.6614925 11.1298,33.1815672 10.90155,31.5731343 L10.90155,31.5731343 L6.80075,2.67462687 C6.59175,1.19835821 5.26295,0.127462687 3.7378,0.127462687 L3.7378,0.127462687 C3.60085,0.127462687 3.4617,0.135820896 3.32145,0.154104478" id="Fill-30" mask="url(#mask-22)"></path>
                </g>
                <g id="Group-35" transform="translate(55.000000, 150.000000)">
                    <mask id="mask-24" fill="white">
                        <use xlink:href="#path-23"></use>
                    </mask>
                    <g id="Clip-34"></g>
                    <path d="M2.66277778,0.316588235 C1.25555556,0.497117647 0.268888889,1.73011765 0.459444444,3.07058824 L0.459444444,3.07058824 L4.74944444,33.4064118 C4.93888889,34.7468824 6.23333333,35.6871176 7.63944444,35.5065882 L7.63944444,35.5065882 C9.04666667,35.3255294 10.0338889,34.092 9.84388889,32.7525882 L9.84388889,32.7525882 L5.55333333,2.41729412 C5.38,1.18747059 4.27666667,0.294352941 3.00944444,0.294352941 L3.00944444,0.294352941 C2.895,0.294352941 2.77944444,0.301764706 2.66277778,0.316588235" id="Fill-33" fill="url(#linearGradient-25)" mask="url(#mask-24)"></path>
                </g>
                <g id="Group-42" transform="translate(54.000000, 151.000000)">
                    <g id="Group-38">
                        <mask id="mask-27" fill="white">
                            <use xlink:href="#path-26"></use>
                        </mask>
                        <g id="Clip-37"></g>
                        <path d="M2.53318605,0.291542869 C1.54911628,0.422632288 0.747046512,0.833204349 0.424313953,1.31036984 C0.780377907,1.14205102 1.20627907,1.01358339 1.67715116,0.950660469 C3.01728488,0.771854501 4.17753488,1.17665863 4.27012209,1.85412875 L8.67568605,34.2526166 C8.70002326,34.4329956 8.64235465,34.6133746 8.52543023,34.7864127 C9.18306395,34.4780904 9.59097674,34.0329107 9.53119186,33.5924502 L5.12562791,1.19448679 C5.0330407,0.51701667 3.87226163,0.112736901 2.53318605,0.291542869" id="Fill-36" fill="url(#linearGradient-28)" mask="url(#mask-27)"></path>
                    </g>
                    <g id="Group-41" transform="translate(5.290698, 47.716549)">
                        <mask id="mask-30" fill="white">
                            <use xlink:href="#path-29"></use>
                        </mask>
                        <g id="Clip-40"></g>
                        <path d="M31.2161744,234.065405 C31.2161744,234.065405 -1.183,0.300981307 0.201575581,0.0306820287 C1.58668023,-0.240155816 31.6944535,215.667264 31.6944535,215.667264 C31.6944535,215.667264 34.4498488,234.179187 31.2161744,234.065405" id="Fill-39" fill="url(#linearGradient-31)" mask="url(#mask-30)"></path>
                    </g>
                </g>
                <g id="Group-45" transform="translate(53.000000, 37.000000)">
                    <mask id="mask-33" fill="white">
                        <use xlink:href="#path-32"></use>
                    </mask>
                    <g id="Clip-44"></g>
                    <path d="M0.428341429,9.50482575 L0.443021429,9.5886749 L27.5512143,201.597475 L31.91065,232.506893 C48.74861,287.146671 88.7825429,376.552928 137.703643,402.670368 L137.703643,402.670368 C137.703643,402.670368 206.145997,358.966092 281.699763,341.033378 L281.699763,341.033378 C310.205177,334.27304 339.717744,331.17167 366.951766,335.474179 L366.951766,335.474179 C366.951766,335.474179 295.058039,283.23668 255.737134,195.620078 L255.737134,195.620078 C255.624937,194.794688 254.842703,188.873365 253.626884,179.654151 L253.626884,179.654151 L246.528056,125.53057 C246.235504,123.239915 245.913593,120.922534 245.619993,118.603057 L245.619993,118.603057 L242.854386,97.5820741 C241.721929,88.8528531 240.576364,80.2347321 239.514161,72.1060806 L239.514161,72.1060806 L239.080577,68.8941339 L237.655569,58.0692081 C236.035001,45.6663459 234.665043,35.1626671 233.742824,28.1507815 L233.742824,28.1507815 C233.728669,28.0674564 233.715037,27.9699818 233.68725,27.8856086 L233.68725,27.8856086 C233.085894,24.1564174 230.06863,21.3348934 226.294821,20.9580962 L226.294821,20.9580962 L9.46964857,0.147260078 C9.19859286,0.121581274 8.93068286,0.109003901 8.66539429,0.109003901 L8.66539429,0.109003901 C3.71299143,0.109003901 -0.207617143,4.46758778 0.428341429,9.50482575" id="Fill-43" fill="url(#linearGradient-34)" mask="url(#mask-33)"></path>
                </g>
                <g id="Group-103" transform="translate(53.000000, 13.000000)">
                    <path d="M78.8102059,55.5410077 L82.0149716,75.2870092 C82.5031771,78.2949004 85.0332553,80.547019 88.0751112,80.6832887 L179.088256,84.7556558 C183.137952,84.9364752 186.343766,81.3672577 185.731414,77.3572601 L183.063045,59.8701908 C182.608889,56.8932223 180.15267,54.6300973 177.150101,54.4230722 L85.6005585,48.0907248 C81.4670499,47.8050826 78.1465188,51.4487243 78.8102059,55.5410077" id="Fill-46" fill="#1FBF53"></path>
                    <polygon id="Fill-48" fill="#1455D7" points="38.0686664 147.499774 38.0225698 146.292215 224.093318 139.140153 224.139414 140.347712"></polygon>
                    <polygon id="Fill-50" fill="#1455D7" points="47.552007 217.68448 47.4482895 216.481638 247.999151 199.183773 248.102345 200.386615"></polygon>
                    <path d="M68.7419092,287.092762 L68.411899,285.929753 C69.8272761,285.527757 210.614863,245.798331 271.745323,253.342954 L271.598128,254.541079 C210.711247,247.052536 70.1541433,286.689194 68.7419092,287.092762" id="Fill-52" fill="#1455D7"></path>
                    <path d="M54.6648267,107.854416 L56.0587269,119.857154 C56.4159761,122.935277 59.0571053,125.233517 62.1523914,125.162762 L72.8441978,124.916428 C76.410927,124.833618 79.1164868,121.673734 78.6508058,118.135439 L77.1589502,106.795181 C76.7765574,103.898402 74.3664353,101.698171 71.44925,101.582865 L60.8553989,101.168291 C57.1781425,101.02416 54.2400041,104.198195 54.6648267,107.854416" id="Fill-54" fill="#FF368D"></path>
                    <path d="M62.2677378,173.460302 L63.5333007,184.353491 C63.9465992,187.922709 67.1356501,190.505019 70.7107605,190.168538 L80.5057773,189.244525 C84.2317496,188.893368 86.9210708,185.517549 86.4323414,181.804724 L85.0698707,171.4498 C84.6235712,168.063499 81.6718134,165.575529 78.2611842,165.71075 L68.5641227,166.095974 C64.722385,166.250064 61.8240574,169.63951 62.2677378,173.460302" id="Fill-56" fill="#FF368D"></path>
                    <path d="M73.9103403,240.604726 C75.3414321,245.253619 77.8887965,252.562391 81.2779488,258.366431 C82.1757861,259.903134 84.0055093,260.620122 85.7210385,260.148944 C89.0216642,259.242226 94.6103607,257.692945 99.1273097,256.389473 C101.336283,255.750577 102.540558,253.38263 101.745914,251.223279 C100.238344,247.132568 97.9130817,240.765629 96.4615607,236.552275 C95.8612564,234.806975 94.1362984,233.716293 92.3023846,233.911264 L77.2811587,235.506667 C74.8034631,235.770297 73.1780319,238.221055 73.9103403,240.604726" id="Fill-58" fill="#1455D7"></path>
                    <path d="M112.540653,343.863918 C114.840247,348.150124 118.749035,354.829435 123.193696,359.868793 C124.370732,361.20476 126.304173,361.555392 127.896603,360.760835 C130.96046,359.233566 136.14581,356.637105 140.32594,354.485092 C142.370955,353.433719 143.09593,350.877614 141.899512,348.911662 C139.632394,345.186782 136.122762,339.389556 133.887598,335.53522 C132.961474,333.939816 131.059463,333.201339 129.296789,333.747466 L114.865391,338.210299 C112.485127,338.947203 111.362569,341.66788 112.540653,343.863918" id="Fill-60" fill="#032D50"></path>
                    <path d="M233.485565,50.9475663 L237.453545,81.1302532 L238.875731,91.9568797 L239.297935,95.1796577 L242.644134,120.654751 L245.4026,141.67435 L246.310913,148.609429 L253.408228,202.736272 C254.143679,208.303937 254.714125,212.657753 255.078184,215.422455 L255.509293,218.701313 L231.25721,59.9927287 C230.407041,54.4219192 225.832471,50.1729256 220.216536,49.7363385 L0.4417946,32.6538853 L0.430270434,32.570027 C-0.248083854,27.2623228 4.14576616,22.7077706 9.46364472,23.209872 L226.095956,44.0213975 C229.861215,44.390898 232.886308,47.2253075 233.485565,50.9475663" id="Fill-62" fill="#1FBF53"></path>
                    <path d="M191.280771,40.5106188 C191.280771,40.5106188 190.873758,22.0266842 188.893697,7.53387916 C188.31906,3.32052534 191.99684,-0.232968749 196.180636,0.509176918 C203.129184,1.74189345 212.645526,3.51025467 218.75962,4.97567789 C221.13255,5.54486588 222.949178,7.43482159 223.429002,9.82845101 C224.937096,17.3678334 227.873663,34.2715636 226.095799,44.0211355 L191.280771,40.5106188 Z" id="Fill-66" fill="#032D50"></path>
                    <g id="Group-80" transform="translate(233.102439, 265.201771)">
                        <path d="M22.4774658,1.66395767 C19.1207907,1.66395767 15.9553119,2.41815797 13.103081,3.93546849 C-0.569817602,11.2080767 -2.78193355,33.8990757 8.17178576,54.5198237 C19.1270766,75.1400476 39.1665527,85.9981209 52.8363083,78.7260367 C59.4181783,75.2254782 63.5715923,68.0655545 64.5296696,58.5638886 C65.496128,48.9725993 63.0943871,38.1679856 57.7681273,28.1427298 C52.4413438,18.1148533 44.8343469,10.080183 36.3473228,5.51672095 C31.583128,2.95432676 26.8671252,1.66395767 22.4774658,1.66395767 M43.5305447,82.1815215 C30.7031008,82.1815215 15.9668361,71.7647523 7.10580045,55.0863911 C-4.16116664,33.8791594 -1.72485328,10.4538765 12.5363015,2.86837204 C19.4869448,-0.827156986 28.1452599,-0.265830708 36.9188166,4.45224507 C45.6127519,9.12734348 53.3952304,17.3396884 58.8335888,27.5751141 C64.2724711,37.8100157 66.7213563,48.8599147 65.7308019,58.6854831 C64.7308186,68.600675 60.3542549,76.0981283 53.4030877,79.7931332 C50.3575651,81.4121219 47.0145094,82.1815215 43.5305447,82.1815215" id="Fill-70" fill="#1455D7"></path>
                        <path d="M27.6614545,15.8621058 C25.922877,15.8621058 24.2780642,16.2352751 22.7961613,17.0230187 C15.079161,21.1273567 14.1975624,35.2055875 20.8690066,47.7654595 C24.2995411,54.222022 29.1433574,59.3672508 34.5078564,62.2530235 C39.3202432,64.8374305 43.9026705,65.2326125 47.4154456,63.3657179 C50.9292685,61.4967267 53.1654804,57.4741505 53.7128783,52.0380383 C54.3252305,45.9745614 52.7726111,39.0782671 49.3436481,32.6227529 L49.3426004,32.6227529 C43.9519101,22.4753784 34.9792996,15.8621058 27.6614545,15.8621058 M42.5522478,72.9978881 C38.6790805,72.9978881 34.5880018,71.895676 30.5073995,69.70121 C23.6856174,66.0329349 17.612906,59.6507966 13.4071094,51.7345762 C4.27944648,34.5551618 6.66180579,16.02825 18.8292293,9.55596405 C30.9977004,3.0821058 47.6794538,11.4742219 56.8060691,28.6536362 L56.8050214,28.6536362 C61.010818,36.5698567 62.8997335,45.1768596 62.1218523,52.8871032 C61.2826835,61.222615 57.4681848,67.5963675 51.3834254,70.8332966 C48.6642461,72.2793276 45.6800111,72.9978881 42.5522478,72.9978881" id="Fill-72" fill="#032D50"></path>
                        <path d="M37.623886,59.4495892 C37.5573602,59.4495892 37.4897867,59.4385828 37.422737,59.4134253 C37.1089654,59.3038854 36.9439603,58.9584942 37.0550113,58.6435016 L47.5378113,28.9896458 C47.6483386,28.6751773 47.995635,28.5064126 48.3078351,28.6222418 C48.6221305,28.733354 48.7871356,29.0782211 48.6766084,29.3932138 L38.1932846,59.0465454 C38.1058057,59.2939273 37.8727032,59.4495892 37.623886,59.4495892" id="Fill-74" fill="#1455D7"></path>
                        <path d="M33.1908015,53.2712789 C32.9210312,53.2712789 32.6748332,53.0878389 32.6067358,52.812679 C31.9723829,50.2733458 31.0939272,46.8241505 30.397239,44.1904768 C29.9677019,43.502839 29.5811185,42.4876298 29.3160627,41.0022903 C29.1578674,40.1128685 29.0614834,39.5751274 29.6806454,39.4425265 C30.2133762,39.3293178 30.3841433,39.2900093 31.5606559,43.7607031 C31.8031872,44.0872263 32.0671953,44.2848173 32.3437753,44.3330358 C33.0404635,44.462492 33.9870165,43.6118547 34.8838062,42.0688626 C35.957125,40.2245048 34.0074457,36.0336879 32.4396354,32.6662544 C30.7633932,29.0629694 29.4391618,26.2175536 30.8592533,25.085467 C31.2442652,24.7783361 31.7010412,24.6515004 32.1751034,24.7206835 C33.6957695,24.9423838 35.2101496,27.105403 36.6747662,29.1976668 C37.3887407,30.2202135 38.3677709,31.6185501 38.7459731,31.7422411 C39.0796501,31.7584886 39.3190384,32.0373173 39.3038475,32.370654 C39.2891803,32.7039906 38.9968856,32.9927775 38.6558751,32.9440349 C37.8313734,32.9073469 37.0713023,31.8722214 35.6852595,29.8910698 C34.5548436,28.276274 33.0064148,26.0624158 32.0017171,25.9172362 C31.8560936,25.8941751 31.7382328,25.9298149 31.611467,26.0288725 C30.9346842,26.5692342 32.4375401,29.7988257 33.5333835,32.155243 C35.3940124,36.1542342 37.318548,40.2868744 35.9267431,42.676835 C34.3919338,45.3131293 33.0174152,45.6768646 32.1331974,45.522775 C32.0928628,45.5154374 32.0520044,45.5080998 32.0100983,45.4970934 C32.4668743,47.276461 33.0404635,49.5705087 33.7774863,52.5212715 C33.8576316,52.84465 33.661197,53.1722213 33.3379965,53.253459 C33.2887569,53.2655137 33.2400411,53.2712789 33.1908015,53.2712789" id="Fill-76" fill="#1455D7"></path>
                        <path d="M37.2330597,26.2706988 C36.9150975,26.2706988 36.6495178,26.0217445 36.6317078,25.6999384 L36.2315049,18.6506028 C36.2136949,18.3177903 36.4677503,18.0326722 36.8009035,18.0138041 C37.1136274,17.9744955 37.4179701,18.247559 37.4378755,18.582468 L37.8359831,25.6323277 C37.8553646,25.9646161 37.6002615,26.2497342 37.2676322,26.2691264 C37.256108,26.2706988 37.24406,26.2706988 37.2330597,26.2706988" id="Fill-78" fill="#1455D7"></path>
                    </g>
                    <path d="M240.378692,207.455029 C240.199544,207.455029 240.019872,207.46289 239.841247,207.48071 L59.6666812,224.787484 C58.0182017,224.946291 56.520584,225.808983 55.5593639,227.158577 C54.5918578,228.51446 54.2597523,230.225169 54.6494786,231.851495 C58.1072521,246.264635 64.0830558,265.093961 67.3386325,275.034834 C68.2857094,277.928993 71.3322797,279.571566 74.2677989,278.775961 C169.333259,253.014177 232.449019,248.886778 255.172578,248.30606 C257.140591,248.255745 258.921598,247.219571 259.935201,245.533496 C260.948804,243.847945 261.030521,241.787652 260.151541,240.025056 L245.514279,210.629064 C244.546249,208.682504 242.527949,207.455029 240.378692,207.455029 M72.7680859,280.183732 C69.8425194,280.183732 67.1421979,278.319982 66.1904066,275.411148 C62.9301154,265.452979 56.9427876,246.588013 53.4761091,232.13242 C53.0041421,230.166468 53.4059164,228.098838 54.5766669,226.456264 C55.7416552,224.823648 57.5551398,223.776992 59.5514396,223.583594 L239.726005,206.277868 C242.561474,206.010046 245.325178,207.538887 246.595979,210.091847 L261.233241,239.485742 C262.296083,241.620459 262.197604,244.11367 260.970281,246.155619 C259.742433,248.197568 257.587414,249.454394 255.204007,249.515715 C232.523402,250.092765 169.52236,254.214923 74.5820944,279.941591 C73.9770757,280.105115 73.3683902,280.183732 72.7680859,280.183732" id="Fill-81" fill="#032D50"></path>
                    <path d="M225.382138,143.326306 C225.296231,143.326306 225.211895,143.327878 225.125988,143.332071 L49.6469955,150.520297 C47.9382761,150.590528 46.3317026,151.385085 45.2379546,152.699563 C44.1442065,154.014566 43.6554771,155.73995 43.8964369,157.432838 L50.5883103,204.427012 C51.0393243,207.599475 53.8941743,209.881468 57.0821776,209.61417 L231.242177,195.306901 C232.914228,195.169583 234.414989,194.372929 235.466831,193.06474 C236.519197,191.756551 236.974401,190.119219 236.750204,188.454632 L231.378895,148.578454 C230.970835,145.543833 228.414565,143.326306 225.382138,143.326306 M56.5814002,210.841645 C53.0036706,210.841645 49.9052416,208.200634 49.3924162,204.596825 L42.7010667,157.6037 C42.4119149,155.572757 42.9980759,153.504079 44.3097354,151.927019 C45.621395,150.348911 47.5485498,149.396072 49.5977559,149.313262 L225.076224,142.124512 C228.839388,141.987718 232.071916,144.6759 232.575837,148.418075 L237.947146,188.293729 C238.215868,190.289032 237.668994,192.252888 236.407622,193.822085 C235.14625,195.391807 233.345861,196.346743 231.340132,196.511839 L57.1806568,210.817012 C56.9805554,210.834307 56.7799302,210.841645 56.5814002,210.841645" id="Fill-83" fill="#032D50"></path>
                    <path d="M41.7615329,135.317684 C42.232976,139.143193 45.4864575,141.93148 49.34391,141.810934 L221.492942,136.235932 C223.581959,136.168321 225.553639,135.214957 226.90249,133.61903 C228.251341,132.023102 228.865789,129.920356 228.586066,127.848533 L224.498654,97.5059909 C224.018306,93.9352011 221.057643,91.2396819 217.460008,91.098171 L44.1307966,84.2417094 C41.9663487,84.15261 39.867903,85.024736 38.3943813,86.6253807 C36.9213834,88.2270736 36.2294096,90.3843275 36.4955131,92.5436779 L41.7615329,135.317684 Z M49.0956166,143.022686 C44.7415773,143.022686 41.0994172,139.819824 40.5630197,135.464436 L35.2969999,92.690954 C34.9874189,90.1793989 35.792539,87.6699402 37.505449,85.8077626 C39.2188829,83.9455849 41.6525771,82.9434786 44.1789885,83.0346745 L217.507152,89.8900879 C221.691996,90.0562321 225.13615,93.191483 225.696643,97.3450879 L229.783008,127.68763 C230.10778,130.096458 229.393281,132.542499 227.8239,134.398387 C226.255042,136.255324 223.961209,137.364874 221.532229,137.442967 L49.3837207,143.017969 C49.286813,143.021638 49.1914767,143.022686 49.0956166,143.022686 L49.0956166,143.022686 Z" id="Fill-85" fill="#032D50"></path>
                    <path d="M66.7274327,117.572541 C66.4539957,117.572541 66.191559,117.458284 66.0061247,117.254403 L62.116195,112.975535 C61.75266,112.577208 61.782518,111.96085 62.1806256,111.598163 C62.5787331,111.234952 63.1968474,111.263778 63.5582872,111.662629 L66.5666182,114.970838 L70.9258957,107.70714 C71.2029995,107.246443 71.8022561,107.096546 72.2637466,107.373279 C72.7257608,107.650011 72.8745273,108.250122 72.5979474,108.71239 L67.5634585,117.09979 C67.4047393,117.363943 67.1307785,117.537949 66.8238166,117.568348 C66.7913394,117.570968 66.7599099,117.572541 66.7274327,117.572541" id="Fill-87" fill="#FFFFFF"></path>
                    <path d="M74.0842504,182.549385 C73.8113372,182.549385 73.5489005,182.434604 73.3629424,182.230724 L69.4719651,177.95238 C69.1094777,177.553529 69.1388119,176.936647 69.5363956,176.57396 C69.9339794,176.212321 70.5531413,176.241147 70.9140572,176.63895 L73.9234359,179.946634 L78.2827134,172.683984 C78.5603411,172.22224 79.1590738,172.071295 79.6210881,172.350124 C80.0825786,172.626332 80.2318689,173.225918 79.9542413,173.688711 L74.9202762,182.07611 C74.7620809,182.340788 74.4870724,182.514794 74.1806343,182.544668 C74.148681,182.547289 74.1167276,182.549385 74.0842504,182.549385" id="Fill-89" fill="#FFFFFF"></path>
                    <path d="M130.926254,349.598985 C130.736629,349.598985 130.543861,349.576972 130.351093,349.533471 L124.694823,348.234192 C123.317162,347.917103 122.45704,346.541827 122.773431,345.164455 C123.090345,343.786035 124.461721,342.92806 125.841478,343.240432 L131.497224,344.540759 C132.875409,344.856276 133.735531,346.231552 133.419664,347.608924 C133.146227,348.795518 132.092814,349.598985 130.926254,349.598985" id="Fill-91" fill="#FFFFFF"></path>
                    <path d="M119.908523,346.756295 C119.693231,346.756295 119.474795,346.727993 119.25636,346.671388 L118.305616,346.42191 C116.939479,346.062892 116.121263,344.661934 116.480608,343.293472 C116.840476,341.92501 118.239614,341.109489 119.606799,341.466934 L120.556495,341.716937 C121.923681,342.074907 122.741896,343.476912 122.382552,344.84485 C122.080304,345.994757 121.043653,346.756295 119.908523,346.756295" id="Fill-93" fill="#FFFFFF"></path>
                    <polygon id="Fill-95" fill="#FFFFFF" points="133.556645 349.364077 134.418338 346.168029 136.184154 348.64971"></polygon>
                    <path d="M224.396927,335.096274 C224.115109,335.096274 223.8291,335.111474 223.543615,335.139776 C186.703477,338.836877 151.938736,354.372669 134.49534,363.305147 C132.230842,364.465012 130.613268,366.549938 130.055918,369.026902 C129.492805,371.530595 130.071108,374.139635 131.643109,376.186825 C136.20825,382.134997 142.784882,389.353097 149.237367,395.500957 C151.991643,398.125196 156.213154,398.604237 159.500684,396.66449 C191.795587,377.607699 218.954902,367.809909 236.053097,362.946653 C238.854516,362.149476 241.035203,360.01109 241.887467,357.225423 C242.739732,354.439756 242.128951,351.446016 240.251036,349.214338 L230.942129,338.148715 C229.304126,336.202155 226.906052,335.096274 224.396927,335.096274 M155.146121,399.056023 C152.691474,399.056023 150.25778,398.141968 148.404484,396.376227 C141.909569,390.18906 135.285793,382.916451 130.68608,376.924254 C128.89512,374.590374 128.235623,371.614977 128.87731,368.760652 C129.514282,365.934628 131.361291,363.554101 133.945323,362.230713 C151.464674,353.257879 186.386039,337.653951 223.424706,333.93641 C226.629472,333.62561 229.78657,334.900256 231.866158,337.371978 L241.174541,348.436028 C243.31594,350.982175 244.014723,354.400447 243.041455,357.580248 C242.069235,360.758476 239.580015,363.198752 236.382059,364.109138 C219.354057,368.953002 192.299507,378.714104 160.114084,397.703809 C158.574037,398.612098 156.855364,399.056023 155.146121,399.056023" id="Fill-64" fill="#1455D7"></path>
                    <path d="M149.578849,387.726771 C153.245105,386.827391 157.01246,385.498238 160.385897,383.756606 C162.073664,382.87557 163.682856,381.868223 165.069423,380.684249 C166.470657,379.475642 167.919035,378.005502 169.259505,376.613978 C171.94935,373.774328 174.44957,370.71979 176.200195,367.363887 C177.941916,364.064589 178.781085,360.194006 176.890598,357.282551 C176.079715,355.818176 174.735055,355.186095 173.03524,355.263664 C171.356903,355.354335 169.594229,356.078137 168.021705,357.055086 C164.907561,359.035713 162.146475,362.109119 161.293163,365.598147 C160.883532,367.328248 161.13392,369.106567 162.149095,370.513814 C163.166364,371.924205 164.733127,373.049478 166.424036,373.320969 C168.137994,373.620762 169.987099,373.127047 171.65496,372.263831 C173.334869,371.400615 174.878059,370.194628 176.277722,368.847655 C179.050855,366.133791 181.436357,362.85965 182.879497,359.275233 C183.224698,358.381095 183.493944,357.450792 183.547898,356.563991 C183.573566,356.125831 183.532184,355.696058 183.387608,355.38683 C183.316891,355.229596 183.23046,355.101712 183.110504,355.009468 C182.987929,354.905169 182.769493,354.77152 182.616013,354.707054 C182.44996,354.631058 182.31167,354.622672 182.257192,354.633154 C182.210048,354.646257 182.162379,354.663553 182.086949,354.796154 C181.941325,355.05297 181.882133,355.523624 181.8858,355.965977 C181.893133,356.878983 182.091663,357.838636 182.37191,358.760029 C183.523802,362.430925 185.794587,365.9362 189.029211,367.944082 C190.598592,368.904783 192.689705,369.677327 193.627353,368.330878 C194.12813,367.695128 194.406282,366.766397 194.596954,365.835046 C194.78815,364.895834 194.893963,363.913644 194.992442,362.923592 C195.092493,361.928823 195.171067,360.923048 195.333977,359.89264 C195.420408,359.376912 195.519935,358.85437 195.718465,358.310339 C195.821135,358.038324 195.947377,357.756875 196.150097,357.479094 C196.324531,357.210224 196.715829,356.909906 197.023839,356.811897 C197.580141,356.583383 198.234924,356.505814 198.828418,356.591245 C199.424532,356.674579 199.950977,356.877935 200.431849,357.083912 C201.388354,357.506872 202.226999,357.938742 203.103884,358.109603 C203.973958,358.286754 204.860795,358.199227 205.722488,357.896813 C206.57161,357.611695 207.290299,357.087581 207.927794,356.402564 C209.197024,355.032529 210.193341,353.231673 211.502905,351.633649 C212.79885,350.023046 214.39128,348.578587 216.223098,347.565475 C218.031345,346.546072 220.025549,345.793969 222.138662,345.615246 C224.240775,345.406648 226.37746,345.880972 228.201945,346.823853 C229.120735,347.28717 229.982428,347.836442 230.787548,348.444938 L231.993919,349.34589 C232.403027,349.613189 232.799039,349.974303 233.308721,349.991075 C232.791182,350.048727 232.320262,349.746838 231.882868,349.521469 L230.574875,348.771985 C229.704277,348.28089 228.832631,347.81076 227.92065,347.45279 C226.10088,346.737898 224.149629,346.449635 222.262809,346.72794 C220.379655,347.001528 218.577695,347.789795 216.917167,348.756262 C215.270783,349.750507 213.823453,351.020435 212.601367,352.528312 C211.343138,354.015748 210.371965,355.763668 208.900015,357.33339 C207.434351,358.943469 205.065611,359.850187 202.846685,359.396828 C200.657094,358.963385 198.979804,357.336011 197.506806,358.033083 C197.063649,358.120086 196.764545,359.199761 196.629398,360.10281 C196.47906,361.053029 196.397867,362.04937 196.29834,363.051476 C196.198813,364.056203 196.090905,365.071936 195.883994,366.098676 C195.662939,367.11703 195.392645,368.185174 194.655099,369.148496 C194.285278,369.620199 193.747833,370.034773 193.131814,370.223978 C192.517366,370.417377 191.891918,370.402177 191.330901,370.299451 C190.200485,370.08404 189.249217,369.603427 188.347713,369.051535 C184.755841,366.745957 182.465675,363.021601 181.243065,359.095986 C180.958628,358.095976 180.728669,357.074478 180.699858,355.979079 C180.704573,355.427187 180.710335,354.856951 181.032487,354.217532 C181.184921,353.908304 181.536408,353.548762 181.983755,353.453897 C182.422197,353.359033 182.798304,353.461759 183.090075,353.581781 C183.397037,353.71543 183.611805,353.844886 183.880004,354.050863 C184.161822,354.263654 184.373448,354.557158 184.513309,354.85171 C184.799842,355.454965 184.8407,356.058221 184.826033,356.615878 C184.779937,357.736958 184.492356,358.760029 184.142441,359.743791 C182.665252,363.640056 180.284464,367.046274 177.412328,370.00123 C175.956616,371.460364 174.339566,372.798951 172.470556,373.813636 C170.625118,374.817315 168.417717,375.519628 166.132789,375.184719 C163.83529,374.841948 161.868848,373.48921 160.510568,371.696739 C159.098334,369.861291 158.697083,367.318289 159.185289,365.147933 C159.64416,362.949798 160.720622,361.015292 162.025472,359.332362 C163.346036,357.650479 164.920133,356.19187 166.713712,355.011565 C168.510434,353.853272 170.537116,352.902529 172.87914,352.707559 C174.042557,352.624749 175.309168,352.779886 176.46368,353.338068 C177.619763,353.86952 178.584126,354.872674 179.167668,355.84281 C180.454708,357.769453 180.960723,360.22388 180.724478,362.456606 C180.526996,364.713966 179.769544,366.782121 178.85023,368.690944 C176.958695,372.503351 174.376234,375.766486 171.656531,378.827313 C170.255297,380.360347 168.93159,381.797468 167.339684,383.259746 C165.7153,384.725169 163.928531,385.901806 162.094617,386.926973 C158.38855,388.960536 154.577718,390.431724 150.491877,391.560142 C149.443702,391.848929 148.359383,391.233619 148.069707,390.184867 C147.780556,389.13559 148.395527,388.049626 149.443702,387.760839 C149.459417,387.75717 149.475655,387.752453 149.490323,387.748784 L149.578849,387.726771 Z" id="Fill-68" fill="#1455D7"></path>
                    <g id="Group-102" transform="translate(199.053768, 115.305118)">
                        <mask id="mask-36" fill="white">
                            <use xlink:href="#path-35"></use>
                        </mask>
                        <g id="Clip-101"></g>
                        <path d="M7.55670962,72.8413876 L0.298056826,5.60435284 C-0.0288104138,2.57340058 2.3781687,-0.0576525589 5.424739,0.00209645669 L61.1624132,1.10011565 C63.7218255,1.15043061 65.8407005,3.10747293 66.0952798,5.65676426 L72.4052843,68.9571775 C72.6923407,71.8340402 70.5195117,74.3639393 67.6348036,74.5127877 L12.8457778,77.3519142 C10.1664093,77.4902803 7.84481376,75.5107011 7.55670962,72.8413876" id="Fill-100" fill="url(#linearGradient-37)" mask="url(#mask-36)"></path>
                    </g>
                </g>
                <g id="Group-106" transform="translate(286.000000, 42.000000)">
                    <mask id="mask-39" fill="white">
                        <use xlink:href="#path-38"></use>
                    </mask>
                    <g id="Clip-105"></g>
                    <path d="M7.19702727,8.77190517 C1.91779091,14.6037155 -0.539945455,22.4522069 0.453927273,30.3075345 L0.453927273,30.3075345 L3.15158182,51.6291379 C3.55420909,54.8142845 6.41768182,57.0549828 9.5646,56.6558534 L9.5646,56.6558534 C12.7021909,56.2462069 14.9210455,53.3339828 14.5173818,50.1483103 L14.5173818,50.1483103 L11.8202455,28.826181 C11.2575,24.381069 12.6477818,19.9396379 15.6356182,16.6398534 L15.6356182,16.6398534 C18.6224182,13.3390172 22.8647727,11.5663362 27.2781273,11.7503879 L27.2781273,11.7503879 C34.5404455,12.0669569 40.4985,17.6063879 41.4452182,24.9211293 L41.4452182,24.9211293 L45.4310727,55.7056207 C45.8098636,58.6330948 48.2712273,60.7638879 51.1046455,60.7638879 L51.1046455,60.7638879 C51.3518182,60.7638879 51.6046909,60.7481121 51.8580818,60.7134052 L51.8580818,60.7134052 C54.9956727,60.294819 57.2046818,57.3752328 56.7922091,54.1911379 L56.7922091,54.1911379 L52.8068727,23.4066466 C51.1341818,10.4809569 40.6052455,0.692034483 27.7714364,0.131991379 L27.7714364,0.131991379 C27.3765818,0.114112069 26.9832818,0.105172414 26.5905,0.105172414 L26.5905,0.105172414 C19.2229909,0.105172414 12.2088818,3.23457759 7.19702727,8.77190517" id="Fill-104" fill="url(#linearGradient-40)" mask="url(#mask-39)"></path>
                </g>
                <g id="Group-113" transform="translate(288.000000, 42.000000)">
                    <g id="Group-109">
                        <mask id="mask-42" fill="white">
                            <use xlink:href="#path-41"></use>
                        </mask>
                        <g id="Clip-108"></g>
                        <path d="M41.5693584,6.7421322 C37.8970311,4.26185501 33.5599707,2.76049574 28.8825255,2.55521322 C21.5089021,2.22327825 14.4001372,5.22494136 9.41127625,10.771791 C4.42448446,16.3186407 2.08524457,23.7921908 3.02983812,31.2667964 L5.58634487,51.5406876 C5.694461,52.4409755 6.01932669,53.2468017 6.48386393,53.9423348 C4.59519413,53.2789925 3.15399062,51.5723507 2.87568211,49.4229531 L0.319692669,29.1495896 C-0.625418182,21.6755117 1.7133044,14.2009062 6.70061349,8.6540565 C11.6889572,3.10826226 18.7987566,0.10554371 26.1718628,0.438006397 C32.0582428,0.690783582 37.4330111,3.01327292 41.5693584,6.7421322" id="Fill-107" fill="url(#linearGradient-43)" mask="url(#mask-42)"></path>
                    </g>
                    <g id="Group-112" transform="translate(36.211144, 16.359275)">
                        <mask id="mask-45" fill="white">
                            <use xlink:href="#path-44"></use>
                        </mask>
                        <g id="Clip-111"></g>
                        <path d="M11.8705302,42.3921588 C9.98082581,41.7282889 8.54013959,40.0374787 8.26183109,37.8886087 L4.48087038,8.59284115 C4.04788856,5.28985075 2.56064516,2.38212154 0.377113196,0.201588486 C4.01633314,2.36628998 6.60387801,6.17483475 7.19256774,10.7095203 L10.9714592,40.0063433 C11.08061,40.8907996 11.405993,41.7124574 11.8705302,42.3921588" id="Fill-110" fill="url(#linearGradient-46)" mask="url(#mask-45)"></path>
                    </g>
                </g>
                <g id="Group-116" transform="translate(272.000000, 90.000000)">
                    <mask id="mask-48" fill="white">
                        <use xlink:href="#path-47"></use>
                    </mask>
                    <g id="Clip-115"></g>
                    <path d="M0.133941176,15.2551534 L7.41970588,79.7373006 C9.65223529,84.4415031 14.5789412,84.8623313 14.5789412,84.8623313 L14.5789412,84.8623313 L80.1137647,80.8355215 C80.1137647,80.8355215 87.8775882,79.672638 89.6320588,75.9534969 L89.6320588,75.9534969 C81.8655882,64.6829141 24.462,0.606993865 17.6696471,0.494877301 L17.6696471,0.494877301 C17.568,0.493312883 17.4684706,0.492269939 17.3678824,0.492269939 L17.3678824,0.492269939 C3.98805882,0.493312883 0.133941176,15.2551534 0.133941176,15.2551534" id="Fill-114" fill="url(#linearGradient-49)" mask="url(#mask-48)"></path>
                </g>
                <g id="Group-119" transform="translate(287.000000, 91.000000)">
                    <mask id="mask-51" fill="white">
                        <use xlink:href="#path-50"></use>
                    </mask>
                    <g id="Clip-118"></g>
                    <path d="M0.0983835616,6.11030769 L7.68693151,76.1882885 C7.98728767,78.9703269 10.4140822,81.0332308 13.2167123,80.8883654 L13.2167123,80.8883654 L70.4972877,77.9308269 C73.5133425,77.7760962 75.7855342,75.1378846 75.4856986,72.1408846 L75.4856986,72.1408846 L69.1719726,8.99775 C68.7446027,4.72344231 65.1819726,1.44294231 60.876,1.35882692 L60.876,1.35882692 L5.45846575,0.270519231 C5.42306849,0.269480769 5.38819178,0.269480769 5.35331507,0.269480769 L5.35331507,0.269480769 C2.21805479,0.269480769 -0.239972603,2.98557692 0.0983835616,6.11030769" id="Fill-117" fill="url(#linearGradient-52)" mask="url(#mask-51)"></path>
                </g>
                <g id="Group-131" transform="translate(82.000000, 92.000000)">
                    <g id="Group-122" transform="translate(232.488333, 12.586304)">
                        <mask id="mask-54" fill="white">
                            <use xlink:href="#path-53"></use>
                        </mask>
                        <g id="Clip-121"></g>
                        <path d="M18.8882339,29.5175061 L19.7741036,40.0401811 C19.9955711,42.735748 17.9829463,45.1502207 15.2644597,45.370481 L14.0558353,45.4727448 C12.988908,45.5723863 11.982858,45.3112205 11.1169308,44.8077683 C9.80754395,44.023222 8.86132169,42.6156537 8.72067412,40.9846784 L7.85474692,30.8049802 C4.29185009,29.2358876 1.65365855,25.8155593 1.29101874,21.6505414 L0.48701845,12.2150085 C0.224091463,9.07629881 1.33195348,6.09911337 3.28527532,3.92587814 C5.09637518,1.91416714 7.63327947,0.545406527 10.5328236,0.304169025 C16.5733218,-0.21921147 21.9483681,4.30818713 22.4516555,10.344369 L23.2567054,19.7998302 C23.5999274,23.7026335 21.8082453,27.3038898 18.8882339,29.5175061" id="Fill-120" fill="url(#linearGradient-55)" mask="url(#mask-54)"></path>
                    </g>
                    <g id="Group-127" transform="translate(192.603202, 0.000000)">
                        <mask id="mask-57" fill="white">
                            <use xlink:href="#path-56"></use>
                        </mask>
                        <g id="Clip-126"></g>
                        <path d="M0.0876423288,12.8490436 C0.0876423288,12.8490436 6.49078037,7.46420298 11.7855316,5.53220524 C11.7855316,5.53220524 11.2260901,2.18424826 12.9873336,0.164670817 C12.9873336,0.164670817 4.12758632,2.02849274 0.0876423288,12.8490436" id="Fill-125" fill="url(#linearGradient-58)" mask="url(#mask-57)"></path>
                    </g>
                    <g id="Group-130" transform="translate(0.000000, 189.318996)">
                        <mask id="mask-60" fill="white">
                            <use xlink:href="#path-59"></use>
                        </mask>
                        <g id="Clip-129"></g>
                        <path d="M4.90324717,59.4566535 L19.4167119,44.4328014 L71.9375582,35.3911149 C78.3889782,34.2793247 82.8246247,28.2955857 82.0075043,21.8052481 L79.2779968,0.135302773 L0.257678943,20.0048821 L4.90324717,59.4566535 Z" id="Fill-128" fill="url(#linearGradient-61)" mask="url(#mask-60)"></path>
                    </g>
                </g>
                <g id="Group-134" transform="translate(0.000000, 213.000000)">
                    <mask id="mask-63" fill="white">
                        <use xlink:href="#path-62"></use>
                    </mask>
                    <g id="Clip-133"></g>
                    <path d="M143.925041,0.101780488 L25.5534706,3.80450244 C15.2886294,3.85043415 4.08405294,7.57820976 0,21.0513366 L0,21.0513366 L11.9610765,97.3846146 C12.9023824,103.394883 18.4680235,107.567361 24.5200235,106.802702 L24.5200235,106.802702 L154.124965,90.4092585 C160.268059,89.6315512 178.516724,85.1558195 177.7864,79.0249805 L177.7864,79.0249805 L155.796594,9.9958878 C155.119147,4.31079512 150.280688,0.0814243902 144.610865,0.0814243902 L144.610865,0.0814243902 C144.383653,0.0814243902 144.154871,0.0882097561 143.925041,0.101780488" id="Fill-132" fill="url(#linearGradient-64)" mask="url(#mask-63)"></path>
                </g>
                <g id="Group-137" transform="translate(15.000000, 209.000000)">
                    <mask id="mask-66" fill="white">
                        <use xlink:href="#path-65"></use>
                    </mask>
                    <g id="Clip-136"></g>
                    <path d="M144.432619,0.509067961 L10.9004762,8.53986408 C4.25909524,8.93935922 -0.596619048,14.9747767 0.430571429,21.5522913 L0.430571429,21.5522913 L12.3975238,98.2265243 C13.3398571,104.262466 18.909,108.452971 24.9642381,107.684913 L24.9642381,107.684913 L154.638,91.2185825 C160.784381,90.4379417 165.151905,84.8413398 164.420667,78.6821942 L164.420667,78.6821942 L156.31,10.4466408 C155.63219,4.73784466 150.790095,0.488621359 145.116714,0.488621359 L145.116714,0.488621359 C144.889905,0.488621359 144.661524,0.495436893 144.432619,0.509067961" id="Fill-135" fill="url(#linearGradient-67)" mask="url(#mask-66)"></path>
                </g>
                <g id="Group-140" transform="translate(26.000000, 207.000000)">
                    <mask id="mask-69" fill="white">
                        <use xlink:href="#path-68"></use>
                    </mask>
                    <g id="Clip-139"></g>
                    <path d="M0.0407080292,8.02683871 C0.0407080292,8.02683871 2.29008759,17.7424516 7.57117153,47.6738065 L7.57117153,47.6738065 L142.810551,36.3891613 C142.810551,36.3891613 139.853478,1.43896774 131.903931,0.332903226 L131.903931,0.332903226 L0.0407080292,8.02683871 Z" id="Fill-138" fill="url(#linearGradient-70)" mask="url(#mask-69)"></path>
                </g>
                <g id="Group-143" transform="translate(20.000000, 215.000000)">
                    <mask id="mask-72" fill="white">
                        <use xlink:href="#path-71"></use>
                    </mask>
                    <g id="Clip-142"></g>
                    <path d="M0.014,3.241875 L3.38540741,2.51265 L9.73622222,41.58945 L13.7443704,40.6182 C12.4615556,27.7431 6.26266667,0.2898 6.26266667,0.2898 L6.26266667,0.2898 L0.014,3.241875 Z" id="Fill-141" fill="url(#linearGradient-73)" mask="url(#mask-72)"></path>
                </g>
                <g id="Group-146" transform="translate(41.000000, 194.000000)">
                    <mask id="mask-75" fill="white">
                        <use xlink:href="#path-74"></use>
                    </mask>
                    <g id="Clip-145"></g>
                    <path d="M57.1858451,0.291844444 L15.1465493,2.84535556 C10.9415775,3.10091111 7.0961831,4.95317778 4.32014085,8.06328889 L4.32014085,8.06328889 C1.54357746,11.1723778 0.177704225,15.1549556 0.474746479,19.2775778 L0.474746479,19.2775778 C0.607633803,21.1334222 2.18456338,22.5522667 4.05228169,22.5522667 L4.05228169,22.5522667 C4.13722535,22.5522667 4.22269014,22.5486889 4.30815493,22.5430667 L4.30815493,22.5430667 C6.28635211,22.4066 7.77625352,20.7224889 7.63659155,18.7833333 L7.63659155,18.7833333 C7.47556338,16.5472222 8.21608451,14.3882889 9.72109859,12.7031556 L9.72109859,12.7031556 C11.2271549,11.0164889 13.3106197,10.0121556 15.5915915,9.87313333 L15.5915915,9.87313333 L57.6298451,7.31911111 C61.8540986,7.07122222 65.6557183,9.93497778 66.4895211,13.9988222 L66.4895211,13.9988222 L66.8772394,15.8868667 C67.2686056,17.7928 69.1608169,19.0220222 71.1061831,18.6432889 L71.1061831,18.6432889 C73.0489437,18.2594444 74.3079859,16.4020667 73.9150563,14.4956222 L73.9150563,14.4956222 L73.5283803,12.6086 C72.0556761,5.43055556 65.5572254,0.261177778 58.1686901,0.261177778 L58.1686901,0.261177778 C57.8429859,0.261177778 57.5151972,0.2714 57.1858451,0.291844444" id="Fill-144" fill="url(#linearGradient-76)" mask="url(#mask-75)"></path>
                </g>
                <g id="Group-149" transform="translate(29.000000, 244.000000)">
                    <mask id="mask-78" fill="white">
                        <use xlink:href="#path-77"></use>
                    </mask>
                    <g id="Clip-148"></g>
                    <polygon id="Fill-147" fill="url(#linearGradient-79)" mask="url(#mask-78)" points="4.47569776 11.63136 0.408794776 12.59336 138.474627 1.27556 140.809019 0.26208"></polygon>
                </g>
                <g id="Group-152" transform="translate(94.000000, 244.000000)">
                    <mask id="mask-81" fill="white">
                        <use xlink:href="#path-80"></use>
                    </mask>
                    <g id="Clip-151"></g>
                    <polygon id="Fill-150" fill="url(#linearGradient-82)" mask="url(#mask-81)" points="1.57978723 0.798967742 0.455851064 1.90606452 2.3287234 15.7021935 24.2978723 13.0797419 24.6765957 12.4500645 21.962766 0.253935484"></polygon>
                </g>
                <g id="Group-155" transform="translate(95.000000, 243.000000)">
                    <mask id="mask-84" fill="white">
                        <use xlink:href="#path-83"></use>
                    </mask>
                    <g id="Clip-154"></g>
                    <polygon id="Fill-153" fill="url(#linearGradient-85)" mask="url(#mask-84)" points="0.495777778 1.83122581 2.7692 15.5938065 22.6892444 13.4823226 21.1620444 0.180645161"></polygon>
                </g>
                <g id="Group-158" transform="translate(96.000000, 244.000000)">
                    <mask id="mask-87" fill="white">
                        <use xlink:href="#path-86"></use>
                    </mask>
                    <g id="Clip-157"></g>
                    <path d="M0.257384615,1.54454545 L20.9009231,0.16 C20.9009231,0.16 21.3806923,4.21590909 12.3361538,4.62409091 C3.81446154,5.00954545 0.257384615,1.54454545 0.257384615,1.54454545" id="Fill-156" fill="url(#linearGradient-88)" mask="url(#mask-87)"></path>
                </g>
                <g id="Group-164" transform="translate(306.000000, 122.000000)">
                    <mask id="mask-90" fill="white">
                        <use xlink:href="#path-89"></use>
                    </mask>
                    <g id="Clip-163"></g>
                    <path d="M53.1528312,8.67262346 L1.03143506,151.636852 C-1.377,158.245864 2.07128571,165.620401 8.69803247,168.025062 L8.69803247,168.025062 L11.5761623,169.068673 C18.2029091,171.473858 25.596,168.031883 28.005487,161.421296 L28.005487,161.421296 L80.1279351,18.4591667 C82.5368961,11.8491049 79.0865065,4.47404321 72.4608117,2.06938272 L72.4608117,2.06938272 L69.5821558,1.0257716 C68.1483506,0.505802469 66.6793052,0.259197531 65.2318247,0.259197531 L65.2318247,0.259197531 C59.9904935,0.259197531 55.0421299,3.49287037 53.1528312,8.67262346" id="Fill-162" mask="url(#mask-90)"></path>
                </g>
            </g>
        </g>
    </g>
</svg>