<?xml version="1.0" encoding="UTF-8"?>
<svg width="351px" height="271px" viewBox="0 0 351 271" version="1.1" xmlns="http://www.w3.org/2000/svg" xmlns:xlink="http://www.w3.org/1999/xlink">
    <!-- Generator: Sketch 60 (88103) - https://sketch.com -->
    <title>undraw_co-working_825n</title>
    <desc>Created with Sketch.</desc>
    <defs>
        <linearGradient x1="48.8509096%" y1="101.415585%" x2="53.618336%" y2="-1.02500887%" id="linearGradient-1">
            <stop stop-color="#808080" stop-opacity="0.25" offset="0%"></stop>
            <stop stop-color="#808080" stop-opacity="0.12" offset="54%"></stop>
            <stop stop-color="#808080" stop-opacity="0.1" offset="100%"></stop>
        </linearGradient>
        <linearGradient x1="50.0062933%" y1="99.9934644%" x2="50.0062933%" y2="0.0225885412%" id="linearGradient-2">
            <stop stop-color="#808080" stop-opacity="0.25" offset="0%"></stop>
            <stop stop-color="#808080" stop-opacity="0.12" offset="54%"></stop>
            <stop stop-color="#808080" stop-opacity="0.1" offset="100%"></stop>
        </linearGradient>
    </defs>
    <g id="Page-1" stroke="none" stroke-width="1" fill="none" fill-rule="evenodd">
        <g id="hesiod-contact-us" transform="translate(-263.000000, -637.000000)">
            <g id="2-copy-2" transform="translate(128.000000, 594.000000)">
                <g id="library">
                    <g id="undraw_co-working_825n" transform="translate(135.000000, 43.000000)">
                        <path d="M328.883987,153.410583 C315.951097,172.925442 319.224255,200.050185 325.736117,221.535068 C327.928663,228.727068 330.40624,236.327526 328.934102,244.276744 C327.133082,253.99804 319.791185,261.485387 312.264487,265.676793 C298.548545,273.321238 282.627527,272.692842 270.815968,264.046103 C260.608099,256.571325 253.670257,243.818014 243.25253,236.710848 C225.840581,224.859286 202.590195,231.199809 182.512737,241.386119 C168.30817,248.584403 152.712902,257.765278 139.250669,252.006023 C129.778869,247.952864 123.63974,237.037614 120.588969,225.252034 C119.11683,219.561902 118.15211,213.362769 115.013637,208.973418 C113.134312,206.365572 110.628545,204.574641 108.031943,203.119903 C84.3179905,189.691066 53.0303566,199.616591 30.086927,184.516219 C14.6044189,174.336193 5.39259275,153.869313 1.95342747,132.142498 C-1.48573781,110.415683 0.208787158,87.3063946 2.50782843,64.5647187 C4.13970922,48.405498 6.47946921,31.1183053 15.4657763,18.1639077 C24.97203,4.46171805 40.391894,-1.37294514 53.9919447,0.27031218 C67.5919954,1.9135695 79.5507686,10.0513065 89.9590985,19.8762886 C102.967162,32.1300239 114.81944,47.6702739 131.335577,51.9245194 C142.583339,54.8308541 154.704987,52.1036125 166.525943,50.667726 C186.290181,48.2955286 205.875882,49.6151616 225.330031,51.1830113 C243.957277,52.6848794 262.703547,54.4475321 280.196933,60.8508943 C292.575422,65.3816343 302.22889,74.4054107 313.833724,80.406599 C321.398008,84.3183683 329.82365,85.0033207 336.911838,90.1467476 C345.644436,96.4778441 353.362199,107.958652 350.327088,122.144707 C347.442324,135.652093 335.746656,143.042038 328.883987,153.410583 Z" id="Path" fill="#6C63FF" opacity="0.1"></path>
                        <rect id="Rectangle" fill="#6C63FF" opacity="0.1" x="275" y="81" width="13" height="19"></rect>
                        <rect id="Rectangle" fill="#6C63FF" opacity="0.1" x="277" y="83" width="10" height="15"></rect>
                        <rect id="Rectangle" fill="#6C63FF" opacity="0.1" x="250" y="67" width="20" height="19"></rect>
                        <rect id="Rectangle" fill="#6C63FF" opacity="0.1" x="251" y="69" width="16" height="15"></rect>
                        <rect id="Rectangle" fill="#6C63FF" opacity="0.1" x="20" y="38" width="60" height="2"></rect>
                        <rect id="Rectangle" fill="#6C63FF" opacity="0.1" x="20" y="45" width="60" height="2"></rect>
                        <rect id="Rectangle" fill="#D6D6E3" x="122" y="142" width="6" height="69"></rect>
                        <path d="M306.587215,149.017762 L306.587215,85.6576115 C306.588959,81.9802072 309.593831,79 313.299925,79 L313.299925,79 C317.001085,79.0069126 319.998265,81.9850976 320,85.6576115 L320,162.339254 C320,166.017882 316.994617,169 313.28729,169 L271.71271,169 C268.005383,169 265,166.017882 265,162.339254 L265,162.339254 C265,158.660626 268.005383,155.678508 271.71271,155.678508 L299.874505,155.678508 C303.581832,155.678508 306.587215,152.69639 306.587215,149.017762 L306.587215,149.017762 Z" id="Path" fill="#AEBEE1"></path>
                        <path d="M306.587215,149.017762 L306.587215,85.6576115 C306.588959,81.9802072 309.593831,79 313.299925,79 L313.299925,79 C317.001085,79.0069126 319.998265,81.9850976 320,85.6576115 L320,162.339254 C320,166.017882 316.994617,169 313.28729,169 L271.71271,169 C268.005383,169 265,166.017882 265,162.339254 L265,162.339254 C265,158.660626 268.005383,155.678508 271.71271,155.678508 L299.874505,155.678508 C303.581832,155.678508 306.587215,152.69639 306.587215,149.017762 L306.587215,149.017762 Z" id="Path" fill="#535461"></path>
                        <path d="M266,162 C266.187521,158.464476 269.07247,155.69511 272.567929,155.69521 L300.161278,155.69521 C303.793773,155.69521 306.738492,152.712443 306.738492,149.033014 L306.738492,85.6590617 C306.736097,82.1021946 309.492551,79.1707288 313,79 L313,162 L266,162 Z" id="Path" fill="#D6D6E3"></path>
                        <path d="M59.4104104,152.006268 L59.4104104,88.6593544 C59.4104206,84.987605 56.4144815,82.0086394 52.7131123,82 L52.7131123,82 C49.005573,82 46,84.9814945 46,88.6593544 L46,165.324976 C45.9958229,167.09386 46.7012406,168.791721 47.9606449,170.043984 C49.2200492,171.296246 50.929949,172 52.7131123,172 L94.2869063,172 C97.9944456,172 101,169.018505 101,165.340646 L101,165.340646 C101,161.662786 97.9944456,158.681291 94.2869063,158.681291 L66.1266631,158.681291 C64.3429525,158.682129 62.6322402,157.978737 61.3721522,156.726384 C60.1120641,155.474032 59.4062132,153.775695 59.4104104,152.006268 Z" id="Path" fill="#AEBEE1"></path>
                        <path d="M59.4104104,152.006268 L59.4104104,88.6593544 C59.4104206,84.987605 56.4144815,82.0086394 52.7131123,82 L52.7131123,82 C49.005573,82 46,84.9814945 46,88.6593544 L46,165.324976 C45.9958229,167.09386 46.7012406,168.791721 47.9606449,170.043984 C49.2200492,171.296246 50.929949,172 52.7131123,172 L94.2869063,172 C97.9944456,172 101,169.018505 101,165.340646 L101,165.340646 C101,161.662786 97.9944456,158.681291 94.2869063,158.681291 L66.1266631,158.681291 C64.3429525,158.682129 62.6322402,157.978737 61.3721522,156.726384 C60.1120641,155.474032 59.4062132,153.775695 59.4104104,152.006268 Z" id="Path" fill="#535461"></path>
                        <path d="M101,165 C100.812442,161.464209 97.9269229,158.694634 94.4307733,158.694734 L66.8350678,158.694734 C65.0898011,158.695566 63.4157349,157.993972 62.1813546,156.744383 C60.9469742,155.494794 60.2534578,153.799635 60.253458,152.032034 L60.253458,88.653294 C60.2527909,85.102047 57.5020925,82.1754733 54,82 L54,165 L101,165 Z" id="Path" fill="#D6D6E3"></path>
                        <rect id="Rectangle" fill="#D6D6E3" x="243" y="142" width="6" height="71"></rect>
                        <rect id="Rectangle" fill="#000000" opacity="0.1" x="122" y="142" width="6" height="5"></rect>
                        <rect id="Rectangle" fill="#000000" opacity="0.1" x="243" y="142" width="6" height="5"></rect>
                        <path d="M144,100 C143.920875,101.315556 143.820707,102.648889 143.699495,104 L143,104 L143,100 L144,100 Z" id="Path" fill="#000000" opacity="0.1"></path>
                        <path d="M167.999681,133.987016 C168.018184,135.093223 167.228726,136 166.251156,136 L147.794497,136 L147.794497,134.05557 L163.151917,134.05557 C163.814938,134.05557 164.22817,133.245391 163.895118,132.597247 L149.968589,103.97611 C149.767741,103.555625 149.351169,103.283825 148.889253,103.271877 L142,103.271877 L142,100 L150.699454,100 C151.022658,100.008245 151.314224,100.198242 151.45499,100.49234 L167.419923,131.653077 C167.787804,132.375817 167.986174,133.174398 167.999681,133.987016 Z" id="Path" fill="#535461"></path>
                        <path d="M134.656103,128.565968 L134.399565,129 L132,127.38968 L139.423949,70 L141.335467,70 C141.335467,70 141.413679,70.2641932 141.541948,70.7674183 C142.821508,75.7273309 149.10668,103.816728 134.656103,128.565968 Z" id="Path" fill="#535461"></path>
                        <path d="M141,70.7674183 L134.506068,128.565968 L134.264021,129 L132,127.38968 L139.004592,70 L140.808134,70 C140.808134,70 140.878977,70.2736287 141,70.7674183 Z" id="Path" fill="#000000" opacity="0.1"></path>
                        <polygon id="Rectangle" fill="#D6D6E3" transform="translate(135.095634, 99.964628) rotate(-83.170000) translate(-135.095634, -99.964628) " points="105.376658 97.7007352 164.815802 97.685172 164.81461 102.228521 105.375466 102.244084"></polygon>
                        <path d="M114,134.498534 C113.998175,134.77482 113.743448,134.998398 113.428671,135 L112.573349,135 C112.257813,135 112.00202,134.775486 112.00202,134.498534 C111.999327,134.479055 111.999327,134.459362 112.00202,134.439883 C112.037326,134.189442 112.279162,134.001042 112.566667,134 L113.421989,134 C113.683086,134.002393 113.909526,134.158984 113.973271,134.381232 C113.987918,134.419154 113.996903,134.458584 114,134.498534 L114,134.498534 Z" id="Path" fill="#E3EDF9"></path>
                        <path d="M116,134.498537 C115.998173,134.774821 115.743189,134.998398 115.428094,135 L114.571906,135 C114.256051,135 114,134.775487 114,134.498537 C114.000317,134.451853 114.008199,134.405446 114.023411,134.360708 C114.048692,134.279371 114.098349,134.205454 114.167224,134.146633 C114.272926,134.052233 114.417687,133.999345 114.568562,134 L115.424749,134 C115.650192,133.999093 115.855463,134.113735 115.949833,134.293259 C115.982417,134.357949 115.999493,134.42782 116,134.498537 L116,134.498537 Z" id="Path" fill="#E3EDF9"></path>
                        <path d="M118,134.5 C117.998173,134.77548 117.7432,134.998403 117.428118,135 L116.571967,135 C116.256125,135 116.000085,134.776144 116.000085,134.5 C115.998636,134.428378 116.015788,134.357397 116.05025,134.292404 C116.144874,134.116294 116.346097,134.002791 116.568623,134 L117.424774,134 C117.576719,133.999225 117.722701,134.051651 117.830145,134.145589 C117.937588,134.239527 117.997552,134.367159 117.996656,134.5 L118,134.5 Z" id="Path" fill="#E3EDF9"></path>
                        <path d="M121,134.498537 C120.998173,134.774821 120.743133,134.998398 120.427968,135 L119.571592,135 C119.35842,134.999856 119.163024,134.895812 119.06461,134.730045 C118.966196,134.564277 118.981093,134.364289 119.103262,134.211149 L119.170166,134.146633 C119.275891,134.052233 119.420685,133.999345 119.571592,134 L120.427968,134 C120.585603,134.001683 120.73555,134.059987 120.842775,134.161295 C120.943301,134.25146 120.999712,134.37246 121,134.498537 L121,134.498537 Z" id="Path" fill="#E3EDF9"></path>
                        <path d="M113.98327,135 C113.994808,135.063156 114.000425,135.128177 113.999975,135.193396 C113.99815,135.6378 113.743427,135.997424 113.428653,136 L112.573342,136 C112.257809,136 112.00202,135.638871 112.00202,135.193396 C111.999327,135.162065 111.999327,135.130388 112.00202,135.099057 L113.98327,135 Z" id="Path" fill="#000000" opacity="0.1"></path>
                        <path d="M115.953177,135 C115.983299,135.089084 115.999207,135.18473 116,135.281513 C115.998173,135.677368 115.743189,135.997705 115.428094,136 L114.571906,136 C114.256051,136 114,135.678322 114,135.281513 C114.000317,135.214625 114.008199,135.148134 114.023411,135.084034 L115.953177,135 Z" id="Path" fill="#000000" opacity="0.1"></path>
                        <path d="M117.913047,135 C117.969322,135.103512 117.999423,135.222882 118,135.344828 C117.998173,135.705799 117.7432,135.997907 117.428118,136 L116.571967,136 C116.256125,136 116.000085,135.706669 116.000085,135.344828 C115.998636,135.250971 116.015788,135.157961 116.05025,135.072797 L117.913047,135 Z" id="Path" fill="#000000" opacity="0.1"></path>
                        <path d="M121,134.404181 C120.998168,134.732451 120.743129,134.998097 120.427965,135 L119.571591,135 C119.358419,134.999829 119.163023,134.876208 119.06461,134.67925 C118.966196,134.482291 118.981093,134.244673 119.103261,134.062718 L120.842771,134 C120.944107,134.107992 121.000583,134.253175 121,134.404181 L121,134.404181 Z" id="Path" fill="#000000" opacity="0.1"></path>
                        <path d="M124.996967,137 L110,137 L110,136.397865 C109.999641,135.842149 110.498778,135.386309 111.128185,135.367545 L123.156086,135.000912 C123.638929,134.986411 124.107777,135.145405 124.455346,135.441513 C124.802915,135.737621 124.999458,136.145499 125,136.571815 L124.996967,137 Z" id="Path" fill="#D6D6E3"></path>
                        <path d="M202.000319,133.987016 C201.981812,135.093223 202.771457,136 203.749259,136 L222.219551,136 L222.219551,134.05557 L206.839979,134.05557 C206.176801,134.05557 205.763471,133.245391 206.096603,132.597247 L220.026435,103.97611 C220.227331,103.555625 220.644003,103.283825 221.106028,103.271877 L228,103.271877 L228,100 L219.30465,100 C218.986547,100.012216 218.700883,100.200213 218.561274,100.489224 L202.592553,131.649961 C202.219842,132.372597 202.017176,133.172351 202.000319,133.987016 L202.000319,133.987016 Z" id="Path" fill="#535461"></path>
                        <path d="M236.345434,128.565968 L236.601823,129 L239,127.38968 L231.580347,70 L229.669934,70 C229.669934,70 229.591767,70.2641932 229.463572,70.7674183 C228.181626,75.7273309 221.887584,103.816728 236.345434,128.565968 Z" id="Path" fill="#535461"></path>
                        <path d="M230,70.7674183 L236.493932,128.565968 L236.735979,129 L239,127.38968 L231.99836,70 L230.194818,70 C230.194818,70 230.121023,70.2736287 230,70.7674183 Z" id="Path" fill="#000000" opacity="0.1"></path>
                        <polygon id="Rectangle" fill="#D6D6E3" transform="translate(235.547474, 99.958818) rotate(-6.830000) translate(-235.547474, -99.958818) " points="233.283581 70.2398416 237.82693 70.2386495 237.811367 129.677794 233.268018 129.678986"></polygon>
                        <path d="M256,134.498534 C256.001825,134.77482 256.256552,134.998398 256.571329,135 L257.426651,135 C257.742187,135 257.99798,134.775486 257.99798,134.498534 C258.000673,134.479055 258.000673,134.459362 257.99798,134.439883 C257.962674,134.189442 257.720838,134.001042 257.433333,134 L256.578011,134 C256.316914,134.002393 256.090474,134.158984 256.026729,134.381232 C256.012082,134.419154 256.003097,134.458584 256,134.498534 L256,134.498534 Z" id="Path" fill="#E3EDF9"></path>
                        <path d="M255.001071,134.498537 C255.002897,134.774821 255.257745,134.998398 255.572671,135 L256.4284,135 C256.579998,135 256.725386,134.947167 256.832582,134.853125 C256.939778,134.759082 257,134.631533 257,134.498537 C256.999683,134.451853 256.991805,134.405446 256.976601,134.360708 C256.951334,134.279371 256.901703,134.205454 256.832866,134.146633 C256.72722,134.052233 256.582536,133.999345 256.431743,134 L255.559301,134 C255.333979,133.999093 255.128818,134.113735 255.034498,134.293259 C255.007641,134.358997 254.99627,134.428832 255.001071,134.498537 L255.001071,134.498537 Z" id="Path" fill="#E3EDF9"></path>
                        <path d="M253,134.5 C253.001827,134.77548 253.2568,134.998403 253.571882,135 L254.428033,135 C254.743875,135 254.999915,134.776144 254.999915,134.5 C255.001364,134.428378 254.984212,134.357397 254.94975,134.292404 C254.855126,134.116294 254.653903,134.002791 254.431377,134 L253.575226,134 C253.423281,133.999225 253.277299,134.051651 253.169855,134.145589 C253.062412,134.239527 253.002448,134.367159 253.003344,134.5 L253,134.5 Z" id="Path" fill="#E3EDF9"></path>
                        <path d="M250,134.498537 C250.001827,134.774821 250.256867,134.998398 250.572032,135 L251.428408,135 C251.64158,134.999856 251.836976,134.895812 251.93539,134.730045 C252.033804,134.564277 252.018907,134.364289 251.896738,134.211149 L251.829834,134.146633 C251.724109,134.052233 251.579315,133.999345 251.428408,134 L250.572032,134 C250.414397,134.001683 250.26445,134.059987 250.157225,134.161295 C250.056699,134.25146 250.000288,134.37246 250,134.498537 L250,134.498537 Z" id="Path" fill="#E3EDF9"></path>
                        <path d="M256.01673,135 C256.005192,135.063156 255.999575,135.128177 256.000025,135.193396 C256.00185,135.6378 256.256573,135.997424 256.571347,136 L257.426658,136 C257.742191,136 257.99798,135.638871 257.99798,135.193396 C258.000673,135.162065 258.000673,135.130388 257.99798,135.099057 L256.01673,135 Z" id="Path" fill="#000000" opacity="0.1"></path>
                        <path d="M255.046823,135 C255.016701,135.089084 255.000793,135.18473 255,135.281513 C255.001827,135.677368 255.256811,135.997705 255.571906,136 L256.428094,136 C256.743949,136 257,135.678322 257,135.281513 C256.999683,135.214625 256.991801,135.148134 256.976589,135.084034 L255.046823,135 Z" id="Path" fill="#000000" opacity="0.1"></path>
                        <path d="M253.086953,135 C253.030678,135.103512 253.000577,135.222882 253,135.344828 C253.001827,135.705799 253.2568,135.997907 253.571882,136 L254.428033,136 C254.743875,136 254.999915,135.706669 254.999915,135.344828 C255.001364,135.250971 254.984212,135.157961 254.94975,135.072797 L253.086953,135 Z" id="Path" fill="#000000" opacity="0.1"></path>
                        <path d="M250,134.404181 C250.001832,134.732451 250.256871,134.998097 250.572035,135 L251.428409,135 C251.641581,134.999829 251.836977,134.876208 251.93539,134.67925 C252.033804,134.482291 252.018907,134.244673 251.896739,134.062718 L250.157229,134 C250.055893,134.107992 249.999417,134.253175 250,134.404181 L250,134.404181 Z" id="Path" fill="#000000" opacity="0.1"></path>
                        <path d="M245.003033,137 L260,137 L260,136.397865 C260.000359,135.842149 259.501222,135.386309 258.871815,135.367545 L246.843914,135.000912 C246.361071,134.986411 245.892223,135.145405 245.544654,135.441513 C245.197085,135.737621 245.000542,136.145499 245,136.571815 L245.003033,137 Z" id="Path" fill="#D6D6E3"></path>
                        <path d="M310.869817,145.382183 C318.096557,133.079721 315.477764,108.264148 315.769089,107.789405 C316.029089,107.371253 315.032945,95.6850141 308.391988,92.8302643 C307.19223,90.4439702 306.011267,87.7558523 306.011267,87.7558523 C305.895067,87.8654174 305.766858,87.9613989 305.629099,88.0419561 C305.57689,87.8994282 305.525726,87.7548043 305.475605,87.6080844 C305.391027,87.3597086 305.312714,87.1050448 305.234401,86.850381 C305.420335,86.9099609 305.609673,86.9582562 305.801388,86.9950049 C306.307787,87.1190932 306.840861,87.0715599 307.317531,86.859813 C307.48,86.7722923 307.627088,86.6586518 307.752953,86.5234052 C308.276085,86.1744215 308.564277,85.545622 308.808614,84.9514065 L310.741383,80.3045781 C311.612226,78.2075317 312.489333,76.0979094 312.952947,73.8751031 C313.642824,70.5300794 313.375668,67.0574112 312.182346,63.8583269 C311.724997,62.6384559 311.092226,61.4185849 310.01777,60.6891774 C307.865724,59.2240746 304.871028,60.2364418 302.411994,59.3781304 C301.603802,59.0951707 300.873923,58.617283 300.065731,58.3280353 C298.320914,57.6992358 296.350554,58.0356435 294.671519,58.8184989 C292.992485,59.6013543 291.632968,60.8463773 290.163813,61.9624964 C289.440199,62.518984 288.284297,63.0943355 287.432249,63.848895 C286.605262,64.4965584 285.969359,65.2794138 286.091528,66.310645 C286.229359,67.4896441 287.466707,68.1970436 288.619477,68.4737153 C288.810561,68.5177313 289.007911,68.5523153 289.202127,68.5868993 C286.419031,71.4166649 285.319508,75.5046231 286.305698,79.3556383 C287.291888,83.2066536 290.219134,86.2558478 294.016821,87.3880046 C294.604667,88.4958692 295.113415,89.6442184 295.539229,90.8243939 C295.595615,90.9857858 295.650956,91.1482256 295.705253,91.3117135 C293.806942,91.8524811 292.322124,92.3020727 292.024534,92.5504485 C291.125499,93.2987199 293.008148,99.8508108 293.008148,99.8508108 C292.528871,100.460746 292.040197,101.15557 291.545257,101.900697 C287.791899,107.622557 285.415441,114.141922 284.603577,120.94389 C284.290325,123.430792 283.883096,125.974286 283.366229,128.392021 L260.915408,123.874096 L260.86842,124.430584 L260.332758,124.298536 L260.332758,124.298536 L258.647458,123.880384 L258.581675,124.260808 L258.324808,124.138192 C254.149149,122.173193 247.113493,119.664283 242.34892,122.251793 C237.321214,124.968207 248.172288,128.577516 255.135895,130.498499 C252.827223,130.611683 250.618791,131.16817 248.870841,132.469785 C243.821208,136.267734 258.102398,138.245309 264.846729,138.94642 L265.119259,138.974716 L265.119259,139.11934 L267.456124,139.336276 L268.004317,139.38658 L268.057569,140.222883 C268.057569,140.222883 271.403108,140.773083 275.873225,141.43961 C270.770338,142.719217 264.464561,143.605825 260.085288,144.124584 C255.442883,144.67164 251.489634,147.916245 250.242888,152.440458 C249.839889,153.737789 249.80087,155.121491 250.130117,156.439623 C251.433248,161.007851 249.841925,194.614041 249.481684,201.851523 L241.227475,206.620967 C241.227475,206.620967 228.384114,208.192966 236.939046,211.214348 C237.709858,211.4785 238.498019,211.688605 239.297838,211.843147 C238.170129,212.572555 238.267237,213.525186 241.590848,214.694753 C250.152045,217.706703 270.052989,214.562705 270.052989,214.562705 C270.052989,214.562705 269.617568,211.022564 268.909617,208.079782 L269.128894,208.098646 C269.128894,208.098646 267.073956,200.424148 270.19082,196.553887 C273.307685,192.683626 269.667688,163.227513 269.667688,163.227513 C269.667688,163.227513 275.124551,160.960691 291.435619,160.812923 C304.592233,164.202153 311.004516,152.069466 310.913672,145.797191 C310.88548,145.655711 310.879215,145.511087 310.869817,145.382183 Z" id="Path" fill="url(#linearGradient-1)"></path>
                        <path d="M261,126.00226 L259.61852,132 C259.61852,132 258.376741,131.700113 256.514072,131.186973 C250.205833,129.4343 236.900166,125.225886 242.233609,122.13705 C246.831297,119.471387 253.602099,122.063744 257.62236,124.086315 C259.093869,124.829368 260.199052,125.495784 260.69266,125.808999 C260.900658,125.935618 261,126.00226 261,126.00226 Z" id="Path" fill="#F8B9BF"></path>
                        <path d="M260.888889,128.168421 L259.703704,132 C259.703704,132 258.222222,131.734737 256,131.280842 L257.337037,125 C259.092593,125.657263 260.411111,126.246737 261,126.523789 L260.888889,128.168421 Z" id="Path" fill="#000000" opacity="0.1"></path>
                        <polygon id="Path" fill="#D9DFE8" points="260.503263 132 256 131.049168 257.399565 124 261 124.758808"></polygon>
                        <polygon id="Path" fill="#000000" opacity="0.1" points="260.592868 132 259 131.623472 259.600297 125 261 125.330888"></polygon>
                        <path d="M297.559917,102.721495 C297.559917,102.721495 290.12897,98.4459621 286.826327,110.710969 C283.523683,122.975976 283.212113,128.626009 283.212113,128.626009 L259.744653,123.953329 L259,132.488881 C259,132.488881 284.090741,140.555923 287.246946,139.969511 C290.403151,139.383099 300.644461,122.284072 300.644461,122.284072 C300.644461,122.284072 309.954176,109.032404 297.559917,102.721495 Z" id="Path" fill="#022847"></path>
                        <g id="Group" opacity="0.1" transform="translate(241.000000, 102.000000)" fill="#000000">
                            <path d="M20.2509804,23.6712195 L18.854902,29.2321951 C18.854902,29.2321951 17.6,28.9541463 15.7176471,28.478374 C9.3427451,26.8533333 -4.10352941,22.9513821 1.28627451,20.0874797 C5.93254902,17.615935 12.774902,20.0195122 16.8376471,21.8947967 C18.3247059,22.5837398 19.4415686,23.201626 19.9403922,23.4920325 C20.1505882,23.6094309 20.2509804,23.6712195 20.2509804,23.6712195 Z" id="Path"></path>
                            <path d="M19.8588235,25.2406504 L18.854902,29.2569106 C18.854902,29.2569106 17.6,28.9788618 15.7176471,28.5030894 L16.8501961,21.9195122 C18.3372549,22.6084553 19.4541176,23.2263415 19.9529412,23.516748 L19.8588235,25.2406504 Z" id="Path"></path>
                            <polygon id="Path" points="19.8619608 29.6369106 15.9654902 28.6884553 17.1764706 21.6569106 20.2917647 22.4138211"></polygon>
                            <polygon id="Path" points="19.8619608 29.6369106 18.1803922 29.2291057 18.8141176 22.0554472 20.2917647 22.4138211"></polygon>
                            <path d="M57.4588235,0.821788618 C57.4588235,0.821788618 49.9764706,-3.43544715 46.6509804,8.77707317 C43.3254902,20.9895935 43.0117647,26.6154472 43.0117647,26.6154472 L19.3819608,21.9627642 L18.6321569,30.4617886 C18.6321569,30.4617886 43.8964706,38.4943089 47.0745098,37.9104065 C50.252549,37.3265041 60.5647059,20.3006504 60.5647059,20.3006504 C60.5647059,20.3006504 69.9388235,7.10569106 57.4588235,0.821788618 Z" id="Path"></path>
                        </g>
                        <path d="M251.383307,198.573233 L241.908011,204.207142 C241.908011,204.207142 229.631726,205.759569 237.809753,208.718087 C245.987781,211.676605 265,208.587657 265,208.587657 C265,208.587657 263.943081,199.769365 262.470173,198.53824 C260.997265,197.307114 251.383307,198.573233 251.383307,198.573233 Z" id="Path" fill="#68739D"></path>
                        <path d="M288.079929,136.143314 C288.079929,136.143314 283.305331,138.649396 274.823398,140.814023 C269.852199,142.067064 263.629618,142.956723 259.329359,143.464205 C254.827251,143.956025 251.065955,147.12677 249.805128,151.493063 C249.412431,152.752962 249.374629,154.09736 249.695905,155.377489 C251.109561,160.336397 249,200.646716 249,200.646716 L263.573446,202 C263.573446,202 261.585591,194.572601 264.603262,190.829142 C267.620932,187.085683 264.097716,158.591538 264.097716,158.591538 C264.097716,158.591538 269.37786,156.398717 285.155878,156.254617 C299.773013,160.013739 305.795872,143.95289 303.53964,139.451342 C301.283409,134.949793 288.079929,136.143314 288.079929,136.143314 Z" id="Path" fill="#6394E2"></path>
                        <g id="Group" opacity="0.1" transform="translate(235.000000, 135.000000)" fill="#000000">
                            <path d="M16.6288889,63.5466102 L7.06222222,69.1747881 C7.06222222,69.1747881 -5.33244444,70.7256356 2.92444444,73.6811441 C11.1813333,76.6366525 30.3768889,73.5508475 30.3768889,73.5508475 C30.3768889,73.5508475 29.3097778,64.7415254 27.8226667,63.5116525 C26.3355556,62.2817797 16.6288889,63.5466102 16.6288889,63.5466102 Z" id="Path"></path>
                            <path d="M53.9155556,0.400423729 C53.9155556,0.400423729 49.1555556,2.94279661 40.6995556,5.13877119 C35.7435556,6.40995763 29.54,7.3125 25.2528889,7.82733051 C20.7645455,8.32627316 17.0147494,11.5429354 15.7577778,15.9724576 C15.3662812,17.2506019 15.3285948,18.6144687 15.6488889,19.9131356 C17.0582222,24.9438559 14.9551111,65.8379237 14.9551111,65.8379237 L29.484,67.2108051 C29.484,67.2108051 27.5022222,59.6758475 30.5106667,55.878178 C33.5191111,52.0805085 30.0066667,23.1737288 30.0066667,23.1737288 C30.0066667,23.1737288 35.2706667,20.9491525 51.0004444,20.8029661 C65.5728889,24.6165254 71.5773333,8.32309322 69.328,3.75635593 C67.0786667,-0.810381356 53.9155556,0.400423729 53.9155556,0.400423729 Z" id="Path"></path>
                        </g>
                        <path d="M255.382127,202.572963 L245.90601,208.20422 C245.90601,208.20422 233.634824,209.743197 241.807397,212.713041 C249.97997,215.682885 269,212.582673 269,212.582673 C269,212.582673 267.942989,203.768532 266.469954,202.537986 C264.996919,201.30744 255.382127,202.572963 255.382127,202.572963 Z" id="Path" fill="#68739D"></path>
                        <path d="M290.162116,159.258359 C274.381376,159.402447 269.100321,161.595089 269.100321,161.595089 C269.100321,161.595089 272.624145,190.099433 269.605954,193.830056 C266.587762,197.560679 268.575961,205 268.575961,205 L254,203.646827 C254,203.646827 254.02497,203.17071 254.065545,202.318712 C254.415118,195.314788 255.953865,162.801042 254.689783,158.381302 C254.3708,157.105243 254.408599,155.765622 254.799025,154.509723 C256.054006,150.137874 259.815421,146.959372 264.321778,146.462728 C268.619658,145.95842 274.843312,145.081363 279.815369,143.812763 L280.058822,143.750116 C288.392401,141.601327 293.074187,139.142436 293.074187,139.142436 C293.074187,139.142436 306.279946,137.952145 308.536566,142.453325 C308.854827,143.167088 309.012541,143.942436 308.998503,144.724276 C309.110866,150.797894 302.899696,162.537925 290.162116,159.258359 Z" id="Path" fill="#6394E2"></path>
                        <path d="M267,133.536779 L266.471425,139 C266.471425,139 265.200992,138.91436 263.312342,138.725362 C256.86126,138.084541 243.177051,136.283155 248.01459,132.819177 C252.175183,129.84246 259.198116,131.141821 263.435985,132.346682 C264.981525,132.789646 266.1685,133.217845 266.697074,133.421608 C266.891812,133.492482 267,133.536779 267,133.536779 Z" id="Path" fill="#F8B9BF"></path>
                        <path d="M307,95.4130435 C307,95.4130435 305.125749,96.9347826 302.835329,98.6055901 C300.323353,99.1956522 297.407186,99.6832298 295.305389,100 C296.056886,97.515528 295.60479,94.7204969 294.757485,92.2701863 C293.835754,89.7097574 292.570827,87.2968069 291,85.1024845 L303.670659,81 C302.676647,83.6118012 303.125749,86.5900621 303.97006,89.1801242 C304.715491,91.385129 305.733999,93.4803108 307,95.4130435 L307,95.4130435 Z" id="Path" fill="#F8B9BF"></path>
                        <path d="M268,134.872671 L267.570306,139 C267.570306,139 266.134498,138.909938 264,138.71118 L264.139738,132 C265.886463,132.465839 267.227948,132.916149 267.825328,133.130435 L268,134.872671 Z" id="Path" fill="#000000" opacity="0.1"></path>
                        <polygon id="Path" fill="#D9DFE8" points="268 139 264 138.659522 264.131868 132 267.33124 132.271228"></polygon>
                        <path d="M307,95.3433649 C307,95.3433649 305.009782,96.8882201 302.577647,98.5844081 C299.910247,99.1834336 296.813646,99.6784179 294.581805,100 C295.379799,97.4777873 294.899731,94.6402981 294,92.1527658 C297.287356,91.2069361 301.989484,89.9836629 303.785767,89 C304.575061,91.2438126 305.655551,93.3761848 307,95.3433649 L307,95.3433649 Z" id="Path" fill="#000000" opacity="0.1"></path>
                        <path d="M304.412473,89 C304.412473,89 306.566497,94.1658184 307.923411,96.4995982 C309.280325,98.833378 292.157654,101 292.157654,101 C292.157654,101 290.380888,94.4969194 291.22972,93.7511385 C292.078552,93.0053576 302.979499,90.5108492 304.412473,89 Z" id="Path" fill="#104672"></path>
                        <path d="M308.999513,145.56024 C308.259326,146.830185 307.337215,147.991279 306.260878,149.008643 C298.488909,156.191297 285.749257,148.704551 280,144.611472 C288.347208,142.525401 293.03665,140.138279 293.03665,140.138279 C293.03665,140.138279 306.264004,138.982729 308.524316,143.352532 C308.847847,144.045441 309.010108,144.799285 308.999513,145.56024 Z" id="Path" fill="#000000" opacity="0.1"></path>
                        <path d="M306.327011,147.921482 C297.459246,156.332744 282.165018,145.195029 278.04179,141.913885 C277.373413,141.381129 277,141.052075 277,141.052075 C278.628581,139.529022 280.059473,136.301153 281.192263,132.352498 C282.24803,128.574623 283.010711,124.72111 283.473531,120.826185 C284.262968,114.240989 286.574775,107.929313 290.226338,102.389725 C290.70644,101.668939 291.167714,100.99516 291.647816,100.405996 C294.995978,96.1533565 300.62227,93.4519749 300.62227,93.4519749 C312.496164,89.985933 314.093366,107.576252 313.776436,108.083937 C313.459506,108.591621 316.635082,138.140725 306.327011,147.921482 Z" id="Path" fill="#032D50"></path>
                        <path d="M306.98459,125.288729 C306.98459,125.288729 299.222491,143.77848 296.118289,144.833704 C294.341269,145.434465 284.850005,144.295197 277.059193,143.208847 C276.379651,142.679679 276,142.35284 276,142.35284 C277.655787,140.840042 279.110582,137.633906 280.262295,133.711838 L290.295917,134.178751 C290.295917,134.178751 289.737608,128.532217 291.211545,115.869538 C292.685482,103.20686 300.855945,106.344515 300.855945,106.344515 C314.373419,110.761511 306.98459,125.288729 306.98459,125.288729 Z" id="Path" fill="#000000" opacity="0.1"></path>
                        <polygon id="Path" fill="#000000" opacity="0.1" points="268 139 266.41954 138.849747 266 132 267.387931 132.12963"></polygon>
                        <path d="M300.895799,104.343858 C300.895799,104.343858 292.758847,101.209055 291.290955,113.869673 C289.823063,126.530291 290.379083,132.180407 290.379083,132.180407 L266,131.037932 L266.549665,139.617392 C266.549665,139.617392 293.082927,143.885331 296.174397,142.833133 C299.265867,141.780935 306.99613,123.286533 306.99613,123.286533 C306.99613,123.286533 314.345122,108.758108 300.895799,104.343858 Z" id="Path" fill="#032D50"></path>
                        <path d="M302.515595,85.4668436 C302.145085,83.6683445 304.245747,83.692009 305,82 L291,85.9075942 C291.971775,87.0741912 292.838995,88.3075917 293.593573,89.5962921 C294.319893,89.7890981 295.065569,89.9178942 295.819943,89.9808396 C299.157845,90.2648131 300.199905,87.3274619 302.515595,85.4668436 Z" id="Path" fill="#000000" opacity="0.1"></path>
                        <ellipse id="Oval" fill="#F8B9BF" transform="translate(295.665713, 78.141005) rotate(-84.720000) translate(-295.665713, -78.141005) " cx="295.665713" cy="78.1410052" rx="10.9779633" ry="10.954033"></ellipse>
                        <path d="M285.014642,68.8476042 C285.148507,69.9934558 286.343947,70.6922994 287.455333,70.9504308 C288.566719,71.2085622 289.771498,71.221154 290.745907,71.8224113 C292.30247,72.7919781 292.722742,74.9451718 292.526615,76.7961629 C292.417655,77.8412804 292.261999,79.1224936 293.108769,79.7300468 C293.374701,79.8947435 293.671499,80.0019286 293.980444,80.0448412 C294.863688,80.2256659 295.77042,80.2575757 296.663959,80.1392795 C297.186964,80.0700248 297.725535,79.9504029 298.220522,80.0983563 C299.03616,80.3376 299.518695,81.2064326 299.677464,82.0469336 C299.836234,82.8874347 299.749066,83.7625631 299.876704,84.6093601 C300.24079,86.7798016 301.889286,88.4992964 304.023388,88.9346352 C304.51219,89.0548513 305.026579,89.0083706 305.486557,88.8024216 C306.078051,88.4876272 306.380024,87.8171151 306.6353,87.1906742 L308.503176,82.6702266 C309.34372,80.6335068 310.19049,78.5778993 310.63878,76.4184097 C311.304437,73.1658668 311.046491,69.7892556 309.894743,66.6786707 C309.452679,65.4950438 308.842506,64.3082689 307.805835,63.5968335 C305.729381,62.1708148 302.824834,63.1561213 300.465085,62.3376559 C299.683691,62.0637847 298.980124,61.597889 298.201843,61.317722 C296.517642,60.7101688 294.615522,61.0312591 292.993584,61.7962095 C291.371645,62.5611599 290.061019,63.7668225 288.635208,64.865455 C287.399297,65.8381697 284.781158,66.8675474 285.014642,68.8476042 Z" id="Path" fill="#000000" opacity="0.1"></path>
                        <path d="M285.014267,67.8476042 C285.148133,68.9934558 286.343591,69.6922994 287.454993,69.9504308 C288.566395,70.2085622 289.771192,70.221154 290.745614,70.8224113 C292.302199,71.7919781 292.722477,73.9451718 292.526348,75.7961629 C292.417387,76.8412804 292.261728,78.1224936 293.108511,78.7300468 C293.374446,78.8947435 293.671249,79.0019286 293.980198,79.0448412 C294.863454,79.2256659 295.7702,79.2575757 296.663752,79.1392795 C297.186764,79.0700248 297.725343,78.9504029 298.220337,79.0983563 C299.035988,79.3376 299.518529,80.2064326 299.677301,81.0469336 C299.836072,81.8874347 299.748904,82.7625631 299.876544,83.6093601 C300.240634,85.7798016 301.889154,87.4992964 304.023287,87.9346352 C304.512096,88.0548513 305.026492,88.0083706 305.486477,87.8024216 C306.07798,87.4876272 306.379957,86.8171151 306.635237,86.1906742 L308.50314,81.6702266 C309.343696,79.6335068 310.190478,77.5778993 310.638775,75.4184097 C311.304441,72.1658668 311.046492,68.7892556 309.894727,65.6786707 C309.452657,64.4950438 308.842475,63.3082689 307.805789,62.5968335 C305.729304,61.1708148 302.824716,62.1561213 300.464933,61.3376559 C299.683527,61.0637847 298.97995,60.597889 298.201658,60.317722 C296.517433,59.7101688 294.615285,60.0312591 292.993323,60.7962095 C291.371361,61.5611599 290.060717,62.7668225 288.634884,63.865455 C287.402069,64.8381697 284.783892,65.8675474 285.014267,67.8476042 Z" id="Path" fill="#B96B6B"></path>
                        <path d="M295,111 C295,111 290.845989,127.510665 286.710648,129.038841 C282.575307,130.567017 284.401827,131 284.401827,131" id="Path" fill="#000000" opacity="0.1"></path>
                        <rect id="Rectangle" fill="#D6D6E3" x="290" y="171" width="5" height="30"></rect>
                        <rect id="Rectangle" fill="#000000" opacity="0.1" x="290" y="171" width="5" height="2"></rect>
                        <path d="M281,170.648506 L281,171.351494 C281,171.788705 281.156627,172.208009 281.435424,172.517164 C281.714222,172.826319 282.092352,173 282.486632,173 L302.513368,173 C302.907648,173 303.285778,172.826319 303.564576,172.517164 C303.843373,172.208009 304,171.788705 304,171.351494 L304,170.648506 C304,169.738061 303.334412,169 302.513368,169 L282.486632,169 C282.092352,169 281.714222,169.173681 281.435424,169.482836 C281.156627,169.791991 281,170.211295 281,170.648506 L281,170.648506 Z" id="Path" fill="#D6D6E3"></path>
                        <path d="M281,170 L303,170 C302.722303,169.365758 302.307034,168.998619 301.868911,169 L282.127965,169 C281.690935,169.000373 281.277004,169.367343 281,170 L281,170 Z" id="Path" fill="#000000" opacity="0.1"></path>
                        <rect id="Rectangle" fill="#D6D6E3" x="274" y="199" width="37" height="4" rx="2"></rect>
                        <circle id="Oval" fill="#535461" cx="308.5" cy="205.5" r="2.5"></circle>
                        <circle id="Oval" fill="#535461" cx="275.5" cy="205.5" r="2.5"></circle>
                        <circle id="Oval" fill="#535461" cx="292.5" cy="205.5" r="2.5"></circle>
                        <rect id="Rectangle" fill="#D6D6E3" x="288" y="135" width="35" height="5" rx="2.5"></rect>
                        <path d="M295,199 C295,199 293.035837,201.25 290,199" id="Path" fill="#000000" opacity="0.1"></path>
                        <path d="M323,137 L323,137.482639 C323,138.872939 322.003703,140 320.774708,140 L290.225292,140 C288.996297,140 288,138.872939 288,137.482639 L288,137 L323,137 Z" id="Path" fill="#000000" opacity="0.1"></path>
                        <rect id="Rectangle" fill="#D6D6E3" x="258" y="142" width="6" height="78"></rect>
                        <rect id="Rectangle" fill="#000000" opacity="0.1" x="258" y="142" width="6" height="5"></rect>
                        <rect id="Rectangle" fill="#D6D6E3" x="73" y="174" width="5" height="30"></rect>
                        <rect id="Rectangle" fill="#000000" opacity="0.1" x="73" y="173" width="5" height="2"></rect>
                        <path d="M87,173.640212 L87,174.345679 C87,175.259335 86.3344123,176 85.5133682,176 L65.4866318,176 C65.0923525,176 64.7142219,175.825706 64.4354244,175.515461 C64.1566268,175.205215 64,174.784432 64,174.345679 L64,173.640212 C64.0069605,172.73207 64.6705138,172 65.4866318,172 L85.5133682,172 C85.9076475,172 86.2857781,172.174294 86.5645756,172.484539 C86.8433732,172.794785 87,173.215568 87,173.654321 L87,173.640212 Z" id="Path" fill="#D6D6E3"></path>
                        <path d="M86,172 L64,172 C64.2806784,171.357995 64.6954443,170.991304 65.1309287,171.000157 L84.8690713,171.000157 C85.3045557,170.991304 85.7193216,171.357995 86,172 Z" id="Path" fill="#000000" opacity="0.1"></path>
                        <rect id="Rectangle" fill="#D6D6E3" x="57" y="202" width="37" height="4" rx="2"></rect>
                        <circle id="Oval" fill="#535461" cx="58.5" cy="206.5" r="2.5"></circle>
                        <circle id="Oval" fill="#535461" cx="91.5" cy="206.5" r="2.5"></circle>
                        <circle id="Oval" fill="#535461" cx="75.5" cy="206.5" r="2.5"></circle>
                        <path d="M73,201 C73,201 74.9641626,203.25 78,201" id="Path" fill="#000000" opacity="0.1"></path>
                        <path d="M188,111 C188,111 183.306103,101.651792 185.021624,93.5262119 C185.760667,90.1230831 185.472332,86.5490971 184.199904,83.3408036 C183.588967,81.823376 182.852596,80.3703842 182,79" id="Path" stroke="#535461" stroke-width="2"></path>
                        <path d="M183.963425,74.8950159 C184.25722,76.0832186 182.68455,80 182.68455,80 C182.68455,80 179.40441,77.0294934 179.107159,75.8412907 C178.835984,75.0495642 179.088648,74.1899778 179.761247,73.6160153 C180.433847,73.0420528 181.412836,72.8506092 182.295628,73.1204111 C183.178421,73.3902129 183.815987,74.0757129 183.946143,74.8950159 L183.963425,74.8950159 Z" id="Path" fill="#6C63FF"></path>
                        <path d="M188.80351,80.1757191 C188.321866,81.3612462 184.58999,84 184.58999,84 C184.58999,84 183.654423,79.761422 184.139532,78.5822687 C184.42251,77.7826349 185.158991,77.1898076 186.058251,77.0378038 C186.957511,76.8858001 187.875051,77.199045 188.448672,77.8538861 C189.022294,78.5087271 189.159825,79.3999393 188.806975,80.1757191 L188.80351,80.1757191 Z" id="Path" fill="#6C63FF"></path>
                        <path d="M191.158865,91.7650259 C190.198786,92.50307 186,93 186,93 C186,93 187.368424,89.2245078 188.328503,88.4864638 C188.948543,88.0016789 189.796644,87.8679689 190.550105,88.1362105 C191.303565,88.4044521 191.846532,89.0334003 191.972407,89.7837406 C192.098282,90.534081 191.787711,91.290441 191.158865,91.7650259 L191.158865,91.7650259 Z" id="Path" fill="#6C63FF"></path>
                        <path d="M191.454707,100.810805 C190.7094,101.757143 187,103 187,103 C187,103 187.61395,98.7730238 188.359257,97.8298403 C188.833905,97.1905247 189.585888,96.8871939 190.321785,97.0382062 C191.057683,97.1892185 191.660881,97.7706439 191.896015,98.5556128 C192.13115,99.3405817 191.960959,100.204705 191.451852,100.810805 L191.454707,100.810805 Z" id="Path" fill="#6C63FF"></path>
                        <path d="M180.043916,85.3522712 C181.032209,86.0289563 185,85.9998168 185,85.9998168 C185,85.9998168 183.245634,82.0595021 182.257341,81.3828171 C181.618443,80.9176378 180.80183,80.8732562 180.124864,81.2669203 C179.447898,81.6605844 179.017337,82.4302126 179.000511,83.2767035 C178.983685,84.1231944 179.383247,84.9130547 180.043916,85.3393203 L180.043916,85.3522712 Z" id="Path" fill="#6C63FF"></path>
                        <path d="M180.404256,95.9450367 C181.458703,96.2962818 185,94.849152 185,94.849152 C185,94.849152 182.433724,91.399925 181.379277,91.0557048 C180.346082,90.7738942 179.323539,91.5877348 179.061816,92.9001699 C178.800093,94.212605 179.392423,95.5561036 180.404256,95.9450367 Z" id="Path" fill="#6C63FF"></path>
                        <path d="M181.19786,107.770085 C182.21624,108.33217 186,107.686813 186,107.686813 C186,107.686813 183.867591,103.779977 182.849211,103.217892 C181.829214,102.655476 180.632675,103.219367 180.176667,104.477378 C179.720659,105.73539 180.177863,107.211138 181.19786,107.773555 L181.19786,107.770085 Z" id="Path" fill="#6C63FF"></path>
                        <path d="M183.963425,74.8950159 C184.25722,76.0832186 182.68455,80 182.68455,80 C182.68455,80 179.40441,77.0294934 179.107159,75.8412907 C178.835984,75.0495642 179.088648,74.1899778 179.761247,73.6160153 C180.433847,73.0420528 181.412836,72.8506092 182.295628,73.1204111 C183.178421,73.3902129 183.815987,74.0757129 183.946143,74.8950159 L183.963425,74.8950159 Z" id="Path" fill="#1FBF53"></path>
                        <path d="M188.80351,80.1757191 C188.321866,81.3612462 184.58999,84 184.58999,84 C184.58999,84 183.654423,79.761422 184.139532,78.5822687 C184.42251,77.7826349 185.158991,77.1898076 186.058251,77.0378038 C186.957511,76.8858001 187.875051,77.199045 188.448672,77.8538861 C189.022294,78.5087271 189.159825,79.3999393 188.806975,80.1757191 L188.80351,80.1757191 Z" id="Path" fill="#1FBF53"></path>
                        <path d="M191.158865,91.7650259 C190.198786,92.50307 186,93 186,93 C186,93 187.368424,89.2245078 188.328503,88.4864638 C188.948543,88.0016789 189.796644,87.8679689 190.550105,88.1362105 C191.303565,88.4044521 191.846532,89.0334003 191.972407,89.7837406 C192.098282,90.534081 191.787711,91.290441 191.158865,91.7650259 L191.158865,91.7650259 Z" id="Path" fill="#1FBF53"></path>
                        <path d="M191.454707,100.810805 C190.7094,101.757143 187,103 187,103 C187,103 187.61395,98.7730238 188.359257,97.8298403 C188.833905,97.1905247 189.585888,96.8871939 190.321785,97.0382062 C191.057683,97.1892185 191.660881,97.7706439 191.896015,98.5556128 C192.13115,99.3405817 191.960959,100.204705 191.451852,100.810805 L191.454707,100.810805 Z" id="Path" fill="#1FBF53"></path>
                        <path d="M180.043916,85.3522712 C181.032209,86.0289563 185,85.9998168 185,85.9998168 C185,85.9998168 183.245634,82.0595021 182.257341,81.3828171 C181.618443,80.9176378 180.80183,80.8732562 180.124864,81.2669203 C179.447898,81.6605844 179.017337,82.4302126 179.000511,83.2767035 C178.983685,84.1231944 179.383247,84.9130547 180.043916,85.3393203 L180.043916,85.3522712 Z" id="Path" fill="#1FBF53"></path>
                        <path d="M180.404256,95.9450367 C181.458703,96.2962818 185,94.849152 185,94.849152 C185,94.849152 182.433724,91.399925 181.379277,91.0557048 C180.346082,90.7738942 179.323539,91.5877348 179.061816,92.9001699 C178.800093,94.212605 179.392423,95.5561036 180.404256,95.9450367 Z" id="Path" fill="#1FBF53"></path>
                        <path d="M181.19786,107.770085 C182.21624,108.33217 186,107.686813 186,107.686813 C186,107.686813 183.867591,103.779977 182.849211,103.217892 C181.829214,102.655476 180.632675,103.219367 180.176667,104.477378 C179.720659,105.73539 180.177863,107.211138 181.19786,107.773555 L181.19786,107.770085 Z" id="Path" fill="#1FBF53"></path>
                        <path d="M186.5,137 L186.5,137 C184.981265,137.000357 183.530013,136.376603 182.490359,135.276638 C181.450704,134.176674 180.915242,132.698466 181.010938,131.19252 L182.547619,107 L190.452381,107 L191.989062,131.19252 C192.084758,132.698466 191.549296,134.176674 190.509641,135.276638 C189.469987,136.376603 188.018735,137.000357 186.5,137 L186.5,137 Z" id="Path" fill="#1FBF53"></path>
                        <rect id="Rectangle" fill="#6C63FF" opacity="0.1" x="25" y="20" width="5" height="18"></rect>
                        <rect id="Rectangle" fill="#6C63FF" opacity="0.1" x="31" y="20" width="5" height="18"></rect>
                        <rect id="Rectangle" fill="#6C63FF" opacity="0.1" x="37" y="20" width="5" height="18"></rect>
                        <rect id="Rectangle" fill="#6C63FF" opacity="0.1" x="43" y="20" width="5" height="18"></rect>
                        <rect id="Rectangle" fill="#6C63FF" opacity="0.1" x="53" y="20" width="5" height="18"></rect>
                        <rect id="Rectangle" fill="#6C63FF" opacity="0.1" x="60" y="20" width="5" height="18"></rect>
                        <rect id="Rectangle" fill="#6C63FF" opacity="0.1" x="25" y="24" width="5" height="1"></rect>
                        <rect id="Rectangle" fill="#6C63FF" opacity="0.1" x="25" y="35" width="5" height="1"></rect>
                        <rect id="Rectangle" fill="#6C63FF" opacity="0.1" x="31" y="24" width="5" height="1"></rect>
                        <rect id="Rectangle" fill="#6C63FF" opacity="0.1" x="31" y="35" width="5" height="1"></rect>
                        <rect id="Rectangle" fill="#6C63FF" opacity="0.1" x="37" y="24" width="5" height="1"></rect>
                        <rect id="Rectangle" fill="#6C63FF" opacity="0.1" x="37" y="35" width="5" height="1"></rect>
                        <rect id="Rectangle" fill="#6C63FF" opacity="0.1" x="43" y="24" width="5" height="1"></rect>
                        <rect id="Rectangle" fill="#6C63FF" opacity="0.1" x="43" y="35" width="5" height="1"></rect>
                        <rect id="Rectangle" fill="#6C63FF" opacity="0.1" x="48" y="24" width="5" height="1"></rect>
                        <rect id="Rectangle" fill="#6C63FF" opacity="0.1" x="48" y="35" width="5" height="1"></rect>
                        <rect id="Rectangle" fill="#6C63FF" opacity="0.1" x="53" y="24" width="5" height="1"></rect>
                        <rect id="Rectangle" fill="#6C63FF" opacity="0.1" x="53" y="35" width="5" height="1"></rect>
                        <rect id="Rectangle" fill="#6C63FF" opacity="0.1" x="60" y="24" width="5" height="1"></rect>
                        <rect id="Rectangle" fill="#6C63FF" opacity="0.1" x="60" y="35" width="5" height="1"></rect>
                        <rect id="Rectangle" fill="#6C63FF" opacity="0.1" x="48" y="20" width="5" height="18"></rect>
                        <polygon id="Rectangle" fill="#6C63FF" opacity="0.1" transform="translate(70.134544, 29.019142) rotate(-24.840000) translate(-70.134544, -29.019142) " points="67.9481102 19.9179587 72.3363743 19.9142425 72.3209786 38.1203254 67.9327145 38.1240416"></polygon>
                        <polygon id="Rectangle" fill="#6C63FF" opacity="0.1" transform="translate(67.963973, 24.320182) rotate(-24.840000) translate(-67.963973, -24.320182) " points="65.7702388 23.8511929 70.1585029 23.8474767 70.1577066 24.7891706 65.7694425 24.7928868"></polygon>
                        <polygon id="Rectangle" fill="#1FBF53" opacity="0.1" transform="translate(72.699988, 34.577931) rotate(-24.840000) translate(-72.699988, -34.577931) " points="70.506254 34.1089417 74.8945181 34.1052255 74.8937218 35.0469194 70.5054577 35.0506356"></polygon>
                        <path d="M121.98874,207.123177 L114.063409,202.021198 C114.022862,194.835622 113.910579,161.476046 115.392095,157.012995 C115.774205,155.720993 115.79579,154.34767 115.454475,153.04409 C114.425211,148.508648 110.669958,145.122017 106.119365,144.376076 C101.827647,143.671053 95.6520645,142.515947 90.6804089,141.024067 C95.1124808,140.561395 98.4341955,140.161672 98.4341955,140.161672 L98.521527,139.333899 L101.375395,139.195412 L101.375395,139.072662 L101.646746,139.056925 C108.312008,138.657202 122.465944,137.32584 117.656475,133.341198 C116.006534,131.975215 113.854437,131.329992 111.583819,131.11282 C118.526671,129.513927 129.377606,126.416859 124.540066,123.50549 C119.942688,120.742049 112.903148,122.913773 108.701881,124.67948 L108.443005,124.78964 L108.396221,124.408801 L106.718209,124.748723 L106.718209,124.748723 L106.184863,124.855736 L106.159911,124.301788 L82.6147242,127.971688 C82.4301498,125.249267 82.1095265,122.537982 81.654078,119.84818 C82.1811858,116.304177 84.6327048,111.136102 83.7687471,108.363219 C82.7644352,105.143402 78.6411424,104.089014 76.906989,101.180791 C76.4516178,100.422262 75.9993655,99.7109431 75.5564703,99.0877526 C74.5871856,97.7584544 73.4729577,96.5432687 72.2347555,95.4650644 C72.3097321,93.5950554 72.7241424,91.7548068 73.4573961,90.0357532 C73.9274659,88.8857639 74.4777879,87.7708747 75.104218,86.6994809 C80.8008151,85.2734667 84.4137408,79.6198762 83.3508037,73.7950311 C84.8416766,74.4402536 86.6538045,74.5063496 87.5863798,73.2473788 L87.1434845,73.0742704 C87.1871502,73.027059 87.230816,72.9798476 87.2682437,72.9263413 C86.3606203,72.5769769 85.3968552,72.1804012 84.6857275,71.544621 C84.505642,71.3404989 84.3535323,71.1128998 84.2334753,70.8679242 C83.8030559,69.9866447 83.8529596,68.9291093 83.4412541,68.0352401 C83.2474977,67.6282491 82.9724728,67.2660629 82.633438,66.9714099 C81.9111595,66.2261786 80.9974658,65.6986834 79.9947802,65.4480553 C78.868828,65.1175755 77.6836153,64.9507619 76.6044479,64.5038273 C73.5975659,60.9804436 68.7922127,59.6165733 64.4061133,61.0416578 L64.0162407,61.1769972 C64.5795022,58.4363961 62.8633974,55.7455953 60.1582006,55.1277061 C57.4530037,54.5098169 54.7559101,56.1926069 54.0947623,58.9108499 C54.1936331,57.7637685 54.6727064,56.6837846 55.454638,55.8452562 C55.3735445,55.9144996 55.289332,55.9805956 55.2113575,56.0529864 C54.2277597,56.986207 53.6518417,58.2755186 53.6103117,59.6372589 C53.5687816,60.9989991 54.0650419,62.3216089 54.9899098,63.3141 L55.0803603,63.4022279 C55.4404705,63.8468509 55.8716192,64.2276796 56.3560235,64.5290067 C54.5377831,63.881011 53.2384995,62.2518425 53,60.3208971 C53,60.4279096 53,60.5349221 53,60.6356398 C53.0785799,62.0017562 53.6940909,63.2797615 54.7100012,64.1861704 C55.7259115,65.0925793 57.0582329,65.5524564 58.411432,65.4637924 L58.5517861,65.4480553 L58.4769306,65.5519204 C55.4907016,69.9840464 55.9168383,75.9066386 59.5061943,79.8569751 C59.7132111,80.3354891 59.9885201,80.7808493 60.3233673,81.1788943 C60.4410258,81.3147835 60.5670759,81.4430344 60.700764,81.5628804 C61.5549912,82.4723698 62.7230896,83.0155422 63.9632181,83.0799401 C64.1711501,83.3296359 64.3925978,83.5698895 64.627561,83.8007008 C64.4219029,84.6837133 64.152963,85.5504867 63.8228639,86.3941805 C63.1581759,88.0743426 62.3307529,89.6841886 61.352631,91.2003011 C54.6156321,93.1328212 54.0230258,104.677583 54.2663063,105.115075 C54.5563715,105.637548 53.2619944,123.766726 58.2523639,145.666521 C58.0465112,151.926753 61.6645291,162.27864 74.5084927,159.549821 C90.5712446,160.415363 95.8392034,162.898683 95.8392034,162.898683 C95.8392034,162.898683 94.3140217,191.090185 96.4910704,195.194429 C97.8540651,197.765877 96.887181,201.542789 95.8672742,204.208659 C95.4892005,204.86811 95.1877854,205.569377 94.9690077,206.298551 C94.6571096,206.962658 94.429424,207.365528 94.429424,207.365528 L94.6477527,207.365528 C93.8243417,210.251719 93.2410923,213.73592 93.2410923,213.73592 C93.2410923,213.73592 112.71289,217.72371 121.277612,215.114493 C124.602446,214.101022 124.739681,213.163088 123.660513,212.388822 C124.455389,212.270876 125.241184,212.097349 126.012225,211.869496 C134.583185,209.260279 121.98874,207.123177 121.98874,207.123177 Z" id="Path" fill="url(#linearGradient-2)"></path>
                        <path d="M79,74.5 C79,80.8512746 73.8512746,86 67.5,86 C61.1487254,86 56,80.8512746 56,74.5 C56,68.1487254 61.1487254,63 67.5,63 C70.5499896,63 73.4750596,64.2116037 75.631728,66.368272 C77.7883963,68.5249404 79,71.4500104 79,74.5 Z" id="Path" fill="#FA595F"></path>
                        <path d="M105,128.162741 L106.129786,134 C106.129786,134 107.386479,133.766125 109.246756,133.359247 C115.601413,131.965609 129.028838,128.524766 123.828729,125.314594 C119.356016,122.556152 112.50611,124.725101 108.42031,126.487172 C106.922183,127.127925 105.795493,127.723825 105.290958,128.002552 C105.102145,128.101869 105,128.162741 105,128.162741 Z" id="Path" fill="#F8B9BF"></path>
                        <path d="M105.028169,129.095522 L105.8482,133 C105.8482,133 107.118936,132.78209 109,132.402985 L108.164319,126 C106.649452,126.597015 105.510172,127.152239 105,127.41194 L105.028169,129.095522 Z" id="Path" fill="#000000" opacity="0.1"></path>
                        <polygon id="Path" fill="#D9DFE8" points="104.10559 133 108 132.308812 107.118012 126 104 126.553501"></polygon>
                        <polygon id="Path" fill="#000000" opacity="0.1" points="104.118261 133 106 132.686782 105.655652 126 104 126.272989"></polygon>
                        <path d="M69.0217944,102.592109 C69.0217944,102.592109 76.7873163,98.6777955 79.6091179,110.977725 C82.4309196,123.277654 82.4722764,128.884477 82.4722764,128.884477 L106.624608,125.274816 L107,133.76506 C107,133.76506 81.0406971,140.667422 77.8498662,139.947336 C74.6590352,139.22725 64.9720159,121.837483 64.9720159,121.837483 C64.9720159,121.837483 56.0962249,108.312792 69.0217944,102.592109 Z" id="Path" fill="#1FBF53"></path>
                        <g id="Group" opacity="0.1" transform="translate(62.000000, 102.000000)" fill="#000000">
                            <path d="M42.4356716,25.2839516 L43.5797015,31.0144355 C43.5797015,31.0144355 44.8522388,30.7848387 46.7359701,30.3854032 C53.1707463,29.0172581 66.7674627,25.6393548 61.501791,22.4879032 C56.9726866,19.7799194 50.0364179,21.9091935 45.8991045,23.6390323 C44.3820896,24.2680645 43.241194,24.8530645 42.7302985,25.1266935 C42.5391045,25.2241935 42.4356716,25.2839516 42.4356716,25.2839516 Z" id="Path"></path>
                            <path d="M42.7585075,26.9005645 L43.5797015,31.0144355 C43.5797015,31.0144355 44.8522388,30.7848387 46.7359701,30.3854032 L45.8991045,23.6390323 C44.3820896,24.2680645 43.241194,24.8530645 42.7302985,25.1266935 L42.7585075,26.9005645 Z" id="Path"></path>
                            <polygon id="Path" points="42.5610448 31.3698387 46.4914925 30.5804032 45.6013433 23.3748387 42.4544776 24.0070161"></polygon>
                            <polygon id="Path" points="42.5610448 31.3698387 44.2567164 31.0270161 43.9464179 23.7082258 42.4544776 24.0070161"></polygon>
                            <path d="M6.96134328,0.710806452 C6.96134328,0.710806452 14.6122388,-3.28983871 17.3923881,9.28137097 C20.1725373,21.8525806 20.2132836,27.5830645 20.2132836,27.5830645 L44.0091045,23.8937903 L44.3789552,32.5712903 C44.3789552,32.5712903 18.8028358,39.6258871 15.6591045,38.8899194 C12.5153731,38.1539516 2.97134328,20.3806452 2.97134328,20.3806452 C2.97134328,20.3806452 -5.77343284,6.55766129 6.96134328,0.710806452 Z" id="Path"></path>
                        </g>
                        <path d="M111.474025,199.986792 L120.991977,206.237085 C120.991977,206.237085 133.577671,208.418108 125.016601,211.092576 C116.455532,213.767043 97,209.678036 97,209.678036 C97,209.678036 98.4782389,200.618401 100.051848,199.417686 C101.625457,198.216972 111.474025,199.986792 111.474025,199.986792 Z" id="Path" fill="#F37291"></path>
                        <path d="M77.1798716,137.352046 C77.1798716,137.352046 81.8422079,140.058546 90.2269185,142.58711 C95.1422014,144.06991 101.32534,145.215568 105.597327,145.911704 C110.079569,146.603354 113.700039,149.932753 114.762736,154.340251 C115.098118,155.607387 115.077588,156.94242 114.703403,158.198652 C113.073303,163.074723 113.40432,203.297621 113.40432,203.297621 L98.7771374,204 C98.7771374,204 101.09113,196.692138 98.2400162,192.833736 C95.3889023,188.975335 100.163659,160.764676 100.163659,160.764676 C100.163659,160.764676 94.9829387,158.348493 79.2128126,157.50876 C64.4326133,160.630444 59.1207351,144.350862 61.5752538,139.968017 C64.0297724,135.585173 77.1798716,137.352046 77.1798716,137.352046 Z" id="Path" fill="#96A2D0"></path>
                        <g id="Group" opacity="0.1" transform="translate(61.000000, 136.000000)" fill="#000000">
                            <path d="M50.6532407,64.3707438 L59.9401852,70.337686 C59.9401852,70.337686 72.2204167,72.4198347 63.8671296,74.9730579 C55.5138426,77.526281 36.5305093,73.6226446 36.5305093,73.6226446 C36.5305093,73.6226446 37.9728704,64.973719 39.508287,63.827438 C41.0437037,62.681157 50.6532407,64.3707438 50.6532407,64.3707438 Z" id="Path"></path>
                            <path d="M16.2226852,0.364297521 C16.2226852,0.364297521 20.85375,3.08710744 29.1822222,5.63090909 C34.064537,7.12264463 40.2062037,8.27520661 44.449537,8.97553719 C48.901716,9.67135578 52.4979027,13.0208179 53.5534722,17.454876 C53.8866043,18.7296482 53.8662123,20.0727262 53.494537,21.3365289 C51.8753704,26.2419835 52.2041667,66.7072727 52.2041667,66.7072727 L37.6750926,67.4138843 C37.6750926,67.4138843 39.9735648,60.0619835 37.1415741,56.1803306 C34.3095833,52.2986777 39.0523148,23.9180165 39.0523148,23.9180165 C39.0523148,23.9180165 33.9063426,21.4872727 18.2419907,20.6424793 C3.56092593,23.7829752 -1.71532407,7.40528926 0.722731481,2.99603306 C3.16078704,-1.41322314 16.2226852,0.364297521 16.2226852,0.364297521 Z" id="Path"></path>
                        </g>
                        <path d="M107.474025,203.986792 L116.991977,210.237085 C116.991977,210.237085 129.577671,212.418108 121.016601,215.092576 C112.455532,217.767043 93,213.678036 93,213.678036 C93,213.678036 94.4782389,204.618401 96.0518481,203.417686 C97.6254573,202.216972 107.474025,203.986792 107.474025,203.986792 Z" id="Path" fill="#F37291"></path>
                        <path d="M74.0396558,159.287162 C89.8902352,160.130897 95.097386,162.558597 95.097386,162.558597 C95.097386,162.558597 93.593935,190.103897 95.7251317,194.112425 C98.0007099,198.365605 93.6912356,206 93.6912356,206 L108.39304,205.294273 C108.39304,205.294273 108.39304,204.817516 108.39304,203.96437 C108.349098,196.944742 108.242381,164.349575 109.70189,159.980342 C110.077984,158.718122 110.098619,157.376726 109.761526,156.10355 C108.692639,151.675496 105.05408,148.330579 100.549358,147.634829 C96.2524381,146.938512 90.0408942,145.787393 85.1005354,144.297525 L84.8588533,144.222248 C76.5820259,141.712997 71.990066,139.037509 71.990066,139.037509 C71.990066,139.037509 62.2003715,138.360011 59.7490244,142.763746 C59.4351516,143.3346 58.0823595,144.45749 58.0258624,145.363957 C57.6586312,151.43007 61.1143714,162.006562 74.0396558,159.287162 Z" id="Path" fill="#96A2D0"></path>
                        <path d="M97,134.1735 L97.2757424,140 C97.2757424,140 98.5522126,139.965468 100.454525,139.849315 C106.945314,139.456905 120.732432,138.157244 116.04791,134.2614 C112.020213,130.91179 104.925269,131.979144 100.628026,133.068474 C99.0510274,133.470302 97.83962,133.872129 97.3129211,134.063625 C97.108438,134.132689 97,134.1735 97,134.1735 Z" id="Path" fill="#F8B9BF"></path>
                        <path d="M60,94.7122014 C60,94.7122014 61.8592782,96.3700497 64.1647831,98.2042649 C66.7367845,98.9289723 69.7426176,99.5735129 71.8900838,100 C71.2238425,97.3865641 71.8157127,94.5486612 72.7980314,92.0506654 C73.8640288,89.4522626 75.2785964,87.0222943 77,84.8324515 L64.0780168,80 C64.9921619,82.7417027 64.3878965,85.8040725 63.4055778,88.4239218 C62.5384285,90.6638325 61.393649,92.7776275 60,94.7122014 Z" id="Path" fill="#F8B9BF"></path>
                        <path d="M97,135.775917 L97.2233857,140 C97.2233857,140 98.6614311,139.965143 100.804538,139.847895 L101,133 C99.2233857,133.405613 97.8586387,133.811227 97.2652705,134.004527 L97,135.775917 Z" id="Path" fill="#000000" opacity="0.1"></path>
                        <polygon id="Path" fill="#D9DFE8" points="96 140 100.775617 139.819755 101 133 97.1780105 133.144787"></polygon>
                        <path d="M58.3025533,147.567164 C66.8037308,156.329899 82.6568525,145.915761 86.9200356,142.831478 C87.6127241,142.328878 88,142.019825 88,142.019825 C86.4257079,140.430857 83.9068405,138.960516 82.9402251,134.980293 C82.0180231,130.917926 81.3929771,126.794821 81.0699661,122.643161 C80.8086336,119.349721 84.2405904,113.078138 83.2487864,109.950151 C82.2569823,106.822163 78.1732685,105.79511 76.4572901,102.963688 C76.0070426,102.226956 75.5599436,101.533929 75.1191418,100.928311 C71.9516661,96.5578697 66.4321979,93.6140652 66.4321979,93.6140652 C54.6722357,89.6338418 53.7497005,106.285223 54.0425188,106.803433 C54.3353371,107.321642 52.9908917,125.677496 58.3025533,147.567164 Z" id="Path" fill="#1FBF53"></path>
                        <path d="M58.6064304,123.315983 C58.6064304,123.315983 65.3458229,142.514844 68.3193584,143.725497 C70.0220726,144.418206 79.309322,143.671478 86.9342501,142.905684 C87.6178215,142.394096 88,142.079517 88,142.079517 C86.4464287,140.462135 85.1818216,137.128867 84.231036,133.080647 L74.4466437,133.1156 C74.4466437,133.1156 75.2389651,127.395979 74.3627509,114.402907 C73.4865366,101.409836 65.3986443,104.266468 65.3986443,104.266468 C52.0596809,108.178054 58.6064304,123.315983 58.6064304,123.315983 Z" id="Path" fill="#000000" opacity="0.1"></path>
                        <polygon id="Path" fill="#000000" opacity="0.1" points="96 140 98.06625 139.922322 99 133 97.18125 133.068715"></polygon>
                        <path d="M65.5354796,104.262811 C65.5354796,104.262811 73.746082,101.424839 74.6460903,114.400693 C75.5460986,127.376547 74.740828,133.11605 74.740828,133.11605 L99,133.027066 L98.0684124,141.753907 C98.0684124,141.753907 71.541851,144.931927 68.510244,143.727457 C65.478637,142.522988 58.6354157,123.318216 58.6354157,123.318216 C58.6354157,123.318216 51.9753541,108.174953 65.5354796,104.262811 Z" id="Path" fill="#1FBF53"></path>
                        <path d="M65.3489933,84.8395907 C65.8154362,82.9197954 63.6711409,82.8590018 63,81 L77,85.7994884 C75.9571431,87.0184989 75.0168608,88.3141209 74.1879195,89.6742754 C73.442288,89.8514199 72.6802694,89.9585856 71.9127517,89.9942413 C68.5100671,90.1542242 67.6006711,86.9449663 65.3489933,84.8395907 Z" id="Path" fill="#000000" opacity="0.1"></path>
                        <ellipse id="Oval" fill="#F8B9BF" transform="translate(72.254615, 77.860676) rotate(-2.750000) translate(-72.254615, -77.860676) " cx="72.2546148" cy="77.8606765" rx="10.9538827" ry="10.9781131"></ellipse>
                        <path d="M66,112 C66,112 69.3927916,128.313249 73.3991078,129.979137 C77.4054241,131.645026 75.589391,132 75.589391,132" id="Path" fill="#000000" opacity="0.1"></path>
                        <path d="M81,120.90992 C81,120.90992 78.228,121.944688 75,117" id="Path" fill="#000000" opacity="0.1"></path>
                        <circle id="Oval" fill="#FA595F" cx="59" cy="63" r="5"></circle>
                        <path d="M55.888517,64.9584204 C54.0098158,63.0018397 54.0098158,59.9565807 55.888517,58 C55.8038952,58.0667551 55.7192734,58.1335101 55.641161,58.2066228 C53.5452622,60.130771 53.4432602,63.3500557 55.4133333,65.3970965 C57.3834064,67.4441373 60.6795279,67.5437615 62.7754269,65.6196134 C62.8567939,65.5465007 62.928397,65.4670304 63,65.3907389 C60.8837488,67.1010005 57.7712918,66.9117893 55.888517,64.9584204 Z" id="Path" fill="#FA595F"></path>
                        <path d="M59.2672115,66.4441199 C56.6311079,66.5851051 54.3253335,64.8828295 54,62.555515 C54,62.647175 54,62.7388349 54,62.8332725 C54.1117455,64.4180266 55.1670619,65.8294595 56.7684218,66.5358981 C58.3697817,67.2423367 60.2739004,67.1364561 61.7635149,66.2581406 C63.2531293,65.3798251 64.1019317,63.8625116 63.9901862,62.2777575 C63.9901862,62.1833199 63.9682916,62.0944375 63.9557804,62 C63.9610554,64.3489109 61.9070256,66.2958493 59.2672115,66.4441199 Z" id="Path" fill="#FA595F"></path>
                        <path d="M76.2402981,66.7966644 C77.3912498,67.3790019 78.7088273,67.5404107 79.943092,67.9075366 C81.1773566,68.2746625 82.4363065,68.9456167 82.979383,70.1419406 C83.3774333,71.0217768 83.3311484,72.0630217 83.7477127,72.9333632 C84.346331,74.1993145 85.7287074,74.7816521 87,75.278538 C85.9076758,76.7818551 83.562573,76.3735859 82.0320849,75.3513302 C80.5015967,74.3290745 79.1840192,72.8194276 77.4035925,72.4238178 C75.603765,72.0597394 73.7749376,72.8944036 72.8337277,74.5094726 C72.3461931,75.3861438 72.1733961,76.4083995 71.9327145,77.383182 C71.3155822,79.9530631 70.0813175,82.5102847 67.9213544,83.9692936 C65.7613913,85.4283024 62.5430463,85.4188078 60.8490181,83.4217696 C59.8616064,82.2570945 59.5314406,80.6714905 59.2383027,79.1586787 C59.0713755,78.4532992 58.9915512,77.7291967 59.0007068,77.0033966 C59.099448,75.1867565 60.2781707,73.6391311 61.4692361,72.2908929 C62.8732121,70.7084538 64.3666723,69.1893123 65.8601325,67.6796654 C67.149939,66.3757356 68.6372279,64.1666506 70.5811947,64.0115715 C72.821385,63.8280086 74.4043294,65.8756848 76.2402981,66.7966644 Z" id="Path" fill="#000000" opacity="0.1"></path>
                        <path d="M75.2402981,66.7966644 C76.3912498,67.3790019 77.7088273,67.5404107 78.943092,67.9075366 C80.1773566,68.2746625 81.4363065,68.9456167 81.979383,70.1419406 C82.3774333,71.0217768 82.3311484,72.0630217 82.7477127,72.9333632 C83.346331,74.1993145 84.7287074,74.7816521 86,75.278538 C84.9076758,76.7818551 82.562573,76.3735859 81.0320849,75.3513302 C79.5015967,74.3290745 78.1840192,72.8194276 76.4035925,72.4238178 C74.603765,72.0597394 72.7749376,72.8944036 71.8337277,74.5094726 C71.3461931,75.3861438 71.1733961,76.4083995 70.9327145,77.383182 C70.3155822,79.9530631 69.0813175,82.5102847 66.9213544,83.9692936 C64.7613913,85.4283024 61.5430463,85.4188078 59.8490181,83.4217696 C58.8616064,82.2570945 58.5314406,80.6714905 58.2383027,79.1586787 C58.0713755,78.4532992 57.9915512,77.7291967 58.0007068,77.0033966 C58.099448,75.1867565 59.2781707,73.6391311 60.4692361,72.2908929 C61.8732121,70.7084538 63.3666723,69.1893123 64.8601325,67.6796654 C66.149939,66.3757356 67.6372279,64.1666506 69.5811947,64.0115715 C71.821385,63.8280086 73.4043294,65.8756848 75.2402981,66.7966644 Z" id="Path" fill="#FA595F"></path>
                        <rect id="Rectangle" fill="#D6D6E3" x="45" y="137" width="35" height="5" rx="2.5"></rect>
                        <path d="M45,139 L45,139.482639 C45,140.872939 45.996297,142 47.2252916,142 L77.7747084,142 C79.003703,142 80,140.872939 80,139.482639 L80,139 L45,139 Z" id="Path" fill="#000000" opacity="0.1"></path>
                        <rect id="Rectangle" fill="#D6D6E3" x="107" y="142" width="6" height="78"></rect>
                        <rect id="Rectangle" fill="#000000" opacity="0.1" x="107" y="142" width="6" height="5"></rect>
                        <rect id="Rectangle" fill="#D6D6E3" x="105" y="136" width="162" height="10"></rect>
                    </g>
                </g>
            </g>
        </g>
    </g>
</svg>