<?xml version="1.0" encoding="UTF-8"?>
<svg width="80px" height="64px" viewBox="0 0 80 64" version="1.1" xmlns="http://www.w3.org/2000/svg" xmlns:xlink="http://www.w3.org/1999/xlink">
    <!-- Generator: Sketch 59.1 (86144) - https://sketch.com -->
    <title>Hesiod logo</title>
    <desc>Created with Sketch.</desc>
    <g id="Page-1" stroke="none" stroke-width="1" fill="none" fill-rule="evenodd">
        <g id="Homepage" transform="translate(-129.851562, -3027.410156)">
            <g id="footer" transform="translate(129.851562, 3019.410156)">
                <g id="Hesiod-logo" transform="translate(-0.000000, 8.000000)">
                    <path d="M72.4990147,21.9815174 C72.4990147,21.9815174 68.761058,23.7070911 47.3780991,22.0553261 C42.602102,21.6869565 35.7904671,21.9697214 29.6902944,23.8344869 C25.3443427,25.1627069 13.6717801,30.2298945 10.8020028,42.4143997 C29.7293895,19.8660044 67.7884007,26.2779263 72.4990147,21.9815174" id="Fill-9" fill="#84BF41"></path>
                    <path d="M21.6741282,63.1519537 L27.0658721,63.1519537 L27.0658721,50.4723571 C25.258738,51.0840595 23.4556483,51.4527661 21.6741282,51.5687031 L21.6741282,63.1519537 Z M21.6741282,22.3923522 C23.7431316,21.1281672 25.6742912,20.2765022 27.0658721,19.7524266 L27.0658721,0.163457666 L21.6741282,0.163457666 L21.6741282,22.3923522 Z M59.5733891,63.1519537 L64.9651329,63.1519537 L64.9651329,33.2638036 C63.6696045,33.5462315 61.9507713,33.862699 59.5733891,34.0834511 L59.5733891,63.1519537 Z M59.5733891,0.163457666 L59.5733891,19.8845409 C61.6164414,19.91184 63.4023428,19.8791484 64.9651329,19.8039916 L64.9651329,0.163457666 L59.5733891,0.163457666 Z" id="Fill-10" fill="#292D78" fill-rule="nonzero"></path>
                    <path d="M70.5756066,24.1978011 C58.9852785,28.0190032 36.1338967,24.906904 18.5340559,38.0205902 C14.9507943,40.6901741 12.4291649,43.063849 11.0234289,44.4898065 C10.1505313,45.3761852 9.41581435,46.1769593 9.29145171,46.3003108 L9.29145171,46.3036811 C5.87164771,49.6513615 2.11414354,54.2291872 0.219382717,56.7191362 C0.219382717,56.7191362 1.62511865,55.1846563 4.16022909,54.5048746 C5.90973166,52.4230643 8.31205382,49.6506874 9.88124742,48.0656536 C10.0443681,47.9460093 11.3550626,46.3306432 14.2686534,47.3437437 C14.2686534,47.3437437 19.709603,49.9536739 27.0105998,45.077243 C32.7494805,41.2445821 36.2114127,36.4699331 47.3053014,32.6291834 C57.314303,29.1642179 75.1450067,29.359019 79.638913,17.9995538 C79.638913,17.9995538 77.4489172,21.9309634 70.5756066,24.1978011" id="Fill-11" fill="#292D78"></path>
                </g>
            </g>
        </g>
    </g>
</svg>