<?xml version="1.0" encoding="UTF-8"?>
<svg width="100px" height="65px" viewBox="0 0 100 65" version="1.1" xmlns="http://www.w3.org/2000/svg" xmlns:xlink="http://www.w3.org/1999/xlink">
    <!-- Generator: Sketch 59.1 (86144) - https://sketch.com -->
    <title>Hesiod logo</title>
    <desc>Created with Sketch.</desc>
    <defs>
        <polygon id="path-1" points="0 0.0806352833 99.8129226 0.0806352833 99.8129226 12.8302867 0 12.8302867"></polygon>
        <polygon id="path-3" points="0 0.0806352833 99.8129226 0.0806352833 99.8129226 12.8302867 0 12.8302867"></polygon>
        <polygon id="path-5" points="0 0.0806352833 99.8129226 0.0806352833 99.8129226 12.8302867 0 12.8302867"></polygon>
        <polygon id="path-7" points="0 0.0806352833 99.8129226 0.0806352833 99.8129226 12.8302867 0 12.8302867"></polygon>
        <polygon id="path-9" points="0 0.0806352833 99.8129226 0.0806352833 99.8129226 12.8302867 0 12.8302867"></polygon>
        <polygon id="path-11" points="0 0.0806352833 99.8129226 0.0806352833 99.8129226 12.8302867 0 12.8302867"></polygon>
    </defs>
    <g id="Page-1" stroke="none" stroke-width="1" fill="none" fill-rule="evenodd">
        <g id="Homepage" transform="translate(-129.851562, -10.410156)">
            <g id="header-navigation" transform="translate(-1.148438, 10.410156)">
                <g id="Hesiod-logo" transform="translate(131.000000, 0.395437)">
                    <g id="Group-8" transform="translate(0.000000, 51.616096)">
                        <g id="Fill-1-Clipped">
                            <mask id="mask-2" fill="white">
                                <use xlink:href="#path-1"></use>
                            </mask>
                            <g id="path-1"></g>
                            <polyline id="Fill-1" fill="#FFFFFF" mask="url(#mask-2)" points="5.34190912 12.8445584 4.20825791 12.8445584 4.20825791 6.71128176 1.13365121 6.71128176 1.13365121 12.8445584 0 12.8445584 0 0.0806352833 1.13365121 0.0806352833 1.13365121 5.69180441 4.20825791 5.69180441 4.20825791 0.0806352833 5.34190912 0.0806352833 5.34190912 12.8445584"></polyline>
                        </g>
                        <g id="Fill-3-Clipped">
                            <mask id="mask-4" fill="white">
                                <use xlink:href="#path-3"></use>
                            </mask>
                            <g id="path-1"></g>
                            <polyline id="Fill-3" fill="#FFFFFF" mask="url(#mask-4)" points="24.2669387 12.8445584 20.0750933 12.8445584 20.0750933 0.0806352833 24.218177 0.0806352833 24.218177 1.08393801 21.2087445 1.08393801 21.2087445 5.84689056 23.9491549 5.84689056 23.9491549 6.86636791 21.2087445 6.86636791 21.2087445 11.8412557 24.2669387 11.8412557 24.2669387 12.8445584"></polyline>
                        </g>
                        <g id="Fill-4-Clipped">
                            <mask id="mask-6" fill="white">
                                <use xlink:href="#path-5"></use>
                            </mask>
                            <g id="path-1"></g>
                            <path d="M43.7059886,11.9392549 C43.7059886,12.2056605 43.6229747,12.4230666 43.4574226,12.5917109 C43.2913948,12.7601173 43.075178,12.8445584 42.8090102,12.8445584 L39.595492,12.8445584 C39.3290864,12.8445584 39.1102531,12.7601173 38.9389924,12.5917109 C38.7677316,12.4230666 38.6821012,12.2056605 38.6821012,11.9392549 L38.6821012,8.70147473 L39.8157524,8.70147473 L39.8157524,11.8412557 L42.5723374,11.8412557 L42.5723374,8.79923609 L39.0491226,4.54197857 C38.8046002,4.24845662 38.6821012,3.92496404 38.6821012,3.57126296 L38.6821012,0.985938788 C38.6821012,0.719770995 38.7677316,0.502127088 38.9389924,0.333720656 C39.1102531,0.165076362 39.3290864,0.0806352833 39.595492,0.0806352833 L42.8090102,0.0806352833 C43.075178,0.0806352833 43.2913948,0.165076362 43.4574226,0.333720656 C43.6229747,0.502127088 43.7059886,0.719770995 43.7059886,0.985938788 L43.7059886,3.95493468 L42.5723374,3.95493468 L42.5723374,1.08393801 L39.8157524,1.08393801 L39.8157524,3.77534872 L43.3553797,8.03260624 C43.5889604,8.31542439 43.7059886,8.63344614 43.7059886,8.98690936 L43.7059886,11.9392549" id="Fill-4" fill="#FFFFFF" mask="url(#mask-6)"></path>
                        </g>
                        <g id="Fill-5-Clipped">
                            <mask id="mask-8" fill="white">
                                <use xlink:href="#path-7"></use>
                            </mask>
                            <g id="path-1"></g>
                            <polygon id="Fill-5" fill="#FFFFFF" mask="url(#mask-8)" points="58.4717599 12.8302867 59.6054111 12.8302867 59.6054111 0.0806352833 58.4717599 0.0806352833"></polygon>
                        </g>
                        <g id="Fill-6-Clipped">
                            <mask id="mask-10" fill="white">
                                <use xlink:href="#path-9"></use>
                            </mask>
                            <g id="path-1"></g>
                            <path d="M75.5621584,11.8412557 L78.6855269,11.8412557 L78.6855269,1.08393801 L75.5621584,1.08393801 L75.5621584,11.8412557 Z M79.819416,11.9392549 C79.819416,12.2056605 79.7335477,12.4230666 79.5625248,12.5917109 C79.391264,12.7601173 79.1724308,12.8445584 78.9057873,12.8445584 L75.3335729,12.8445584 C75.0674051,12.8445584 74.8495233,12.7601173 74.6813547,12.5917109 C74.5127104,12.4230666 74.4285072,12.2056605 74.4285072,11.9392549 L74.4285072,0.985938788 C74.4285072,0.719770995 74.5127104,0.502127088 74.6813547,0.333720656 C74.8495233,0.165076362 75.0674051,0.0806352833 75.3335729,0.0806352833 L78.9057873,0.0806352833 C79.1724308,0.0806352833 79.391264,0.165076362 79.5625248,0.333720656 C79.7335477,0.502127088 79.819416,0.719770995 79.819416,0.985938788 L79.819416,11.9392549 Z" id="Fill-6" fill="#FFFFFF" fill-rule="nonzero" mask="url(#mask-10)"></path>
                        </g>
                        <g id="Fill-7-Clipped">
                            <mask id="mask-12" fill="white">
                                <use xlink:href="#path-11"></use>
                            </mask>
                            <g id="path-1"></g>
                            <path d="M98.6792713,10.4221698 L98.6792713,2.48684922 C98.6792713,2.06821176 98.5474957,1.729496 98.2834687,1.47117766 C98.0196795,1.21309718 97.6785851,1.08393801 97.2601855,1.08393801 L95.6860135,1.08393801 L95.6860135,11.8412557 L97.1950113,11.8412557 C97.635532,11.8412557 97.9928011,11.7149508 98.267294,11.4621033 C98.541787,11.2092558 98.6792713,10.8626906 98.6792713,10.4221698 Z M99.8129226,10.5365815 C99.8129226,11.210683 99.591235,11.7639505 99.1480977,12.1961461 C98.7049605,12.6283417 98.1459843,12.8445584 97.4718829,12.8445584 L94.5526002,12.8445584 L94.5526002,0.0806352833 L97.4718829,0.0806352833 C98.151693,0.0806352833 98.7118585,0.297089879 99.1523792,0.72904762 C99.5926622,1.16124322 99.8129226,1.71474855 99.8129226,2.38885 L99.8129226,10.5365815 Z" id="Fill-7" fill="#FFFFFF" fill-rule="nonzero" mask="url(#mask-12)"></path>
                        </g>
                    </g>
                    <path d="M71.5563212,15.5138479 C71.5563212,15.5138479 68.9181917,16.7317023 53.826787,15.5659397 C50.4560419,15.3059564 45.6486091,15.5055227 41.3433034,16.8216143 C38.2760704,17.7590292 30.0379513,21.3352872 28.0125547,29.9347191 C41.3708954,14.0207869 68.2317214,18.5461152 71.5563212,15.5138479" id="Fill-9" fill="#84BF41"></path>
                    <path d="M35.6857512,44.5706176 L39.4910705,44.5706176 L39.4910705,35.6217662 C38.2156534,36.0534861 36.9430907,36.3137074 35.6857512,36.3955319 L35.6857512,44.5706176 Z M35.6857512,15.8038019 C37.1459872,14.9115809 38.5089375,14.3105031 39.4910705,13.9406274 L39.4910705,0.115363163 L35.6857512,0.115363163 L35.6857512,15.8038019 Z M62.4338304,44.5706176 L66.2391498,44.5706176 L66.2391498,23.4765227 C65.3248075,23.6758512 64.1117103,23.8992038 62.4338304,24.0550035 L62.4338304,44.5706176 Z M62.4338304,0.115363163 L62.4338304,14.0338694 C63.8757511,14.0531362 65.1361828,14.0300636 66.2391498,13.9770203 L66.2391498,0.115363163 L62.4338304,0.115363163 Z" id="Fill-10" fill="#FFFFFF" fill-rule="nonzero"></path>
                    <path d="M70.1988417,17.0780297 C62.0187609,19.7749112 45.8909907,17.5784918 33.4695891,26.8337097 C30.9406383,28.7178161 29.1609534,30.3930795 28.1688302,31.3994745 C27.5527671,32.025052 27.0342275,32.5902126 26.9464563,32.6772702 L26.9464563,32.6796488 C24.5328687,35.0423339 21.8809431,38.2732161 20.5436818,40.030542 C20.5436818,40.030542 21.5358051,38.9475554 23.3250045,38.4677874 C24.5597471,36.9985126 26.2552288,35.0418582 27.3627152,33.9231923 C27.4778405,33.8387512 28.4028866,32.6986777 30.4592052,33.4136915 C30.4592052,33.4136915 34.2992524,35.2556963 39.4520611,31.8140683 C43.5023785,29.1090994 45.945699,25.7393057 53.7754088,23.0286282 C60.8394402,20.583167 73.4237773,20.7206513 76.5954318,12.7035061 C76.5954318,12.7035061 75.0498033,15.4781686 70.1988417,17.0780297" id="Fill-11" fill="#FFFFFF"></path>
                </g>
            </g>
        </g>
    </g>
</svg>