<?xml version="1.0" encoding="UTF-8"?>
<svg width="127px" height="229px" viewBox="0 0 127 229" version="1.1" xmlns="http://www.w3.org/2000/svg" xmlns:xlink="http://www.w3.org/1999/xlink">
    <!-- Generator: Sketch 59.1 (86144) - https://sketch.com -->
    <title>undraw_security_o890</title>
    <desc>Created with Sketch.</desc>
    <defs>
        <linearGradient x1="49.9995454%" y1="100.007969%" x2="49.9995454%" y2="0.00176883159%" id="linearGradient-1">
            <stop stop-color="#808080" stop-opacity="0.25" offset="0%"></stop>
            <stop stop-color="#808080" stop-opacity="0.12" offset="54%"></stop>
            <stop stop-color="#808080" stop-opacity="0.1" offset="100%"></stop>
        </linearGradient>
    </defs>
    <g id="Page-1" stroke="none" stroke-width="1" fill="none" fill-rule="evenodd">
        <g id="Homepage" transform="translate(-1052.851562, -1532.410156)">
            <g id="services-section" transform="translate(129.851562, 1396.410156)">
                <g id="accuracy" transform="translate(800.000000, 64.132812)">
                    <g id="undraw_security_o890" transform="translate(123.539062, 71.703971)">
                        <ellipse id="Oval" fill="#1FBF53" opacity="0.1" cx="63.0241273" cy="222.952573" rx="62.6232086" ry="6.08108843"></ellipse>
                        <path d="M98.4325167,224.7849 C98.2214596,223.7243 97.860438,222.69916 97.3603248,221.740356 L92.5594655,214.571072 L92.5874705,214.571072 C92.5874705,214.571072 91.8313352,210.970428 92.5874705,209.202111 C93.3436058,207.433795 89.8909879,203.085017 89.8909879,203.085017 C89.8909879,203.085017 89.4709127,201.992821 90.5671089,200.64858 C91.6633051,199.30434 89.8909879,195.367635 89.8909879,195.367635 C89.8909879,195.367635 89.0508375,187.146164 88.9668225,185.889939 C88.8828074,184.633714 88.2066864,177.672468 88.2066864,177.672468 L86.6064,162.913826 L83.7578901,123.798825 L83.7058808,123.066694 C84.0579438,122.894664 84.2459775,122.786644 84.2459775,122.786644 L83.6778758,101.158773 L84.1699639,100.714694 C88.4667329,96.8259977 98.3765066,87.8243865 98.2764887,87.6283514 C98.1764708,87.4323164 97.0762739,72.5976612 96.948251,68.8849966 C96.8382166,66.2465684 96.2611816,63.6485563 95.243946,61.2116232 C94.9959016,60.7195351 94.2797734,57.4749544 93.9837204,56.1027088 C93.9037061,55.7266415 93.8516968,55.4905992 93.8516968,55.4905992 C93.8516968,55.4905992 90.9471769,49.9536082 91.199222,47.4371578 C91.4512671,44.9207074 91.9553574,43.0363701 85.7622489,42.1562126 C85.7622489,42.1562126 80.561318,41.3800737 77.4647637,39.2636949 C75.6334333,37.9959988 73.6318952,36.9938829 71.5196997,36.2871621 C71.5196997,36.2871621 69.7833889,33.0865893 68.5751726,34.1707833 C68.0635515,33.0287364 67.6811119,31.8331094 67.4349686,30.6061453 L67.3989621,30.3821052 C69.6924594,28.7828435 71.3429503,26.420543 72.0557956,23.7169122 C72.0958028,23.564885 72.1278085,23.4088571 72.163815,23.2568299 C72.2838592,23.2975146 72.4092073,23.3204277 72.5358815,23.324842 C73.5880699,23.324842 74.2361859,22.1526322 75.220362,21.7805656 C75.6204336,21.6245377 76.1125217,21.6005334 76.4205769,21.2844768 C76.6257686,21.0382508 76.7211872,20.7187429 76.6846241,20.4003186 C76.6945859,20.2911926 76.6945859,20.1813859 76.6846241,20.0722599 C76.6865392,20.03361 76.6865392,19.994889 76.6846241,19.9562391 L76.6846241,19.9962463 C76.4165761,18.5399856 75.2883742,17.2477543 75.4123964,15.7674894 C75.5324179,14.3752402 76.756637,13.1510211 76.6566191,11.7947783 C76.6552409,11.6875454 76.64588,11.5805638 76.6286141,11.474721 L76.6286141,11.5227296 C76.4795152,10.9932341 76.2050591,10.5074467 75.8284709,10.1064761 C75.3978061,9.51973307 74.8325219,9.04500417 74.1801759,8.72222838 C73.6240763,8.4781847 72.979961,8.42217468 72.4598679,8.1301224 C70.9315944,7.29797346 70.9355951,5.12958535 70.0274326,3.6493204 C69.234083,2.38939848 67.8017274,1.68017382 66.3187688,1.81299173 C65.1825654,1.92501178 64.1543814,2.5291199 63.0301802,2.72515499 C61.4939052,2.99720369 59.9296252,2.49711418 58.4733646,1.92501178 C57.0171039,1.35290938 55.5408397,0.724796957 53.9765597,0.724796957 C52.4122797,0.724796957 50.7199768,1.52494017 50.2478923,3.0012044 C49.9958472,3.80134762 50.1198694,4.66150157 49.927835,5.47364693 C49.5837735,6.90590329 48.3275486,7.9300866 47.0273159,8.64221406 C46.2271727,9.08629354 45.2750022,9.59438449 45.0269578,10.4345349 C45.0269578,10.4105306 45.0269578,10.390527 45.0269578,10.3705234 C45.0090297,10.4375541 44.9956634,10.5057223 44.9869507,10.5745599 C44.9789528,10.6637303 44.9789528,10.7534376 44.9869507,10.8426079 C44.9869507,11.418711 45.2910051,11.9668091 45.4950416,12.5149072 C45.8752337,13.5576514 45.8667111,14.7025159 45.4710373,15.7394844 C45.1749843,16.4996204 44.6708941,17.16774 44.3828426,17.9238753 C44.2471017,18.276103 44.1583231,18.6446685 44.1187953,19.0200715 L44.1187953,18.9560601 C44.1088554,19.1266126 44.1088554,19.2975992 44.1187953,19.4681517 C44.113844,20.0524161 44.2511517,20.6291087 44.5188669,21.1484525 C44.8896566,21.8729484 45.5374652,22.4168767 46.3151884,22.6567225 C47.1153316,22.8407554 47.6154211,22.056615 48.4595722,22.2566508 C48.6106513,22.2930271 48.7590322,22.3398139 48.9036517,22.3966759 C48.9316567,22.5767081 48.9596617,22.7567404 48.9916675,22.9327719 C49.5020782,25.6253029 50.9369594,28.0549786 53.0483936,29.8020014 C53.0483936,29.8980185 53.0803993,29.9940357 53.0924014,30.0940536 L53.0924014,30.0940536 C53.3479214,31.6890873 53.4590581,33.3039169 53.4244609,34.9189172 C53.4244609,34.9189172 52.1642353,33.0745871 50.435926,36.6352244 C50.435926,36.6352244 45.927119,39.2356899 44.3708404,39.5317428 C42.8145619,39.8277958 37.289573,41.7521403 37.289573,41.7521403 C36.4561842,42.3547603 35.453498,42.6782527 34.4250603,42.6763057 C32.7007516,42.6763057 31.2684953,46.4489809 31.4765325,48.5013483 C31.6845698,50.5537156 31.3525103,52.0659863 29.7482232,52.1500013 C28.143936,52.2340164 29.0200929,55.4865985 29.032095,55.5426086 L28.8840685,56.2427339 C28.5720127,57.6749902 27.8918909,60.7475402 27.651848,61.2276261 C26.6346107,63.6647421 26.0562743,66.2625155 25.9435422,68.9009995 C25.81952,72.613664 24.7433274,87.3923092 24.6193052,87.6443543 C24.5352901,87.8083837 31.3245053,94.0134943 36.0973596,98.3502705 L36.7894835,98.9743822 L34.5930903,119.490054 C34.7226947,121.089823 35.5474937,122.552233 36.8494942,123.49077 C36.8494942,123.730813 36.8494942,123.974857 36.8254899,124.226902 C36.7294727,126.627332 36.5374383,129.531852 36.1533696,130.291988 C35.4812493,131.636228 35.6492794,138.845519 35.6492794,138.845519 C35.6492794,138.845519 34.9731584,153.520145 34.133008,155.116431 C33.2928576,156.712717 33.1208268,160.061316 33.3728719,160.717433 C33.624917,161.373551 32.5287208,178.996705 32.5287208,178.996705 L31.6885705,186.882116 C31.6885705,186.882116 31.9406156,194.427467 31.1804795,194.595497 C30.4203435,194.763527 30.0002683,199.964458 30.0002683,199.964458 C30.0002683,199.964458 27.3077864,203.653118 28.4839969,204.993358 C29.6602074,206.333598 28.3119661,206.925704 28.1879439,207.257763 C28.0639217,207.589823 25.6194842,208.85805 27.3878007,213.546889 C27.4040395,213.593194 27.4227361,213.6386 27.4438107,213.682913 C25.7875143,215.983325 20.5385748,223.404653 20.8586321,224.532855 C21.0948615,225.250563 21.5955391,225.851377 22.2588827,226.213156 C23.495104,226.953289 25.6154835,227.29735 28.9880871,226.213156 C34.5890896,224.408833 34.189018,223.1086 34.189018,223.1086 C34.2485692,221.846244 35.2857004,220.851301 36.5494405,220.844195 C38.8658551,220.676165 40.5941644,218.539783 40.5941644,218.539783 L40.3221158,217.527602 L39.9500492,216.127351 C39.994057,215.727279 40.2781079,215.027154 41.5503356,214.639085 C43.4906829,214.050979 42.9825919,210.362319 42.9825919,210.362319 C42.9825919,210.362319 42.8145619,206.505629 43.6547122,206.001539 C44.4948626,205.497448 44.1628032,199.124308 44.1628032,199.124308 C44.1628032,199.124308 45.0909693,194.511482 46.4352099,191.406926 C47.7794505,188.302371 49.3877384,169.85907 49.3877384,169.85907 C49.3877384,169.85907 50.4799339,160.801448 51.492115,158.200983 C52.5042962,155.600517 53.4324623,148.307212 53.4324623,148.307212 C53.4324623,148.307212 59.6695787,136.22905 59.749593,133.54457 C59.749593,133.54457 60.5497362,131.028119 61.3498794,133.796615 C62.1500226,136.56511 64.3984251,143.190296 64.3984251,143.190296 L66.5868168,151.323752 L69.1992843,163.481928 L70.8875865,173.71576 C70.8875865,173.71576 70.6315407,177.57245 71.2876581,178.916691 C71.9437756,180.260931 72.8879446,183.357486 72.3838543,183.945591 C71.8797641,184.533696 73.3920348,187.302192 73.8161107,187.886296 C74.2401866,188.470401 73.8161107,200.884623 73.8161107,200.884623 C73.8161107,200.884623 75.7524573,211.450514 78.5329549,213.286842 C78.726868,213.414268 78.9333137,213.521513 79.1490652,213.6069 C79.1090581,214.751105 79.0690509,216.283379 79.1210602,217.083522 C79.1149038,217.262358 79.1448378,217.440602 79.209076,217.607616 C79.4611211,217.943676 82.3256338,220.208081 82.9177398,220.208081 C83.5098457,220.208081 85.6102217,221.676344 85.6982374,222.388472 C85.7862532,223.100599 91.8553395,226.117139 92.7154934,226.205155 C93.5756474,226.29317 97.7443935,227.041304 98.3164959,225.869095 C98.4580063,225.526215 98.4982699,225.149959 98.4325167,224.7849 Z M83.5218479,73.6698531 L83.9539252,74.0419197 C83.9539252,74.0419197 84.3980047,77.5025391 84.7140613,78.5387245 C85.0301178,79.57491 84.6500498,81.5912709 84.6500498,81.5912709 C84.6791121,82.3438048 84.8290544,83.0867624 85.0941293,83.7916647 C85.4701966,84.5478001 84.3339932,86.1920944 84.3339932,86.1920944 L83.3218121,86.1920944 L83.0057555,73.2377757 L83.5218479,73.6698531 Z M53.4244609,34.9909301 L53.4244609,34.9149165 C53.4164594,34.9389208 53.4124587,34.9669258 53.4124587,34.9909301 L53.4244609,34.9909301 Z M37.8816789,84.8598559 C37.7259452,84.5247195 37.7030707,84.1430007 37.8176675,83.7916647 C37.9076144,83.601736 37.9786365,83.40341 38.0297054,83.1995587 C38.1540273,82.674004 38.2316763,82.1384935 38.261747,81.5992723 C38.2623435,81.5926178 38.2623435,81.5859233 38.261747,81.5792687 C38.2257405,81.3872344 37.9016825,79.5309021 38.2017362,78.546726 C38.5017899,77.5625498 38.9578716,74.0499211 38.9578716,74.0499211 L39.2459231,73.8058774 L39.9140427,73.2257736 C39.9140427,73.2257736 39.9140427,73.0097349 39.9620513,72.6536712 C40.1020764,75.6942154 40.2140964,79.0548169 40.0340642,79.222847 C39.698004,79.5549064 38.4737849,82.8234914 38.7698379,82.9515144 C38.8658551,82.9955222 38.7338315,84.3037564 38.5097914,86.0640715 C38.2581507,85.6861699 38.047586,85.2824758 37.8816789,84.8598559 L37.8816789,84.8598559 Z" id="Shape" fill="url(#linearGradient-1)" fill-rule="nonzero"></path>
                        <path d="M70.1274505,38.1875022 L70.1274505,43.164393 L59.9176231,48.2973118 C59.9176231,48.2973118 49.7798085,42.164214 52.2802561,39.7237772 C53.8805425,38.1795008 53.5724874,33.9387418 53.14041,31.0222198 L53.14041,31.0222198 C52.8883649,29.3259161 52.5963127,28.0816934 52.5963127,28.0816934 C52.5963127,28.0816934 70.8075722,22.8807626 68.0550796,26.8294693 C67.1349149,28.1497056 67.062902,29.8580114 67.3709571,31.5503143 C67.9950688,34.9069151 70.1274505,38.1875022 70.1274505,38.1875022 Z" id="Path" fill="#C37098"></path>
                        <path d="M42.1584444,86.8562132 L40.8422088,103.067115 C40.8422088,103.067115 38.8698558,101.278795 36.317399,98.9503779 C31.5845519,94.6336053 24.8633489,88.4605004 24.9433632,88.296471 C25.0673854,88.0444259 26.143578,73.3377936 26.2595988,69.641132 C26.3689839,67.0171771 26.9405133,64.4331058 27.9479009,62.0077657 C28.1879439,61.5276798 28.8640649,58.4711327 29.1481158,57.0428771 C29.244133,56.5987976 29.3041437,56.310746 29.3041437,56.310746 L31.512539,55.4225871 C31.512539,55.4225871 40.7141859,65.6884245 40.7141859,65.8764582 C40.7141859,66.0644918 40.0860735,73.9499032 40.0860735,73.9499032 L39.4339568,74.5180049 L39.1499059,74.7620486 C39.1499059,74.7620486 38.7098272,78.2066651 38.3977713,79.2388498 C38.0857155,80.2710346 38.4217756,82.0633554 38.4577821,82.2553898 L38.4577821,82.2553898 C38.4283502,82.7944253 38.3520485,83.3298754 38.2297412,83.8556762 C38.1775335,84.0578876 38.1065457,84.2547784 38.0177033,84.4437814 C37.9049522,84.7940024 37.9277967,85.1737912 38.0817148,85.5079719 C38.2595022,85.9718129 38.4904152,86.4135011 38.7698379,86.8242075 L42.1584444,86.8562132 Z" id="Path" fill="#3F3D56"></path>
                        <path d="M97.9244257,88.296471 C98.0204429,88.4925061 88.2066864,97.4501094 83.9539252,101.318802 L82.0255801,103.067115 L80.7213466,86.8562132 L84.1019517,86.8562132 C84.1019517,86.8562132 85.2301536,85.2279218 84.8540863,84.4757872 C84.5919303,83.7745371 84.4446774,83.0355707 84.4180083,82.2873955 C84.4180083,82.2873955 84.7900749,80.2870374 84.478019,79.250852 C84.1659632,78.2146665 83.7258844,74.7740507 83.7258844,74.7740507 L83.2978078,74.4059848 L82.7897168,73.9619053 C82.7897168,73.9619053 82.1616044,66.076494 82.1616044,65.8884603 C82.1616044,65.7004267 91.3632514,55.4345892 91.3632514,55.4345892 L93.5556438,56.310746 C93.5556438,56.310746 93.6036524,56.5467883 93.6836667,56.9228556 C93.9797197,58.2870998 94.6878464,61.5156776 94.9318901,62.0077657 C95.9392778,64.4331058 96.5108072,67.0171771 96.6201923,69.641132 C96.7242109,73.3377936 97.7964028,88.0444259 97.9244257,88.296471 Z" id="Path" fill="#3F3D56"></path>
                        <path d="M97.9644329,225.8971 C97.3763276,227.065309 93.2475886,226.297171 92.3954361,226.23316 C91.5432836,226.169148 85.5262066,223.140606 85.4421916,222.432479 C85.3581766,221.724353 83.2738035,220.264091 82.6896989,220.264091 C82.1055944,220.264091 79.2690867,218.007687 79.0170416,217.675628 C78.953169,217.509994 78.9245544,217.332856 78.9330265,217.155535 C78.8450108,215.783289 79.0170416,212.250657 79.0170416,212.250657 L91.1192077,212.918777 L97.0002603,221.76436 C97.4959347,222.718681 97.8542097,223.738283 98.0644508,224.792902 C98.135817,225.16304 98.1011458,225.54581 97.9644329,225.8971 L97.9644329,225.8971 Z" id="Path" fill="#3F3D56"></path>
                        <path d="M97.9644329,225.8971 C97.3763276,227.065309 93.2475886,226.297171 92.3954361,226.23316 C91.5432836,226.169148 85.5262066,223.140606 85.4421916,222.432479 C85.3581766,221.724353 83.2738035,220.264091 82.6896989,220.264091 C82.1055944,220.264091 79.2690867,218.007687 79.0170416,217.675628 C78.953169,217.509994 78.9245544,217.332856 78.9330265,217.155535 C78.8450108,215.783289 79.0170416,212.250657 79.0170416,212.250657 L91.1192077,212.918777 L97.0002603,221.76436 C97.4959347,222.718681 97.8542097,223.738283 98.0644508,224.792902 C98.135817,225.16304 98.1011458,225.54581 97.9644329,225.8971 L97.9644329,225.8971 Z" id="Path" fill="#000000" opacity="0.1"></path>
                        <path d="M97.9644329,225.8971 C97.3763276,227.065309 93.2475886,226.297171 92.3954361,226.23316 C91.5432836,226.169148 85.5262066,223.140606 85.4421916,222.432479 C85.3581766,221.724353 83.2738035,220.264091 82.6896989,220.264091 C82.1055944,220.264091 79.2690867,218.007687 79.0170416,217.675628 C78.953169,217.509994 78.9245544,217.332856 78.9330265,217.155535 L82.8537283,219.635979 C82.8537283,219.635979 85.3581766,221.236265 86.0262961,222.184435 C86.6944157,223.132605 91.9593581,225.104958 92.3954361,225.144965 C92.7194941,225.176971 96.1761128,224.512852 98.0644508,224.792902 C98.135817,225.16304 98.1011458,225.54581 97.9644329,225.8971 L97.9644329,225.8971 Z" id="Path" fill="#000000" opacity="0.1"></path>
                        <path d="M40.7541931,218.595793 C40.7541931,218.595793 39.0418866,220.724174 36.753477,220.888203 C35.4993715,220.897628 34.4723845,221.887686 34.4170588,223.140606 C34.4170588,223.140606 34.8171304,224.436838 29.2841401,226.23316 C25.9435422,227.309352 23.8431663,226.969291 22.6189471,226.23316 C21.9619488,225.870641 21.4661139,225.273353 21.2306987,224.56086 C20.8546314,223.228622 28.2399532,213.086807 28.2399532,213.086807 L34.9611562,212.686735 L39.7620155,214.855123 L40.4981473,217.603615 L40.7541931,218.595793 Z" id="Path" fill="#3F3D56"></path>
                        <path d="M40.7541931,218.595793 C40.7541931,218.595793 39.0418866,220.724174 36.753477,220.888203 C35.4993715,220.897628 34.4723845,221.887686 34.4170588,223.140606 C34.4170588,223.140606 34.8171304,224.436838 29.2841401,226.23316 C25.9435422,227.309352 23.8431663,226.969291 22.6189471,226.23316 C21.9619488,225.870641 21.4661139,225.273353 21.2306987,224.56086 C20.8546314,223.228622 28.2399532,213.086807 28.2399532,213.086807 L34.9611562,212.686735 L39.7620155,214.855123 L40.4981473,217.603615 L40.7541931,218.595793 Z" id="Path" fill="#000000" opacity="0.1"></path>
                        <path d="M40.7541931,218.595793 C40.7541931,218.595793 39.0418866,220.724174 36.753477,220.888203 C35.4993715,220.897628 34.4723845,221.887686 34.4170588,223.140606 C34.4170588,223.140606 34.8171304,224.436838 29.2841401,226.23316 C25.9435422,227.309352 23.8431663,226.969291 22.6189471,226.23316 C25.7675107,225.905101 32.7247559,223.916745 33.4208805,223.228622 C34.2570302,222.392472 35.3012171,220.096061 36.0093438,220.056054 C36.5014319,220.024048 39.0018794,218.519779 40.502148,217.587612 L40.7541931,218.595793 Z" id="Path"></path>
                        <path d="M40.7541931,218.595793 C40.7541931,218.595793 39.0418866,220.724174 36.753477,220.888203 C35.4993715,220.897628 34.4723845,221.887686 34.4170588,223.140606 C34.4170588,223.140606 34.8171304,224.436838 29.2841401,226.23316 C25.9435422,227.309352 23.8431663,226.969291 22.6189471,226.23316 C25.7675107,225.905101 32.7247559,223.916745 33.4208805,223.228622 C34.2570302,222.392472 35.3012171,220.096061 36.0093438,220.056054 C36.5014319,220.024048 39.0018794,218.519779 40.502148,217.587612 L40.7541931,218.595793 Z" id="Path" fill="#000000" opacity="0.1"></path>
                        <path d="M92.2874168,209.290127 C91.5352822,211.042441 92.2874168,214.631083 92.2874168,214.631083 C92.2874168,214.631083 81.0854118,215.215188 78.348922,213.378859 C75.6124322,211.54253 73.6760856,201.024648 73.6760856,201.024648 C73.6760856,201.024648 74.0761572,188.674437 73.6760856,188.090333 C73.276014,187.506228 71.7557419,184.753735 72.2558314,184.169631 C72.7559209,183.585526 71.8557598,180.496974 71.1716374,179.160734 C70.4875149,177.824495 70.7715658,173.987809 70.7715658,173.987809 L69.0992664,163.801985 L66.5148039,151.70382 L64.3184107,143.606371 C64.3184107,143.606371 62.0660076,137.013191 61.3018708,134.260698 C60.5377341,131.508205 59.7295894,134.008653 59.7295894,134.008653 C59.6495751,136.681131 53.4724695,148.699282 53.4724695,148.699282 C53.4724695,148.699282 52.5523048,155.960582 51.5521258,158.545045 C50.5519467,161.129507 49.463752,170.147121 49.463752,170.147121 C49.463752,170.147121 47.8634655,188.506407 46.5432292,191.59496 C45.2229929,194.683513 44.3148304,199.272334 44.3148304,199.272334 C44.3148304,199.272334 44.6508905,205.61747 43.8147409,206.117559 C42.9785912,206.617649 43.1146156,210.458336 43.1146156,210.458336 C43.1146156,210.458336 43.6147051,214.126993 41.6943614,214.715098 C39.7740176,215.303203 40.0940749,216.551427 40.0940749,216.551427 C40.0940749,216.551427 29.412163,218.30374 27.6598494,213.626903 C25.9075357,208.950066 28.327969,207.705844 28.4599926,207.369783 C28.5920162,207.033723 29.9242547,206.453619 28.7560456,205.11338 C27.5878365,203.77314 30.2563141,200.108484 30.2563141,200.108484 C30.2563141,200.108484 30.6763893,194.935558 31.4245232,194.767528 C32.1726571,194.599498 31.9286134,187.090154 31.9286134,187.090154 L32.7607624,179.244749 C32.7607624,179.244749 33.8489571,161.717612 33.596912,161.049493 C33.3448669,160.381373 33.512897,157.048777 34.3490467,155.44849 C35.1851963,153.848204 35.8493152,139.253592 35.8493152,139.253592 C35.8493152,139.253592 35.6812851,132.080308 36.3494047,130.744069 C36.7494763,129.987933 36.9175064,127.079413 37.0135236,124.706988 C37.0855364,122.894664 37.1015393,121.394395 37.1015393,121.394395 L46.4472121,117.889768 L58.4493603,114.053081 L68.5471676,118.893948 L83.3218121,121.730455 L83.505845,124.278911 L86.3263498,163.209879 L87.9266363,177.896508 C87.9266363,177.896508 88.5947559,184.821748 88.6787709,186.073972 C88.7627859,187.326196 89.5949349,195.50766 89.5949349,195.50766 C89.5949349,195.50766 91.3472485,199.428362 90.2630545,200.764601 C89.1788604,202.10084 89.5949349,203.165031 89.5949349,203.165031 C89.5949349,203.165031 93.0395514,207.537813 92.2874168,209.290127 Z" id="Path" fill="#3F3D56"></path>
                        <path d="M68.063081,26.8294693 C67.1429163,28.1497056 67.0709034,29.8580114 67.3789585,31.5503143 C63.057269,34.5991774 57.2303516,34.3813028 53.1484115,31.018219 L53.1484115,31.018219 C52.8963664,29.3219154 52.6043141,28.0776927 52.6043141,28.0776927 C52.6043141,28.0776927 70.8155736,22.8847633 68.063081,26.8294693 Z" id="Path" fill="#000000" opacity="0.1"></path>
                        <path d="M72.3199782,21.7245556 C72.3199782,28.1984916 67.0716808,33.4466537 60.5977448,33.4466537 C54.1238088,33.4466537 48.8756467,28.1984916 48.8756467,21.7245556 C48.8756467,15.2506196 54.1238088,10.0023222 60.5977448,10.0023222 C63.7112079,9.98747325 66.7014835,11.2176641 68.9030599,13.4192405 C71.1046363,15.6208169 72.3348272,18.6110925 72.3199782,21.7245556 L72.3199782,21.7245556 Z" id="Path" fill="#C37098"></path>
                        <polygon id="Path" fill="#000000" opacity="0.1" points="74.7602797 41.2040422 70.9195923 109.596283 50.0558579 105.215499 45.9231182 77.7985921 50.0158508 40.9920042 53.0964022 41.3880751 58.5293746 42.080199 63.9103377 42.4122584 69.7433817 41.7641424"></polygon>
                        <polygon id="Path" fill="#1FBF53" points="74.7602797 41.7041317 70.9195923 110.096373 50.0558579 105.715589 45.9231182 78.2986816 50.0158508 41.4960944 53.0964022 41.8881646 58.5293746 42.5802885 63.9103377 42.9123479 69.7433817 42.2642319"></polygon>
                        <path d="M57.6092099,43.5404603 L65.1225547,43.7925055 L63.0101766,46.7490346 C63.0101766,46.7490346 63.1582031,52.7221037 64.1623828,54.4344102 C65.1665625,56.1467167 64.8705096,82.5994513 64.8705096,82.5994513 L62.8701515,86.3961309 L59.4495393,82.139369 L59.4935472,47.2131177 L57.6092099,43.5404603 Z" id="Path" fill="#3F3D56"></path>
                        <path d="M57.6092099,43.5404603 L65.1225547,43.7925055 L63.0101766,46.7490346 C63.0101766,46.7490346 63.1582031,52.7221037 64.1623828,54.4344102 C65.1665625,56.1467167 64.8705096,82.5994513 64.8705096,82.5994513 L62.8701515,86.3961309 L59.4495393,82.139369 L59.4935472,47.2131177 L57.6092099,43.5404603 Z" id="Path" fill="#000000" opacity="0.1"></path>
                        <polygon id="Path" fill="#000000" opacity="0.1" points="69.3753159 35.7790712 62.3660613 43.5404603 66.3707781 47.7132072 73.007966 41.2440493"></polygon>
                        <polygon id="Path" fill="#1FBF53" points="69.3753159 35.2789817 62.3660613 43.0403708 66.3707781 47.2131177 73.007966 40.7439598"></polygon>
                        <polygon id="Path" fill="#000000" opacity="0.1" points="59.4055314 43.164393 52.3082611 36.0711234 51.6401415 39.783788 54.8967244 47.9212444"></polygon>
                        <polygon id="Path" fill="#1FBF53" points="59.6535758 42.6643035 52.5603062 35.5710339 51.8921866 39.2836984 55.1487695 47.4211549"></polygon>
                        <path d="M83.5418515,124.290914 C80.1354518,125.913897 76.4867278,126.969324 72.7399181,127.415473 C65.8546857,128.29163 61.3498794,119.530061 61.3498794,119.530061 L58.721409,122.950674 C57.8852593,126.583324 45.1589815,127.499488 39.9860556,126.123241 C38.9126925,125.858109 37.9033215,125.38063 37.0175243,124.71899 C37.0895372,122.906666 37.10554,121.406397 37.10554,121.406397 L46.4512128,117.90177 L58.453361,114.065083 L68.5511683,118.90595 L83.3258128,121.742457 L83.5418515,124.290914 Z" id="Path" fill="#000000" opacity="0.1"></path>
                        <path d="M74.7602797,41.7081324 L70.923593,110.096373 L50.0558579,105.715589 L45.9151168,78.3026823 L50.0038486,41.4960944 L53.0844,41.896166 C53.005651,43.2368881 52.8547387,44.5723949 52.6323191,45.8968821 C52.1322296,48.237301 55.2207824,64.8442734 55.2207824,64.8442734 C55.2207824,64.8442734 61.0898329,83.4676067 63.7303055,80.7831262 C66.3707781,78.0986458 70.1314512,63.9241087 70.1314512,63.9241087 C72.6799073,58.6671678 70.1754591,43.9205284 69.9874254,43.6244754 C69.856417,43.1883794 69.7758761,42.7386923 69.7473824,42.2842355 L74.7602797,41.7081324 Z" id="Path" fill="#000000" opacity="0.1"></path>
                        <polygon id="Path" fill="#000000" opacity="0.1" points="83.773893 94.6296046 83.9499245 101.330804 82.0215794 103.079117 80.7213466 86.8562132 83.6018622 86.8562132"></polygon>
                        <path d="M38.4617828,82.2673919 L38.4617828,82.2673919 C38.4323509,82.8064274 38.3560493,83.3418776 38.233742,83.8676783 C38.233742,83.7196518 38.233742,83.6356368 38.2017362,83.6236347 C38.0817148,83.5916289 38.2257405,82.9795194 38.4617828,82.2673919 Z" id="Path" fill="#000000" opacity="0.1"></path>
                        <path d="M42.1584444,86.8562132 L40.8422088,103.067115 C40.8422088,103.067115 38.8698558,101.278795 36.317399,98.9503779 L36.6214534,96.0778638 C36.6214534,96.0778638 37.697646,89.0206006 38.0897162,85.5399776 C38.2675036,86.0038186 38.4984166,86.4455068 38.7778393,86.8562132 L42.1584444,86.8562132 Z" id="Path" fill="#000000" opacity="0.1"></path>
                        <path d="M53.4764702,35.8190783 C53.4764702,35.8190783 52.2282468,33.9827497 50.5159403,37.5273841 C50.5159403,37.5273841 46.0511412,40.1158474 44.5148662,40.4078997 C42.9785912,40.6999519 37.5136131,42.6202956 37.5136131,42.6202956 C36.688258,43.2169203 35.6955212,43.5375645 34.6771054,43.5364596 C32.9647989,43.5364596 31.5445447,47.293132 31.7525819,49.3374979 C31.9606192,51.3818638 31.6285597,52.8861331 30.0442762,52.9701481 C28.4599926,53.0541632 29.3321487,56.3467525 29.3321487,56.3467525 L39.8900384,68.4489186 C39.8900384,68.4489186 40.558158,79.5909129 40.2260986,79.926973 C39.8940391,80.2630332 38.6818222,83.5276175 38.9738744,83.6396375 C39.2659267,83.7516576 37.373588,96.0738631 37.373588,96.0738631 L34.8291326,119.986143 C34.8291326,119.986143 34.8291326,123.986859 40.0060592,125.367106 C45.1829858,126.747353 57.917265,125.83519 58.7374118,122.20254 L61.3658823,118.777927 C61.3658823,118.777927 65.8706886,127.543496 72.7559209,126.667339 C79.6411533,125.791182 84.0259381,123.286734 84.0259381,123.286734 L83.2738035,94.6296046 L82.773714,73.9739075 L93.5236381,56.310746 C93.5236381,56.310746 90.6431225,50.80176 90.8951676,48.3093139 C91.1472127,45.8168678 91.6433015,43.9285298 85.5102038,43.052373 C85.5102038,43.052373 80.3372779,42.2802348 77.2887322,40.1718574 C75.4770244,38.9139217 73.4972469,37.917299 71.4076796,37.2113275 C71.4076796,37.2113275 69.6873717,34.0107547 68.4911576,35.1069509 C68.4911576,35.1069509 69.6913724,39.6317607 69.5913545,40.3078818 C69.4913366,40.9840028 69.7793882,44.0405499 69.9674218,44.3566064 C70.1554555,44.672663 72.6599037,59.3992988 70.1114476,64.6562398 C70.1114476,64.6562398 66.3707781,78.8307768 63.7103019,81.5152573 C61.0498257,84.1997378 55.2007788,65.5764045 55.2007788,65.5764045 C55.2007788,65.5764045 52.112226,48.9654313 52.6123155,46.6290131 C53.112405,44.292595 53.4764702,35.8190783 53.4764702,35.8190783 Z" id="Path" fill="#3F3D56"></path>
                        <circle id="Oval" fill="#3F3D56" cx="62.4060685" cy="88.6925419" r="1.83632868"></circle>
                        <circle id="Oval" fill="#3F3D56" cx="62.4060685" cy="97.3500915" r="1.83632868"></circle>
                        <circle id="Oval" fill="#000000" opacity="0.1" cx="62.4060685" cy="88.6925419" r="1.83632868"></circle>
                        <circle id="Oval" fill="#000000" opacity="0.1" cx="62.4060685" cy="97.3500915" r="1.83632868"></circle>
                        <path d="M78.9090222,206.785679 C78.9090222,206.785679 86.4463713,207.369783 87.1945052,207.953888 C87.9426391,208.537993 78.9090222,206.785679 78.9090222,206.785679 Z" id="Path" stroke="#1FBF53" fill="#000000" opacity="0.1"></path>
                        <path d="M34.0329901,200.860618 C34.0329901,200.860618 35.6332765,202.860976 34.9531548,203.781141 C34.2730331,204.701306 34.0329901,200.860618 34.0329901,200.860618 Z" id="Path" stroke="#1FBF53" fill="#000000" opacity="0.1"></path>
                        <path d="M35.9533338,208.073909 C35.9533338,208.073909 38.8738565,206.153566 40.0420656,207.429794 C41.2102747,208.706023 35.9533338,208.073909 35.9533338,208.073909 Z" id="Path" stroke="#1FBF53" fill="#000000" opacity="0.1"></path>
                        <path d="M72.3198429,21.7245556 C72.3220904,22.724768 72.1956979,23.7211167 71.9437756,24.6890862 C71.4385127,24.4586038 71.1292244,23.9388719 71.1676367,23.3848528 C71.219646,22.9087676 71.5357025,22.4726895 71.4676904,22.000605 C71.3676725,21.2724747 70.4875149,20.9764217 70.0234319,20.4003186 C69.4513295,19.704194 69.5753517,18.6920128 69.6233602,17.7918517 C69.6713688,16.8916906 69.443328,15.7914937 68.5991769,15.4834385 C68.3471318,15.3914221 68.0710824,15.3834206 67.8270387,15.279402 C67.1629199,14.9993519 66.9588833,14.1752044 66.5148039,13.6071027 C65.6266449,12.4628979 63.8623291,12.4869022 62.5140878,13.0309996 C61.9272467,13.3123539 61.3263485,13.5633958 60.7137656,13.7831342 C60.0936867,14.001855 59.4103689,13.9510777 58.8294283,13.6431091 C58.565381,13.4750791 58.3533431,13.2430375 58.0812944,13.0750075 C57.1771326,12.5309101 55.9929206,13.0750075 55.2087802,13.7751328 C54.4246399,14.4752581 53.7965275,15.4154264 52.8083506,15.843503 C52.3642711,16.0435388 51.816173,16.1635603 51.6081358,16.5956376 C51.5051622,16.8308655 51.4612139,17.0876884 51.4801129,17.3437715 C51.4801129,18.9000501 51.6641458,20.4803329 51.3400878,22.0046057 C51.1320506,22.9847812 50.4439274,24.0969802 49.4477491,23.9769588 C49.3236118,23.9585909 49.2016409,23.927763 49.0836839,23.8849423 C48.2658815,19.5150092 49.9905834,15.0585189 53.5371197,12.3776243 C57.083656,9.69672957 61.8415856,9.25287451 65.8227989,11.2315247 C69.8040122,13.210175 72.3232501,17.270759 72.3278443,21.7165542 L72.3198429,21.7245556 Z" id="Path" fill="#000000" opacity="0.1"></path>
                        <path d="M48.5595901,23.2208234 C48.8596438,23.2888356 49.1436947,23.4448635 49.4517498,23.4848707 C50.4479281,23.6048922 51.1360513,22.4926931 51.3440885,21.5125177 C51.6681465,19.9882448 51.5001165,18.407962 51.4881143,16.8516834 C51.4657701,16.5958395 51.5084311,16.3384975 51.6121365,16.1035495 C51.8401773,15.6714722 52.3882754,15.5514507 52.8123513,15.3514149 C53.7805246,14.9193376 54.4126378,13.9991729 55.212781,13.2830447 C56.0129242,12.5669165 57.1771326,12.038822 58.0812944,12.5829194 C58.3493424,12.742948 58.565381,12.982991 58.8294283,13.1510211 C59.4130959,13.4544741 60.0957248,13.5050928 60.7177663,13.2910461 C61.3378773,13.1070132 61.9179811,12.7829552 62.5140878,12.5389115 C63.850327,11.9948141 65.6186435,11.9748105 66.5148039,13.1110139 C66.9588833,13.6831163 67.1629199,14.5032631 67.8270387,14.7833132 C68.0710824,14.8873318 68.3471318,14.899334 68.5991769,14.9913505 C69.443328,15.307407 69.6593667,16.3996025 69.6233602,17.2997636 C69.5873538,18.1999248 69.4673323,19.2121059 70.0234319,19.9082305 C70.4875149,20.4763322 71.3676725,20.7723852 71.4676904,21.5085169 C71.5317018,21.9806014 71.219646,22.4206802 71.1676367,22.8927647 C71.1435608,23.2471811 71.2624569,23.596473 71.4977602,23.8625988 C71.7330636,24.1287246 72.0651639,24.2895054 72.4198608,24.3090182 C73.460047,24.3090182 74.1041622,23.1448098 75.0763363,22.7727432 C75.4764079,22.6167153 75.9604945,22.592711 76.2765511,22.2766544 C76.514347,21.9691757 76.6050428,21.5727475 76.5245955,21.1924604 C76.3285604,19.6601861 75.1003406,18.3279477 75.2323642,16.7916727 C75.3563864,15.3194092 76.7206306,14.0351793 76.432579,12.5869201 C76.2858516,12.0529032 76.0112165,11.5626796 75.6324358,11.1586645 C75.2035897,10.5774267 74.644561,10.1047187 74.0001436,9.77841742 C73.4440441,9.53837446 72.7999288,9.48236444 72.2918379,9.19031216 C70.7795672,8.36216394 70.7835679,6.20177726 69.8914082,4.72951374 C69.1108028,3.48911489 67.7030079,2.7883047 66.2427552,2.91318865 C65.118554,3.0252087 64.0983714,3.62131539 62.9861723,3.8213512 C61.4618995,4.09339989 59.9176231,3.59331038 58.4733646,3.02120798 C57.0291061,2.44910558 55.5688447,1.82099316 54.0205676,1.82099316 C52.4722905,1.82099316 50.7959904,2.62113637 50.3239059,4.08539846 C50.0758615,4.88554167 50.1998837,5.74169491 50.0078494,6.54583884 C49.6717892,7.97409448 48.4075629,8.99027636 47.1353352,9.6984031 C46.2591784,10.1864905 45.2069901,10.7465907 45.1029715,11.742769 C45.0349593,12.3748822 45.3830216,12.9429838 45.603061,13.5550934 C45.9773043,14.5906232 45.96879,15.7258663 45.5790567,16.7556663 C45.2870044,17.5118016 44.798917,18.1759205 44.502864,18.9280551 C44.0778368,19.9606245 44.1157061,21.1258351 44.6068827,22.1286279 C44.9837198,22.8591572 45.6451705,23.4019231 46.4352099,23.6288965 C47.223351,23.8169301 47.7194398,23.0367905 48.5595901,23.2208234 Z" id="Path" fill="#3F3D56"></path>
                        <g id="Group" opacity="0.1" transform="translate(43.902757, 11.030642)" fill="#000000">
                            <path d="M7.44133189,9.60972 C7.23329466,10.5898954 6.54117078,11.7020945 5.54499247,11.582073 C5.23693734,11.5420659 4.95688721,11.3860379 4.65283279,11.3180258 C3.81668313,11.1339928 3.32059434,11.9181332 2.53245327,11.7180974 C1.74136755,11.4912352 1.07862475,10.9485964 0.700125312,10.2178288 C0.490884453,9.810617 0.364425911,9.36597244 0.328058718,8.90959469 C0.248373705,9.61797662 0.377710017,10.3341938 0.700125312,10.9699635 C1.07862475,11.700731 1.74136755,12.2433698 2.53245327,12.470232 C3.33259649,12.6542649 3.81668313,11.8701246 4.65283279,12.0701604 C4.94556741,12.1720712 5.24334682,12.2588678 5.54499247,12.3302069 C6.54117078,12.4542291 7.23329466,11.3420301 7.44133189,10.3618546 C7.60535154,9.49588543 7.66978175,8.61399701 7.63336626,7.73338416 C7.6294989,8.36353102 7.56519293,8.99185395 7.44133189,9.60972 Z" id="Path"></path>
                            <path d="M1.96035087,3.5846416 C2.0113118,2.92906167 1.92127696,2.27017036 1.69630361,1.65229574 C1.51532584,1.24145606 1.36163174,0.819131409 1.23622127,0.388069459 C1.21904275,0.455271461 1.20568563,0.523392802 1.19621411,0.592105978 C1.12820193,1.2202184 1.48026495,1.7923208 1.69630361,2.40443036 C1.83600191,2.78446216 1.92478855,3.18131158 1.96035087,3.5846416 L1.96035087,3.5846416 Z" id="Path"></path>
                            <path d="M32.5258217,1.47626423 C32.337788,2.61246759 31.4176233,3.68065878 31.3256068,4.87687289 C31.3034256,5.08164405 31.3034256,5.288212 31.3256068,5.49298316 C31.5256426,4.09673326 32.7618639,2.86051199 32.5258217,1.47626423 Z" id="Path"></path>
                            <path d="M32.5938338,9.91777514 C32.5599066,10.0850674 32.4810741,10.2399664 32.365793,10.3658553 C32.06974,10.6819119 31.5656498,10.7059162 31.1655782,10.8619441 C30.1934042,11.2340107 29.5652918,12.4102213 28.5091027,12.3982191 C27.9555609,12.3668643 27.4784668,11.9979115 27.3088879,11.470053 C27.2844997,11.556758 27.26579,11.6449608 27.2528779,11.7341002 C27.2299159,12.0878505 27.3493156,12.4361018 27.5845025,12.7013444 C27.8196893,12.966587 28.1511464,13.1268101 28.505102,13.146353 C29.5492889,13.146353 30.1894035,11.9821446 31.1615775,11.6140788 C31.5616491,11.4580508 32.0497364,11.4340465 32.3617923,11.11799 C32.5995883,10.8105113 32.690284,10.414083 32.6098367,10.0337959 C32.605836,9.98578731 32.5978345,9.95378158 32.5938338,9.91777514 Z" id="Path"></path>
                            <path d="M27.5769359,9.5857157 C27.476918,8.85758538 26.5967604,8.56153239 26.1326774,7.98542928 C25.8481411,7.60701073 25.6937519,7.14664993 25.6925986,6.67319441 C25.6605929,7.41732759 25.672595,8.17746365 26.1326774,8.7375639 C26.5927597,9.29766415 27.292885,9.53770711 27.5169251,10.1138102 C27.5735347,9.94388925 27.593976,9.76400596 27.5769359,9.5857157 L27.5769359,9.5857157 Z" id="Path"></path>
                            <path d="M25.7166029,5.39696598 C25.7486086,4.49680486 25.53257,3.39660794 24.6884189,3.08855281 C24.4403745,2.99653634 24.1643251,2.98453419 23.9202814,2.88451629 C23.2561625,2.60446616 23.0481253,1.78031865 22.6080465,1.21221697 C21.7158868,0.0720128893 19.951571,0.0920164696 18.6073304,0.636113855 C18.007223,0.880157535 17.4351206,1.20421554 16.8110089,1.38824848 C16.1909301,1.60696931 15.5076122,1.55619197 14.9266717,1.24822341 C14.6626244,1.08019334 14.4465857,0.848151807 14.1785378,0.680121732 C13.2703752,0.136024346 12.0861632,0.680121732 11.3060236,1.38024704 C10.525884,2.08037236 9.89377084,3.01653992 8.90559397,3.44861725 C8.45751377,3.64865306 7.91341639,3.76867454 7.68137486,4.20075187 C7.57961244,4.43627548 7.53703327,4.69312402 7.55735266,4.94888578 C7.55735266,5.10491371 7.55735266,5.26094163 7.55735266,5.41696956 C7.56265422,5.25579462 7.60220424,5.09759453 7.67337342,4.9528865 C7.90541496,4.52080916 8.44951234,4.40078768 8.89759254,4.20075187 C9.86576583,3.76867454 10.497879,2.84850984 11.2980222,2.13238167 C12.0981654,1.41625349 13.2623738,0.888158968 14.1705363,1.43225635 C14.4385843,1.592285 14.654623,1.83232796 14.9186702,1.99635732 C15.4990495,2.30626653 16.183197,2.35710551 16.8030075,2.13638238 C17.4144994,1.91871123 18.0141036,1.66898743 18.599329,1.38824848 C19.9395689,0.844151091 21.7038847,0.820146794 22.6000451,1.96035087 C23.0401238,2.52845256 23.2481611,3.35260007 23.91228,3.63265019 C24.1563236,3.73666881 24.432373,3.74867096 24.6804174,3.84068743 C25.3645399,4.09673326 25.6365886,4.86487074 25.6965993,5.62500679 L25.7166029,5.39696598 Z" id="Path"></path>
                        </g>
                        <g id="Group" opacity="0.1" transform="translate(49.903831, 17.431787)" fill="#000000">
                            <path d="M0.0120021482,3.18456999 C0.0590957255,1.82053986 1.00145242,0.651561059 2.32441604,0.31605657 C4.10841683,-0.120027311 5.98005887,-0.0353313435 7.7173813,0.56010025 C11.5140609,1.8163251 7.23729537,6.33713426 7.23729537,6.33713426 C7.23729537,6.33713426 4.39278625,9.1376355 1.74031149,7.18128535 C0.956869274,6.58915507 0.408370516,5.7387694 0.192034371,4.7808557 C0.0621601272,4.25897958 0.00162824604,3.72226357 0.0120021482,3.18456999 L0.0120021482,3.18456999 Z" id="Path"></path>
                            <path d="M20.8837379,3.18456999 C20.8361498,1.81939237 19.8918695,0.650050444 18.5673233,0.31605657 C16.7845896,-0.119244561 14.91445,-0.0345537569 13.1783587,0.56010025 C9.38167919,1.8163251 13.6584447,6.33713426 13.6584447,6.33713426 C13.6584447,6.33713426 16.4989531,9.1376355 19.1554285,7.18128535 C19.9388708,6.58915507 20.4873695,5.7387694 20.7037057,4.7808557 C20.8335799,4.25897958 20.8941118,3.72226357 20.8837379,3.18456999 L20.8837379,3.18456999 Z" id="Path"></path>
                            <polygon id="Path" points="7.00125312 0.192034371 7.00125312 0.380068027 13.9344941 0.380068027 13.9344941 0.156027927"></polygon>
                            <path d="M9.21364911,2.19639312 L9.43368849,2.19639312 L9.43368849,1.56027927 C9.43368849,1.56027927 10.1378145,1.01218117 11.3060236,1.56027927 L11.3060236,2.12838095 L11.7060952,2.12838095 L11.7060952,1.75631435 L11.5100601,1.75631435 C11.5100601,1.75631435 11.5900745,0.984176153 10.285841,1.10819835 C10.285841,1.10819835 9.23765341,1.00818045 9.2616577,1.67229932 L9.02161474,1.67229932 L9.21364911,2.19639312 Z" id="Path"></path>
                        </g>
                        <path d="M49.9158329,20.3563107 C49.9629265,18.9922806 50.9052832,17.8233018 52.2282468,17.4877973 C54.0125306,17.0546266 55.8833446,17.139285 57.621212,17.731841 C61.4178916,18.9920665 57.1411261,23.508875 57.1411261,23.508875 C57.1411261,23.508875 54.296617,26.3093762 51.6441422,24.3530261 C50.8591464,23.7623395 50.3102453,22.91133 50.0958651,21.9525964 C49.9655754,21.4307952 49.9050373,20.8940238 49.9158329,20.3563107 L49.9158329,20.3563107 Z" id="Path" fill="#1FBF53"></path>
                        <path d="M70.7875686,20.3563107 C70.7399805,18.9911331 69.7957002,17.8217912 68.471154,17.4877973 C66.6882244,17.0545133 64.8186583,17.1391782 63.0821895,17.731841 C59.2855099,18.9920665 63.5622754,23.508875 63.5622754,23.508875 C63.5622754,23.508875 66.4027838,26.3093762 69.0592593,24.3530261 C69.8442551,23.7623395 70.3931562,22.91133 70.6075364,21.9525964 C70.7378261,21.4307952 70.7983642,20.8940238 70.7875686,20.3563107 Z" id="Path" fill="#1FBF53"></path>
                        <polygon id="Path" fill="#1FBF53" points="56.9050839 17.3717765 56.9050839 17.5638109 63.8383248 17.5638109 63.8383248 17.3357701"></polygon>
                        <path d="M59.1174798,19.3761353 L59.3375192,19.3761353 L59.3375192,18.7400214 C59.3375192,18.7400214 60.0416453,18.195924 61.2098544,18.7400214 L61.2098544,19.3121238 L61.609926,19.3121238 L61.609926,18.9360565 L61.4138909,18.9360565 C61.4138909,18.9360565 61.4939052,18.167919 60.1896718,18.2879405 C60.1896718,18.2879405 59.1414841,18.1919233 59.1654884,18.8520415 L58.9254455,18.8520415 L59.1174798,19.3761353 Z" id="Path" fill="#1FBF53"></path>
                    </g>
                </g>
            </g>
        </g>
    </g>
</svg>