<?xml version="1.0" encoding="UTF-8"?>
<svg width="168px" height="235px" viewBox="0 0 168 235" version="1.1" xmlns="http://www.w3.org/2000/svg" xmlns:xlink="http://www.w3.org/1999/xlink">
    <!-- Generator: Sketch 59.1 (86144) - https://sketch.com -->
    <title>undraw_Security_on_ff2u</title>
    <desc>Created with Sketch.</desc>
    <defs>
        <linearGradient x1="-6.23138374e-05%" y1="50.0001575%" x2="100.000106%" y2="50.0001575%" id="linearGradient-1">
            <stop stop-color="#808080" stop-opacity="0.25" offset="0%"></stop>
            <stop stop-color="#808080" stop-opacity="0.12" offset="53.514%"></stop>
            <stop stop-color="#808080" stop-opacity="0.1" offset="100%"></stop>
        </linearGradient>
    </defs>
    <g id="Page-1" stroke="none" stroke-width="1" fill="none" fill-rule="evenodd">
        <g id="Homepage" transform="translate(-628.851562, -1525.410156)">
            <g id="services-section" transform="translate(129.851562, 1396.410156)">
                <g id="Security" transform="translate(399.000000, 64.132812)">
                    <g id="undraw_Security_on_ff2u" transform="translate(100.166170, 65.378364)">
                        <path d="M83.5038441,0.230473161 L0.215282457,51.48497 C0.215282457,51.48497 0.215282457,157.197374 83.5038441,214.858698 C166.792403,157.19739 166.792403,51.48497 166.792403,51.48497 L83.5038441,0.230473161 Z" id="Path" fill="#3F3D56"></path>
                        <path d="M84.0011289,0.230473161 L82.5773933,1.10662076 L82.5773933,213.858857 C83.050192,214.193133 83.5228425,214.52756 84.0011289,214.858683 C167.289687,157.197374 167.289687,51.4849546 167.289687,51.4849546 L84.0011289,0.230473161 Z" id="Path" fill="#1FBF53" opacity="0.04"></path>
                        <g id="Group" opacity="0.7" transform="translate(56.513498, 90.174543)" fill="url(#linearGradient-1)">
                            <polygon id="Path" points="6.82670701 13.9177613 22.5278861 28.310483 41.9919994 0.231612696 49.8427433 6.77389931 22.5278861 41.3950563 0.284420391 16.534676"></polygon>
                        </g>
                        <polygon id="Path" fill="#3AD29F" points="67.0460079 104.956992 79.7825445 116.632124 97.8261 90.0973387 104.194523 95.4043576 79.7825445 127.246162 61.738989 107.079799"></polygon>
                        <polygon id="Rectangle" fill="#1FBF53" transform="translate(135.913586, 75.348422) rotate(-2.220710) translate(-135.913586, -75.348422) " points="132.479184 70.9327611 139.347989 70.9327611 139.347989 79.7640822 132.479184 79.7640822"></polygon>
                        <path d="M108.212441,101.708994 C108.212441,101.708994 98.7073646,97.1676065 98.8594693,101.08969 C99.011574,105.011773 108.440579,107.59212 108.440579,107.59212 L108.212441,101.708994 Z" id="Path" fill="#FFB9B9"></path>
                        <path d="M113.4273,134.894616 C113.4273,134.894616 108.942947,145.87046 107.286086,153.790673 C105.629224,161.710885 103.105915,172.610683 106.351661,180.340782 C109.597408,188.07088 118.825367,210.78993 118.920424,213.241232 C119.015481,215.692535 118.130019,218.181859 120.091059,218.105812 C122.052099,218.029766 132.723762,214.669955 133.156989,213.180161 C133.590216,211.690366 129.516038,207.920375 129.516038,207.920375 L119.455613,176.395652 L129.952137,155.857708 L137.523241,186.496979 L139.00613,224.737298 C139.00613,224.737298 146.283991,222.491084 147.340555,224.414102 C147.340555,224.414102 150.601276,219.868678 151.015477,217.888625 C151.429678,215.908571 149.475552,178.177528 149.475552,178.177528 C149.475552,178.177528 156.155991,135.201675 150.763124,135.4108 C145.370257,135.619925 124.247016,122.691103 113.4273,134.894616 Z" id="Path" fill="#1FBF53"></path>
                        <path d="M120.015016,216.144772 C120.015016,216.144772 115.040402,227.139628 114.56915,227.648898 C114.097899,228.158168 110.856192,233.193854 113.307494,233.098797 C115.758796,233.00374 121.546866,230.324302 125.807119,226.231116 C130.067372,222.13793 135.684338,215.046147 135.17508,214.574898 C134.665822,214.10365 131.176951,212.765948 131.176951,212.765948 L120.015016,216.144772 Z" id="Path" fill="#575A89"></path>
                        <path d="M139.891592,222.247962 C139.891592,222.247962 139.591446,227.169577 138.686971,229.168642 C137.782496,231.167706 137.896563,234.109271 140.347866,234.014214 C142.799168,233.919157 149.134532,232.691486 149.134532,232.691486 C149.134532,232.691486 149.510723,229.730914 149.001453,229.259662 C148.492183,228.788411 146.322012,223.471596 147.245499,221.962791 C148.168985,220.453985 139.891592,222.247962 139.891592,222.247962 Z" id="Path" fill="#575A89"></path>
                        <path d="M143.518097,62.533084 C143.518097,62.533084 148.743897,70.6773985 150.780983,72.5623955 C152.818069,74.4473924 147.087038,78.5976047 147.087038,78.5976047 L136.829591,79.9773647 C136.829591,79.9773647 136.958634,70.6434071 136.43035,69.6818963 C135.902066,68.7203855 143.518097,62.533084 143.518097,62.533084 Z" id="Path" fill="#FFB9B9"></path>
                        <path d="M134.602388,73.1897725 C134.602388,73.1897725 136.715521,77.0358094 138.676564,76.9597632 C140.637607,76.8837171 150.780983,72.5623955 151.214222,71.0726039 C151.647461,69.5828124 154.574036,81.7442639 154.574036,81.7442639 L129.753938,125.42354 L123.699721,121.23933 L126.633213,95.5936933 L129.042458,81.7523333 L134.602388,73.1897725 Z" id="Path" fill="#1FBF53"></path>
                        <path d="M152.129698,112.280906 C151.139631,114.352036 150.521271,116.511843 150.607014,118.722923 C150.610816,118.820982 150.614617,118.919022 150.623326,119.016877 C150.858203,123.554413 152.529779,128.802192 153.12948,132.618542 C153.564628,135.356158 153.440792,137.354407 151.838718,137.824072 C147.954656,138.956682 152.405023,139.766101 137.378057,144.767799 C122.35109,149.769496 119.728678,145.452208 119.690657,144.471686 C119.652635,143.491165 121.818763,136.042204 121.309493,135.570965 C120.800223,135.099726 114.183722,141.739274 112.184657,140.834786 C110.185593,139.930299 111.956522,134.95166 111.956522,134.95166 C111.956522,134.95166 116.459888,124.46609 116.364831,122.014776 C116.269774,119.563461 123.186418,108.002313 123.186418,108.002313 L127.890845,77.3780156 C127.890845,77.3780156 129.699796,73.3798864 132.132088,72.7945548 C134.564379,72.2092232 136.582448,73.6039639 136.582448,73.6039639 L132.512291,82.5997763 L128.218049,98.4782163 L128.936447,104.342341 C128.936447,104.342341 133.930072,93.8377448 137.209807,89.7825801 C140.489541,85.7274155 147.482228,76.1272978 147.482228,76.1272978 C147.482228,76.1272978 149.114777,70.6188129 147.882362,68.972655 C146.649763,67.3216209 153.023148,67.0744747 155.740611,73.8430623 C157.180877,77.4304064 159.519236,82.7799926 160.984081,87.7608237 C162.289395,92.1733574 162.905982,96.2983764 161.612795,98.6562246 C159.636299,102.258237 154.664408,106.992765 152.129698,112.280906 Z" id="Path" fill="#575A89"></path>
                        <path d="M161.612808,98.6562307 C159.63629,102.258237 154.664408,106.992765 152.129698,112.280906 C151.467662,109.895765 150.66001,107.427922 150.66001,107.427922 C150.66001,107.427922 147.562323,90.8541224 156.725175,86.5708223 C158.243404,86.4240268 159.761849,86.8483042 160.984087,87.7608298 C162.289407,92.1733636 162.905994,96.2983888 161.612808,98.6562307 Z" id="Path" fill="#000000" opacity="0.1"></path>
                        <path d="M125.238479,97.6117717 L117.470355,99.8769964 L106.684615,100.295249 L105.575036,109.667225 L123.300458,110.943856 C123.300458,110.943856 127.72779,98.4972363 125.238479,97.6117717 Z" id="Path" fill="#575A89"></path>
                        <path d="M137.90547,129.123321 C137.90547,129.123321 127.513277,130.847486 129.885185,133.974777 C132.257094,137.102067 141.463331,133.814254 141.463331,133.814254 L137.90547,129.123321 Z" id="Path" fill="#FFB9B9"></path>
                        <path d="M150.623326,119.016877 C150.858203,123.554413 152.529779,128.802192 153.12948,132.618542 C149.818913,135.751823 146.670766,138.515472 145.484343,138.56148 C143.033041,138.656537 139.091947,138.318367 137.640177,138.865665 C136.188407,139.412962 135.336928,130.117023 135.336928,130.117023 C135.336928,130.117023 136.203382,127.137425 140.068423,125.514561 C142.677256,124.416655 147.677981,121.438789 150.623326,119.016877 Z" id="Path" fill="#000000" opacity="0.1"></path>
                        <path d="M156.61111,83.6292608 C156.61111,83.6292608 164.907517,82.3255469 164.459315,96.0908607 C164.011114,109.856175 165.333839,118.642835 161.997072,121.227225 C158.660305,123.811615 147.821578,135.524858 145.370276,135.619915 C142.918973,135.714972 138.977876,135.376805 137.526106,135.9241 C136.074336,136.471395 135.22286,127.175456 135.22286,127.175456 C135.22286,127.175456 136.089314,124.195869 139.954362,122.572999 C143.819409,120.950129 152.925235,115.196042 152.849192,113.234993 C152.773149,111.273944 150.545942,104.486352 150.545942,104.486352 C150.545942,104.486352 147.448252,87.9125609 156.61111,83.6292608 Z" id="Path" fill="#575A89"></path>
                        <circle id="Oval" fill="#FFB9B9" cx="136.202214" cy="63.7987794" r="10.7938372"></circle>
                        <path d="M128.934452,48.3280673 C128.674106,48.5523797 128.362335,48.7088362 128.026895,48.7835075 C127.676346,48.8459983 127.341098,48.6137742 127.27638,48.2636296 C127.029425,48.7757747 126.750798,49.3216117 126.246596,49.5844025 C125.742394,49.8471934 124.962745,49.6268371 124.890068,49.0629219 C124.816452,49.4910893 124.62703,49.8909349 124.342338,50.2191078 C124.029507,50.5173755 123.46221,50.5926558 123.189095,50.2576543 C123.409899,51.464341 123.273615,52.7052941 123.342957,53.9300558 C123.412299,55.1548176 123.738891,56.4532445 124.664221,57.2586082 C126.013711,58.433144 128.043012,58.1432668 129.818156,57.9207426 C130.0866,57.8644098 130.365137,57.8796477 130.625833,57.9649281 C131.290503,58.2481132 131.26035,59.1733596 131.269312,59.8957812 C131.381265,62.5132466 133.367282,64.6670636 135.9671,64.9904885 C136.671688,65.0992426 137.390629,64.9237795 137.965899,64.5026658 C138.469907,64.0754639 138.727355,63.3791899 139.304883,63.058258 C140.244325,62.5362339 141.383693,63.2975479 142.070548,64.1241613 C142.757403,64.9507746 143.434346,65.9675945 144.49838,66.1189086 C145.905631,66.319022 146.977458,64.8848762 147.503314,63.5643225 C148.969016,59.8251139 148.86229,55.6524148 147.207353,51.9930233 C144.268979,45.5878297 134.231419,44.5747218 128.934452,48.3280673 Z" id="Path" fill="#2F2E41"></path>
                    </g>
                </g>
            </g>
        </g>
    </g>
</svg>