<?xml version="1.0" encoding="UTF-8"?>
<svg width="248px" height="200px" viewBox="0 0 248 200" version="1.1" xmlns="http://www.w3.org/2000/svg" xmlns:xlink="http://www.w3.org/1999/xlink">
    <!-- Generator: Sketch 59.1 (86144) - https://sketch.com -->
    <title>undraw_voice_control_ofo1</title>
    <desc>Created with Sketch.</desc>
    <g id="Page-1" stroke="none" stroke-width="1" fill="none" fill-rule="evenodd">
        <g id="Homepage" transform="translate(-195.851562, -1555.410156)">
            <g id="services-section" transform="translate(129.851562, 1396.410156)">
                <g id="full-time" transform="translate(0.000000, 64.132812)">
                    <g id="undraw_voice_control_ofo1" transform="translate(66.759443, 95.355532)">
                        <path d="M69.8471182,26.7579629 L69.8471182,63.604223 C69.8446239,67.9817174 71.5826856,72.1805925 74.678336,75.275655 C77.7739863,78.3707175 81.9731915,80.1079817 86.3506853,80.1046582 L108.351259,80.1046582 C112.285157,80.1071532 116.058514,78.5448815 118.839318,75.7623133 C121.620123,72.9797451 123.180002,69.2053986 123.175019,65.271503 L123.175019,26.7579629 C123.175019,12.0318736 111.237153,0.0940195462 96.5110642,0.0940195462 C81.784975,0.0940195462 69.8471182,12.0318736 69.8471182,26.7579629 L69.8471182,26.7579629 Z" id="Path" fill="#65617D"></path>
                        <path d="M69.8471182,26.7579629 L69.8471182,63.604223 C69.8446239,67.9817174 71.5826856,72.1805925 74.678336,75.275655 C77.7739863,78.3707175 81.9731915,80.1079817 86.3506853,80.1046582 L108.351259,80.1046582 C112.285157,80.1071532 116.058514,78.5448815 118.839318,75.7623133 C121.620123,72.9797451 123.180002,69.2053986 123.175019,65.271503 L123.175019,26.7579629 C123.175019,12.0318736 111.237153,0.0940195462 96.5110642,0.0940195462 C81.784975,0.0940195462 69.8471182,12.0318736 69.8471182,26.7579629 L69.8471182,26.7579629 Z" id="Path" fill="#000000" opacity="0.1"></path>
                        <path d="M70.6400178,27.152845 L70.6400178,62.9053444 C70.6383549,67.1520877 72.3248447,71.2253276 75.3280398,74.2279349 C78.3312349,77.2305422 82.4048049,78.9162346 86.6515478,78.9137422 L108.000253,78.9137422 C111.81478,78.9162348 115.473836,77.4022396 118.171409,74.7052551 C120.868981,72.0082705 122.383774,68.349544 122.382111,64.5350165 L122.382111,27.152845 C122.382111,12.8646613 110.799248,1.28179981 96.5110642,1.28179981 C82.2228805,1.28179981 70.6400178,12.8646613 70.6400178,27.152845 L70.6400178,27.152845 Z" id="Path" fill="#65617D"></path>
                        <path d="M77.0646881,32.4367435 L77.0646881,62.1719919 C77.0520869,64.8623444 77.8006704,67.5014 79.2240037,69.7844412 C81.3989892,73.2318246 85.0093397,75.4851597 89.09919,75.4851597 L105.148327,75.4851597 C109.047004,75.4851597 112.463047,73.2067527 114.362242,69.7844412 C115.419714,67.8653086 115.968842,65.7076324 115.957614,63.5164715 L115.957614,32.4367435 C115.957614,20.5558068 107.25123,10.9219373 96.5110642,10.9219373 C91.1425481,10.9219373 86.2817376,13.3288377 82.7622726,17.2243809 C79.0471845,21.4160904 77.0172887,26.8358452 77.0646881,32.4367435 L77.0646881,32.4367435 Z" id="Path" fill="#000000" opacity="0.1"></path>
                        <circle id="Oval" fill="#333F4F" cx="130.828199" cy="134.579578" r="2.9428118"></circle>
                        <circle id="Oval" fill="#333F4F" cx="125.563104" cy="146.093839" r="2.9428118"></circle>
                        <circle id="Oval" fill="#333F4F" cx="73.0594554" cy="148.177939" r="2.9428118"></circle>
                        <circle id="Oval" fill="#333F4F" cx="61.32895" cy="133.156749" r="2.9428118"></circle>
                        <rect id="Rectangle" fill="#333F4F" x="94.5335198" y="82.6087073" width="3.68556621" height="23.0253869"></rect>
                        <rect id="Rectangle" fill="#333F4F" opacity="0.1" x="94.5335198" y="101.907786" width="3.68556621" height="3.729442"></rect>
                        <rect id="Rectangle" fill="#333F4F" transform="translate(96.376303, 115.556290) rotate(-180.000000) translate(-96.376303, -115.556290) " x="93.8221052" y="102.782168" width="5.10839535" height="25.5482447"></rect>
                        <path d="M61.9682829,128.164311 L95.4110355,126.79476 L95.4110355,132.16641 L56.5997668,132.16641 C57.3927057,129.852911 59.5246834,128.263573 61.9682829,128.164311 L61.9682829,128.164311 Z" id="Path" fill="#333F4F"></path>
                        <path d="M128.856922,128.164311 L95.4110355,126.79476 L95.4110355,132.16641 L134.225438,132.16641 C133.432499,129.852911 131.300522,128.263573 128.856922,128.164311 L128.856922,128.164311 Z" id="Path" fill="#333F4F"></path>
                        <path d="M98.9336345,127.343207 L125.632052,140.505944 C127.937844,141.646632 129.395864,143.997688 129.392838,146.570205 L129.392838,146.968221 L98.209684,133.372994 L93.8221052,133.059596 L67.8915143,149.616438 L67.8915143,149.616438 C67.5554895,147.123169 68.6311819,144.649438 70.6838949,143.194903 L93.8221052,126.81043 L98.9336345,127.343207 Z" id="Path" fill="#333F4F"></path>
                        <path d="M94.5366537,82.6087073 L94.5366537,85.0908233 C95.178076,85.1158952 95.8351681,85.1284312 96.5079302,85.1284312 C97.0877174,85.1284312 97.6581027,85.1284312 98.219086,85.1002253 L98.219086,82.6087073 L94.5366537,82.6087073 Z" id="Path" fill="#333F4F" opacity="0.1"></path>
                        <ellipse id="Oval" fill="#333F4F" cx="96.5079302" cy="80.2770226" rx="13.5983604" ry="3.97702681"></ellipse>
                        <path d="M83.0286613,80.2738886 C83.0543132,80.7210248 83.2642524,81.1374989 83.6084485,81.424061 C83.7432194,81.5540862 83.8878109,81.6735313 84.0409384,81.7813353 C86.0654926,83.2292363 90.9357051,84.2509154 96.6238877,84.2509154 C102.31207,84.2509154 107.223025,83.2198344 109.238177,81.7593974 C109.338696,81.6899943 109.434977,81.6146443 109.526503,81.5337505 C109.931918,81.2384971 110.187391,80.7802485 110.225382,80.2801566 C110.225382,78.0863671 104.139183,76.3031297 96.6238877,76.3031297 C89.1085919,76.3031297 83.0286613,78.0769652 83.0286613,80.2738886 Z" id="Path" fill="#333F4F"></path>
                        <path d="M83.0286613,80.2738886 C83.0543132,80.7210248 83.2642524,81.1374989 83.6084485,81.424061 C83.7432194,81.5540862 83.8878109,81.6735313 84.0409384,81.7813353 C86.0654926,83.2292363 90.9357051,84.2509154 96.6238877,84.2509154 C102.31207,84.2509154 107.223025,83.2198344 109.238177,81.7593974 C109.338696,81.6899943 109.434977,81.6146443 109.526503,81.5337505 C109.931918,81.2384971 110.187391,80.7802485 110.225382,80.2801566 C110.225382,78.0863671 104.139183,76.3031297 96.6238877,76.3031297 C89.1085919,76.3031297 83.0286613,78.0769652 83.0286613,80.2738886 Z" id="Path" fill="#333F4F" opacity="0.1"></path>
                        <path d="M82.9127038,80.2738886 C82.9379831,80.7211247 83.1479931,81.137739 83.492491,81.424061 C85.2255847,80.9947051 86.4227669,80.6342968 86.4227669,80.6342968 C86.4227669,80.6342968 98.4071251,81.3049696 109.410546,81.5337505 C109.816286,81.2387859 110.071851,80.7803739 110.109425,80.2801566 C110.109425,78.0863671 104.023226,76.3031297 96.5079302,76.3031297 C88.9926345,76.3031297 82.9127038,78.0769652 82.9127038,80.2738886 Z" id="Path" fill="#333F4F" opacity="0.1"></path>
                        <path d="M73.5107492,72.0565802 C76.5023484,76.3579519 81.4121371,78.919988 86.6515478,78.9137506 L108.000253,78.9137506 C113.001862,78.9175223 117.645603,76.3202562 120.260402,72.0565802 L73.5107492,72.0565802 Z" id="Path" fill="#333F4F" opacity="0.1"></path>
                        <path d="M83.0286613,80.2738886 C83.0543132,80.7210248 83.2642524,81.1374989 83.6084485,81.424061 C83.7432194,81.5540862 83.8878109,81.6735313 84.0409384,81.7813353 C92.4325102,82.2910931 100.847505,82.2837666 109.238177,81.7593974 C109.338696,81.6899943 109.434977,81.6146443 109.526503,81.5337505 C109.931918,81.2384971 110.187391,80.7802485 110.225382,80.2801566 C110.225382,78.0863671 104.139183,76.3031297 96.6238877,76.3031297 C89.1085919,76.3031297 83.0286613,78.0769652 83.0286613,80.2738886 Z" id="Path" fill="#333F4F" opacity="0.1"></path>
                        <path d="M70.8061203,79.9103463 C87.9519388,82.076024 105.302105,82.076024 122.447923,79.9103463 C123.408991,79.9145141 124.332126,79.5356494 125.013178,78.8575374 C125.694231,78.1794253 126.077078,77.2579386 126.077078,76.2968618 L126.077078,76.2968618 C126.077078,74.3011894 124.459265,72.6833772 122.463593,72.6833772 L70.8061203,72.6833772 C68.8104479,72.6833772 67.1926357,74.3011894 67.1926357,76.2968618 L67.1926357,76.2968618 C67.1926357,78.2925342 68.8104479,79.9103463 70.8061203,79.9103463 L70.8061203,79.9103463 Z" id="Path" fill="#333F4F"></path>
                        <path d="M118.401949,119.266928 C118.401949,119.266928 121.965289,122.914887 124.397262,123.262759 C126.829234,123.610631 128.828716,131.429924 125.440879,132.037917 C122.053041,132.64591 115.534352,130.213938 114.578487,129.170321 C113.622622,128.126704 110.147032,121.962155 110.147032,121.962155 L118.401949,119.266928 Z" id="Path" fill="#65617D"></path>
                        <path d="M98.7643993,80.3397023 C98.7643993,80.3397023 107.454939,96.9341522 107.627309,99.1937553 C107.799678,101.453358 115.18648,111.027682 115.18648,111.027682 L105.975699,122.654766 C105.975699,122.654766 104.759712,119.699418 102.675612,118.655801 C100.591513,117.612184 101.024002,115.267964 101.024002,115.267964 C101.024002,115.267964 98.8521509,115.267964 97.2882925,112.660488 C95.724434,110.053013 93.8127032,107.448671 93.8127032,106.326705 C93.8127032,105.204738 82.3423186,93.3802133 82.3423186,93.3802133 L83.2104324,80.7815941 L85.5577871,76.7857634 L98.7643993,80.3397023 Z" id="Path" fill="#3F3D56"></path>
                        <path d="M121.357296,81.2955677 L121.432512,81.3613813 C122.485531,82.3015768 134.303788,92.7753542 134.303788,93.0229391 C134.303788,93.2705239 138.559739,100.32199 133.260171,106.405054 C127.960602,112.488119 115.794473,122.479263 115.794473,122.479263 C115.794473,122.479263 110.494905,126.302724 109.79916,127.086221 C109.103415,127.869717 98.5920302,127.086221 104.847464,119.959539 C111.102898,112.832857 117.010459,104.841196 117.010459,104.841196 C117.010459,104.841196 106.583692,102.334008 105.891081,100.585245 C105.19847,98.836481 119.617935,77.1242338 119.617935,77.1242338 L121.357296,81.2955677 Z" id="Path" fill="#000000" opacity="0.1"></path>
                        <path d="M121.705169,81.2955677 L121.780384,81.3613813 C122.833403,82.3015768 134.65166,92.7753542 134.65166,93.0229391 C134.65166,93.2705239 138.907612,100.32199 133.608043,106.405054 C128.308475,112.488119 116.142345,122.479263 116.142345,122.479263 C116.142345,122.479263 110.842777,126.302724 110.147032,127.086221 C109.451288,127.869717 98.9367685,127.086221 105.195336,119.959539 C111.453904,112.832857 117.358332,104.841196 117.358332,104.841196 C117.358332,104.841196 106.931564,102.334008 106.235819,100.585245 C105.540075,98.836481 91.8194889,77.5567237 91.8194889,77.5567237 L119.972075,77.1242338 L121.705169,81.2955677 Z" id="Path" fill="#3F3D56"></path>
                        <path d="M91.6408517,34.5584512 L92.6813347,44.0293535 C92.6813347,44.0293535 103.368223,48.288439 103.631478,48.2006874 C103.894733,48.1129358 110.755025,41.9327176 109.626791,37.8585373 C109.05954,35.8120452 108.799419,32.9726549 108.686595,30.6503721 C108.573772,28.3280893 108.589442,26.5605218 108.589442,26.5605218 C108.589442,26.5605218 93.035475,20.9976987 94.4269643,24.8211602 C94.9315358,26.2095155 94.7027549,27.8736615 94.2075853,29.428118 C93.5855155,31.2454146 92.722223,32.9709456 91.6408517,34.5584512 Z" id="Path" fill="#FBBEBE"></path>
                        <path d="M94.2013174,29.42185 C94.2953369,29.5315395 94.3924904,29.634961 94.489644,29.7352485 C98.2479211,33.7180388 104.447733,34.1123731 108.680327,30.6378361 C108.561236,28.3374912 108.583174,26.5479859 108.583174,26.5479859 C108.583174,26.5479859 93.029207,20.9851627 94.4206963,24.8086243 C94.9252679,26.2032475 94.696487,27.8673935 94.2013174,29.42185 Z" id="Path" fill="#000000" opacity="0.1"></path>
                        <path d="M91.6408517,22.2356227 C91.6425826,27.9916203 96.3095319,32.6566988 102.06553,32.6561219 C107.821528,32.6555449 112.487542,27.9895309 112.488119,22.233533 C112.488696,16.4775352 107.823617,11.8105859 102.067619,11.808855 C99.2968936,11.7911985 96.6345333,12.884059 94.6752945,14.8432978 C92.7160557,16.8025366 91.6231952,19.4648969 91.6408517,22.2356227 L91.6408517,22.2356227 Z" id="Path" fill="#FBBEBE"></path>
                        <path d="M104.499592,44.3803598 C104.499592,44.3803598 108.573772,35.3294115 109.974663,35.3294115 C111.375554,35.3294115 113.541138,82.1480115 113.541138,82.1480115 L92.2551128,82.4802139 L91.383865,57.9003706 L95.724434,36.1254437 C95.724434,36.1254437 99.6325132,44.7156962 104.499592,44.3803598 Z" id="Path" fill="#000000" opacity="0.1"></path>
                        <path d="M104.499592,45.0761045 C104.499592,45.0761045 108.573772,36.0251561 109.974663,36.0251561 C111.375554,36.0251561 113.541138,82.8406222 113.541138,82.8406222 L89.3875166,83.2072984 L91.383865,58.5961152 L95.730702,36.8055184 C95.730702,36.8055184 99.6325132,45.4114408 104.499592,45.0761045 Z" id="Path" fill="#000000" opacity="0.1"></path>
                        <path d="M104.499592,44.7282321 C104.499592,44.7282321 108.573772,35.6772838 109.974663,35.6772838 C111.375554,35.6772838 113.541138,82.5084198 113.541138,82.5084198 L89.3875166,82.875096 L91.383865,58.2639128 L95.730702,36.473316 C95.730702,36.473316 99.6325132,45.0635685 104.499592,44.7282321 Z" id="Path" fill="#65617D"></path>
                        <path d="M108.460949,32.8347595 C108.460949,32.8347595 109.191167,31.7660707 110.234784,32.113943 C111.278401,32.4618153 112.058763,31.5059499 113.10238,32.4618153 C114.145997,33.4176807 118.314197,34.7214184 119.097693,34.2857945 C119.881189,33.8501706 122.6579,35.7650354 123.269027,36.8932699 C123.880154,38.0215045 125.873369,41.0646038 125.873369,41.0646038 C125.873369,41.0646038 127.61273,43.1487038 127.352609,44.2800723 C127.092489,45.4114408 127.960602,46.7120446 129.001085,47.232286 C130.041568,47.7525275 132.13507,52.9674784 132.13507,52.9674784 C132.13507,52.9674784 131.567819,59.9437287 133.91204,61.1565808 C136.25626,62.369433 134.520033,67.6752694 134.520033,67.6752694 L123.438262,65.0458561 L120.304277,57.9191745 C120.304277,57.9191745 121.520264,78.7758438 122.99637,80.6844406 C124.472477,82.5930374 124.64798,83.8184255 124.64798,83.8184255 C124.64798,83.8184255 118.912788,85.0344116 117.696802,86.0748946 C116.480816,87.1153776 113.265347,85.8147738 113.265347,85.8147738 L110.131362,58.0978116 C110.131362,58.0978116 109.003128,52.8828608 109.003128,50.1907678 C109.003128,47.4986748 108.460949,32.8347595 108.460949,32.8347595 Z" id="Path" fill="#000000" opacity="0.1"></path>
                        <path d="M108.808821,32.8347595 C108.808821,32.8347595 109.539039,31.7660707 110.582656,32.113943 C111.626273,32.4618153 112.406636,31.5059499 113.450252,32.4618153 C114.493869,33.4176807 118.662069,34.7214184 119.445566,34.2857945 C120.229062,33.8501706 123.005772,35.7650354 123.613765,36.8932699 C124.221758,38.0215045 126.221241,41.0646038 126.221241,41.0646038 C126.221241,41.0646038 127.960602,43.1487038 127.700482,44.2800723 C127.440361,45.4114408 128.308475,46.7120446 129.348958,47.232286 C130.389441,47.7525275 132.482943,52.9674784 132.482943,52.9674784 C132.482943,52.9674784 131.921959,59.9405947 134.269314,61.1565808 C134.855369,61.4699793 135.187572,62.1375181 135.353673,62.983694 C136.02748,66.3872016 133.235099,69.5023826 129.765778,69.3958271 L123.811206,66.926247 L120.677222,57.9191745 C120.677222,57.9191745 121.893208,78.7758438 123.369315,80.6844406 C124.845421,82.5930374 125.020925,83.8184255 125.020925,83.8184255 C125.020925,83.8184255 119.285732,85.0344116 118.069746,86.0748946 C116.85376,87.1153776 113.638292,85.8147738 113.638292,85.8147738 L110.504307,58.0978116 C110.504307,58.0978116 109.376072,52.8828608 109.376072,50.1907678 C109.376072,47.4986748 108.808821,32.8347595 108.808821,32.8347595 Z" id="Path" fill="#1FBF53"></path>
                        <path d="M127.957468,47.9280307 C127.957468,47.9280307 126.913851,50.7956269 124.046255,50.5355061 C121.178659,50.2753854 127.957468,47.9280307 127.957468,47.9280307 Z" id="Path" fill="#000000" opacity="0.1"></path>
                        <path d="M125.180758,43.5843277 C125.180758,43.5843277 123.269027,43.9322 122.573282,45.580676 C121.877538,47.2291521 125.180758,43.5843277 125.180758,43.5843277 Z" id="Path" fill="#000000" opacity="0.1"></path>
                        <path d="M119.809108,40.6289799 C119.809108,40.9768522 118.589988,47.0599169 119.809108,49.5796407 C121.028228,52.0993646 120.849591,55.0547123 120.849591,55.0547123 L119.809108,40.6289799 Z" id="Path" fill="#000000" opacity="0.1"></path>
                        <path d="M94.1449056,30.7412576 C94.1449056,30.7412576 93.4648309,29.9420915 92.7690863,30.0298431 C92.0733416,30.1175946 91.6408517,30.5500846 90.7696039,30.8979569 C89.8983561,31.2458292 87.8173902,31.3335808 87.8173902,31.5937015 C87.8173902,31.8538223 85.990277,32.8974392 84.7742909,33.160694 C83.5583047,33.4239487 79.7348432,36.0282901 78.7789778,41.0677378 C77.8231124,46.1071855 76.1715024,47.5832924 76.1715024,47.5832924 L85.3822839,52.1087665 C85.3822839,52.1087665 78.2587363,82.3454526 77.3906225,84.5173041 C76.5225087,86.6891556 76.450427,99.5604315 76.450427,99.5604315 C76.450427,99.5604315 82.0915998,102.067619 83.5739747,102.860518 C85.0563495,103.653416 84.4420885,95.3890976 87.4851878,90.6097707 C90.5282871,85.8304438 94.0007423,78.8792653 94.0007423,78.8792653 L99.2846408,64.017909 C99.2846408,64.017909 102.675612,44.2079906 99.8080163,40.5568983 C96.9404201,36.9058059 93.8847849,32.0512633 94.1449056,30.7412576 Z" id="Path" fill="#000000" opacity="0.1"></path>
                        <path d="M93.7970333,30.7412576 C93.7970333,30.7412576 93.1169586,29.9420915 92.421214,30.0298431 C91.7254693,30.1175946 91.2929794,30.5500846 90.4217316,30.8979569 C89.5504838,31.2458292 87.4695179,31.3335808 87.4695179,31.5937015 C87.4695179,31.8538223 85.6455387,32.8974392 84.4264185,33.160694 C83.2072984,33.4239487 79.3807029,36.0251561 78.4405074,41.0646038 C77.500312,46.1040515 75.836166,47.5801584 75.836166,47.5801584 L85.0218757,52.1087665 C85.0218757,52.1087665 77.898328,82.3454526 77.0302142,84.5173041 C76.1621004,86.6891556 76.0900188,99.5604315 76.0900188,99.5604315 C76.0900188,99.5604315 81.7311916,102.067619 83.2135664,102.860518 C84.6959412,103.653416 84.0816802,95.3577578 87.1216455,90.5909668 C90.1616109,85.8241758 93.6372001,78.8604614 93.6372001,78.8604614 L98.9367685,64.017909 C98.9367685,64.017909 102.32774,44.2079906 99.460144,40.5568983 C96.5925478,36.9058059 93.5369126,32.0512633 93.7970333,30.7412576 Z" id="Path" fill="#1FBF53"></path>
                        <path d="M74.9555163,68.781566 C75.212503,68.8223079 75.5415714,68.8630497 75.9207836,68.8975235 C78.7037622,69.1513763 84.1662978,69.210922 84.1662978,69.210922 C84.1662978,69.210922 88.2404781,61.128375 91.7254693,61.3759598 C91.7254693,61.3759598 88.5100008,57.7280014 87.2093971,58.1636253 C86.9900182,58.2357069 86.8521228,58.0758737 86.7863092,57.7624752 C86.4384368,56.1954828 87.641887,50.8677085 87.641887,50.8677085 L89.2934971,43.6595433 L79.7348432,46.003764 C78.8667294,46.1792671 76.1715024,47.5707564 76.1715024,47.5707564 C76.1715024,47.5707564 76.0868848,51.3064664 75.3911401,52.1777142 C74.6953955,53.048962 73.9150333,57.2171619 73.9996509,58.2576448 C74.0842685,59.2981278 73.0437855,64.1683403 74.0874024,65.46581 C75.1310194,66.7632798 72.7993347,68.4336937 74.9555163,68.781566 Z" id="Path" fill="#000000" opacity="0.1"></path>
                        <path d="M110.667274,125.694731 C110.667274,125.694731 111.190649,128.562328 110.582656,130.395709 C109.974663,132.22909 110.059281,136.218653 110.494905,137.603874 C110.930529,138.989095 112.406636,140.90396 108.410805,141.772074 C104.414974,142.640188 101.719747,141.859825 101.544244,141.164081 C101.368741,140.468336 100.503761,137.688491 101.196372,136.124633 C101.888982,134.560775 102.136567,130.48346 100.848499,128.129838 C99.5604315,125.776215 100.416009,122.134525 101.631996,121.702035 C102.847982,121.269545 104.935216,120.310545 104.935216,120.310545 C104.935216,120.310545 102.675612,124.384726 104.759712,125.265375 C106.843812,126.146025 110.667274,125.694731 110.667274,125.694731 Z" id="Path" fill="#65617D"></path>
                        <path d="M91.6408517,22.2356227 C91.6350945,24.8991046 92.6552902,27.4625006 94.489644,29.3936441 C94.4992475,29.3775823 94.5076285,29.3608203 94.5147159,29.3435004 C94.8281143,28.6822296 95.1195749,27.9958869 95.0945031,27.2719364 C95.0662972,26.3975546 94.5617256,25.6077904 94.3987584,24.7428106 C94.1950494,23.6521839 94.5523237,22.5490212 94.90333,21.4897343 C95.1603167,20.718774 95.6586203,19.7817125 96.4703224,19.8757321 C96.6269086,19.9159218 96.788184,19.9348954 96.9498221,19.9321438 C97.379178,19.8663301 97.4669296,19.3053468 97.5170734,18.8728569 C97.7843252,16.7877672 99.374473,15.1176679 101.443956,14.7485328 C101.672493,14.6978098 101.910813,14.7141331 102.130299,14.7955426 C102.443698,14.9303039 102.597263,15.2562384 102.86992,15.4442775 C103.750569,16.0554045 104.872536,14.8864282 105.944359,14.9773137 C106.856348,15.0525294 107.411064,15.9833229 107.787142,16.8169628 C108.16322,17.6506028 108.630184,18.6002002 109.523369,18.7945073 C109.664976,18.8364406 109.81751,18.8194924 109.946457,18.7474975 C110.222248,18.5437885 110.031075,18.1207005 109.890046,17.8073021 C109.523369,16.9799301 109.76782,16.3249272 110.203444,15.7357381 C107.439843,12.2749877 102.791104,10.9384146 98.6114377,12.402885 C94.4317714,13.8673554 91.6338456,17.8130891 91.6345836,22.2418907 L91.6408517,22.2356227 Z" id="Path" fill="#000000" opacity="0.1"></path>
                        <path d="M109.883778,17.4531618 C110.024807,17.7665603 110.219114,18.1990502 109.937055,18.3933572 C109.809776,18.4669801 109.657509,18.4840249 109.517101,18.440367 C108.623916,18.2491939 108.153818,17.2964625 107.77774,16.4628225 C107.401662,15.6291826 106.837544,14.6983891 105.938091,14.6231734 C104.866268,14.5322879 103.744301,15.7012642 102.860518,15.0901372 C102.590995,14.9020981 102.424894,14.5761637 102.124031,14.4414023 C101.904239,14.3610363 101.665925,14.3458016 101.437688,14.3975265 C99.3679717,14.7650713 97.7765679,16.4338878 97.5076714,18.5187166 C97.4637956,18.9480726 97.3729101,19.5121898 96.9435541,19.5780035 C96.7819084,19.5809078 96.6206126,19.5619319 96.4640544,19.5215918 C95.6554863,19.4275722 95.1603167,20.3614997 94.897062,21.13246 C94.5460557,22.1886129 94.1887814,23.2980436 94.3924904,24.3886703 C94.5554577,25.2536501 95.0600292,26.0434143 95.0882351,26.9209301 C95.110173,27.6417466 94.8061764,28.3312233 94.5084479,28.9893601 C94.2107193,29.6474969 93.7186837,30.4184572 93.0041351,30.3244376 C92.414946,30.249222 92.0921455,29.625559 91.8100869,29.1021835 C91.5280283,28.5788081 91.0203227,28.0209588 90.4499375,28.183926 C90.1929507,28.2591416 89.929696,28.4753866 89.6977811,28.3437592 C89.5751523,28.2533179 89.4956761,28.1159375 89.4784022,27.964547 C89.1994775,26.7516949 89.6006276,25.3852775 89.0083044,24.2883828 C88.5538766,23.4453408 87.6324851,22.9877791 86.8834627,22.3891879 C85.5945861,21.3592756 84.7790481,19.8502388 84.6236614,18.2077477 C84.4682746,16.5652565 84.986354,14.9300538 86.0592247,13.67671 C86.8615248,12.7365145 88.0148312,11.9091425 88.0806449,10.6774865 C88.1276547,9.73729101 87.4945897,8.87544517 87.4883218,7.9352497 C87.4820538,6.99505424 88.068109,6.20529005 88.7419157,5.58162706 C90.7049383,3.78508707 93.4255211,3.06803423 96.0190286,3.66362832 C96.6928353,3.82659553 97.3697761,4.07731432 98.0561188,3.99269673 C98.8552849,3.89240921 99.5196897,3.36589976 100.249908,2.99608954 C102.717877,1.8378402 105.661479,2.63305008 107.210489,4.87648047 C108.031593,6.15828028 108.354393,7.82869422 109.582915,8.72814788 C110.388349,9.31733703 111.547924,9.53984996 111.99295,10.4330356 C112.259338,10.972081 112.184123,11.60828 112.102639,12.2006031 C111.97648,13.1749583 111.507659,14.0726064 110.780097,14.7328629 C110.024807,15.5100911 109.38234,16.3217932 109.883778,17.4531618 Z" id="Path" fill="#512E4E"></path>
                        <g id="Group" opacity="0.1" transform="translate(84.617592, 8.148361)" fill="#000000">
                            <path d="M3.09010909,0.855577871 C3.0090795,0.619634043 2.94724333,0.377529738 2.90520398,0.131627365 C2.98660736,0.367459312 3.04845139,0.609594428 3.09010909,0.855577871 Z" id="Path"></path>
                            <path d="M25.0906829,8.54637675 C25.0469255,8.38701579 24.9892472,8.23180878 24.9183137,8.08254699 C24.4168762,6.94804447 25.0593431,6.13947637 25.8083654,5.38105203 C26.5341091,4.71980241 27.0016546,3.82247034 27.1277731,2.84879225 C27.1700276,2.58324901 27.1951514,2.31526197 27.2029887,2.04649212 C27.2644843,2.12517718 27.3190126,2.20906686 27.3659559,2.29721091 C27.6323446,2.83625631 27.557129,3.47245524 27.4756454,4.06477838 C27.3494863,5.03913354 26.8806651,5.93678167 26.1531038,6.59703816 C25.5827185,7.18309333 25.075013,7.7910864 25.0906829,8.54637675 Z" id="Path"></path>
                            <path d="M5.4907415,18.8258471 C6.06112675,18.6597459 6.5688323,19.2238632 6.85089094,19.7441047 C7.13294958,20.2643462 7.45575002,20.8911432 8.04493917,20.9663588 C8.75948773,21.0572444 9.25152335,20.2862841 9.54925191,19.6312813 C9.84698048,18.9762784 10.154111,18.2836678 10.1290391,17.5628512 C10.1253437,17.4757581 10.1169744,17.3889261 10.1039672,17.3027305 C10.3076625,17.7712331 10.4336288,18.2698059 10.4769114,18.7788374 C10.4988493,19.4996539 10.1948528,20.1891306 9.89712423,20.8472674 C9.59939567,21.5054042 9.10736005,22.2763645 8.39281149,22.1823449 C7.80362234,22.1071293 7.4808219,21.4834663 7.19876326,20.9600908 C6.91670462,20.4367154 6.40899907,19.8788661 5.83861382,20.0418333 C5.58162706,20.1170489 5.31837233,20.3332939 5.08645745,20.2016665 C4.96382869,20.1112252 4.88435242,19.9738448 4.86707851,19.8224543 C4.80875495,19.5501714 4.77415151,19.2733439 4.76365701,18.9950823 C4.98930392,19.0953698 5.24629068,18.8885268 5.4907415,18.8258471 Z" id="Path"></path>
                            <path d="M1.92426671,13.0311091 C2.6732891,13.6297002 3.59781464,14.087262 4.05224244,14.9303039 C4.2354668,15.2966923 4.3421027,15.6965769 4.36564093,16.1055483 C3.90494515,15.2907122 3.00235751,14.8362844 2.26587106,14.2470952 C1.10950777,13.3152468 0.330108182,11.9958347 0.0720816521,10.5333232 C0.463280231,11.5119728 1.10141812,12.3725412 1.92426671,13.0311091 Z" id="Path"></path>
                            <path d="M9.76236289,16.1024143 C9.62345328,15.7547732 9.51339227,15.3962888 9.43329447,15.0305915 C9.22958546,13.9399647 9.58685973,12.836802 9.93786604,11.7743812 C10.1948528,11.0034209 10.6931564,10.0694934 11.5048585,10.1635129 C11.6614447,10.2037027 11.82272,10.2226763 11.9843582,10.2199247 C12.4137141,10.154111 12.5045997,9.5931277 12.5484754,9.1575038 C12.820544,7.07479563 14.4107635,5.40848903 16.4784925,5.03944768 C16.7065943,4.9860698 16.9453869,5.00133508 17.1648352,5.08332347 C17.4782336,5.21808482 17.6317989,5.54401924 17.9013216,5.73205834 C18.7851053,6.35885531 19.9070719,5.17420903 20.9788948,5.26509459 C21.8877504,5.34031023 22.4455997,6.27110373 22.8216779,7.10474371 C23.197756,7.93838369 23.6678538,8.8879811 24.5579055,9.08228817 C24.6983132,9.12594606 24.8505802,9.10890124 24.9778595,9.03527839 C25.0611023,8.97415015 25.1118818,8.87836151 25.1157548,8.77515765 C25.143889,8.95795857 25.1965991,9.13611874 25.272454,9.30480109 C25.4134833,9.61819958 25.6077904,10.0506895 25.3257318,10.2449966 C25.1984525,10.3186194 25.0461855,10.3356642 24.9057778,10.2920063 C24.0125921,10.1008333 23.5424944,9.14810185 23.1664162,8.31446187 C22.790338,7.4808219 22.2262207,6.55002839 21.3267671,6.47481275 C20.2549442,6.38392719 19.1329777,7.55290355 18.2491939,6.9417765 C17.9796712,6.75373741 17.81357,6.42780298 17.5127075,6.29304163 C17.2929152,6.21267559 17.0546012,6.1974409 16.8263648,6.24916584 C14.756648,6.61671059 13.1652443,8.28552712 12.8963478,10.370356 C12.852472,10.7997119 12.7615864,11.3638292 12.3322305,11.4296428 C12.1705847,11.4325472 12.009289,11.4135712 11.8527308,11.3732311 C11.0441627,11.2792116 10.5489931,12.2131391 10.2857384,12.9840993 C9.95040198,13.9995104 9.6150656,15.0587973 9.76236289,16.1024143 Z" id="Path"></path>
                        </g>
                        <path d="M75.9333195,68.8975235 C78.7162981,69.1513763 84.1788337,69.210922 84.1788337,69.210922 C84.1788337,69.210922 88.2530141,61.128375 91.7380053,61.3759598 C91.7380053,61.3759598 88.5225368,57.7280014 87.2219331,58.1636253 C87.0025541,58.2357069 86.8646588,58.0758737 86.7988451,57.7624752 C83.3953375,58.8029582 76.9079888,61.3446199 76.2717899,65.8074144 C76.0900188,67.0234005 75.9803293,68.0388116 75.9333195,68.8975235 Z" id="Path" fill="#000000" opacity="0.1"></path>
                        <path d="M75.5729113,68.8975235 C78.3558898,69.1513763 83.8184255,69.210922 83.8184255,69.210922 C83.8184255,69.210922 87.8926058,61.128375 91.377597,61.3759598 C91.377597,61.3759598 88.1652625,57.7280014 86.8615248,58.1636253 C86.6421458,58.2357069 86.5073845,58.0758737 86.4384368,57.7624752 C83.0349293,58.8029582 76.5475806,61.3446199 75.9113816,65.8074144 C75.7421465,67.0234005 75.635591,68.0388116 75.5729113,68.8975235 Z" id="Path" fill="#1FBF53"></path>
                        <path d="M99.9803855,92.1548252 C99.9803855,92.1548252 92.1454233,90.2430945 90.9451071,91.2867114 C89.7447909,92.3303284 99.9803855,92.1548252 99.9803855,92.1548252 Z" id="Path" fill="#000000" opacity="0.1"></path>
                        <path d="M122.397779,99.6293792 C122.397779,99.6293792 119.097693,101.54111 118.749821,103.104968 C118.401949,104.668827 122.397779,99.6293792 122.397779,99.6293792 Z" id="Path" fill="#000000" opacity="0.1"></path>
                        <path d="M109.191167,134.845967 C109.191167,134.845967 104.671961,134.150223 103.51552,134.902379 C102.35908,135.654535 109.191167,134.845967 109.191167,134.845967 Z" id="Path" fill="#000000" opacity="0.1"></path>
                        <path d="M64.0461149,195.50111 C64.0461149,195.50111 81.5588224,194.560915 85.8273098,192.053727 C90.0957972,189.546539 96.13812,189.546539 96.1694599,189.546539 L165.900623,174.334177 L194.889983,167.43941 L200.061058,166.759335 L182.980841,147.215806 L182.460599,146.990159 L157.282165,136.099561 C157.282165,136.099561 145.999819,136.726358 143.771556,144.078687 C143.618781,144.596581 143.513875,145.127407 143.458158,145.664483 C143.224234,147.956471 143.859537,150.252735 145.238261,152.098554 C146.128313,153.317674 147.222073,155.041366 147.566812,156.564482 C147.761119,157.423194 147.717243,158.216092 147.253413,158.820952 C146.313343,159.754287 145.275194,160.583334 144.157036,161.293666 C138.01756,165.367846 122.498067,172.080842 95.3859636,161.798237 C95.3859636,161.798237 83.7902196,150.359192 75.015062,155.216869 C66.2399043,160.074545 64.0461149,195.50111 64.0461149,195.50111 Z" id="Path" fill="#E1DEE5"></path>
                        <path d="M147.554276,156.577018 C147.748583,157.43573 147.704707,158.228628 147.240877,158.833487 C146.300807,159.766823 145.262658,160.59587 144.1445,161.306202 L196.927074,165.24562 L182.460599,146.990159 L157.282165,136.099561 C157.282165,136.099561 145.999819,136.726358 143.771556,144.078687 C143.618781,144.596581 143.513875,145.127407 143.458158,145.664483 C143.224234,147.956471 143.859537,150.252735 145.238261,152.098554 C146.115777,153.336478 147.209538,155.053902 147.554276,156.577018 Z" id="Path" fill="#000000" opacity="0.1"></path>
                        <polygon id="Path" fill="#65617D" points="199.120863 84.7147452 155.871872 85.6549406 155.871872 137.425237 196.927074 165.258156 206.799126 156.1696 204.762036 126.083345 206.799126 98.0341809"></polygon>
                        <path d="M223.722644,76.24045 L173.22788,60.6927511 C172.315779,60.4117429 171.358833,60.3054157 170.407294,60.3793526 L49.7802158,69.1858501 C39.4624939,69.8923585 29.5318968,73.3950446 21.0541104,79.3180232 C13.2473541,84.8244346 5.51581338,93.2767918 1.93680265,106.072852 C-0.643592141,115.517664 -0.455396793,125.505072 2.47898204,134.845967 L13.1188607,169.319801 C13.1188607,169.319801 5.12719926,94.4175623 84.8871143,90.6567805 L223.722644,76.24045 Z" id="Path" fill="#D9D6DF"></path>
                        <path d="M145.225725,152.11109 C146.115777,153.33021 147.209538,155.053902 147.554276,156.577018 C148.920693,154.994356 149.215288,153.207985 147.240877,151.782021 C144.768163,149.983114 143.943925,146.861665 143.75902,144.091223 C143.606245,144.609117 143.501339,145.139943 143.445622,145.677019 C143.211698,147.969007 143.847002,150.265271 145.225725,152.11109 Z" id="Path" fill="#FFFFFF" opacity="0.1"></path>
                        <path d="M18.6033342,160.544643 L24.5579055,180.758846 L38.0340404,193.921582 L54.9575588,197.368965 L81.2830317,192.667988 L81.2830317,99.1185396 C81.2830317,99.1185396 76.7387536,96.141254 76.2686559,96.141254 C75.7985582,96.141254 63.1059194,98.1783442 63.1059194,98.1783442 L34.3672781,118.790563 L33.1763639,119.646141 L20.3270259,138.763448 L18.6033342,160.544643 Z" id="Path" fill="#65617D"></path>
                        <polygon id="Path" fill="#65617D" points="81.2830317 95.2135945 81.2830317 192.680524 78.744504 193.134952 78.744504 95.2135945"></polygon>
                        <polygon id="Path" fill="#000000" opacity="0.1" points="199.120863 84.7147452 155.871872 85.6549406 155.871872 137.425237 196.927074 165.258156 206.799126 156.1696 204.762036 126.083345 206.799126 98.0341809"></polygon>
                        <polygon id="Path" fill="#000000" opacity="0.1" points="81.2830317 95.2135945 81.2830317 192.680524 78.744504 193.134952 78.744504 95.2135945"></polygon>
                        <path d="M33.8031609,125.299849 C52.6070701,109.849304 73.5107492,107.577165 81.2830317,107.295106 L81.2830317,99.1185396 C81.2830317,99.1185396 76.7387536,96.141254 76.2686559,96.141254 C75.7985582,96.141254 63.1059194,98.1783442 63.1059194,98.1783442 L34.3672781,118.790563 L33.8031609,125.299849 Z" id="Path" fill="#000000" opacity="0.1"></path>
                        <path d="M242.839952,116.982253 C242.839952,116.982253 240.900015,122.109453 238.819049,128.079694 C236.976266,133.38553 235.02066,139.362039 234.221494,142.994328 C233.908095,144.382683 233.121465,145.814914 232.0089,147.215806 C226.934979,153.656144 215.242081,159.895908 213.223795,162.111636 C210.763617,164.813131 196.927074,166.759335 196.927074,166.759335 L196.927074,83.6178504 L206.172329,80.6405648 L217.924772,80.6405648 L233.124599,87.5353315 L240.959561,99.1310756 L242.839952,116.982253 Z" id="Path" fill="#65617D"></path>
                        <path d="M81.5744923,68.3490761 C82.1824854,69.0886966 100.647924,69.2610657 101.60379,69.0448208 L103.340017,68.6530727 C103.340017,68.6530727 112.25307,73.4512035 118.383145,65.6005714 C118.646399,65.265235 118.903386,64.9079607 119.154105,64.5256146 C125.281045,55.1863397 104.86,62.0184267 104.86,62.0184267 C104.86,62.0184267 97.0407077,62.0623025 95.0412253,62.0623025 L94.8343823,62.0623025 C92.7565503,61.9776849 88.6134223,60.717823 88.6134223,60.717823 C88.6134223,60.717823 80.9696332,67.6125897 81.5744923,68.3490761 Z" id="Path" fill="#FBBEBE"></path>
                        <path d="M108.526762,65.5347577 C108.526762,65.5347577 116.346054,65.5786335 118.345537,65.6005714 L118.392547,65.6005714 C118.655801,65.265235 118.912788,64.9079607 119.163507,64.5256146 C125.290447,55.1863397 104.869402,62.0184267 104.869402,62.0184267 C104.869402,62.0184267 97.0501096,62.0623025 95.0506273,62.0623025 L94.8437843,62.0623025 C94.6463432,62.3192892 94.4520362,62.5888119 94.2608631,62.8740046 C88.0273672,72.1317959 108.526762,65.5347577 108.526762,65.5347577 Z" id="Path" fill="#000000" opacity="0.1"></path>
                        <path d="M124.754536,66.3934696 C124.754536,66.3934696 120.338751,64.9957123 118.339269,64.9737744 C116.339787,64.9518365 108.520494,64.9110947 108.520494,64.9110947 C108.520494,64.9110947 88.0273672,71.492463 94.2545951,62.2315377 C100.481823,52.9706124 110.115693,58.2795827 110.115693,58.2795827 L111.855054,57.9066385 C112.814054,57.6997955 131.28576,58.0790077 131.87495,58.8248961 C132.464139,59.5707845 124.754536,66.3934696 124.754536,66.3934696 Z" id="Path" fill="#FBBEBE"></path>
                        <path d="M133.91204,61.1565808 C133.91204,61.1565808 133.78668,67.1832338 129.609078,67.5279721 C120.833921,68.2456546 123.065318,64.854683 123.065318,64.854683 L123.823742,58.1040796 L127.957468,54.3621016 C127.957468,54.3621016 129.772046,55.1957416 130.007095,55.0547123 C130.242143,54.913683 133.91204,61.1565808 133.91204,61.1565808 Z" id="Path" fill="#1FBF53"></path>
                        <path d="M74.6076439,68.781566 C74.8646307,68.8223079 75.1936991,68.8630497 75.5729113,68.8975235 C78.3558898,69.1513763 83.8184255,69.210922 83.8184255,69.210922 C83.8184255,69.210922 87.8926058,61.128375 91.377597,61.3759598 C91.377597,61.3759598 88.1652625,57.7280014 86.8615248,58.1636253 C86.6421458,58.2357069 86.5073845,58.0758737 86.4384368,57.7624752 C86.0936985,56.1954828 87.2940147,50.8677085 87.2940147,50.8677085 L88.9456247,43.6595433 L79.3807029,46.0162999 C78.5125891,46.1918031 75.8204961,47.5832924 75.8204961,47.5832924 C75.8204961,47.5832924 75.7327445,51.3190023 75.0369999,52.1902501 C74.3412552,53.0614979 73.560893,57.2296978 73.6455106,58.2701808 C73.7301282,59.3106638 72.6896452,64.1808763 73.7332621,65.478346 C74.7768791,66.7758157 72.4357924,68.4336937 74.6076439,68.781566 Z" id="Path" fill="#1FBF53"></path>
                        <path d="M84.4264185,49.8397615 C84.4264185,49.8397615 76.4347571,50.7078753 76.0868848,52.7073576 C75.7390125,54.70684 84.4264185,49.8397615 84.4264185,49.8397615 Z" id="Path" fill="#000000" opacity="0.1"></path>
                        <path d="M79.6470916,57.6590537 C79.1268501,57.8345569 76.0868848,58.6149191 75.4788917,60.4420323 C74.8708987,62.2691455 79.6470916,57.6590537 79.6470916,57.6590537 Z" id="Path" fill="#000000" opacity="0.1"></path>
                        <path d="M75.9333195,69.2203239 C78.7162981,69.4741767 84.1788337,69.5337224 84.1788337,69.5337224 C84.1788337,69.5337224 88.2530141,61.4511754 91.7380053,61.6987602 C91.7380053,61.6987602 88.5225368,58.0508018 87.2219331,58.4864257 C87.0025541,58.5585074 86.8646588,58.3986742 86.7988451,58.0852757 C83.3953375,59.1257586 76.9079888,61.6674204 76.2717899,66.1302148 C76.0900188,67.346201 75.9803293,68.3616121 75.9333195,69.2203239 Z" id="Path" fill="#000000" opacity="0.1"></path>
                        <polygon id="Path" fill="#000000" opacity="0.1" points="168.649128 65.6381792 177.211175 66.0738031 163.098841 70.5177937 155.871872 70.1009737"></polygon>
                        <polygon id="Path" fill="#FFFFFF" points="168.645994 65.265235 177.208041 65.7039929 163.092573 70.1479835 155.865604 69.7280295"></polygon>
                        <path d="M167.636851,66.2367703 C167.972187,66.089473 168.33573,66.3558618 168.696138,66.4185415 C168.902981,66.4561493 169.116092,66.4185415 169.322935,66.4498813 C169.742889,66.5000251 170.162843,66.7632798 170.576529,66.6285184 L167.636851,66.2367703 Z" id="Path" fill="#D3DAE1"></path>
                        <path d="M167.198093,66.5000251 C167.533429,66.3527278 167.896972,66.6191165 168.25738,66.6817962 C168.464223,66.719404 168.677334,66.6817962 168.884177,66.713136 C169.304131,66.7632798 169.724085,67.0265345 170.122101,66.8886392 L167.198093,66.5000251 Z" id="Path" fill="#D3DAE1"></path>
                        <path d="M166.192084,67.0265345 C166.52742,66.8792372 166.890963,67.1456259 167.254505,67.2083056 C167.458214,67.2459135 167.671325,67.2083056 167.881302,67.2396455 C168.301256,67.2897892 168.72121,67.553044 169.134896,67.4151486 L166.192084,67.0265345 Z" id="Path" fill="#D3DAE1"></path>
                        <path d="M187.841651,63.9614973 C187.841651,63.9614973 186.769829,68.9508012 191.53662,69.5399904 L191.831214,68.988409 C191.831214,68.988409 188.129978,65.5128198 187.841651,63.9614973 Z" id="Path" fill="#1FBF53"></path>
                        <path d="M193.348063,68.9508012 L192.238632,69.1858501 L192.128943,69.207788 C192.128943,69.207788 189.170461,66.8071556 189.208069,61.4480414 C189.603423,62.2382083 190.076929,62.9867884 190.621496,63.6825727 C191.793606,65.2338952 193.12555,67.3054592 193.348063,68.9508012 Z" id="Path" fill="#1FBF53"></path>
                        <path d="M193.721007,69.4647748 C193.544097,69.578572 193.3252,69.6062221 193.12555,69.5399904 C190.279892,68.8755856 191.245159,59.6021243 191.245159,59.6021243 C191.401858,59.67734 191.574227,60.8557183 192.22923,62.3788349 C193.373135,65.055258 194.636131,68.790968 193.721007,69.4647748 Z" id="Path" fill="#1FBF53"></path>
                        <path d="M200.039121,63.9614973 C200.039121,63.9614973 200.224026,68.9508012 195.457235,69.5399904 L195.16264,68.988409 C195.16264,68.988409 199.725722,65.5128198 200.039121,63.9614973 Z" id="Path" fill="#1FBF53"></path>
                        <path d="M198.666435,61.4480414 C198.704043,66.8071556 194.861778,69.207788 194.861778,69.207788 L194.748954,69.1858501 L193.642657,68.9508012 C193.862036,67.3054592 195.20965,65.2338952 196.36609,63.6825727 C197.029946,62.8386163 197.80357,62.087126 198.666435,61.4480414 Z" id="Path" fill="#1FBF53"></path>
                        <path d="M194.733284,68.9790071 C194.563087,69.185538 194.348952,69.3514923 194.106487,69.4647748 L194.106487,69.4647748 C194.030907,69.4977939 193.952147,69.5229969 193.871438,69.5399904 C193.17256,69.7060916 192.931243,69.198386 192.968851,68.3428082 C193.034664,66.8134235 193.993664,64.1652063 194.849242,62.1845279 C195.260686,61.2099912 195.868827,60.3308542 196.635613,59.6021243 C196.635613,59.6021243 196.591737,66.8384954 194.733284,68.9790071 Z" id="Path" fill="#1FBF53"></path>
                        <path d="M193.937252,56.349048 C193.937252,56.349048 190.759391,67.6313936 193.49536,69.3206114 C196.231329,71.0098293 194.639265,57.3487892 193.937252,56.349048 Z" id="Path" fill="#1FBF53"></path>
                        <path d="M187.841651,63.9614973 C187.841651,63.9614973 186.769829,68.9508012 191.53662,69.5399904 L191.831214,68.988409 C191.831214,68.988409 188.129978,65.5128198 187.841651,63.9614973 Z" id="Path" fill="#000000" opacity="0.1"></path>
                        <path d="M193.348063,68.9508012 L192.238632,69.1858501 L192.128943,69.207788 C192.128943,69.207788 189.170461,66.8071556 189.208069,61.4480414 C189.603423,62.2382083 190.076929,62.9867884 190.621496,63.6825727 C191.793606,65.2338952 193.12555,67.3054592 193.348063,68.9508012 Z" id="Path" fill="#000000" opacity="0.1"></path>
                        <path d="M193.721007,69.4647748 C193.544097,69.578572 193.3252,69.6062221 193.12555,69.5399904 C190.279892,68.8755856 191.245159,59.6021243 191.245159,59.6021243 C191.401858,59.67734 191.574227,60.8557183 192.22923,62.3788349 C193.373135,65.055258 194.636131,68.790968 193.721007,69.4647748 Z" id="Path" fill="#000000" opacity="0.1"></path>
                        <path d="M200.039121,63.9614973 C200.039121,63.9614973 200.224026,68.9508012 195.457235,69.5399904 L195.16264,68.988409 C195.16264,68.988409 199.725722,65.5128198 200.039121,63.9614973 Z" id="Path" fill="#000000" opacity="0.1"></path>
                        <path d="M198.666435,61.4480414 C198.704043,66.8071556 194.861778,69.207788 194.861778,69.207788 L194.748954,69.1858501 L193.642657,68.9508012 C193.862036,67.3054592 195.20965,65.2338952 196.36609,63.6825727 C197.029946,62.8386163 197.80357,62.087126 198.666435,61.4480414 Z" id="Path" fill="#000000" opacity="0.1"></path>
                        <path d="M194.733284,68.9790071 C194.563087,69.185538 194.348952,69.3514923 194.106487,69.4647748 L194.106487,69.4647748 C194.030907,69.4977939 193.952147,69.5229969 193.871438,69.5399904 C193.17256,69.7060916 192.931243,69.198386 192.968851,68.3428082 C193.034664,66.8134235 193.993664,64.1652063 194.849242,62.1845279 C195.260686,61.2099912 195.868827,60.3308542 196.635613,59.6021243 C196.635613,59.6021243 196.591737,66.8384954 194.733284,68.9790071 Z" id="Path" fill="#000000" opacity="0.1"></path>
                        <path d="M193.937252,56.349048 C193.937252,56.349048 190.759391,67.6313936 193.49536,69.3206114 C196.231329,71.0098293 194.639265,57.3487892 193.937252,56.349048 Z" id="Path" fill="#000000" opacity="0.1"></path>
                        <path d="M187.841651,63.9614973 C187.841651,63.9614973 187.214854,68.9508012 191.978511,69.5399904 L192.273106,68.988409 C192.273106,68.988409 188.129978,65.5128198 187.841651,63.9614973 Z" id="Path" fill="#1FBF53"></path>
                        <path d="M193.789955,68.9508012 L192.680524,69.1858501 L192.570835,69.207788 C192.570835,69.207788 189.170461,66.8071556 189.208069,61.4480414 C189.208069,61.4480414 190.079317,62.3882369 191.063388,63.6825727 C192.235498,65.2338952 193.567442,67.3054592 193.789955,68.9508012 Z" id="Path" fill="#1FBF53"></path>
                        <path d="M193.789955,68.9508012 L192.680524,69.1858501 C191.630639,68.2613246 191.213819,65.8544242 191.063388,63.6825727 C192.235498,65.2338952 193.567442,67.3054592 193.789955,68.9508012 Z" id="Path" fill="#000000" opacity="0.1"></path>
                        <path d="M194.166033,69.4647748 C193.987843,69.5782456 193.768166,69.605849 193.567442,69.5399904 C190.721784,68.8755856 191.242025,59.6021243 191.242025,59.6021243 C191.398724,59.67734 192.016119,60.8557183 192.667988,62.3788349 C193.818161,65.055258 195.078023,68.790968 194.166033,69.4647748 Z" id="Path" fill="#1FBF53"></path>
                        <path d="M200.039121,63.9614973 C200.039121,63.9614973 200.665918,68.9508012 195.902261,69.5399904 L195.607666,68.988409 C195.607666,68.988409 199.725722,65.5128198 200.039121,63.9614973 Z" id="Path" fill="#1FBF53"></path>
                        <path d="M198.666435,61.4480414 C198.704043,66.8071556 195.303669,69.207788 195.303669,69.207788 L195.19398,69.1858501 L194.084549,68.9508012 C194.303928,67.3054592 195.651542,65.2338952 196.811116,63.6825727 C197.795187,62.3819689 198.666435,61.4480414 198.666435,61.4480414 Z" id="Path" fill="#1FBF53"></path>
                        <path d="M196.811116,63.6825727 C196.666953,65.7071269 196.297143,67.9353901 195.397689,68.9790071 C195.334588,69.0525249 195.266526,69.1216343 195.19398,69.1858501 L194.084549,68.9508012 C194.303928,67.3054592 195.651542,65.2338952 196.811116,63.6825727 Z" id="Path" fill="#000000" opacity="0.1"></path>
                        <path d="M195.175176,68.9790071 C195.005885,69.1864702 194.791521,69.3526031 194.548379,69.4647748 L194.548379,69.4647748 C194.473702,69.4973223 194.396029,69.5225133 194.316464,69.5399904 C193.614452,69.7060916 193.376269,69.198386 193.410743,68.3428082 C193.47969,66.8134235 194.43869,64.1652063 195.291133,62.1845279 C195.91793,60.7554308 196.485182,59.67734 196.635613,59.6021243 C196.635613,59.6021243 197.036763,66.8384954 195.175176,68.9790071 Z" id="Path" fill="#1FBF53"></path>
                        <path d="M194.166033,69.4647748 C194.004488,69.4634391 193.847141,69.4131755 193.714739,69.3206114 C192.376528,68.4869715 192.348322,65.3561206 192.667988,62.3788349 C193.818161,65.055258 195.078023,68.790968 194.166033,69.4647748 Z" id="Path" fill="#000000" opacity="0.1"></path>
                        <path d="M195.175176,68.9790071 C195.021611,69.3112095 194.814768,69.4867126 194.548379,69.4647748 L194.548379,69.4647748 C194.41299,69.4448893 194.283574,69.3956897 194.169167,69.3206114 C193.821797,69.0804504 193.556952,68.738997 193.410743,68.3428082 C193.47969,66.8134235 194.43869,64.1652063 195.291133,62.1845279 C195.598264,64.9330326 195.701686,67.8507725 195.175176,68.9790071 Z" id="Path" fill="#000000" opacity="0.1"></path>
                        <path d="M193.937252,56.349048 C193.937252,56.349048 191.204417,67.6313936 193.937252,69.3206114 C196.670087,71.0098293 194.639265,57.3487892 193.937252,56.349048 Z" id="Path" fill="#1FBF53"></path>
                        <polygon id="Path" fill="#65617D" points="198.224543 69.8753268 198.03337 70.871934 197.337626 74.5292943 190.721784 74.5292943 190.026039 70.871934 189.834866 69.8753268"></polygon>
                        <polygon id="Path" fill="#000000" opacity="0.1" points="198.224543 69.8753268 198.03337 70.871934 190.026039 70.871934 189.834866 69.8753268"></polygon>
                        <rect id="Rectangle" fill="#65617D" x="188.245935" y="68.7658961" width="11.3794991" height="1.88352491"></rect>
                        <path d="M218.864968,84.7022092 C218.864968,84.7022092 241.354443,98.8051411 236.434087,121.495192 C236.032937,123.347377 235.685065,125.20583 235.456284,127.083087 C234.55683,134.435415 229.160108,155.530267 196.927074,165.24562 L196.927074,167.43941 L210.60065,163.62535 L219.883513,158.507553 L226.969453,152.148698 L235.631787,141.584035 L239.652689,132.965576 L241.125662,121.614283 L241.962436,108.652122 L239.890872,97.5515472 L235.00499,90.3214441 L229.050419,85.6894144 L218.864968,84.7022092 Z" id="Path" fill="#D9D6DF"></path>
                        <path d="M11.602012,145.235127 C9.47717026,156.517473 11.1256463,168.254246 16.6727995,178.317471 C32.8472955,207.657838 67.2208416,199.023709 77.3624166,195.695418 C79.775585,194.902519 82.2200932,194.216177 84.6959412,193.655193 L196.403698,168.338864 C234.848291,161.654074 242.786674,130.521068 242.786674,130.521068 C250.399124,106.508476 245.181039,92.5183675 238.29254,84.5893858 C232.764753,78.3002295 224.647883,74.9082773 216.288832,75.3942741 L203.038344,76.0962867 L85.2537905,88.9456247 C30.1928103,89.5348139 15.4850193,124.582167 11.602012,145.235127 Z M22.5114134,146.648554 C26.2251854,128.891396 40.7919471,103.136308 87.641887,101.547378 C89.7918006,101.472162 91.9385803,101.284123 94.072824,100.998931 L199.412324,86.9273385 L211.609793,86.3005415 C220.773565,85.8398457 229.61767,90.1051991 234.697859,97.7427203 C239.549268,105.041771 242.172413,116.54663 236.170832,134.432281 C236.170832,134.432281 228.827906,161.610198 193.275981,167.448812 L90.0957972,189.543405 C87.7484425,190.044843 85.4292937,190.659104 83.1383508,191.367384 C73.7802719,194.256918 42.6629361,201.584175 27.547727,176.976126 C21.9911719,167.928312 20.3364279,157.040848 22.5114134,146.648554 Z" id="Shape" fill="#E1DEE5" fill-rule="nonzero"></path>
                    </g>
                </g>
            </g>
        </g>
    </g>
</svg>