<?xml version="1.0" encoding="UTF-8"?>
<svg width="20px" height="19px" viewBox="0 0 20 19" version="1.1" xmlns="http://www.w3.org/2000/svg" xmlns:xlink="http://www.w3.org/1999/xlink">
    <!-- Generator: Sketch 59.1 (86144) - https://sketch.com -->
    <title>linkedin-fill (1)</title>
    <desc>Created with Sketch.</desc>
    <g id="Page-1" stroke="none" stroke-width="1" fill="none" fill-rule="evenodd">
        <g id="Homepage" transform="translate(-1031.851562, -3081.410156)">
            <g id="footer" transform="translate(129.851562, 3019.410156)">
                <g id="follow" transform="translate(888.000000, 0.000000)">
                    <g id="linkedin" transform="translate(3.000000, 51.171875)">
                        <g id="linkedin-fill-(1)" transform="translate(9.000000, 8.234375)">
                            <polygon id="Path" points="0 0 24 0 24 24 0 24"></polygon>
                            <path d="M6.93999974,5 C6.93944772,6.1045695 6.0435695,6.99955228 4.939,6.99899974 C3.8344305,6.99844772 2.93944772,6.1025695 2.93999974,4.998 C2.94055228,3.8934305 3.8364305,2.99844772 4.941,2.99899974 C6.0455695,2.99955228 6.94055228,3.8954305 6.93999974,5 L6.93999974,5 Z M7,8.48 L3,8.48 L3,21 L7,21 L7,8.48 Z M13.32,8.48 L9.34,8.48 L9.34,21 L13.28,21 L13.28,14.43 C13.28,10.77 18.05,10.43 18.05,14.43 L18.05,21 L22,21 L22,13.07 C22,6.9 14.94,7.13 13.28,10.16 L13.32,8.48 Z" id="Shape" fill="#FFFFFF" fill-rule="nonzero"></path>
                        </g>
                    </g>
                </g>
            </g>
        </g>
    </g>
</svg>