<?xml version="1.0" encoding="UTF-8"?>
<svg width="506px" height="306px" viewBox="0 0 506 306" version="1.1" xmlns="http://www.w3.org/2000/svg" xmlns:xlink="http://www.w3.org/1999/xlink">
    <!-- Generator: Sketch 59.1 (86144) - https://sketch.com -->
    <title>undraw_hire_te5y</title>
    <desc>Created with Sketch.</desc>
    <g id="Page-1" stroke="none" stroke-width="1" fill="none" fill-rule="evenodd">
        <g id="Homepage" transform="translate(-155.851562, -2140.410156)">
            <g id="undraw_hire_te5y" transform="translate(155.000000, 2140.000000)">
                <ellipse id="Oval" fill="#3F3D56" cx="322.851562" cy="289.910156" rx="184" ry="16.5"></ellipse>
                <rect id="Rectangle" fill="#3F3D56" opacity="0.3" transform="translate(332.851562, 67.910156) rotate(-180.000000) translate(-332.851562, -67.910156) " x="232.851562" y="0.41015625" width="200" height="135"></rect>
                <rect id="Rectangle" fill="#F2F2F2" x="360.851562" y="12.4101562" width="59" height="64"></rect>
                <rect id="Rectangle" fill="#F2F2F2" transform="translate(295.351562, 14.410156) rotate(-180.000000) translate(-295.351562, -14.410156) " x="266.851562" y="12.4101562" width="57" height="4"></rect>
                <rect id="Rectangle" fill="#F2F2F2" transform="translate(370.851562, 88.410156) rotate(-180.000000) translate(-370.851562, -88.410156) " x="360.851562" y="86.4101562" width="20" height="4"></rect>
                <rect id="Rectangle" fill="#F2F2F2" transform="translate(389.851562, 95.410156) rotate(-180.000000) translate(-389.851562, -95.410156) " x="360.851562" y="93.4101562" width="58" height="4"></rect>
                <rect id="Rectangle" fill="#F2F2F2" transform="translate(296.851562, 28.410156) rotate(-180.000000) translate(-296.851562, -28.410156) " x="255.851562" y="26.4101562" width="82" height="4"></rect>
                <rect id="Rectangle" fill="#F2F2F2" transform="translate(296.851562, 39.410156) rotate(-180.000000) translate(-296.851562, -39.410156) " x="255.851562" y="37.4101562" width="82" height="4"></rect>
                <rect id="Rectangle" fill="#F2F2F2" transform="translate(296.851562, 50.410156) rotate(-180.000000) translate(-296.851562, -50.410156) " x="255.851562" y="48.4101562" width="82" height="4"></rect>
                <rect id="Rectangle" fill="#F2F2F2" transform="translate(296.851562, 61.410156) rotate(-180.000000) translate(-296.851562, -61.410156) " x="255.851562" y="59.4101562" width="82" height="4"></rect>
                <rect id="Rectangle" fill="#F2F2F2" transform="translate(296.851562, 72.410156) rotate(-180.000000) translate(-296.851562, -72.410156) " x="255.851562" y="70.4101562" width="82" height="4"></rect>
                <rect id="Rectangle" fill="#F2F2F2" transform="translate(296.851562, 83.410156) rotate(-180.000000) translate(-296.851562, -83.410156) " x="255.851562" y="81.4101562" width="82" height="4"></rect>
                <rect id="Rectangle" fill="#F2F2F2" transform="translate(296.851562, 94.410156) rotate(-180.000000) translate(-296.851562, -94.410156) " x="255.851562" y="92.4101562" width="82" height="4"></rect>
                <rect id="Rectangle" fill="#3F3D56" opacity="0.3" x="0.8515625" y="1.41015625" width="200" height="135"></rect>
                <rect id="Rectangle" fill="#F2F2F2" x="13.8515625" y="14.4101562" width="59" height="64"></rect>
                <rect id="Rectangle" fill="#F2F2F2" x="109.851562" y="13.4101562" width="57" height="4"></rect>
                <rect id="Rectangle" fill="#F2F2F2" x="14.8515625" y="88.4101562" width="20" height="4"></rect>
                <rect id="Rectangle" fill="#F2F2F2" x="13.8515625" y="95.4101562" width="58" height="4"></rect>
                <rect id="Rectangle" fill="#F2F2F2" x="95.8515625" y="27.4101562" width="82" height="4"></rect>
                <rect id="Rectangle" fill="#F2F2F2" x="95.8515625" y="38.4101562" width="82" height="4"></rect>
                <rect id="Rectangle" fill="#F2F2F2" x="95.8515625" y="49.4101562" width="82" height="4"></rect>
                <rect id="Rectangle" fill="#F2F2F2" x="95.8515625" y="60.4101562" width="82" height="4"></rect>
                <rect id="Rectangle" fill="#F2F2F2" x="95.8515625" y="71.4101562" width="82" height="4"></rect>
                <rect id="Rectangle" fill="#F2F2F2" x="95.8515625" y="82.4101562" width="82" height="4"></rect>
                <rect id="Rectangle" fill="#F2F2F2" x="95.8515625" y="93.4101562" width="82" height="4"></rect>
                <rect id="Rectangle" fill="#3F3D56" x="128.851562" y="51.4101562" width="200" height="135"></rect>
                <ellipse id="Oval" fill="#000000" opacity="0.1" cx="299.351562" cy="174.910156" rx="23.5" ry="2.5"></ellipse>
                <rect id="Rectangle" fill="#F2F2F2" x="141.851562" y="63.4101562" width="59" height="64"></rect>
                <rect id="Rectangle" fill="#6C63FF" x="237.851562" y="63.4101562" width="57" height="4"></rect>
                <rect id="Rectangle" fill="#6C63FF" x="142.851562" y="137.410156" width="20" height="4"></rect>
                <rect id="Rectangle" fill="#6C63FF" x="142.851562" y="145.410156" width="58" height="4"></rect>
                <rect id="Rectangle" fill="#F2F2F2" x="223.851562" y="77.4101562" width="82" height="4"></rect>
                <rect id="Rectangle" fill="#F2F2F2" x="223.851562" y="88.4101562" width="82" height="4"></rect>
                <rect id="Rectangle" fill="#F2F2F2" x="223.851562" y="99.4101562" width="82" height="4"></rect>
                <rect id="Rectangle" fill="#F2F2F2" x="223.851562" y="110.410156" width="82" height="4"></rect>
                <rect id="Rectangle" fill="#F2F2F2" x="223.851562" y="121.410156" width="82" height="4"></rect>
                <rect id="Rectangle" fill="#F2F2F2" x="223.851562" y="132.410156" width="82" height="4"></rect>
                <rect id="Rectangle" fill="#F2F2F2" x="223.851562" y="143.410156" width="82" height="4"></rect>
                <path d="M322.133273,143.511055 L299.860625,166.225508 L290.499328,156.678441 C289.899205,156.066408 289.08526,155.722569 288.236553,155.722564 C287.387846,155.72256 286.573898,156.06639 285.973768,156.678417 L285.637471,156.165439 C284.387754,157.439943 284.724052,160.019269 285.973759,161.293759 L298.119935,173.680823 C299.073121,174.65291 300.618413,174.653319 301.572094,173.681737 L326.656529,148.12643 C327.907039,146.852443 328.360666,144.516291 327.11079,143.241682 L327.11079,143.241682 C325.861397,141.967541 323.382647,142.236895 322.133273,143.511055 Z" id="Path" fill="#57B894"></path>
                <path d="M322.133273,143.511055 L299.860625,166.225508 L290.499328,156.678441 C289.899205,156.066408 289.08526,155.722569 288.236553,155.722564 C287.387846,155.72256 286.573898,156.06639 285.973768,156.678417 L285.637471,156.165439 C284.387754,157.439943 284.724052,160.019269 285.973759,161.293759 L298.119935,173.680823 C299.073121,174.65291 300.618413,174.653319 301.572094,173.681737 L326.656529,148.12643 C327.907039,146.852443 328.360666,144.516291 327.11079,143.241682 L327.11079,143.241682 C325.861397,141.967541 323.382647,142.236895 322.133273,143.511055 Z" id="Path" fill="#000000" opacity="0.1"></path>
                <path d="M322.33339,143.340128 L299.829565,165.445093 L290.371103,156.154215 C289.764748,155.558607 288.942353,155.223998 288.084837,155.223998 C287.22732,155.223998 286.404926,155.558607 285.79857,156.154215 L285.79857,156.154215 C285.192212,156.749823 284.851562,157.557643 284.851562,158.399962 C284.851562,159.242281 285.192212,160.050101 285.79857,160.64571 L298.070817,172.700389 C299.033894,173.646396 300.595228,173.646796 301.558808,172.701283 L326.903605,147.831697 C327.510337,147.236341 327.851562,146.428553 327.851562,145.586154 C327.851562,144.743754 327.51119,143.935796 326.904766,143.340137 L326.904766,143.340137 C325.642415,142.100166 323.595746,142.100162 322.33339,143.340128 Z" id="Path" fill="#57B894"></path>
                <path d="M487.851562,272.95087 C487.851562,298.035813 452.442885,290.27681 409.088538,290.27681 C365.734191,290.27681 330.851562,298.035813 330.851562,272.95087 C330.851562,247.865926 366.255395,242.410156 409.609742,242.410156 C452.964089,242.410156 487.851562,247.865922 487.851562,272.95087 Z" id="Path" fill="#000000" opacity="0.1"></path>
                <path d="M487.851562,267.95087 C487.851562,293.035813 452.442885,285.27681 409.088538,285.27681 C365.734191,285.27681 330.851562,293.035813 330.851562,267.95087 C330.851562,242.865926 366.255395,237.410156 409.609742,237.410156 C452.964089,237.410156 487.851562,242.865922 487.851562,267.95087 Z" id="Path" fill="#3F3D56"></path>
                <path d="M339.753532,189.410156 L338.184069,191.358205 C338.184069,191.358205 319.100001,193.273624 319.874515,196.585143 C320.64903,199.896662 342.851562,192.169766 342.851562,192.169766 L339.753532,189.410156 Z" id="Path" fill="#FFC1C7"></path>
                <path d="M374.815141,187.410156 C374.815141,187.410156 354.117416,194.910156 342.851562,191.69587 L348.091493,202.410156 C348.091493,202.410156 374.815141,201.606582 379.531095,196.785157 C384.24705,191.963733 374.815141,187.410156 374.815141,187.410156 Z" id="Path" fill="#1FBF53"></path>
                <path d="M374.815141,187.410156 C374.815141,187.410156 354.117416,194.910156 342.851562,191.69587 L348.091493,202.410156 C348.091493,202.410156 374.815141,201.606582 379.531095,196.785157 C384.24705,191.963733 374.815141,187.410156 374.815141,187.410156 Z" id="Path" fill="#1FBF53" opacity="0.1"></path>
                <circle id="Oval" fill="#FFC1C7" cx="360.851562" cy="117.410156" r="14"></circle>
                <path d="M372.344633,130.611928 C372.823485,131.503787 373.430291,132.324435 374.146712,133.049071 C376.051983,135.071498 378.325435,136.731332 380.851562,137.944242 C372.956717,139.509685 364.982533,140.666606 356.962426,141.410156 C357.809275,138.500781 356.694581,135.388929 355.196612,132.741073 C353.698643,130.093217 351.789091,127.62529 350.851562,124.742499 L360.253229,124.989068 C361.959061,125.033802 363.670438,125.08367 365.375963,125.002186 C366.650695,124.941287 368.774367,124.1962 369.964191,124.470629 C372.479641,125.050792 371.246544,128.435157 372.344633,130.611928 Z" id="Path" fill="#FFC1C7"></path>
                <path d="M404.946005,196.346604 L412.839691,205.79407 C412.839691,205.79407 425.995838,236.498331 397.315457,239.647487 C368.635075,242.796644 347.322123,237.285622 347.322123,237.285622 C347.322123,237.285622 335.744694,231.7746 335.481594,235.97347 C335.218494,240.172339 334.16598,251.981679 327.851027,263.528579 L322.325446,276.125201 C322.325446,276.125201 319.431094,279.011927 320.220465,282.94837 C321.009837,286.884814 302.591232,288.196961 302.854355,282.94837 C302.854355,282.94837 305.485584,278.487066 305.485584,275.86277 C305.485584,273.238474 309.695551,266.940166 309.695551,266.940166 L317.326113,229.1503 C317.326113,229.1503 316.799865,209.730513 334.692223,213.404526 C352.58458,217.078539 378.107504,212.617239 378.107504,212.617239 L383.896204,192.410156 L404.946005,196.346604 Z" id="Path" fill="#2F2E41"></path>
                <path d="M404.946005,196.346604 L412.839691,205.79407 C412.839691,205.79407 425.995838,236.498331 397.315457,239.647487 C368.635075,242.796644 347.322123,237.285622 347.322123,237.285622 C347.322123,237.285622 335.744694,231.7746 335.481594,235.97347 C335.218494,240.172339 334.16598,251.981679 327.851027,263.528579 L322.325446,276.125201 C322.325446,276.125201 319.431094,279.011927 320.220465,282.94837 C321.009837,286.884814 302.591232,288.196961 302.854355,282.94837 C302.854355,282.94837 305.485584,278.487066 305.485584,275.86277 C305.485584,273.238474 309.695551,266.940166 309.695551,266.940166 L317.326113,229.1503 C317.326113,229.1503 316.799865,209.730513 334.692223,213.404526 C352.58458,217.078539 378.107504,212.617239 378.107504,212.617239 L383.896204,192.410156 L404.946005,196.346604 Z" id="Path" fill="#000000" opacity="0.1"></path>
                <path d="M374.882763,195.528088 C374.882763,195.528088 399.018082,186.522166 412.470555,205.652407 C412.470555,205.652407 415.899619,235.264971 402.183372,236.575261 C388.467124,237.885552 370.530477,237.623493 366.310107,233.168504 C362.089737,228.713515 335.448547,216.13473 335.448547,216.13473 C335.448547,216.13473 322.187024,209.414393 319.585699,218.14675 C316.984375,226.879106 316.720581,228.975574 316.720581,228.975574 C316.720581,228.975574 303.004333,238.933778 297.465079,240.768191 C297.465079,240.768191 293.772245,246.009353 291.66205,246.009353 C289.551855,246.009353 276.626937,248.891992 277.945802,239.195842 L299.311499,219.803542 L320.67719,199.100951 C320.67719,199.100951 326.743994,190.190978 342.306676,194.908021 C352.635023,197.961832 363.11126,200.498257 373.695781,202.507709 L374.882763,195.528088 Z" id="Path" fill="#2F2E41"></path>
                <path d="M319.375655,282.192086 C319.375655,282.192086 324.375478,294.938844 320.165103,296.53219 C315.954729,298.125535 307.007667,297.063307 307.007667,297.063307 C307.007667,297.063307 296.481721,295.735519 293.850235,296.001073 C291.218749,296.266627 280.429654,294.142174 282.008546,289.893255 C283.587439,285.644335 291.745048,286.706564 291.745048,286.706564 L299.113208,283.254319 C299.113208,283.254319 299.902656,280.598745 301.744694,281.66095 C303.586732,282.723155 308.849709,286.706564 319.375655,282.192086 Z" id="Path" fill="#CBCEDA"></path>
                <path d="M291.176099,245.1427 C291.176099,245.1427 296.662196,257.389495 287.779946,256.347211 C278.897695,255.304927 272.10538,253.480944 269.492953,253.220373 C266.980028,252.969716 259.874381,250.549183 260.964374,245.726829 C261.023022,245.41492 261.046784,245.097481 261.035223,244.780343 C261.035223,244.132987 261.916902,242.862699 268.97047,243.058136 C268.97047,243.058136 274.195324,243.058136 276.285264,239.410156 C276.285264,239.410156 284.122549,249.311822 291.176099,245.1427 Z" id="Path" fill="#CBCEDA"></path>
                <path d="M351.851562,139.669417 C351.851562,139.669417 370.782597,127.836081 386.558457,139.669417 C402.334318,151.502753 412.851562,205.410156 412.851562,205.410156 L376.304135,197.258305 C376.304135,197.258305 374.726524,190.947191 372.623102,189.89534 C370.519679,188.843489 370.256719,184.373118 370.256719,184.373118 C370.256719,184.373118 358.950687,180.954597 359.739478,167.806432 C360.52827,154.658267 351.851562,139.669417 351.851562,139.669417 Z" id="Path" fill="#1FBF53"></path>
                <path d="M361.403388,140.410156 L351.589347,140.410156 C351.589347,140.410156 345.75397,146.945873 344.958215,163.4158 L341.775305,176.487182 C341.775305,176.487182 335.144173,192.172846 339.122862,194.787123 C343.10155,197.401401 350.793611,197.139977 352.385078,191.911417 C353.976544,186.682858 364.851562,156.357244 364.851562,156.357244 L361.403388,140.410156 Z" id="Path" fill="#1FBF53"></path>
                <path d="M358.743631,98.4704661 C363.677751,96.4404023 369.330726,97.3702928 373.360406,100.874863 C378.425785,105.410268 379.447777,112.808997 380.728287,119.498324 C382.008797,126.187651 384.584823,133.637006 390.868615,136.215849 C388.036223,136.595464 385.161206,136.511534 382.355606,135.96733 L391.851562,144.505282 L375.855132,139.274055 C370.834697,137.63225 365.562046,135.969828 360.363153,136.89704 C351.750539,138.433087 345.754502,146.556363 337.482232,149.410156 L338.401484,144.909652 L332.851562,144.866972 C334.181122,143.879992 335.268669,142.601625 336.031384,141.129222 C335.502835,140.485212 334.73703,140.083203 333.90834,140.014731 C331.594869,125.536617 340.163924,111.224865 351.331124,101.765929 C353.527652,99.9053993 355.958204,98.1183822 358.795167,97.6529893 C361.63213,97.1875965 364.943933,98.4603266 365.930466,101.169298" id="Path" fill="#2F2E41"></path>
                <path d="M116.851562,230.410156 C116.851562,260.810546 136.083981,285.410156 159.851562,285.410156" id="Path" fill="#3F3D56"></path>
                <path d="M159.851562,285.410156 C159.851562,255.009766 180.873045,230.410156 206.851562,230.410156" id="Path" fill="#1FBF53"></path>
                <path d="M131.851562,233.410156 C131.851562,262.152344 143.927733,285.410156 158.851562,285.410156" id="Path" fill="#1FBF53"></path>
                <path d="M158.851562,285.410156 C158.851562,246.166014 183.451156,214.410156 213.851562,214.410156" id="Path" fill="#3F3D56"></path>
                <path d="M150.851562,286.555908 C150.851562,286.555908 156.763961,286.376606 158.545808,285.127247 C160.327655,283.877889 167.640565,282.386082 168.082599,284.389781 C168.524633,286.39348 176.967833,294.355261 170.292764,294.408276 C163.617695,294.46129 154.782876,293.384486 153.004455,292.317808 C151.226035,291.25113 150.851562,286.555908 150.851562,286.555908 Z" id="Path" fill="#A8A8A8"></path>
                <path d="M170.413252,293.698483 C163.737717,293.752448 154.902285,292.656709 153.123741,291.571274 C151.769287,290.744662 151.229549,287.778578 151.048958,286.410156 C150.923888,286.415543 150.851562,286.417865 150.851562,286.417865 C150.851562,286.417865 151.226066,291.195602 153.004615,292.281037 C154.783164,293.366471 163.618591,294.462206 170.294126,294.408241 C172.221087,294.39267 172.886694,293.705791 172.850145,292.68846 C172.582445,293.30309 171.847512,293.686899 170.413252,293.698483 Z" id="Path" fill="#000000" opacity="0.2"></path>
            </g>
        </g>
    </g>
</svg>