<?xml version="1.0" encoding="UTF-8"?>
<svg width="80px" height="80px" viewBox="0 0 80 80" version="1.1" xmlns="http://www.w3.org/2000/svg" xmlns:xlink="http://www.w3.org/1999/xlink">
    <!-- Generator: Sketch 60 (88103) - https://sketch.com -->
    <title>contract</title>
    <desc>Created with Sketch.</desc>
    <g id="Page-1" stroke="none" stroke-width="1" fill="none" fill-rule="evenodd">
        <g id="hesiod-Library" transform="translate(-279.671875, -671.000000)">
            <g id="2-copy-2" transform="translate(130.671875, 594.000000)">
                <g id="library">
                    <g id="contract" transform="translate(149.000000, 77.000000)">
                        <path d="M77.9387803,25.1760938 C75.1971807,22.4345313 70.7360846,22.4346875 67.9935474,25.1767188 C67.1500504,26.0209375 61.7645141,31.4104688 60.9417998,32.2339063 L60.9417998,13.6603125 C60.9417998,11.7821875 60.210342,10.0165625 58.8821233,8.68859375 L52.2527493,2.059375 C50.9246868,0.73125 49.158781,0 47.2805234,0 L7.03174614,0 C3.15444132,0 0,3.15421875 0,7.03125 L0,72.96875 C0,76.8457813 3.15444132,80 7.03174614,80 L53.9100537,80 C57.7873585,80 60.9417998,76.8457813 60.9417998,72.96875 L60.9417998,52.1298438 L77.9386241,35.1198438 C80.6867867,32.3720313 80.6874118,27.9242188 77.9387803,25.1760938 Z M46.8784638,4.6875 C47.3213076,4.6875 48.174649,4.61078125 48.9379841,5.37390625 L55.5675144,12.003125 C56.3113169,12.7470312 56.2541253,13.5621875 56.2541253,14.0625 L46.8784638,14.0625 L46.8784638,4.6875 Z M56.2539691,72.96875 C56.2539691,74.2610938 55.2026449,75.3125 53.9100537,75.3125 L7.03174614,75.3125 C5.7393112,75.3125 4.68783076,74.2610938 4.68783076,72.96875 L4.68783076,7.03125 C4.68783076,5.73890625 5.7393112,4.6875 7.03174614,4.6875 L42.1904768,4.6875 L42.1904768,16.40625 C42.1904768,17.700625 43.2399259,18.75 44.5343922,18.75 L56.2539691,18.75 L56.2539691,36.9254688 C56.2539691,36.9254688 49.3387937,43.8460938 49.3384812,43.84625 L46.0252786,47.159375 C45.768073,47.4165625 45.5739968,47.7303125 45.4589887,48.0754688 L42.1440673,58.0192188 C41.8632662,58.8614063 42.0825004,59.79 42.7103572,60.4176563 C43.3389953,61.04625 44.2679671,61.264375 45.108964,60.9839063 L55.0534156,57.669375 C55.3985962,57.554375 55.7123684,57.3604688 55.969574,57.103125 L56.2539691,56.81875 L56.2539691,72.96875 Z M50.9973482,48.8167187 L54.3121133,52.13125 L53.0459302,53.3973437 L48.0738607,55.0545312 L49.7311651,50.0826562 L50.9973482,48.8167187 Z M57.6262534,48.8159375 L54.3114883,45.5014062 C56.0766128,43.735 63.9160722,35.889375 65.5786895,34.2254687 L68.8934546,37.54 L57.6262534,48.8159375 Z M74.6232339,31.8059375 L72.2069697,34.2240625 L68.8922045,30.9095312 L71.3092501,28.490625 C72.2236896,27.5767187 73.710357,27.576875 74.6241715,28.490625 C75.5378297,29.4046875 75.5426738,30.8864062 74.6232339,31.8059375 Z" id="Shape" fill="#333333" fill-rule="nonzero"></path>
                        <path d="M44.625,23 L11.375,23 C10.0633667,23 9,24.1193333 9,25.5 C9,26.8806667 10.0633667,28 11.375,28 L44.625,28 C45.9366333,28 47,26.8806667 47,25.5 C47,24.1193333 45.9366333,23 44.625,23 Z" id="Path" fill="#1FBF53"></path>
                        <path d="M34.6666667,33 L11.3333333,33 C10.0447111,33 9,34.1193333 9,35.5 C9,36.8806667 10.0447111,38 11.3333333,38 L34.6666667,38 C35.9552889,38 37,36.8806667 37,35.5 C37,34.1193333 35.9552889,33 34.6666667,33 Z" id="Path" fill="#1FBF53"></path>
                        <path d="M34.6666667,42 L11.3333333,42 C10.0447111,42 9,43.1193333 9,44.5 C9,45.8806667 10.0447111,47 11.3333333,47 L34.6666667,47 C35.9552889,47 37,45.8806667 37,44.5 C37,43.1193333 35.9552889,42 34.6666667,42 Z" id="Path" fill="#1FBF53"></path>
                        <path d="M34.6666667,52 L11.3333333,52 C10.0447111,52 9,53.1193333 9,54.5 C9,55.8806667 10.0447111,57 11.3333333,57 L34.6666667,57 C35.9552889,57 37,55.8806667 37,54.5 C37,53.1193333 35.9552889,52 34.6666667,52 Z" id="Path" fill="#1FBF53"></path>
                        <path d="M44.625,66 L30.375,66 C29.0633667,66 28,67.1193333 28,68.5 C28,69.8806667 29.0633667,71 30.375,71 L44.625,71 C45.9366333,71 47,69.8806667 47,68.5 C47,67.1193333 45.9366333,66 44.625,66 Z" id="Path" fill="#1FBF53"></path>
                    </g>
                </g>
            </g>
        </g>
    </g>
</svg>