<?xml version="1.0" encoding="UTF-8"?>
<svg width="69px" height="81px" viewBox="0 0 69 81" version="1.1" xmlns="http://www.w3.org/2000/svg" xmlns:xlink="http://www.w3.org/1999/xlink">
    <!-- Generator: Sketch 60 (88103) - https://sketch.com -->
    <title>timeline</title>
    <desc>Created with Sketch.</desc>
    <g id="Page-1" stroke="none" stroke-width="1" fill="none" fill-rule="evenodd">
        <g id="hesiod-Library" transform="translate(-1085.671875, -670.000000)">
            <g id="2-copy-2" transform="translate(930.671875, 594.000000)">
                <g id="library">
                    <g id="timeline" transform="translate(155.000000, 76.000000)">
                        <path d="M24.00265,20.164498 C23.9992562,20.2272961 23.9992562,20.2900943 24.00265,20.3528925 C24.0556999,21.313108 24.8912801,22.0494955 25.8690411,21.9973976 L57.1309589,21.9973976 C57.1949045,22.0007304 57.2588501,22.0007304 57.3227958,21.9973976 C58.3005568,21.9452996 59.0503999,21.1247135 58.99735,20.164498 L58.99735,1.83550204 C59.0007438,1.77270387 59.0007438,1.7099057 58.99735,1.64710753 C58.9443001,0.686891977 58.1087199,-0.0494954756 57.1309589,0.00260244561 L25.8690411,0.00260244561 C25.8050955,-0.000730418041 25.7411499,-0.000730418041 25.6772042,0.00260244561 C24.6994432,0.0547003668 23.9496001,0.87528648 24.00265,1.83550204 L24.00265,20.164498 Z M27.7354323,3.66840163 L55.2645677,3.66840163 L55.2645677,18.3315984 L27.7354323,18.3315984 L27.7354323,3.66840163 Z" id="Shape" fill="#000000" fill-rule="nonzero"></path>
                        <path d="M68.9973271,51.164498 L68.9973271,32.835502 C69.0007719,32.7727039 69.0007719,32.7099057 68.9973271,32.6471075 C68.943478,31.686892 68.0953094,30.9505045 67.1028179,31.0026024 L25.8971991,31.0026024 C25.83229,30.9992696 25.767381,30.9992696 25.702472,31.0026024 C24.7099806,31.0547004 23.9488408,31.8752865 24.0026899,32.835502 L24.0026899,51.164498 C23.999245,51.2272961 23.999245,51.2900943 24.0026899,51.3528925 C24.056539,52.313108 24.9047076,53.0494955 25.8971991,52.9973976 L67.1026366,52.9973976 C67.1675456,53.0007304 67.2324546,53.0007304 67.2973637,52.9973976 C68.2900364,52.945475 69.0509948,52.1247135 68.9973271,51.164498 Z M65.2083088,49.3315984 L27.7917082,49.3315984 L27.7917082,34.6684016 L65.2083088,34.6684016 L65.2083088,49.3315984 L65.2083088,49.3315984 Z" id="Shape" fill="#000000" fill-rule="nonzero"></path>
                        <path d="M58.99735,60.835502 C59.0007438,60.7727039 59.0007438,60.7099057 58.99735,60.6471075 C58.9443001,59.686892 58.1087199,58.9505045 57.1309589,59.0026024 L25.8690411,59.0026024 C25.8050955,58.9992696 25.7411499,58.9992696 25.6772042,59.0026024 C24.6994432,59.0547004 23.9496001,59.8752865 24.00265,60.835502 L24.00265,79.164498 C23.9992562,79.2272961 23.9992562,79.2900943 24.00265,79.3528925 C24.0556999,80.313108 24.8912801,81.0494955 25.8690411,80.9973976 L57.1309589,80.9973976 C57.1949045,81.0007304 57.2588501,81.0007304 57.3227958,80.9973976 C58.3005568,80.9452996 59.0503999,80.1247135 58.99735,79.164498 L58.99735,60.835502 Z M55.2645677,77.3315984 L27.7352537,77.3315984 L27.7352537,62.6684016 L55.2645677,62.6684016 L55.2645677,77.3315984 L55.2645677,77.3315984 Z" id="Shape" fill="#000000" fill-rule="nonzero"></path>
                        <path d="M16.7958657,7.3324542 C15.7851593,2.96715665 11.3044594,0.220246347 6.7879921,1.19730176 C2.96308982,2.0244933 0.242552943,5.30385693 0.237943738,9.09197365 C0.139675498,12.8554992 2.79844904,16.1649781 6.59532735,17.0053563 L6.59532735,32.0874352 C2.07351335,33.0411468 -0.792305657,37.3570837 0.194432847,41.727549 C0.893003885,44.8219439 3.39377389,47.2390111 6.59532735,47.9142004 L6.59532735,62.9962794 C2.79844904,63.8366576 0.139675498,67.1461365 0.237943738,70.909662 C0.243290415,75.3829471 3.99942337,79.0051622 8.62761781,79 C13.2558123,78.9948268 17.0034643,75.3644146 16.9981176,70.8911295 C16.9936928,67.1028346 14.2729715,63.8236492 10.4482536,62.9962794 L10.4482536,47.9142004 C14.2624625,47.0795246 16.9529474,43.7802029 16.9018774,40.0008178 C16.9529474,36.2212546 14.2624625,32.9221111 10.4482536,32.0874352 L10.4482536,17.0053563 C14.9647209,16.028479 17.8067564,11.6977518 16.7958657,7.3324542 Z M13.2416159,70.909662 C13.1892553,73.3411632 11.134472,75.2858296 8.61803067,75.2852951 C6.11781376,75.2852951 4.09086998,73.3261947 4.09086998,70.909662 C4.09086998,68.4931294 6.11781376,66.5340289 8.61803067,66.5340289 C11.134472,66.5334944 13.1892553,68.4781608 13.2416159,70.909662 Z M13.1481423,39.9981449 C13.1498006,42.4146775 11.1241474,44.3750253 8.62393045,44.376629 C8.62208677,44.376629 8.62005872,44.376629 8.61821503,44.376629 C6.15560924,44.326021 4.18674144,42.381711 4.18729443,40.000996 C4.18674144,37.620281 6.15560924,35.6759711 8.61821503,35.6253621 C11.1184319,35.6237593 13.1466663,37.581434 13.1481423,39.9981449 Z M8.61803067,13.4676068 C6.15542487,13.4169986 4.18674144,11.4726887 4.18729443,9.09197365 C4.18674144,6.71125866 6.15560924,4.76694868 8.61821503,4.71634055 C11.134472,4.71580607 13.1892553,6.66047245 13.2418003,9.09197365 C13.1892553,11.5236531 11.134472,13.4681412 8.61803067,13.4676068 Z" id="Shape" fill="#1FBF53" fill-rule="nonzero"></path>
                        <path d="M31.9354779,9 L43.0645221,9 C44.1334898,9 45,8.32845248 45,7.5 C45,6.67154752 44.1334898,6 43.0645221,6 L31.9354779,6 C30.8665102,6 30,6.67154752 30,7.5 C30,8.32845248 30.8665102,9 31.9354779,9 Z" id="Path" fill="#000000"></path>
                        <path d="M52.1176506,13 L31.8823494,13 C30.8427247,13 30,13.6715475 30,14.5 C30,15.3284525 30.8427247,16 31.8823494,16 L52.1176506,16 C53.1572753,16 54,15.3284525 54,14.5 C54,13.6715475 53.1572753,13 52.1176506,13 Z" id="Path" fill="#000000"></path>
                        <path d="M31.9354779,40 L43.0645221,40 C44.1334898,40 45,39.3284525 45,38.5 C45,37.6715475 44.1334898,37 43.0645221,37 L31.9354779,37 C30.8665102,37 30,37.6715475 30,38.5 C30,39.3284525 30.8665102,40 31.9354779,40 Z" id="Path" fill="#000000"></path>
                        <path d="M31.8823494,44 L52.1176506,44 C53.1572753,44 54,43.3284525 54,42.5 C54,41.6715475 53.1572753,41 52.1176506,41 L31.8823494,41 C30.8427247,41 30,41.6715475 30,42.5 C30,43.3284525 30.8427247,44 31.8823494,44 Z" id="Path" fill="#000000"></path>
                        <path d="M31.9354779,68 L43.0645221,68 C44.1334898,68 45,67.3284525 45,66.5 C45,65.6715475 44.1334898,65 43.0645221,65 L31.9354779,65 C30.8665102,65 30,65.6715475 30,66.5 C30,67.3284525 30.8665102,68 31.9354779,68 Z" id="Path" fill="#000000"></path>
                        <path d="M31.8823494,75 L52.1176506,75 C53.1572753,75 54,74.3284525 54,73.5 C54,72.6715475 53.1572753,72 52.1176506,72 L31.8823494,72 C30.8427247,72 30,72.6715475 30,73.5 C30,74.3284525 30.8427247,75 31.8823494,75 Z" id="Path" fill="#000000"></path>
                    </g>
                </g>
            </g>
        </g>
    </g>
</svg>