<?xml version="1.0" encoding="UTF-8"?>
<svg width="101px" height="78px" viewBox="0 0 101 78" version="1.1" xmlns="http://www.w3.org/2000/svg" xmlns:xlink="http://www.w3.org/1999/xlink">
    <!-- Generator: Sketch 60 (88103) - https://sketch.com -->
    <title>Group 2</title>
    <desc>Created with Sketch.</desc>
    <g id="Page-1" stroke="none" stroke-width="1" fill="none" fill-rule="evenodd">
        <g id="hesiod-Library" transform="translate(-671.671875, -672.000000)">
            <g id="Group-2" transform="translate(672.000000, 672.000000)">
                <g id="ui" transform="translate(65.000000, 2.000000)">
                    <path d="M31.6334135,42 L4.71033654,42 C2.48097075,41.9975751 0.67432325,40.2081337 0.671875,38 L0.671875,30 C0.67432325,27.7918663 2.48097075,26.0024249 4.71033654,26 L31.6334135,26 C33.8627792,26.0024249 35.6694267,27.7918663 35.671875,30 L35.671875,38 C35.6694267,40.2081337 33.8627792,41.9975751 31.6334135,42 Z M4.71033654,28.6666667 C3.96727604,28.6676216 3.36514681,29.2640163 3.36418269,30 L3.36418269,38 C3.36514681,38.7359837 3.96727604,39.3323784 4.71033654,39.3333333 L31.6334135,39.3333333 C32.376474,39.3323784 32.9786032,38.7359837 32.9795673,38 L32.9795673,30 C32.9786032,29.2640163 32.376474,28.6676216 31.6334135,28.6666667 L4.71033654,28.6666667 Z" id="Shape" fill="#333333" fill-rule="nonzero"></path>
                    <path d="M31.6334135,29 L4.71033654,29 C2.48097075,28.9975751 0.67432325,27.2081337 0.671875,25 L0.671875,17 C0.67432325,14.7918663 2.48097075,13.0024249 4.71033654,13 L31.6334135,13 C33.8627792,13.0024249 35.6694267,14.7918663 35.671875,17 L35.671875,25 C35.6694267,27.2081337 33.8627792,28.9975751 31.6334135,29 Z M4.71033654,15.6666667 C3.96727604,15.6676216 3.36514681,16.2640163 3.36418269,17 L3.36418269,25 C3.36514681,25.7359837 3.96727604,26.3323784 4.71033654,26.3333333 L31.6334135,26.3333333 C32.376474,26.3323784 32.9786032,25.7359837 32.9795673,25 L32.9795673,17 C32.9786032,16.2640163 32.376474,15.6676216 31.6334135,15.6666667 L4.71033654,15.6666667 Z" id="Shape" fill="#333333" fill-rule="nonzero"></path>
                    <path d="M31.6334135,16 L4.71033654,16 C2.48097075,15.9975751 0.67432325,14.2081337 0.671875,12 L0.671875,4 C0.67432325,1.79186627 2.48097075,0.00242493333 4.71033654,0 L31.6334135,0 C33.8627792,0.00242493333 35.6694267,1.79186627 35.671875,4 L35.671875,12 C35.6694267,14.2081337 33.8627792,15.9975751 31.6334135,16 Z M4.71033654,2.66666667 C3.96727604,2.6676216 3.36514681,3.26401627 3.36418269,4 L3.36418269,12 C3.36514681,12.7359837 3.96727604,13.3323784 4.71033654,13.3333333 L31.6334135,13.3333333 C32.376474,13.3323784 32.9786032,12.7359837 32.9795673,12 L32.9795673,4 C32.9786032,3.26401627 32.376474,2.6676216 31.6334135,2.66666667 L4.71033654,2.66666667 Z" id="Shape" fill="#333333" fill-rule="nonzero"></path>
                    <path d="M8.33854167,36 L7.00520833,36 C6.26882873,36 5.671875,35.3284271 5.671875,34.5 C5.671875,33.6715729 6.26882873,33 7.00520833,33 L8.33854167,33 C9.07492127,33 9.671875,33.6715729 9.671875,34.5 C9.671875,35.3284271 9.07492127,36 8.33854167,36 Z" id="Shape" fill="#1FBF53"></path>
                    <path d="M28.3641827,36 L13.9795673,36 C13.2573489,36 12.671875,35.3284271 12.671875,34.5 C12.671875,33.6715729 13.2573489,33 13.9795673,33 L28.3641827,33 C29.0864011,33 29.671875,33.6715729 29.671875,34.5 C29.671875,35.3284271 29.0864011,36 28.3641827,36 Z" id="Shape" fill="#1FBF53"></path>
                    <path d="M8.33854167,23 L7.00520833,23 C6.26882873,23 5.671875,22.3284271 5.671875,21.5 C5.671875,20.6715729 6.26882873,20 7.00520833,20 L8.33854167,20 C9.07492127,20 9.671875,20.6715729 9.671875,21.5 C9.671875,22.3284271 9.07492127,23 8.33854167,23 Z" id="Shape" fill="#1FBF53"></path>
                    <path d="M28.3641827,23 L13.9795673,23 C13.2573489,23 12.671875,22.3284271 12.671875,21.5 C12.671875,20.6715729 13.2573489,20 13.9795673,20 L28.3641827,20 C29.0864011,20 29.671875,20.6715729 29.671875,21.5 C29.671875,22.3284271 29.0864011,23 28.3641827,23 Z" id="Shape" fill="#1FBF53"></path>
                    <path d="M8.33854167,9 L7.00520833,9 C6.26882873,9 5.671875,8.32842705 5.671875,7.5 C5.671875,6.67157295 6.26882873,6 7.00520833,6 L8.33854167,6 C9.07492127,6 9.671875,6.67157295 9.671875,7.5 C9.671875,8.32842705 9.07492127,9 8.33854167,9 Z" id="Shape" fill="#1FBF53"></path>
                    <path d="M28.3641827,9 L13.9795673,9 C13.2573489,9 12.671875,8.32842705 12.671875,7.5 C12.671875,6.67157295 13.2573489,6 13.9795673,6 L28.3641827,6 C29.0864011,6 29.671875,6.67157295 29.671875,7.5 C29.671875,8.32842705 29.0864011,9 28.3641827,9 Z" id="Shape" fill="#1FBF53"></path>
                </g>
                <path d="M63.081536,68.3183309 L63.081536,55.003935 C63.081536,49.8970588 59.8550756,45.4835707 55.054437,44.015022 L40.552416,39.5869715 L40.552416,36.0797046 C44.6325187,33.1706112 47.311152,28.371783 47.311152,22.9411764 L47.311152,16.7634135 C48.577315,15.5681871 49.6498684,14.1343636 50.4562084,12.4933075 L52.7432219,7.83898216 L47.2506489,5.97389146 C44.9614352,5.19873033 42.7899271,4.11552167 40.7845276,2.75787002 C38.1278954,0.95214851 35.0422421,0 31.8564837,0 C22.9867427,0 15.7659838,7.34610532 15.7615836,16.3780735 L15.7571833,23.3309972 C15.7549831,27.5159696 17.3522628,31.4500229 20.2586071,34.4095245 C20.9615421,35.1253161 21.72278,35.7604549 22.52912,36.318302 L22.52912,39.5869715 L8.02709898,44.0172622 C3.22646033,45.4835707 0,49.8992993 0,55.0061752 L0,78 L59.8957776,78 L64,78 C64,69.8286995 63.6938453,66.6014764 63.081536,68.3183309 Z M31.3042562,57.3529412 L31.7750796,57.3529412 L33.5274669,73.4117647 L29.5518691,73.4117647 L31.3042562,57.3529412 Z M32.1688993,52.7647059 L30.9104367,52.7647059 L29.3098571,47.8785043 C29.9995914,48.0644531 30.7388282,48.1764706 31.540768,48.1764706 C32.3427078,48.1764706 33.0819445,48.0644531 33.7683787,47.8785043 L32.1688993,52.7647059 Z M31.8564837,4.58823523 C34.1522979,4.58823523 36.3733081,5.2737821 38.2863033,6.56982408 C40.6195192,8.15823185 43.1562455,9.41954835 45.823878,10.3235293 L46.387106,10.5161994 C44.6732207,13.9372129 41.2729519,16.0588235 37.4997641,16.0588235 C35.5240659,16.0588235 33.6066708,15.4673713 31.962089,14.3516773 L27.1999523,11.1177334 L25.5542705,11.9545036 C24.0020933,12.7464672 22.3223097,13.2875116 20.6073244,13.5608342 C21.8514863,8.41475177 26.4244136,4.58823523 31.8564837,4.58823523 Z M20.2652044,18.2308422 C22.5379204,17.9832836 24.7754315,17.3638271 26.8589352,16.4004767 L29.4616648,18.1692325 C33.3976603,20.8397288 38.5899184,21.3102022 42.805328,19.635541 L42.805328,22.9411764 C42.805328,29.2656825 37.7230753,34.4117647 31.4758647,34.4117647 L31.1370478,34.4117647 C28.2307035,34.4117647 25.5003676,33.2602251 23.4465655,31.1677389 C21.3938635,29.0752527 20.2630073,26.2927389 20.2652044,23.3354779 L20.2652044,18.2308422 Z M31.1348479,39 L31.4736647,39 C33.0632437,39 34.5956198,38.7546819 36.044392,38.3122129 L36.044392,40.661219 C35.4877642,41.5394359 33.935587,43.5882353 31.540768,43.5882353 C29.145949,43.5882353 27.5937718,41.5394359 27.034944,40.661219 L27.034944,38.4242303 C28.3550096,38.7961283 29.7289778,39 31.1348479,39 Z M4.505824,55.0061752 C4.505824,51.9413774 6.44082026,49.2932849 9.32296354,48.4128275 L23.3376603,44.1315202 L26.994242,55.3041418 L25.0185438,73.4117647 L18.023296,73.4117647 L18.023296,55.0588235 L13.517472,55.0588235 L13.517472,73.4117647 L4.505824,73.4117647 L4.505824,55.0061752 Z M58.575712,73.4117647 L49.564064,73.4117647 L49.564064,55.0588235 L45.05824,55.0588235 L45.05824,73.4117647 L38.0629921,73.4117647 L36.0872939,55.3041418 L39.7438757,44.1315202 L53.7585724,48.4128275 C56.6407157,49.2910444 58.575712,51.9413774 58.575712,55.0061752 L58.575712,73.4117647 Z" id="Shape" fill="#333333" fill-rule="nonzero"></path>
            </g>
        </g>
    </g>
</svg>